M48
;Layer_Color=9474304
;FILE_FORMAT=2:4
INCH,TZ
;TYPE=PLATED
T01F00S00C0.0118
T02F00S00C0.0181
T03F00S00C0.0280
T04F00S00C0.0390
T05F00S00C0.0394
T06F00S00C0.0402
T07F00S00C0.0433
T08F00S00C0.0500
T09F00S00C0.0591
T10F00S00C0.0669
T11F00S00C0.1260
;TYPE=NON_PLATED
T12F00S00C0.0394
%
T01
X565Y1169
X1165
X1765
X2365
X2965
X2665Y1769
X2965Y2369
X2665Y2969
X2965Y3569
X2665Y4169
X2965Y4769
X1165
X1465Y4169
X865
X1165Y3569
X1765
X1465Y2969
X865
X1165Y2369
X1465Y1769
X865
X565Y3569
X925Y6398
X1240
Y7795
Y8110
X1890Y8346
X2303
X2795
X3386
X4882Y8386
X5065Y7769
X5413Y8018
X4765Y7169
Y5969
X5365
X5965
X6565
X7165
X7765
X8365
X8965
X9265Y6569
X9865
X10465
X11065
X11665
X12265
X12865
X13465
X14065
X14665
X15265
X15865
X16465
X16765Y7169
X17365
X17665Y7769
X18265
X17965Y8369
X17365
X16765
X16165
X15565
X14965
X14365
X14665Y8969
X15265
X15865
X16465
X17065
X17665
X17065Y7769
X16465
X15865
X15265
X14665
X14965Y7169
X15565
X16165
Y5969
X15565
X14965
X14365
X13765
X13165
X12565
X11965
X11365
X11665Y5369
X12265
X12865
X13465
X14065
X14665
X15265
X15865
X16465
X17065
X17665
X18265
X18565Y5969
X17965
Y4769
X18565
X18265Y4169
X17665
X17065
X16465
X15865
X15265
X14665
X14065
X13465
X12865
X13165Y4769
X13765
X14365
X14965
X15565
X16165
X16765
X17365
Y3569
X17965
X18565
X16765
X16165
X15565
X14965
X14365
X13765
X13165
X12565
X11965
X11365
X11665Y2969
X12265
X12865
X13465
X13765Y2369
X13165
X12565
X11965
X11365
X10765
X10165
X9565
X8965
X8365
X7765
X7165
X6565
X5965
X5365
X5665Y2969
X6265
X6865
X7465
X8065
X8665
X9265
Y1769
X9865
X10465
X11065
X11665
X12265
X12865
X13465
X14065
X14665
X15265
X15865
X16465
X17065
X17665
X18265
X18565Y1169
X17965
X17365
X12565Y4769
X11365
Y7169
X10765Y8369
X12265Y8969
X13165Y8369
X14065Y8969
X14365Y7169
X10165Y5969
X8665Y6569
X8065
X7465
X6865
X6265
X5965Y6929
X6565Y7169
X7165
X8365
X8965
X7559Y5138
Y4449
Y3661
X7465Y1769
X8065
X8665
X6865
X6265
X5665
X5965Y1169
X5365
X4765
X4165
X3565
X3865Y1769
X3265
X4165Y2369
X4465Y2969
X5065
X4165Y3569
Y5969
X3565
X19165
X19765
X20365
X20965
X20665Y6569
X20965Y7169
X20665Y5369
X20065
X19465
X18865
X19165Y4769
X19765
X20365
X20965
X21265Y4169
X21865
X22465
X23065
X23665
X24265
X24865
X25465
X26065
X26665
X27265
X27865
X28465
X29065
X29665
X30265
X30865
X31465
X32065
X32665
X33265
X33865
X34165Y3569
X33565
X32965
X32365
X31765
X31165
X30565
X29965
X29365
X28765
X28165
X27565
X26965
X26365
X25765
X25165
X24565
X23965
X23365
X22765
X22165
X21565
X20965
X20365
X19765
X19165
X19465Y4169
X20065
X20665
X18865
Y1769
X19465
X20065
X20665
X21265
X21865
X22465
X23065
X23665
X24265
X24865
X25465
X26065
X26665
X27265
X27865
X28465
X29065
X29665
X30265
X30865
X31465
X32065
X32665
X33265
X33865
X34165Y1169
X33565
X32965
X32365
X31765
X31165
X30565
X29965
X29365
X28765
X28165
X27565
X26965
X26365
X25765
X25165
X24565
X23965
X23365
X22765
X22165
X21565
X20965
X20365
X19765
X19165
X25165Y4769
X28165
X27565Y8369
X27865Y8969
X28465
X29665
X32065
X32365Y8369
X31765
X32065Y7769
X32365Y7169
X31765
X32906Y8834
X33156Y8583
X33691Y8877
X26665Y8969
X25315Y8031
X24998
X24681
X24477Y8701
X23877
X23277
X22677
X35039Y8346
X35965Y8369
X36265Y7769
X36148Y7107
X36399Y6856
X36648Y6604
X36870Y6260
X36811Y5906
X36870Y5551
X36850Y5197
X37165Y4769
X37765
X38065Y5369
X37465
X37765Y5969
X38365
X38965
Y4769
Y3569
Y2369
X38665Y1769
X38965Y1169
X38365
X37765Y2369
X36265Y1769
X36565Y1169
X34765
X34465Y1769
X35365Y2369
X35065Y2969
X34465Y4169
X35965Y4769
X36102Y5138
X37165Y5969
X37465Y6569
X38065
X38365Y7169
X37765
X37165
X35635Y6779
X34331Y7165
X35665Y8969
X38665
X38965Y8369
X38365
X38665Y7769
X38965Y9569
X38365
X38665Y10169
X38965Y10769
X38365
X38665Y11369
X38965Y11969
X38365
X38665Y12569
X38965Y13169
X38365
X38665Y13769
X38965Y14369
X38365
X38665Y14969
X38965Y15569
X38365
X38665Y16169
X38965Y16769
X38365
X38665Y17369
X38965Y17969
X38365
X38665Y18569
X38965Y19169
X38365
X38665Y19769
X38965Y20369
X38665Y20969
X38965Y21569
X38665Y22169
X38065
X37465
X37765Y22769
X38365
X38965
Y23969
X38665Y24569
X38065
X37465
X36865
X36265
X35665
X35365Y23969
X35665Y23369
X35965Y22769
X36565
X37165
X35365
X35846Y22126
X34587Y18871
Y18425
X34364Y18648
X34809
X34364Y19093
X34765Y15569
X35365
Y14369
X35965
X36265Y13769
X35665
X35065
X35365Y13169
X35965
X34465Y12569
X34765Y11969
X34465Y11369
X34765Y10769
X34587Y10413
X34510Y10062
Y9708
X34921Y9705
X35365Y9569
X35965
X35665Y10169
X35065
X35365Y10769
X34765Y14369
X34165
X33819Y14823
X33504Y15138
X33209Y15453
X32972Y15866
X32598Y16220
X32244Y16575
X31570Y16235
X31535Y15787
X31165Y15761
X31122Y15374
X31004Y14764
Y14449
X31319
X31634
Y14764
X31319
X31465Y13769
X32065
X32665
X33265
X33565Y13169
X32965
X32365
X31765
X32065Y12569
X32665
X33265
X33865
X34165Y11969
X33565
X32965
X33265Y11369
X33865
X33268Y10748
X32982Y11002
X32731Y11252
X32481Y11503
X32230Y11753
X31980Y12004
X31729Y12255
X31478Y12505
X31228Y12756
X30977Y13006
X30727Y13257
X30476Y13507
X30226Y13758
X29975Y14008
X29725Y14259
X29474Y14510
X29449Y14882
Y15394
X28976Y15877
X28504Y16083
X28031Y16043
X27382Y16004
X27638Y15512
X26965Y15569
X26365
X25765
X25165
X25465Y16169
X26065
X26665
X27038Y16617
X26788Y16867
X26537Y17118
X26187Y17175
X25833
X25479
X25235Y16918
X25139Y16577
X24889Y16326
X24643Y16070
X24393Y15820
X24154Y15551
X23781Y15523
X23425Y15532
X23130Y15728
X22765Y15569
X22165
X21565
X20965
X21265Y16169
X21865
X22465
X22165Y16769
X21565
X20965
X21265Y17369
X20965Y17969
X20665Y19769
X20365Y20369
X20665Y20969
X20365Y21569
X20614Y22018
X20471Y22342
X21142Y22323
X21059Y22689
X20862Y22984
X20611Y23234
X20361Y23485
X20110Y23735
X20665Y24569
X21846Y20786
X22362Y21142
X22697Y20886
X22933Y20591
X22874Y19705
X23602Y19783
X23358Y20069
X24865Y19769
X25465
X26065
X26365Y19169
X25765
X25165
X25465Y18569
X26065
X26665
X27265
X27565Y17969
X27795Y17520
X27220Y17275
X27470Y17025
X28043Y16921
X28307Y15591
X28681Y14921
X28760Y14567
X28903Y14240
X29154Y13989
X29405Y13739
X29655Y13488
X29906Y13238
X30156Y12987
X30407Y12736
X30657Y12486
X30908Y12235
X31158Y11985
X31409Y11734
X31660Y11484
X31910Y11233
X32161Y10983
X32411Y10732
X32662Y10482
X32579Y10137
X32570Y9783
Y9428
X32656Y9085
X33332Y9562
X33547Y9851
X33839Y9272
X31765Y9569
X32065Y10169
X31765Y10769
X30565
X29965
X30265Y10169
X30865
X30565Y11969
X29665Y11369
X29365Y13169
X28465Y13769
X28165Y14369
X27865Y14969
X27265
X26665
X26065
X25465
X24865
X24265
X23665
X23065
X22465
X21865
X21265
X20965Y11969
X20365
Y10769
X19165
X21816Y10797
X22416
X23016
X22716Y10197
X22116
X21516
X23316
X23577Y9301
X22977
X24177
X24322Y11145
X23501Y11476
X23665Y13769
X24980Y13563
X25295
X25610
X25925
X26665Y13769
X27265
X27565Y13169
X27865Y12569
X28465
X27492Y11363
X27000
X26508
X25996
X26665Y10169
X27565Y9569
X30865Y13769
X30565Y14369
X32365
X34165Y15569
X33760Y18327
X33386Y18386
X33346Y18740
X34141Y18871
X31417Y20610
X31142Y20354
X30846Y20610
Y21181
X31161
X31476
Y21496
X31161
X30846
X26965Y20369
X25165
X24865Y20969
X25765Y21569
X25165Y22769
X24240Y18604
X24469Y17283
X24626Y16949
X24086Y16390
X23748Y16362
X23033Y17143
X22717Y16949
X25765Y16769
X26365
X26341Y17769
X25987
X25633
X25278
X26713Y17756
X28504Y18445
X28477Y18810
X28091Y18858
X29882Y16693
X17965Y14369
X17365
X17665Y13769
X18265
X17965Y13169
X17365
X16765
X16165
X16465Y12569
X17065
X17665
X17965Y11969
X17365
X16765
X16165
X15565
X14965
X15265Y11369
X15865
X16465
X17065
X17665
X17965Y10769
X17365
X16765
X16165
X15565
X14965
X14365
X13765
X14065Y10169
X14665
X15265
X15865
X16465
X17065
X17665
X17965Y9569
X17365
X16765
X16165
X15565
X14965
X14365
X13765
X13165
X13465Y10169
X12865
X11965Y9569
X11065Y10169
X9865
X9265
X8665
X8065
X9565Y9569
X10165
X6565
X6566Y11532
X5366
X4429Y11398
Y10807
X3701Y10709
X3110
X3150Y12736
X3740
X4429Y12579
Y11988
X5366Y12732
X6566
X5966Y13632
X5256Y14350
X4296Y14890
Y13690
X3396Y14290
X3543Y16634
X3051
X4055
X4528
X7992Y14075
Y13563
X11665Y14969
X12565Y15569
X12865Y16169
X13765Y16769
X11289Y17712
Y18312
Y18912
Y19512
X10689Y19812
Y19212
Y18612
Y18012
X10089Y18312
Y18912
Y19512
Y17712
X10305Y22781
X9105
Y23981
X9705Y23681
X10305Y23981
X6112Y24198
Y23598
Y22998
X5374Y23594
Y24194
X17365Y20369
X16165Y19169
X17065Y13769
X15865Y12569
X14665Y11369
X2402Y11398
Y11988
Y12579
X1684Y12338
X1084Y12038
Y13238
X1594Y14331
X2496Y14890
Y13690
X2402Y10807
X1684Y11138
X1378Y9547
Y16417
X886
X2727Y26650
Y27250
Y27850
Y28450
X2870Y29597
X1024Y29783
X2264Y31043
X1765Y32369
X1165
X565
X865Y32969
X1465
X2065
X2365Y33569
X2965
X2665Y34169
X1465
X865
X1165Y33569
X1765
X565
Y34769
Y35969
X3565
X4165
X3865Y35369
X4165Y34769
X3565
X3265Y34169
X3565Y32369
X4165
X4213Y31614
X4070Y30797
X4670
X4370Y30197
X3770
X3170
X3470Y29597
X4070
X4670
X3927Y28450
Y27850
Y27250
Y26650
X3327Y26350
Y26950
Y27550
Y28150
X6443Y27405
Y26805
Y26205
Y25605
X6112Y24798
X5374Y24794
Y25394
X9705Y24881
X9670Y26470
X9882Y27106
X10518Y27318
X10730Y26258
X12265Y26969
X12865
X13465
X13765Y27569
X13165
X12565
X11965
X12265Y28169
X12865
X13465
X14065
X13765Y28769
X13165
X12565
X11965
X11365
X11665Y29369
X12265
X12865
X13465
X14065
X13765Y29969
X13165
X12565
X11965
X11365
X10765
X10165
X10465Y30569
X11065
X11665
X12265
X12865
X13465
X14065
X13765Y31169
X13165
X12565
X11965
X11365
X10765
X10165
X9565
X9865Y31769
X10465
X11065
X11665
X12265
X12865
X13465
X14065
X13765Y32369
X13165
X12565
X11965
X11365
X10765
X10165
X9565
X9265Y31769
X8209Y31594
X8365Y32369
X7165
X6565
Y33569
X5365
Y34769
Y32369
X4937Y32638
X6535Y29193
X6850
X7165
X7243Y29508
X10465Y29369
X11065
X11665Y28169
X9670Y28167
X8821Y27318
X9865Y30569
X10465Y32969
X11065
X11665
X12265
X12865
X13465
X14065
X13765Y33569
X13165
X12565
X11965
X11365
X10765
X10165
X10465Y34169
X11065
X11665
X12265
X12565Y34769
X13165
X13765
X14965
X15565
X16165
X16465Y34169
X17065
X17365Y33569
X17965
X18565
X18265Y34169
Y32969
X17665
X17065
X16465
X15865
X15265
X15565Y33569
X16165
X16765
Y32369
X17365
X17965
X18565
X18265Y31769
X17665
X17065
X16465
X15865
X15265
X15565Y32369
X16165
Y31169
X16765
X17365
X17965
X18565
X18265Y30569
X17665
X17065
X16465
X15865
X15265
X15565Y31169
X14965
Y32369
Y33569
X15865Y34169
Y35369
X15265
X15565Y35969
X16165
X13165
X12565
X11965
X11365
X10765
X10165
X9565
X9865Y35369
X10465
X11065
X11665
X12265
X12865
X11965Y34769
X11365
X10765
X10165
X9865Y34169
X8365Y34769
Y35969
X14965Y29969
X15565
X16165
X16765
X17365
X17065Y29369
X16465
X15865
X15265
X15565Y28769
X16165
X15865Y28169
X15265
X14965Y28769
Y27569
X17665Y28169
X17965Y28769
X18865Y29369
X19465
X20065
X20665
X21265
X21865
X22465
X23065
X23665
X24265
X24865
X25465
X26065
X26665
X27265
X27865
X28465
X29065
X29665
X30265
X30865
X31465
X32065
X32365Y29969
X32965
X33265Y30569
X32665
X32065
X31465
X30865
X30265
X29665
X29065
X28465
X27865
X27265
X26665
X26065
X25465
X24865
X24265
X23665
X23065
X22465
X21865
X21265
X20665
X20065
X20365Y31169
X20965
X21565
X22165
X22765
X23365
X23965
X24565
X25165
X25765
X26365
X26965
X27565
X28165
X28765
X29365
X29965
X30565
X31165
X31765
X32365
X32965
X33265Y31769
X33865
X34165Y32369
X33565
X32965
X32365
X31765
X31165
X30565
X29965
X29365
X28765
X28165
X27565
X26965
X26365
X25765
X25165
X24565
X23965
X23365
X22765
X22165
X21565
X21865Y31769
X22465
X23065
X23665
X24265
X24865
X25465
X26065
X26665
X27265
X27865
X28465
X29065
X29665
X30265
X30865
X31465
X32065
X32665
Y32969
X33265
X33865
X32065
X31465
X30865
X30265
X29665
X29065
X28465
X27865
X27265
X26665
X26065
X25465
X24865
X24265
X23665
X23065
X22465
X21865Y34169
X21265
X20665
X20065
X19465
X18865
X19165Y34769
X19765
X20365
X20965
X21565
X22165
X22765
X23365
X23965
X24565
X25165
X25765
X26365
X26965
X27565
X28165
X28765
X29365
X29965
X30565
X31165
X31765
X32065Y35369
X31465
X30865
X30265
X29665
X29065
X28465
X27865
X27265
X26665
X26065
X25465
X24865
X24265
X23665
X23065
X22465
X21865
X21265
X20665
X20065
X19465
X19765Y35969
X20365
X20965
X21565
X22165
X22765
X23365
X23965
X24565
X25165
X25765
X26365
X26965
X27565
X28165
X28765
X29365
X29965
X30565
X31165
X31765
Y29969
X31165
X30565
X29965
X29365
X28765
X28165
X27565
X26965
X26365
X25765
X25165
X24565
X23965
X23365
X22765
X22165
X21565
X20965
X20365
X19765
X19165
X19465Y31769
X18865
X19165Y32369
X19765
X20065Y32969
X20665
X20965Y33569
X20365
X19765
X19165
X19465Y32969
X18865
X19165Y35969
X21265Y31769
X21565Y28769
X22165
X22765
X23365
X23965
X24565
X25165
X25765
X26365
X26965
X27565
X28165
X28765
X29365
X29965
X30565
X31165
X31765
X32965
X33565
X34173Y28760
X33865Y29369
X34165Y29969
X33799Y30315
X33565Y27569
X34165
X33865Y26969
X33265
X33565Y26369
X34165
X33865Y25769
X33265
X32665
X32065
X32365Y26369
X32965
Y25169
X33565
X34165
X32365
X31765
X31165
Y26369
X30565
X30265Y25769
X29665
X29065
X28465
X27865
X27265
X26665
X26065
X25465
X24865
X24265
X23665
X23065
X22465
X21865
X21265
X20665
X20065
X19465
X19765Y27569
X20365
X20965
X21565
X22165
X22765
X23365
X23965
X24565
X25165
X25765
X26365
X26965
X27565
X28165
X28765
X29365
X29965
X30565
X30865Y28169
X30265
X29665
X29065
X28465
X27865
X27265
X26665
X26065
X25465
X24865
X24265
X23665
X23065
X22465
X21865
X21265
X20965Y28769
X19165Y27569
X23065Y26969
X23665
X24265
X24865
X25465
X26065
X26665
X27265
X27865
X28465
X29065
X29665
X31465
X31765Y27569
X32365
X32665Y28169
X34465
X34765Y27569
X35365
X35965
X36565
X37165
X37465Y28169
X38065
X38665
X38965Y28769
X38365
X37765
X37165
X36565
X36865Y29369
X37465
X38065
X38665
X38965Y29969
X38365
X37765
X37165
X36565
X35965
X36265Y29369
Y28169
X36865
Y26969
X37465
X38065
X38665
X38965Y27569
Y26369
X38365
X37765
X37165
X36565
X35965
X35365
X34765
X35065Y26969
X35665
X36265
Y25769
X36865
X37465
X38065
X38665
X38965Y25169
X38365
X37765
X37165
X36565
X35965
X35365
X34765
X35065Y25769
X35665
X34465
Y26969
X35665Y28169
X34765Y29969
X35065Y30569
X35365Y31169
X35965
X37165
X37465Y30569
X38065
X38665
X38965Y31169
X38365
X38665Y31769
X38965Y32369
X38665Y32969
X38965Y33569
X38665Y34169
X38965Y34769
X38665Y35369
X38065
X37465
X36865
X36265
X35665
X35065
X35365Y35969
X35965
X36565
X37165
X37765
X38365
X38965
X34765
Y34769
X35365Y33569
X35965
X35665Y32969
X35065
X34465
X34765Y32369
X35365
X34465Y31769
X37165Y32369
X36865Y30569
T02
X3943Y6737
X4331
T03
X30955Y17114
X31450Y17609
X30446Y17623
X30941Y18118
X29944Y18125
X30432Y18627
X31485Y18634
X31980Y18139
X30962Y19157
T04
X472Y2185
X2244Y2185
Y4744
X472Y4744
T05
X14339Y2638
X15339
X16339
X17339
X18339
X19339
X20339
X21339
X22339
X23339
X24339
X25339
X26339
X27339
X28339
X29339
X30339
X31339
X32339
X33339
X34339
X38339
Y23638
X37339
X36339
X16339
X15339
X14339
Y26945
X15339
X16339
X17339
X18339
X19339
X20339
X21339
X22339
T06
X7835Y16871
X8543Y17578
X14740Y18291
X15447Y18998
X14516Y35492
X13516
T07
X4744Y2382
X9705Y3450
X9705Y4450
X10705Y4450
Y5450
X9705
X10705Y3450
X17028Y6575
X18701Y8228
X19701
X21704Y6222
Y5222
X22704
X23704
X24704
X25704
X26704
X27704
X28704
X29704
X30704
X31704
X32704
Y6222
X31704
X30704
X29704
X28704
X27704
X26704
X25704
X24704
X23704
X22704
X33704
Y5222
X34704
Y6222
X36708Y8228
X37708
X38661Y6555
X37708Y9228
X36708
Y10228
X37708
Y11228
X36708
Y12228
Y13228
Y14228
Y15228
Y16228
Y17228
X37708
Y16228
Y15228
Y14228
Y13228
Y12228
Y18228
X36708
Y19228
Y20228
Y21228
X37708
Y20228
Y19228
X34705Y23230
Y24230
X33705
Y23230
X32705
Y24230
X31705
Y23230
X30705
Y24230
X29705
Y23230
X28705
X27705
X26705
X25705
Y24230
X26705
X27705
X28705
X24705
Y23230
X23705
X22705
X21705
Y24230
X22705
X23705
X19701Y21228
X18701
Y20228
Y19228
Y18228
Y17228
Y16228
Y15228
Y14228
Y13228
Y12228
Y11228
Y10228
X19701
Y11228
Y12228
Y13228
Y14228
Y15228
Y16228
Y17228
Y18228
Y19228
Y20228
Y9228
X18701
X9980Y22362
X8933Y34157
X8933Y35157
X7933
Y34157
X6933Y34157
X5933
X5933Y35157
X6933
X4933Y35157
Y34157
X37854Y34425
Y33425
Y32425
Y31425
X37756Y27559
T08
X9854Y7717
X10854
X11854Y7717
X12854Y7717
X13854
X1673Y20138
Y21138
Y22138
Y23138
T09
X36476Y2618
X18740Y23661
T10
X35476Y1618
X37476
Y3618
X35476
X19740Y22661
X17740
Y24661
X19740
T11
X1937Y18110
Y35433
X17685
X33433
T12
X1476Y27520
Y30669
M30
