G04*
G04 #@! TF.GenerationSoftware,Altium Limited,Altium Designer,24.2.2 (26)*
G04*
G04 Layer_Color=8388736*
%FSLAX44Y44*%
%MOMM*%
G71*
G04*
G04 #@! TF.SameCoordinates,02CEA6E1-F361-457A-AF05-86797ADE389F*
G04*
G04*
G04 #@! TF.FilePolarity,Negative*
G04*
G01*
G75*
%ADD17R,0.7000X0.8000*%
%ADD18R,1.2546X1.4562*%
%ADD19O,0.7000X1.6500*%
G04:AMPARAMS|DCode=20|XSize=0.7mm|YSize=1.1mm|CornerRadius=0.101mm|HoleSize=0mm|Usage=FLASHONLY|Rotation=180.000|XOffset=0mm|YOffset=0mm|HoleType=Round|Shape=RoundedRectangle|*
%AMROUNDEDRECTD20*
21,1,0.7000,0.8980,0,0,180.0*
21,1,0.4980,1.1000,0,0,180.0*
1,1,0.2020,-0.2490,0.4490*
1,1,0.2020,0.2490,0.4490*
1,1,0.2020,0.2490,-0.4490*
1,1,0.2020,-0.2490,-0.4490*
%
%ADD20ROUNDEDRECTD20*%
%ADD21R,0.8000X0.7000*%
G04:AMPARAMS|DCode=22|XSize=0.9mm|YSize=1mm|CornerRadius=0mm|HoleSize=0mm|Usage=FLASHONLY|Rotation=225.000|XOffset=0mm|YOffset=0mm|HoleType=Round|Shape=Rectangle|*
%AMROTATEDRECTD22*
4,1,4,-0.0354,0.6718,0.6718,-0.0354,0.0354,-0.6718,-0.6718,0.0354,-0.0354,0.6718,0.0*
%
%ADD22ROTATEDRECTD22*%

G04:AMPARAMS|DCode=23|XSize=0.8mm|YSize=0.7mm|CornerRadius=0mm|HoleSize=0mm|Usage=FLASHONLY|Rotation=315.000|XOffset=0mm|YOffset=0mm|HoleType=Round|Shape=Rectangle|*
%AMROTATEDRECTD23*
4,1,4,-0.5303,0.0354,-0.0354,0.5303,0.5303,-0.0354,0.0354,-0.5303,-0.5303,0.0354,0.0*
%
%ADD23ROTATEDRECTD23*%

G04:AMPARAMS|DCode=24|XSize=0.8mm|YSize=0.7mm|CornerRadius=0mm|HoleSize=0mm|Usage=FLASHONLY|Rotation=45.000|XOffset=0mm|YOffset=0mm|HoleType=Round|Shape=Rectangle|*
%AMROTATEDRECTD24*
4,1,4,-0.0354,-0.5303,-0.5303,-0.0354,0.0354,0.5303,0.5303,0.0354,-0.0354,-0.5303,0.0*
%
%ADD24ROTATEDRECTD24*%

%ADD25R,1.7000X0.8000*%
%ADD26R,1.7000X1.6000*%
%ADD27R,2.3000X1.3000*%
%ADD28R,1.9000X1.3000*%
G04:AMPARAMS|DCode=29|XSize=1mm|YSize=1.07mm|CornerRadius=0mm|HoleSize=0mm|Usage=FLASHONLY|Rotation=135.000|XOffset=0mm|YOffset=0mm|HoleType=Round|Shape=Rectangle|*
%AMROTATEDRECTD29*
4,1,4,0.7319,0.0248,-0.0248,-0.7319,-0.7319,-0.0248,0.0248,0.7319,0.7319,0.0248,0.0*
%
%ADD29ROTATEDRECTD29*%

G04:AMPARAMS|DCode=30|XSize=1mm|YSize=1.07mm|CornerRadius=0mm|HoleSize=0mm|Usage=FLASHONLY|Rotation=300.000|XOffset=0mm|YOffset=0mm|HoleType=Round|Shape=Rectangle|*
%AMROTATEDRECTD30*
4,1,4,-0.7133,0.1655,0.2133,0.7005,0.7133,-0.1655,-0.2133,-0.7005,-0.7133,0.1655,0.0*
%
%ADD30ROTATEDRECTD30*%

%ADD31R,1.0000X1.6000*%
%ADD32R,1.6000X1.0000*%
%ADD33R,1.0000X1.0000*%
G04:AMPARAMS|DCode=34|XSize=0.95mm|YSize=0.4mm|CornerRadius=0mm|HoleSize=0mm|Usage=FLASHONLY|Rotation=135.000|XOffset=0mm|YOffset=0mm|HoleType=Round|Shape=Rectangle|*
%AMROTATEDRECTD34*
4,1,4,0.4773,-0.1945,0.1945,-0.4773,-0.4773,0.1945,-0.1945,0.4773,0.4773,-0.1945,0.0*
%
%ADD34ROTATEDRECTD34*%

G04:AMPARAMS|DCode=35|XSize=0.9008mm|YSize=0.3508mm|CornerRadius=0mm|HoleSize=0mm|Usage=FLASHONLY|Rotation=135.000|XOffset=0mm|YOffset=0mm|HoleType=Round|Shape=Rectangle|*
%AMROTATEDRECTD35*
4,1,4,0.4425,-0.1945,0.1945,-0.4425,-0.4425,0.1945,-0.1945,0.4425,0.4425,-0.1945,0.0*
%
%ADD35ROTATEDRECTD35*%

G04:AMPARAMS|DCode=36|XSize=0.9008mm|YSize=0.3508mm|CornerRadius=0mm|HoleSize=0mm|Usage=FLASHONLY|Rotation=45.000|XOffset=0mm|YOffset=0mm|HoleType=Round|Shape=Rectangle|*
%AMROTATEDRECTD36*
4,1,4,-0.1945,-0.4425,-0.4425,-0.1945,0.1945,0.4425,0.4425,0.1945,-0.1945,-0.4425,0.0*
%
%ADD36ROTATEDRECTD36*%

G04:AMPARAMS|DCode=37|XSize=0.95mm|YSize=0.4mm|CornerRadius=0mm|HoleSize=0mm|Usage=FLASHONLY|Rotation=45.000|XOffset=0mm|YOffset=0mm|HoleType=Round|Shape=Rectangle|*
%AMROTATEDRECTD37*
4,1,4,-0.1945,-0.4773,-0.4773,-0.1945,0.1945,0.4773,0.4773,0.1945,-0.1945,-0.4773,0.0*
%
%ADD37ROTATEDRECTD37*%

%ADD38P,8.0610X4X180.0*%
G04:AMPARAMS|DCode=39|XSize=0.7mm|YSize=1.1mm|CornerRadius=0.101mm|HoleSize=0mm|Usage=FLASHONLY|Rotation=315.000|XOffset=0mm|YOffset=0mm|HoleType=Round|Shape=RoundedRectangle|*
%AMROUNDEDRECTD39*
21,1,0.7000,0.8980,0,0,315.0*
21,1,0.4980,1.1000,0,0,315.0*
1,1,0.2020,-0.1414,-0.4936*
1,1,0.2020,-0.4936,-0.1414*
1,1,0.2020,0.1414,0.4936*
1,1,0.2020,0.4936,0.1414*
%
%ADD39ROUNDEDRECTD39*%
%ADD40C,1.7500*%
G04:AMPARAMS|DCode=41|XSize=1.75mm|YSize=1.75mm|CornerRadius=0.4625mm|HoleSize=0mm|Usage=FLASHONLY|Rotation=180.000|XOffset=0mm|YOffset=0mm|HoleType=Round|Shape=RoundedRectangle|*
%AMROUNDEDRECTD41*
21,1,1.7500,0.8250,0,0,180.0*
21,1,0.8250,1.7500,0,0,180.0*
1,1,0.9250,-0.4125,0.4125*
1,1,0.9250,0.4125,0.4125*
1,1,0.9250,0.4125,-0.4125*
1,1,0.9250,-0.4125,-0.4125*
%
%ADD41ROUNDEDRECTD41*%
%ADD42C,2.6500*%
%ADD43C,2.3500*%
%ADD44C,3.6000*%
%ADD45C,1.6080*%
%ADD46R,1.6080X1.6080*%
%ADD47C,0.6000*%
%ADD48C,1.7000*%
%ADD49R,1.7000X1.7000*%
%ADD50R,1.5700X1.5700*%
%ADD51C,1.5700*%
%ADD52P,2.2203X4X270.0*%
%ADD53C,0.8700*%
%ADD54R,1.7500X1.7500*%
%ADD55R,1.7500X1.7500*%
G04:AMPARAMS|DCode=56|XSize=1.75mm|YSize=1.75mm|CornerRadius=0.4625mm|HoleSize=0mm|Usage=FLASHONLY|Rotation=90.000|XOffset=0mm|YOffset=0mm|HoleType=Round|Shape=RoundedRectangle|*
%AMROUNDEDRECTD56*
21,1,1.7500,0.8250,0,0,90.0*
21,1,0.8250,1.7500,0,0,90.0*
1,1,0.9250,0.4125,0.4125*
1,1,0.9250,0.4125,-0.4125*
1,1,0.9250,-0.4125,-0.4125*
1,1,0.9250,-0.4125,0.4125*
%
%ADD56ROUNDEDRECTD56*%
%ADD57C,1.9000*%
%ADD58R,1.9000X1.9000*%
%ADD59R,1.9000X1.9000*%
%ADD60C,1.6000*%
%ADD61R,1.6000X1.6000*%
%ADD62C,0.8032*%
G36*
X114500Y166000D02*
X95500D01*
Y176000D01*
X114500D01*
Y166000D01*
D02*
G37*
G36*
X156000Y796500D02*
X136000D01*
Y805000D01*
X156000D01*
Y796500D01*
D02*
G37*
G36*
X834374Y468209D02*
X834372Y466939D01*
X827952Y460547D01*
X835010Y453489D01*
X793243Y411722D01*
X786071Y418667D01*
X779550Y412145D01*
X738538Y453157D01*
X738557Y454427D01*
X745000Y460500D01*
X738441Y466944D01*
X738439Y468214D01*
X779550Y508861D01*
X786300Y502883D01*
X793542Y509042D01*
X834374Y468209D01*
D02*
G37*
D17*
X381000Y514000D02*
D03*
X394000D02*
D03*
X859121Y192379D02*
D03*
X872121Y192379D02*
D03*
X859536Y250262D02*
D03*
X846535D02*
D03*
X169500Y725000D02*
D03*
X182500D02*
D03*
X173000Y802000D02*
D03*
X186000D02*
D03*
X36150Y150375D02*
D03*
X23150D02*
D03*
X926783Y140297D02*
D03*
X913783D02*
D03*
X699500Y420000D02*
D03*
X712500D02*
D03*
X926783Y157268D02*
D03*
X913783D02*
D03*
X856192Y263699D02*
D03*
X869192D02*
D03*
X36000Y137000D02*
D03*
X23000D02*
D03*
X110650Y199122D02*
D03*
X97650D02*
D03*
X647306Y336118D02*
D03*
X634305D02*
D03*
X647805Y322118D02*
D03*
X634805D02*
D03*
X672805Y325618D02*
D03*
X685806D02*
D03*
X23500Y197000D02*
D03*
X10500D02*
D03*
X214150Y243122D02*
D03*
X227150D02*
D03*
X209500Y93500D02*
D03*
X222500D02*
D03*
X222000Y113000D02*
D03*
X209000D02*
D03*
X209500Y130500D02*
D03*
X222500D02*
D03*
D18*
X9742Y178000D02*
D03*
X26258D02*
D03*
D19*
X660506Y304118D02*
D03*
X673205D02*
D03*
X685906D02*
D03*
X736705Y191618D02*
D03*
X724006D02*
D03*
X546205D02*
D03*
X558905D02*
D03*
X571605D02*
D03*
X584305D02*
D03*
X597005D02*
D03*
X609706D02*
D03*
X622406D02*
D03*
X635106D02*
D03*
X647805D02*
D03*
X660505D02*
D03*
X673205D02*
D03*
X685906D02*
D03*
X698605D02*
D03*
X711305D02*
D03*
X546205Y304118D02*
D03*
X558905D02*
D03*
X571605D02*
D03*
X584305D02*
D03*
X597006D02*
D03*
X609706D02*
D03*
X622406D02*
D03*
X635106D02*
D03*
X647805D02*
D03*
X698605D02*
D03*
X711305D02*
D03*
X724006D02*
D03*
X736705D02*
D03*
D20*
X849812Y208343D02*
D03*
X859312Y208343D02*
D03*
X868812Y208343D02*
D03*
Y235843D02*
D03*
X849812D02*
D03*
D21*
X884204Y223567D02*
D03*
Y236567D02*
D03*
X177000Y751500D02*
D03*
Y764500D02*
D03*
X797549Y517790D02*
D03*
Y530790D02*
D03*
X783761Y517872D02*
D03*
Y530872D02*
D03*
X738306Y381118D02*
D03*
Y394118D02*
D03*
X927000Y125500D02*
D03*
Y112500D02*
D03*
X77650Y184122D02*
D03*
Y171122D02*
D03*
X133150Y184122D02*
D03*
Y171122D02*
D03*
D22*
X891354Y725211D02*
D03*
X904789Y738646D02*
D03*
X883929Y746071D02*
D03*
D23*
X886036Y796950D02*
D03*
X876843Y787757D02*
D03*
X557808Y516808D02*
D03*
X567000Y526000D02*
D03*
X748498Y422811D02*
D03*
X739305Y413618D02*
D03*
X842608Y472890D02*
D03*
X851800Y482083D02*
D03*
X719305Y438618D02*
D03*
X728498Y447811D02*
D03*
X727204Y472773D02*
D03*
X718012Y463580D02*
D03*
X812808Y381308D02*
D03*
X822000Y390500D02*
D03*
X825431Y375108D02*
D03*
X834623Y384300D02*
D03*
X717512Y482580D02*
D03*
X708319Y473388D02*
D03*
X854275Y461223D02*
D03*
X863468Y470415D02*
D03*
X579692Y512692D02*
D03*
X570500Y503500D02*
D03*
X738805Y432118D02*
D03*
X729613Y422926D02*
D03*
X763498Y408311D02*
D03*
X754305Y399118D02*
D03*
X769806Y395618D02*
D03*
X760613Y386426D02*
D03*
X589822Y448438D02*
D03*
X599015Y457630D02*
D03*
D24*
X857308Y787192D02*
D03*
X866500Y778000D02*
D03*
X900000Y290500D02*
D03*
X909192Y281308D02*
D03*
X908742Y310182D02*
D03*
X899549Y319374D02*
D03*
X606932Y411457D02*
D03*
X597739Y420650D02*
D03*
X553000Y540500D02*
D03*
X543808Y549692D02*
D03*
X589097Y410434D02*
D03*
X579905Y419626D02*
D03*
X629117Y471102D02*
D03*
X638309Y461910D02*
D03*
X796587Y404330D02*
D03*
X805780Y395137D02*
D03*
X787087Y394830D02*
D03*
X796280Y385638D02*
D03*
D25*
X147500Y707000D02*
D03*
Y718000D02*
D03*
Y729000D02*
D03*
Y740000D02*
D03*
Y751000D02*
D03*
Y762000D02*
D03*
Y773000D02*
D03*
Y784000D02*
D03*
Y795000D02*
D03*
D26*
X137000Y661000D02*
D03*
D27*
X41500Y652000D02*
D03*
Y807000D02*
D03*
D28*
X134500D02*
D03*
D29*
X891398Y196602D02*
D03*
X902500Y185500D02*
D03*
D30*
X600850Y478403D02*
D03*
X593000Y492000D02*
D03*
D31*
X9900Y225500D02*
D03*
X22600Y225500D02*
D03*
X35300Y225500D02*
D03*
X48000D02*
D03*
X60700D02*
D03*
X73400D02*
D03*
X86100Y225500D02*
D03*
X98800Y225500D02*
D03*
X111500D02*
D03*
X124200D02*
D03*
X136900D02*
D03*
X149600D02*
D03*
X162300D02*
D03*
X175000D02*
D03*
Y400500D02*
D03*
X162300D02*
D03*
X149600D02*
D03*
X136900D02*
D03*
X124200D02*
D03*
X111500D02*
D03*
X98800D02*
D03*
X86100Y400500D02*
D03*
X73400Y400500D02*
D03*
X60700D02*
D03*
X48000D02*
D03*
X35300D02*
D03*
X22600Y400500D02*
D03*
X9900Y400500D02*
D03*
D32*
X187500Y243150D02*
D03*
Y255850D02*
D03*
Y268550D02*
D03*
Y281250D02*
D03*
Y293950D02*
D03*
Y306650D02*
D03*
Y319350D02*
D03*
Y332050D02*
D03*
Y344750D02*
D03*
Y357450D02*
D03*
Y370150D02*
D03*
Y382850D02*
D03*
D33*
X87100Y298000D02*
D03*
X73100Y298000D02*
D03*
X73100Y284000D02*
D03*
X87100D02*
D03*
X101100D02*
D03*
Y298000D02*
D03*
Y312000D02*
D03*
X87100D02*
D03*
X73100D02*
D03*
D34*
X826602Y452115D02*
D03*
X823067Y448580D02*
D03*
X812460Y437973D02*
D03*
X815996Y441508D02*
D03*
X819531Y445044D02*
D03*
X794782Y420295D02*
D03*
X798318Y423831D02*
D03*
X801854Y427366D02*
D03*
X805389Y430902D02*
D03*
X808925Y434437D02*
D03*
X777812Y500905D02*
D03*
X774276Y497370D02*
D03*
X770741Y493834D02*
D03*
X767205Y490299D02*
D03*
X763670Y486763D02*
D03*
X760134Y483228D02*
D03*
X756599Y479692D02*
D03*
X753063Y476157D02*
D03*
X749528Y472621D02*
D03*
X745992Y469086D02*
D03*
D35*
X830138Y455651D02*
D03*
X791247Y416760D02*
D03*
X781348Y504441D02*
D03*
X742457Y465550D02*
D03*
D36*
X742457Y455651D02*
D03*
X781348Y416760D02*
D03*
X830138Y465550D02*
D03*
X791247Y504441D02*
D03*
D37*
X745992Y452115D02*
D03*
X749528Y448580D02*
D03*
X753063Y445044D02*
D03*
X756599Y441508D02*
D03*
X760134Y437973D02*
D03*
X763670Y434437D02*
D03*
X767205Y430902D02*
D03*
X770741Y427366D02*
D03*
X774276Y423831D02*
D03*
X777812Y420295D02*
D03*
X826602Y469086D02*
D03*
X823067Y472621D02*
D03*
X819531Y476157D02*
D03*
X815996Y479692D02*
D03*
X812460Y483228D02*
D03*
X808925Y486763D02*
D03*
X801854Y493834D02*
D03*
X798318Y497370D02*
D03*
X794782Y500905D02*
D03*
X805389Y490299D02*
D03*
D38*
X786297Y460600D02*
D03*
D39*
X633775Y443789D02*
D03*
X627057Y450506D02*
D03*
X620340Y457224D02*
D03*
X600894Y437778D02*
D03*
X614329Y424343D02*
D03*
D40*
X982000Y166500D02*
D03*
X959000Y700000D02*
D03*
X120500Y60500D02*
D03*
X253500Y568000D02*
D03*
X432500Y167000D02*
D03*
X150700Y893000D02*
D03*
X176100Y867600D02*
D03*
X201500Y893000D02*
D03*
Y867600D02*
D03*
X125300D02*
D03*
X150700Y867600D02*
D03*
X176100Y893000D02*
D03*
X125300Y893000D02*
D03*
X226900Y867600D02*
D03*
X932375Y335998D02*
D03*
Y437598D02*
D03*
Y386798D02*
D03*
Y361398D02*
D03*
Y412198D02*
D03*
X957775Y437598D02*
D03*
Y386798D02*
D03*
Y335998D02*
D03*
Y361398D02*
D03*
Y412198D02*
D03*
Y462998D02*
D03*
X932375D02*
D03*
Y539198D02*
D03*
Y513798D02*
D03*
X957775Y539198D02*
D03*
Y513798D02*
D03*
Y488398D02*
D03*
X932375D02*
D03*
X957775Y234398D02*
D03*
X932375Y208998D02*
D03*
Y234398D02*
D03*
X957775Y259798D02*
D03*
X932375D02*
D03*
X957775Y285198D02*
D03*
X932375D02*
D03*
Y310598D02*
D03*
X957775D02*
D03*
X881516Y590048D02*
D03*
X856115D02*
D03*
Y615448D02*
D03*
X830715D02*
D03*
Y590048D02*
D03*
X805315Y615448D02*
D03*
Y590048D02*
D03*
X779915D02*
D03*
Y615448D02*
D03*
X754516Y590048D02*
D03*
X652915D02*
D03*
X703716D02*
D03*
X729116D02*
D03*
X678316D02*
D03*
X652915Y615448D02*
D03*
X703716D02*
D03*
X754516D02*
D03*
X729116D02*
D03*
X678316D02*
D03*
X627515D02*
D03*
Y590048D02*
D03*
X551315D02*
D03*
X576716D02*
D03*
X551315Y615448D02*
D03*
X576716D02*
D03*
X602116D02*
D03*
Y590048D02*
D03*
X830686Y158038D02*
D03*
Y132638D02*
D03*
X805285Y158038D02*
D03*
Y132638D02*
D03*
X754485D02*
D03*
X703686D02*
D03*
X652886D02*
D03*
X678286D02*
D03*
X729085D02*
D03*
X779885D02*
D03*
X856086D02*
D03*
X881486D02*
D03*
X856086Y158038D02*
D03*
X881486D02*
D03*
X754485D02*
D03*
X703686D02*
D03*
X678286D02*
D03*
X729085D02*
D03*
X779885D02*
D03*
X652886D02*
D03*
X627486D02*
D03*
Y132638D02*
D03*
X602085Y158038D02*
D03*
Y132638D02*
D03*
X576685D02*
D03*
Y158038D02*
D03*
X551286D02*
D03*
X500396Y259798D02*
D03*
X474995D02*
D03*
X500396Y285198D02*
D03*
X474995D02*
D03*
Y335998D02*
D03*
Y386798D02*
D03*
Y437598D02*
D03*
Y412198D02*
D03*
Y361398D02*
D03*
Y310598D02*
D03*
Y234398D02*
D03*
Y208998D02*
D03*
X500396Y234398D02*
D03*
Y208998D02*
D03*
Y335998D02*
D03*
Y386798D02*
D03*
Y412198D02*
D03*
Y361398D02*
D03*
Y310598D02*
D03*
Y437598D02*
D03*
Y462998D02*
D03*
X474995D02*
D03*
X500396Y488398D02*
D03*
X474995D02*
D03*
Y513798D02*
D03*
X500396D02*
D03*
Y539198D02*
D03*
X271900Y138440D02*
D03*
Y113040D02*
D03*
X246500Y113040D02*
D03*
X246500Y138440D02*
D03*
Y87640D02*
D03*
D41*
X226900Y893000D02*
D03*
D42*
X901100Y41100D02*
D03*
X951900D02*
D03*
Y91900D02*
D03*
X901100D02*
D03*
X450600Y575600D02*
D03*
X501400D02*
D03*
Y626400D02*
D03*
X450600D02*
D03*
D43*
X926500Y66500D02*
D03*
X476000Y601000D02*
D03*
D44*
X449204Y899996D02*
D03*
X49204Y459996D02*
D03*
Y899996D02*
D03*
X849204D02*
D03*
D45*
X973800Y600400D02*
D03*
X948400D02*
D03*
X923000D02*
D03*
X415000Y684396D02*
D03*
X389600D02*
D03*
X973800Y67000D02*
D03*
X872200D02*
D03*
X846800D02*
D03*
X821400D02*
D03*
X796000D02*
D03*
X770600D02*
D03*
X745200D02*
D03*
X719800D02*
D03*
X694400D02*
D03*
X669000D02*
D03*
X643600D02*
D03*
X618200D02*
D03*
X592800D02*
D03*
X567400D02*
D03*
X542000D02*
D03*
X516600D02*
D03*
X491200D02*
D03*
X465800D02*
D03*
X440400D02*
D03*
X415000D02*
D03*
X389600D02*
D03*
X415000Y600400D02*
D03*
X389600D02*
D03*
X440400Y684396D02*
D03*
X465800D02*
D03*
X491200D02*
D03*
X567400D02*
D03*
X542000D02*
D03*
X516600D02*
D03*
X364200D02*
D03*
Y600400D02*
D03*
D46*
Y67000D02*
D03*
D47*
X37500Y699000D02*
D03*
Y779000D02*
D03*
D48*
X961500Y849000D02*
D03*
Y823600D02*
D03*
Y798200D02*
D03*
D49*
Y874400D02*
D03*
D50*
X368700Y901500D02*
D03*
D51*
X343300D02*
D03*
X374400Y464600D02*
D03*
X199020Y428520D02*
D03*
D52*
X392360Y482560D02*
D03*
X216980Y446480D02*
D03*
D53*
X110000Y171122D02*
D03*
X100150D02*
D03*
D54*
X957775Y208998D02*
D03*
X474995Y539198D02*
D03*
D55*
X881516Y615448D02*
D03*
X551286Y132638D02*
D03*
D56*
X271900Y87640D02*
D03*
D57*
X326500Y196000D02*
D03*
X301100Y196000D02*
D03*
X275700Y196000D02*
D03*
X351900D02*
D03*
X42500Y536900D02*
D03*
Y562300D02*
D03*
Y587700D02*
D03*
D58*
X250300Y196000D02*
D03*
D59*
X42500Y511500D02*
D03*
D60*
X57000Y55500D02*
D03*
X12000Y55500D02*
D03*
X12000Y120500D02*
D03*
D61*
X57000Y120500D02*
D03*
D62*
X94000Y272000D02*
D03*
X79000D02*
D03*
X95000Y323500D02*
D03*
X80000D02*
D03*
X112500Y319500D02*
D03*
Y274500D02*
D03*
Y289500D02*
D03*
Y304500D02*
D03*
X61000D02*
D03*
Y289500D02*
D03*
Y274500D02*
D03*
Y319500D02*
D03*
M02*
