G04*
G04 #@! TF.GenerationSoftware,Altium Limited,Altium Designer,23.2.1 (34)*
G04*
G04 Layer_Physical_Order=1*
G04 Layer_Color=255*
%FSLAX44Y44*%
%MOMM*%
G71*
G04*
G04 #@! TF.SameCoordinates,9FE4BF2E-1B0E-44D7-9BF9-3B0155518327*
G04*
G04*
G04 #@! TF.FilePolarity,Positive*
G04*
G01*
G75*
%ADD13C,0.2540*%
%ADD18R,1.2000X5.0000*%
%ADD19R,1.6000X5.0000*%
%ADD20R,0.9700X0.9000*%
G04:AMPARAMS|DCode=21|XSize=0.7mm|YSize=0.6mm|CornerRadius=0mm|HoleSize=0mm|Usage=FLASHONLY|Rotation=45.000|XOffset=0mm|YOffset=0mm|HoleType=Round|Shape=Rectangle|*
%AMROTATEDRECTD21*
4,1,4,-0.0354,-0.4596,-0.4596,-0.0354,0.0354,0.4596,0.4596,0.0354,-0.0354,-0.4596,0.0*
%
%ADD21ROTATEDRECTD21*%

G04:AMPARAMS|DCode=22|XSize=0.7mm|YSize=0.6mm|CornerRadius=0mm|HoleSize=0mm|Usage=FLASHONLY|Rotation=135.000|XOffset=0mm|YOffset=0mm|HoleType=Round|Shape=Rectangle|*
%AMROTATEDRECTD22*
4,1,4,0.4596,-0.0354,0.0354,-0.4596,-0.4596,0.0354,-0.0354,0.4596,0.4596,-0.0354,0.0*
%
%ADD22ROTATEDRECTD22*%

%ADD23R,0.6000X0.7000*%
%ADD24R,0.7000X0.6000*%
%ADD25P,7.9196X4X90.0*%
G04:AMPARAMS|DCode=26|XSize=0.85mm|YSize=0.3mm|CornerRadius=0mm|HoleSize=0mm|Usage=FLASHONLY|Rotation=315.000|XOffset=0mm|YOffset=0mm|HoleType=Round|Shape=Rectangle|*
%AMROTATEDRECTD26*
4,1,4,-0.4066,0.1945,-0.1945,0.4066,0.4066,-0.1945,0.1945,-0.4066,-0.4066,0.1945,0.0*
%
%ADD26ROTATEDRECTD26*%

G04:AMPARAMS|DCode=27|XSize=0.85mm|YSize=0.3mm|CornerRadius=0mm|HoleSize=0mm|Usage=FLASHONLY|Rotation=45.000|XOffset=0mm|YOffset=0mm|HoleType=Round|Shape=Rectangle|*
%AMROTATEDRECTD27*
4,1,4,-0.1945,-0.4066,-0.4066,-0.1945,0.1945,0.4066,0.4066,0.1945,-0.1945,-0.4066,0.0*
%
%ADD27ROTATEDRECTD27*%

%ADD28O,0.4858X1.2056*%
%ADD29R,0.4858X1.2056*%
G04:AMPARAMS|DCode=30|XSize=0.6mm|YSize=1mm|CornerRadius=0.051mm|HoleSize=0mm|Usage=FLASHONLY|Rotation=270.000|XOffset=0mm|YOffset=0mm|HoleType=Round|Shape=RoundedRectangle|*
%AMROUNDEDRECTD30*
21,1,0.6000,0.8980,0,0,270.0*
21,1,0.4980,1.0000,0,0,270.0*
1,1,0.1020,-0.4490,-0.2490*
1,1,0.1020,-0.4490,0.2490*
1,1,0.1020,0.4490,0.2490*
1,1,0.1020,0.4490,-0.2490*
%
%ADD30ROUNDEDRECTD30*%
G04:AMPARAMS|DCode=31|XSize=0.6mm|YSize=1mm|CornerRadius=0.051mm|HoleSize=0mm|Usage=FLASHONLY|Rotation=0.000|XOffset=0mm|YOffset=0mm|HoleType=Round|Shape=RoundedRectangle|*
%AMROUNDEDRECTD31*
21,1,0.6000,0.8980,0,0,0.0*
21,1,0.4980,1.0000,0,0,0.0*
1,1,0.1020,0.2490,-0.4490*
1,1,0.1020,-0.2490,-0.4490*
1,1,0.1020,-0.2490,0.4490*
1,1,0.1020,0.2490,0.4490*
%
%ADD31ROUNDEDRECTD31*%
%ADD52C,1.2700*%
%ADD53C,2.5400*%
%ADD54C,0.6350*%
%ADD55C,0.7500*%
%ADD56C,0.2032*%
%ADD57C,0.5230*%
%ADD58C,1.6500*%
%ADD59R,1.6500X1.6500*%
%ADD60R,1.6500X1.6500*%
%ADD61C,1.6000*%
%ADD62R,1.6000X1.6000*%
%ADD63R,1.6000X1.6000*%
%ADD64C,0.5600*%
%ADD65C,1.2700*%
G36*
X597147Y2824D02*
X63770D01*
Y54870D01*
X61618D01*
Y92353D01*
X80454Y111189D01*
X81446Y112674D01*
X83227Y114454D01*
X81725Y115957D01*
X81564Y116767D01*
X80454Y118427D01*
X78794Y119537D01*
X77984Y119698D01*
X76481Y121200D01*
X74700Y119419D01*
X73216Y118427D01*
X52881Y98092D01*
X51771Y96432D01*
X51382Y94473D01*
Y54870D01*
X49230D01*
Y2824D01*
X2824D01*
Y697176D01*
X43705D01*
Y645738D01*
X45856D01*
Y546814D01*
X46246Y544856D01*
X47355Y543195D01*
X97526Y493025D01*
X99011Y492033D01*
X100792Y490252D01*
X102294Y491754D01*
X103104Y491915D01*
X104764Y493025D01*
X105874Y494685D01*
X106035Y495495D01*
X107537Y496997D01*
X105757Y498778D01*
X104764Y500263D01*
X56093Y548934D01*
Y645738D01*
X58245D01*
Y697176D01*
X597147D01*
Y2824D01*
D02*
G37*
%LPC*%
G36*
X453253Y693520D02*
X450747D01*
X448325Y692871D01*
X446155Y691618D01*
X444382Y689845D01*
X443129Y687675D01*
X442480Y685253D01*
Y682747D01*
X443129Y680325D01*
X444382Y678155D01*
X446155Y676382D01*
X448325Y675129D01*
X450747Y674480D01*
X453253D01*
X455675Y675129D01*
X457845Y676382D01*
X459618Y678155D01*
X460871Y680325D01*
X461520Y682747D01*
Y685253D01*
X460871Y687675D01*
X459618Y689845D01*
X457845Y691618D01*
X455675Y692871D01*
X453253Y693520D01*
D02*
G37*
G36*
X427853D02*
X425347D01*
X422925Y692871D01*
X420755Y691618D01*
X418982Y689845D01*
X417729Y687675D01*
X417080Y685253D01*
Y682747D01*
X417729Y680325D01*
X418982Y678155D01*
X420755Y676382D01*
X422925Y675129D01*
X425347Y674480D01*
X427853D01*
X430275Y675129D01*
X432445Y676382D01*
X434218Y678155D01*
X435471Y680325D01*
X436120Y682747D01*
Y685253D01*
X435471Y687675D01*
X434218Y689845D01*
X432445Y691618D01*
X430275Y692871D01*
X427853Y693520D01*
D02*
G37*
G36*
X402453D02*
X399947D01*
X397525Y692871D01*
X395355Y691618D01*
X393582Y689845D01*
X392329Y687675D01*
X391680Y685253D01*
Y682747D01*
X392329Y680325D01*
X393582Y678155D01*
X395355Y676382D01*
X397525Y675129D01*
X399947Y674480D01*
X402453D01*
X404875Y675129D01*
X407045Y676382D01*
X408818Y678155D01*
X410071Y680325D01*
X410720Y682747D01*
Y685253D01*
X410071Y687675D01*
X408818Y689845D01*
X407045Y691618D01*
X404875Y692871D01*
X402453Y693520D01*
D02*
G37*
G36*
X377053D02*
X374547D01*
X372125Y692871D01*
X369955Y691618D01*
X368182Y689845D01*
X366929Y687675D01*
X366280Y685253D01*
Y682747D01*
X366929Y680325D01*
X368182Y678155D01*
X369955Y676382D01*
X372125Y675129D01*
X374547Y674480D01*
X377053D01*
X379475Y675129D01*
X381645Y676382D01*
X383418Y678155D01*
X384671Y680325D01*
X385320Y682747D01*
Y685253D01*
X384671Y687675D01*
X383418Y689845D01*
X381645Y691618D01*
X379475Y692871D01*
X377053Y693520D01*
D02*
G37*
G36*
X351653D02*
X349147D01*
X346725Y692871D01*
X344555Y691618D01*
X342782Y689845D01*
X341529Y687675D01*
X340880Y685253D01*
Y682747D01*
X341529Y680325D01*
X342782Y678155D01*
X344555Y676382D01*
X346725Y675129D01*
X349147Y674480D01*
X351653D01*
X354075Y675129D01*
X356245Y676382D01*
X358018Y678155D01*
X359271Y680325D01*
X359920Y682747D01*
Y685253D01*
X359271Y687675D01*
X358018Y689845D01*
X356245Y691618D01*
X354075Y692871D01*
X351653Y693520D01*
D02*
G37*
G36*
X326253D02*
X323747D01*
X321325Y692871D01*
X319155Y691618D01*
X317382Y689845D01*
X316129Y687675D01*
X315480Y685253D01*
Y682747D01*
X316129Y680325D01*
X317382Y678155D01*
X319155Y676382D01*
X321325Y675129D01*
X323747Y674480D01*
X326253D01*
X328675Y675129D01*
X330845Y676382D01*
X332618Y678155D01*
X333871Y680325D01*
X334520Y682747D01*
Y685253D01*
X333871Y687675D01*
X332618Y689845D01*
X330845Y691618D01*
X328675Y692871D01*
X326253Y693520D01*
D02*
G37*
G36*
X295053Y692720D02*
X292547D01*
X290125Y692071D01*
X287955Y690818D01*
X286182Y689045D01*
X284929Y686875D01*
X284280Y684453D01*
Y681947D01*
X284929Y679525D01*
X286182Y677355D01*
X287955Y675582D01*
X290125Y674329D01*
X292547Y673680D01*
X295053D01*
X297475Y674329D01*
X299645Y675582D01*
X301418Y677355D01*
X302671Y679525D01*
X303320Y681947D01*
Y684453D01*
X302671Y686875D01*
X301418Y689045D01*
X299645Y690818D01*
X297475Y692071D01*
X295053Y692720D01*
D02*
G37*
G36*
X269653D02*
X267147D01*
X264725Y692071D01*
X262555Y690818D01*
X260782Y689045D01*
X259529Y686875D01*
X258880Y684453D01*
Y681947D01*
X259529Y679525D01*
X260782Y677355D01*
X262555Y675582D01*
X264725Y674329D01*
X267147Y673680D01*
X269653D01*
X272075Y674329D01*
X274245Y675582D01*
X276018Y677355D01*
X277271Y679525D01*
X277920Y681947D01*
Y684453D01*
X277271Y686875D01*
X276018Y689045D01*
X274245Y690818D01*
X272075Y692071D01*
X269653Y692720D01*
D02*
G37*
G36*
X244253D02*
X241747D01*
X239325Y692071D01*
X237155Y690818D01*
X235382Y689045D01*
X234129Y686875D01*
X233480Y684453D01*
Y681947D01*
X234129Y679525D01*
X235382Y677355D01*
X237155Y675582D01*
X239325Y674329D01*
X241747Y673680D01*
X244253D01*
X246675Y674329D01*
X248845Y675582D01*
X250618Y677355D01*
X251871Y679525D01*
X252520Y681947D01*
Y684453D01*
X251871Y686875D01*
X250618Y689045D01*
X248845Y690818D01*
X246675Y692071D01*
X244253Y692720D01*
D02*
G37*
G36*
X218853D02*
X216347D01*
X213925Y692071D01*
X211755Y690818D01*
X209982Y689045D01*
X208729Y686875D01*
X208080Y684453D01*
Y681947D01*
X208729Y679525D01*
X209982Y677355D01*
X211755Y675582D01*
X213925Y674329D01*
X216347Y673680D01*
X218853D01*
X221275Y674329D01*
X223445Y675582D01*
X225218Y677355D01*
X226471Y679525D01*
X227120Y681947D01*
Y684453D01*
X226471Y686875D01*
X225218Y689045D01*
X223445Y690818D01*
X221275Y692071D01*
X218853Y692720D01*
D02*
G37*
G36*
X193453D02*
X190947D01*
X188525Y692071D01*
X186355Y690818D01*
X184582Y689045D01*
X183329Y686875D01*
X182680Y684453D01*
Y681947D01*
X183329Y679525D01*
X184582Y677355D01*
X186355Y675582D01*
X188525Y674329D01*
X190947Y673680D01*
X193453D01*
X195875Y674329D01*
X198045Y675582D01*
X199818Y677355D01*
X201071Y679525D01*
X201720Y681947D01*
Y684453D01*
X201071Y686875D01*
X199818Y689045D01*
X198045Y690818D01*
X195875Y692071D01*
X193453Y692720D01*
D02*
G37*
G36*
X168053D02*
X165547D01*
X163125Y692071D01*
X160955Y690818D01*
X159182Y689045D01*
X157929Y686875D01*
X157280Y684453D01*
Y681947D01*
X157929Y679525D01*
X159182Y677355D01*
X160955Y675582D01*
X163125Y674329D01*
X165547Y673680D01*
X168053D01*
X170475Y674329D01*
X172645Y675582D01*
X174418Y677355D01*
X175671Y679525D01*
X176320Y681947D01*
Y684453D01*
X175671Y686875D01*
X174418Y689045D01*
X172645Y690818D01*
X170475Y692071D01*
X168053Y692720D01*
D02*
G37*
G36*
X117253D02*
X114747D01*
X112325Y692071D01*
X110155Y690818D01*
X108382Y689045D01*
X107129Y686875D01*
X106480Y684453D01*
Y681947D01*
X107129Y679525D01*
X108382Y677355D01*
X110155Y675582D01*
X112325Y674329D01*
X114747Y673680D01*
X117253D01*
X119675Y674329D01*
X121845Y675582D01*
X123618Y677355D01*
X124871Y679525D01*
X125520Y681947D01*
Y684453D01*
X124871Y686875D01*
X123618Y689045D01*
X121845Y690818D01*
X119675Y692071D01*
X117253Y692720D01*
D02*
G37*
G36*
X453253Y668120D02*
X450747D01*
X448325Y667471D01*
X446155Y666218D01*
X444382Y664445D01*
X443129Y662275D01*
X442480Y659853D01*
Y657347D01*
X443129Y654925D01*
X444382Y652755D01*
X446155Y650982D01*
X448325Y649729D01*
X450747Y649080D01*
X453253D01*
X455675Y649729D01*
X457845Y650982D01*
X459618Y652755D01*
X460871Y654925D01*
X461520Y657347D01*
Y659853D01*
X460871Y662275D01*
X459618Y664445D01*
X457845Y666218D01*
X455675Y667471D01*
X453253Y668120D01*
D02*
G37*
G36*
X427853D02*
X425347D01*
X422925Y667471D01*
X420755Y666218D01*
X418982Y664445D01*
X417729Y662275D01*
X417080Y659853D01*
Y657347D01*
X417729Y654925D01*
X418982Y652755D01*
X420755Y650982D01*
X422925Y649729D01*
X425347Y649080D01*
X427853D01*
X430275Y649729D01*
X432445Y650982D01*
X434218Y652755D01*
X435471Y654925D01*
X436120Y657347D01*
Y659853D01*
X435471Y662275D01*
X434218Y664445D01*
X432445Y666218D01*
X430275Y667471D01*
X427853Y668120D01*
D02*
G37*
G36*
X402453D02*
X399947D01*
X397525Y667471D01*
X395355Y666218D01*
X393582Y664445D01*
X392329Y662275D01*
X391680Y659853D01*
Y657347D01*
X392329Y654925D01*
X393582Y652755D01*
X395355Y650982D01*
X397525Y649729D01*
X399947Y649080D01*
X402453D01*
X404875Y649729D01*
X407045Y650982D01*
X408818Y652755D01*
X410071Y654925D01*
X410720Y657347D01*
Y659853D01*
X410071Y662275D01*
X408818Y664445D01*
X407045Y666218D01*
X404875Y667471D01*
X402453Y668120D01*
D02*
G37*
G36*
X377053D02*
X374547D01*
X372125Y667471D01*
X369955Y666218D01*
X368182Y664445D01*
X366929Y662275D01*
X366280Y659853D01*
Y657347D01*
X366929Y654925D01*
X368182Y652755D01*
X369955Y650982D01*
X372125Y649729D01*
X374547Y649080D01*
X377053D01*
X379475Y649729D01*
X381645Y650982D01*
X383418Y652755D01*
X384671Y654925D01*
X385320Y657347D01*
Y659853D01*
X384671Y662275D01*
X383418Y664445D01*
X381645Y666218D01*
X379475Y667471D01*
X377053Y668120D01*
D02*
G37*
G36*
X351653D02*
X349147D01*
X346725Y667471D01*
X344555Y666218D01*
X342782Y664445D01*
X341529Y662275D01*
X340880Y659853D01*
Y657347D01*
X341529Y654925D01*
X342782Y652755D01*
X344555Y650982D01*
X346725Y649729D01*
X349147Y649080D01*
X351653D01*
X354075Y649729D01*
X356245Y650982D01*
X358018Y652755D01*
X359271Y654925D01*
X359920Y657347D01*
Y659853D01*
X359271Y662275D01*
X358018Y664445D01*
X356245Y666218D01*
X354075Y667471D01*
X351653Y668120D01*
D02*
G37*
G36*
X326253D02*
X323747D01*
X321325Y667471D01*
X319155Y666218D01*
X317382Y664445D01*
X316129Y662275D01*
X315480Y659853D01*
Y657347D01*
X316129Y654925D01*
X317382Y652755D01*
X319155Y650982D01*
X321325Y649729D01*
X323747Y649080D01*
X326253D01*
X328675Y649729D01*
X330845Y650982D01*
X332618Y652755D01*
X333871Y654925D01*
X334520Y657347D01*
Y659853D01*
X333871Y662275D01*
X332618Y664445D01*
X330845Y666218D01*
X328675Y667471D01*
X326253Y668120D01*
D02*
G37*
G36*
X295053Y667320D02*
X292547D01*
X290125Y666671D01*
X287955Y665418D01*
X286182Y663645D01*
X284929Y661475D01*
X284280Y659053D01*
Y656547D01*
X284929Y654125D01*
X286182Y651955D01*
X287955Y650182D01*
X290125Y648929D01*
X292547Y648280D01*
X295053D01*
X297475Y648929D01*
X299645Y650182D01*
X301418Y651955D01*
X302671Y654125D01*
X303320Y656547D01*
Y659053D01*
X302671Y661475D01*
X301418Y663645D01*
X299645Y665418D01*
X297475Y666671D01*
X295053Y667320D01*
D02*
G37*
G36*
X269653D02*
X267147D01*
X264725Y666671D01*
X262555Y665418D01*
X260782Y663645D01*
X259529Y661475D01*
X258880Y659053D01*
Y656547D01*
X259529Y654125D01*
X260782Y651955D01*
X262555Y650182D01*
X264725Y648929D01*
X267147Y648280D01*
X269653D01*
X272075Y648929D01*
X274245Y650182D01*
X276018Y651955D01*
X277271Y654125D01*
X277920Y656547D01*
Y659053D01*
X277271Y661475D01*
X276018Y663645D01*
X274245Y665418D01*
X272075Y666671D01*
X269653Y667320D01*
D02*
G37*
G36*
X244253D02*
X241747D01*
X239325Y666671D01*
X237155Y665418D01*
X235382Y663645D01*
X234129Y661475D01*
X233480Y659053D01*
Y656547D01*
X234129Y654125D01*
X235382Y651955D01*
X237155Y650182D01*
X239325Y648929D01*
X241747Y648280D01*
X244253D01*
X246675Y648929D01*
X248845Y650182D01*
X250618Y651955D01*
X251871Y654125D01*
X252520Y656547D01*
Y659053D01*
X251871Y661475D01*
X250618Y663645D01*
X248845Y665418D01*
X246675Y666671D01*
X244253Y667320D01*
D02*
G37*
G36*
X218853D02*
X216347D01*
X213925Y666671D01*
X211755Y665418D01*
X209982Y663645D01*
X208729Y661475D01*
X208080Y659053D01*
Y656547D01*
X208729Y654125D01*
X209982Y651955D01*
X211755Y650182D01*
X213925Y648929D01*
X216347Y648280D01*
X218853D01*
X221275Y648929D01*
X223445Y650182D01*
X225218Y651955D01*
X226471Y654125D01*
X227120Y656547D01*
Y659053D01*
X226471Y661475D01*
X225218Y663645D01*
X223445Y665418D01*
X221275Y666671D01*
X218853Y667320D01*
D02*
G37*
G36*
X193453D02*
X190947D01*
X188525Y666671D01*
X186355Y665418D01*
X184582Y663645D01*
X183329Y661475D01*
X182680Y659053D01*
Y656547D01*
X183329Y654125D01*
X184582Y651955D01*
X186355Y650182D01*
X188525Y648929D01*
X190947Y648280D01*
X193453D01*
X195875Y648929D01*
X198045Y650182D01*
X199818Y651955D01*
X201071Y654125D01*
X201720Y656547D01*
Y659053D01*
X201071Y661475D01*
X199818Y663645D01*
X198045Y665418D01*
X195875Y666671D01*
X193453Y667320D01*
D02*
G37*
G36*
X168053D02*
X165547D01*
X163125Y666671D01*
X160955Y665418D01*
X159182Y663645D01*
X157929Y661475D01*
X157280Y659053D01*
Y656547D01*
X157929Y654125D01*
X159182Y651955D01*
X160955Y650182D01*
X163125Y648929D01*
X165547Y648280D01*
X168053D01*
X170475Y648929D01*
X172645Y650182D01*
X174418Y651955D01*
X175671Y654125D01*
X176320Y656547D01*
Y659053D01*
X175671Y661475D01*
X174418Y663645D01*
X172645Y665418D01*
X170475Y666671D01*
X168053Y667320D01*
D02*
G37*
G36*
X117253D02*
X114747D01*
X112325Y666671D01*
X110155Y665418D01*
X108382Y663645D01*
X107129Y661475D01*
X106480Y659053D01*
Y656547D01*
X107129Y654125D01*
X108382Y651955D01*
X110155Y650182D01*
X112325Y648929D01*
X114747Y648280D01*
X117253D01*
X119675Y648929D01*
X121845Y650182D01*
X123618Y651955D01*
X124871Y654125D01*
X125520Y656547D01*
Y659053D01*
X124871Y661475D01*
X123618Y663645D01*
X121845Y665418D01*
X119675Y666671D01*
X117253Y667320D01*
D02*
G37*
G36*
X453253Y642720D02*
X450747D01*
X448325Y642071D01*
X446155Y640818D01*
X444382Y639045D01*
X443129Y636875D01*
X442480Y634453D01*
Y631947D01*
X443129Y629525D01*
X444382Y627355D01*
X446155Y625582D01*
X448325Y624329D01*
X450747Y623680D01*
X453253D01*
X455675Y624329D01*
X457845Y625582D01*
X459618Y627355D01*
X460871Y629525D01*
X461520Y631947D01*
Y634453D01*
X460871Y636875D01*
X459618Y639045D01*
X457845Y640818D01*
X455675Y642071D01*
X453253Y642720D01*
D02*
G37*
G36*
X427853D02*
X425347D01*
X422925Y642071D01*
X420755Y640818D01*
X418982Y639045D01*
X417729Y636875D01*
X417080Y634453D01*
Y631947D01*
X417729Y629525D01*
X418982Y627355D01*
X420755Y625582D01*
X422925Y624329D01*
X425347Y623680D01*
X427853D01*
X430275Y624329D01*
X432445Y625582D01*
X434218Y627355D01*
X435471Y629525D01*
X436120Y631947D01*
Y634453D01*
X435471Y636875D01*
X434218Y639045D01*
X432445Y640818D01*
X430275Y642071D01*
X427853Y642720D01*
D02*
G37*
G36*
X402453D02*
X399947D01*
X397525Y642071D01*
X395355Y640818D01*
X393582Y639045D01*
X392329Y636875D01*
X391680Y634453D01*
Y631947D01*
X392329Y629525D01*
X393582Y627355D01*
X395355Y625582D01*
X397525Y624329D01*
X399947Y623680D01*
X402453D01*
X404875Y624329D01*
X407045Y625582D01*
X408818Y627355D01*
X410071Y629525D01*
X410720Y631947D01*
Y634453D01*
X410071Y636875D01*
X408818Y639045D01*
X407045Y640818D01*
X404875Y642071D01*
X402453Y642720D01*
D02*
G37*
G36*
X377053D02*
X374547D01*
X372125Y642071D01*
X369955Y640818D01*
X368182Y639045D01*
X366929Y636875D01*
X366280Y634453D01*
Y631947D01*
X366929Y629525D01*
X368182Y627355D01*
X369955Y625582D01*
X372125Y624329D01*
X374547Y623680D01*
X377053D01*
X379475Y624329D01*
X381645Y625582D01*
X383418Y627355D01*
X384671Y629525D01*
X385320Y631947D01*
Y634453D01*
X384671Y636875D01*
X383418Y639045D01*
X381645Y640818D01*
X379475Y642071D01*
X377053Y642720D01*
D02*
G37*
G36*
X351653D02*
X349147D01*
X346725Y642071D01*
X344555Y640818D01*
X342782Y639045D01*
X341529Y636875D01*
X340880Y634453D01*
Y631947D01*
X341529Y629525D01*
X342782Y627355D01*
X344555Y625582D01*
X346725Y624329D01*
X349147Y623680D01*
X351653D01*
X354075Y624329D01*
X356245Y625582D01*
X358018Y627355D01*
X359271Y629525D01*
X359920Y631947D01*
Y634453D01*
X359271Y636875D01*
X358018Y639045D01*
X356245Y640818D01*
X354075Y642071D01*
X351653Y642720D01*
D02*
G37*
G36*
X326253D02*
X323747D01*
X321325Y642071D01*
X319155Y640818D01*
X317382Y639045D01*
X316129Y636875D01*
X315480Y634453D01*
Y631947D01*
X316129Y629525D01*
X317382Y627355D01*
X319155Y625582D01*
X321325Y624329D01*
X323747Y623680D01*
X326253D01*
X328675Y624329D01*
X330845Y625582D01*
X332618Y627355D01*
X333871Y629525D01*
X334520Y631947D01*
Y634453D01*
X333871Y636875D01*
X332618Y639045D01*
X330845Y640818D01*
X328675Y642071D01*
X326253Y642720D01*
D02*
G37*
G36*
X295053Y641920D02*
X292547D01*
X290125Y641271D01*
X287955Y640018D01*
X286182Y638245D01*
X284929Y636075D01*
X284280Y633653D01*
Y631147D01*
X284929Y628725D01*
X286182Y626555D01*
X287955Y624782D01*
X290125Y623529D01*
X292547Y622880D01*
X295053D01*
X297475Y623529D01*
X299645Y624782D01*
X301418Y626555D01*
X302671Y628725D01*
X303320Y631147D01*
Y633653D01*
X302671Y636075D01*
X301418Y638245D01*
X299645Y640018D01*
X297475Y641271D01*
X295053Y641920D01*
D02*
G37*
G36*
X269653D02*
X267147D01*
X264725Y641271D01*
X262555Y640018D01*
X260782Y638245D01*
X259529Y636075D01*
X258880Y633653D01*
Y631147D01*
X259529Y628725D01*
X260782Y626555D01*
X262555Y624782D01*
X264725Y623529D01*
X267147Y622880D01*
X269653D01*
X272075Y623529D01*
X274245Y624782D01*
X276018Y626555D01*
X277271Y628725D01*
X277920Y631147D01*
Y633653D01*
X277271Y636075D01*
X276018Y638245D01*
X274245Y640018D01*
X272075Y641271D01*
X269653Y641920D01*
D02*
G37*
G36*
X244253D02*
X241747D01*
X239325Y641271D01*
X237155Y640018D01*
X235382Y638245D01*
X234129Y636075D01*
X233480Y633653D01*
Y631147D01*
X234129Y628725D01*
X235382Y626555D01*
X237155Y624782D01*
X239325Y623529D01*
X241747Y622880D01*
X244253D01*
X246675Y623529D01*
X248845Y624782D01*
X250618Y626555D01*
X251871Y628725D01*
X252520Y631147D01*
Y633653D01*
X251871Y636075D01*
X250618Y638245D01*
X248845Y640018D01*
X246675Y641271D01*
X244253Y641920D01*
D02*
G37*
G36*
X218853D02*
X216347D01*
X213925Y641271D01*
X211755Y640018D01*
X209982Y638245D01*
X208729Y636075D01*
X208080Y633653D01*
Y631147D01*
X208729Y628725D01*
X209982Y626555D01*
X211755Y624782D01*
X213925Y623529D01*
X216347Y622880D01*
X218853D01*
X221275Y623529D01*
X223445Y624782D01*
X225218Y626555D01*
X226471Y628725D01*
X227120Y631147D01*
Y633653D01*
X226471Y636075D01*
X225218Y638245D01*
X223445Y640018D01*
X221275Y641271D01*
X218853Y641920D01*
D02*
G37*
G36*
X193453D02*
X190947D01*
X188525Y641271D01*
X186355Y640018D01*
X184582Y638245D01*
X183329Y636075D01*
X182680Y633653D01*
Y631147D01*
X183329Y628725D01*
X184582Y626555D01*
X186355Y624782D01*
X188525Y623529D01*
X190947Y622880D01*
X193453D01*
X195875Y623529D01*
X198045Y624782D01*
X199818Y626555D01*
X201071Y628725D01*
X201720Y631147D01*
Y633653D01*
X201071Y636075D01*
X199818Y638245D01*
X198045Y640018D01*
X195875Y641271D01*
X193453Y641920D01*
D02*
G37*
G36*
X168053D02*
X165547D01*
X163125Y641271D01*
X160955Y640018D01*
X159182Y638245D01*
X157929Y636075D01*
X157280Y633653D01*
Y631147D01*
X157929Y628725D01*
X159182Y626555D01*
X160955Y624782D01*
X163125Y623529D01*
X165547Y622880D01*
X168053D01*
X170475Y623529D01*
X172645Y624782D01*
X174418Y626555D01*
X175671Y628725D01*
X176320Y631147D01*
Y633653D01*
X175671Y636075D01*
X174418Y638245D01*
X172645Y640018D01*
X170475Y641271D01*
X168053Y641920D01*
D02*
G37*
G36*
X117253D02*
X114747D01*
X112325Y641271D01*
X110155Y640018D01*
X108382Y638245D01*
X107129Y636075D01*
X106480Y633653D01*
Y631147D01*
X107129Y628725D01*
X108382Y626555D01*
X110155Y624782D01*
X112325Y623529D01*
X114747Y622880D01*
X117253D01*
X119675Y623529D01*
X121845Y624782D01*
X123618Y626555D01*
X124871Y628725D01*
X125520Y631147D01*
Y633653D01*
X124871Y636075D01*
X123618Y638245D01*
X121845Y640018D01*
X119675Y641271D01*
X117253Y641920D01*
D02*
G37*
G36*
X453253Y617320D02*
X450747D01*
X448325Y616671D01*
X446155Y615418D01*
X444382Y613645D01*
X443129Y611475D01*
X442480Y609053D01*
Y606547D01*
X443129Y604125D01*
X444382Y601955D01*
X446155Y600182D01*
X448325Y598929D01*
X450747Y598280D01*
X453253D01*
X455675Y598929D01*
X457845Y600182D01*
X459618Y601955D01*
X460871Y604125D01*
X461520Y606547D01*
Y609053D01*
X460871Y611475D01*
X459618Y613645D01*
X457845Y615418D01*
X455675Y616671D01*
X453253Y617320D01*
D02*
G37*
G36*
X427853D02*
X425347D01*
X422925Y616671D01*
X420755Y615418D01*
X418982Y613645D01*
X417729Y611475D01*
X417080Y609053D01*
Y606547D01*
X417729Y604125D01*
X418982Y601955D01*
X420755Y600182D01*
X422925Y598929D01*
X425347Y598280D01*
X427853D01*
X430275Y598929D01*
X432445Y600182D01*
X434218Y601955D01*
X435471Y604125D01*
X436120Y606547D01*
Y609053D01*
X435471Y611475D01*
X434218Y613645D01*
X432445Y615418D01*
X430275Y616671D01*
X427853Y617320D01*
D02*
G37*
G36*
X402453D02*
X399947D01*
X397525Y616671D01*
X395355Y615418D01*
X393582Y613645D01*
X392329Y611475D01*
X391680Y609053D01*
Y606547D01*
X392329Y604125D01*
X393582Y601955D01*
X395355Y600182D01*
X397525Y598929D01*
X399947Y598280D01*
X402453D01*
X404875Y598929D01*
X407045Y600182D01*
X408818Y601955D01*
X410071Y604125D01*
X410720Y606547D01*
Y609053D01*
X410071Y611475D01*
X408818Y613645D01*
X407045Y615418D01*
X404875Y616671D01*
X402453Y617320D01*
D02*
G37*
G36*
X377053D02*
X374547D01*
X372125Y616671D01*
X369955Y615418D01*
X368182Y613645D01*
X366929Y611475D01*
X366280Y609053D01*
Y606547D01*
X366929Y604125D01*
X368182Y601955D01*
X369955Y600182D01*
X372125Y598929D01*
X374547Y598280D01*
X377053D01*
X379475Y598929D01*
X381645Y600182D01*
X383418Y601955D01*
X384671Y604125D01*
X385320Y606547D01*
Y609053D01*
X384671Y611475D01*
X383418Y613645D01*
X381645Y615418D01*
X379475Y616671D01*
X377053Y617320D01*
D02*
G37*
G36*
X351653D02*
X349147D01*
X346725Y616671D01*
X344555Y615418D01*
X342782Y613645D01*
X341529Y611475D01*
X340880Y609053D01*
Y606547D01*
X341529Y604125D01*
X342782Y601955D01*
X344555Y600182D01*
X346725Y598929D01*
X349147Y598280D01*
X351653D01*
X354075Y598929D01*
X356245Y600182D01*
X358018Y601955D01*
X359271Y604125D01*
X359920Y606547D01*
Y609053D01*
X359271Y611475D01*
X358018Y613645D01*
X356245Y615418D01*
X354075Y616671D01*
X351653Y617320D01*
D02*
G37*
G36*
X326253D02*
X323747D01*
X321325Y616671D01*
X319155Y615418D01*
X317382Y613645D01*
X316129Y611475D01*
X315480Y609053D01*
Y606547D01*
X316129Y604125D01*
X317382Y601955D01*
X319155Y600182D01*
X321325Y598929D01*
X323747Y598280D01*
X326253D01*
X328675Y598929D01*
X330845Y600182D01*
X332618Y601955D01*
X333871Y604125D01*
X334520Y606547D01*
Y609053D01*
X333871Y611475D01*
X332618Y613645D01*
X330845Y615418D01*
X328675Y616671D01*
X326253Y617320D01*
D02*
G37*
G36*
X295053Y616520D02*
X292547D01*
X290125Y615871D01*
X287955Y614618D01*
X286182Y612845D01*
X284929Y610675D01*
X284280Y608253D01*
Y605747D01*
X284929Y603325D01*
X286182Y601155D01*
X287955Y599382D01*
X290125Y598129D01*
X292547Y597480D01*
X295053D01*
X297475Y598129D01*
X299645Y599382D01*
X301418Y601155D01*
X302671Y603325D01*
X303320Y605747D01*
Y608253D01*
X302671Y610675D01*
X301418Y612845D01*
X299645Y614618D01*
X297475Y615871D01*
X295053Y616520D01*
D02*
G37*
G36*
X269653D02*
X267147D01*
X264725Y615871D01*
X262555Y614618D01*
X260782Y612845D01*
X259529Y610675D01*
X258880Y608253D01*
Y605747D01*
X259529Y603325D01*
X260782Y601155D01*
X262555Y599382D01*
X264725Y598129D01*
X267147Y597480D01*
X269653D01*
X272075Y598129D01*
X274245Y599382D01*
X276018Y601155D01*
X277271Y603325D01*
X277920Y605747D01*
Y608253D01*
X277271Y610675D01*
X276018Y612845D01*
X274245Y614618D01*
X272075Y615871D01*
X269653Y616520D01*
D02*
G37*
G36*
X244253D02*
X241747D01*
X239325Y615871D01*
X237155Y614618D01*
X235382Y612845D01*
X234129Y610675D01*
X233480Y608253D01*
Y605747D01*
X234129Y603325D01*
X235382Y601155D01*
X237155Y599382D01*
X239325Y598129D01*
X241747Y597480D01*
X244253D01*
X246675Y598129D01*
X248845Y599382D01*
X250618Y601155D01*
X251871Y603325D01*
X252520Y605747D01*
Y608253D01*
X251871Y610675D01*
X250618Y612845D01*
X248845Y614618D01*
X246675Y615871D01*
X244253Y616520D01*
D02*
G37*
G36*
X218853D02*
X216347D01*
X213925Y615871D01*
X211755Y614618D01*
X209982Y612845D01*
X208729Y610675D01*
X208080Y608253D01*
Y605747D01*
X208729Y603325D01*
X209982Y601155D01*
X211755Y599382D01*
X213925Y598129D01*
X216347Y597480D01*
X218853D01*
X221275Y598129D01*
X223445Y599382D01*
X225218Y601155D01*
X226471Y603325D01*
X227120Y605747D01*
Y608253D01*
X226471Y610675D01*
X225218Y612845D01*
X223445Y614618D01*
X221275Y615871D01*
X218853Y616520D01*
D02*
G37*
G36*
X193453D02*
X190947D01*
X188525Y615871D01*
X186355Y614618D01*
X184582Y612845D01*
X183329Y610675D01*
X182680Y608253D01*
Y605747D01*
X183329Y603325D01*
X184582Y601155D01*
X186355Y599382D01*
X188525Y598129D01*
X190947Y597480D01*
X193453D01*
X195875Y598129D01*
X198045Y599382D01*
X199818Y601155D01*
X201071Y603325D01*
X201720Y605747D01*
Y608253D01*
X201071Y610675D01*
X199818Y612845D01*
X198045Y614618D01*
X195875Y615871D01*
X193453Y616520D01*
D02*
G37*
G36*
X168053D02*
X165547D01*
X163125Y615871D01*
X160955Y614618D01*
X159182Y612845D01*
X157929Y610675D01*
X157280Y608253D01*
Y605747D01*
X157929Y603325D01*
X159182Y601155D01*
X160955Y599382D01*
X163125Y598129D01*
X165547Y597480D01*
X168053D01*
X170475Y598129D01*
X172645Y599382D01*
X174418Y601155D01*
X175671Y603325D01*
X176320Y605747D01*
Y608253D01*
X175671Y610675D01*
X174418Y612845D01*
X172645Y614618D01*
X170475Y615871D01*
X168053Y616520D01*
D02*
G37*
G36*
X117253D02*
X114747D01*
X112325Y615871D01*
X110155Y614618D01*
X108382Y612845D01*
X107129Y610675D01*
X106480Y608253D01*
Y605747D01*
X107129Y603325D01*
X108382Y601155D01*
X110155Y599382D01*
X112325Y598129D01*
X114747Y597480D01*
X117253D01*
X119675Y598129D01*
X121845Y599382D01*
X123618Y601155D01*
X124871Y603325D01*
X125520Y605747D01*
Y608253D01*
X124871Y610675D01*
X123618Y612845D01*
X121845Y614618D01*
X119675Y615871D01*
X117253Y616520D01*
D02*
G37*
G36*
X422870Y566500D02*
X420364D01*
X417942Y565851D01*
X415772Y564598D01*
X413999Y562826D01*
X412746Y560655D01*
X412097Y558233D01*
Y555727D01*
X412746Y553306D01*
X413441Y552101D01*
X406852Y545511D01*
X406347Y544755D01*
X406169Y543863D01*
Y538462D01*
X404530Y537734D01*
X403629Y537631D01*
X402062Y539198D01*
X399892Y540451D01*
X397470Y541100D01*
X394964D01*
X392542Y540451D01*
X390372Y539198D01*
X388599Y537425D01*
X387598Y535692D01*
X385916Y535800D01*
X385058Y536128D01*
Y542525D01*
X391338Y548805D01*
X392542Y548109D01*
X394964Y547460D01*
X397470D01*
X399892Y548109D01*
X402062Y549362D01*
X403835Y551135D01*
X405088Y553306D01*
X405737Y555727D01*
Y558233D01*
X405088Y560655D01*
X403835Y562826D01*
X402062Y564598D01*
X399892Y565851D01*
X397470Y566500D01*
X394964D01*
X392542Y565851D01*
X390372Y564598D01*
X388599Y562826D01*
X387346Y560655D01*
X386697Y558233D01*
Y555727D01*
X387346Y553306D01*
X388041Y552101D01*
X381079Y545139D01*
X380574Y544382D01*
X380396Y543490D01*
Y538878D01*
X380262Y538779D01*
X377856Y538004D01*
X376662Y539198D01*
X374492Y540451D01*
X372070Y541100D01*
X369564D01*
X367142Y540451D01*
X364972Y539198D01*
X364371Y538597D01*
X361831Y539649D01*
Y544698D01*
X365938Y548805D01*
X367142Y548109D01*
X369564Y547460D01*
X372070D01*
X374492Y548109D01*
X376662Y549362D01*
X378435Y551135D01*
X379688Y553306D01*
X380337Y555727D01*
Y558233D01*
X379688Y560655D01*
X378435Y562826D01*
X376662Y564598D01*
X374492Y565851D01*
X372070Y566500D01*
X369564D01*
X367142Y565851D01*
X364972Y564598D01*
X363199Y562826D01*
X361946Y560655D01*
X361297Y558233D01*
Y555727D01*
X361946Y553306D01*
X362641Y552101D01*
X358339Y547799D01*
X357846Y547847D01*
X353593Y552101D01*
X354288Y553306D01*
X354937Y555727D01*
Y558233D01*
X354288Y560655D01*
X353035Y562826D01*
X351262Y564598D01*
X349091Y565851D01*
X346670Y566500D01*
X344164D01*
X341742Y565851D01*
X339572Y564598D01*
X337799Y562826D01*
X336546Y560655D01*
X335897Y558233D01*
Y555727D01*
X336546Y553306D01*
X337799Y551135D01*
X339572Y549362D01*
X341742Y548109D01*
X344164Y547460D01*
X346670D01*
X349091Y548109D01*
X350296Y548805D01*
X353867Y545234D01*
Y540185D01*
X351327Y539133D01*
X351262Y539198D01*
X349091Y540451D01*
X346670Y541100D01*
X344164D01*
X341742Y540451D01*
X339572Y539198D01*
X338144Y537771D01*
X336739Y538041D01*
X335604Y538699D01*
Y543724D01*
X335427Y544616D01*
X334921Y545372D01*
X328193Y552101D01*
X328888Y553306D01*
X329537Y555727D01*
Y558233D01*
X328888Y560655D01*
X327635Y562826D01*
X325862Y564598D01*
X323691Y565851D01*
X321270Y566500D01*
X318764D01*
X316342Y565851D01*
X314172Y564598D01*
X312399Y562826D01*
X311146Y560655D01*
X310497Y558233D01*
Y555727D01*
X311146Y553306D01*
X312399Y551135D01*
X314172Y549362D01*
X316342Y548109D01*
X318764Y547460D01*
X321270D01*
X323691Y548109D01*
X324896Y548805D01*
X330943Y542758D01*
Y536776D01*
X328403Y536096D01*
X327635Y537425D01*
X325862Y539198D01*
X323691Y540451D01*
X321270Y541100D01*
X318764D01*
X316342Y540451D01*
X314172Y539198D01*
X312399Y537425D01*
X311146Y535255D01*
X310871Y534229D01*
X308331Y534563D01*
Y537766D01*
X308153Y538658D01*
X307648Y539414D01*
X300570Y546492D01*
X300497Y548440D01*
X300877Y549777D01*
X302235Y551135D01*
X303488Y553306D01*
X304137Y555727D01*
Y558233D01*
X303488Y560655D01*
X302235Y562826D01*
X300462Y564598D01*
X298291Y565851D01*
X295870Y566500D01*
X293364D01*
X290942Y565851D01*
X288772Y564598D01*
X286999Y562826D01*
X285746Y560655D01*
X285097Y558233D01*
Y555727D01*
X285746Y553306D01*
X286999Y551135D01*
X288772Y549362D01*
X290942Y548109D01*
X293364Y547460D01*
X294327D01*
Y547108D01*
X294505Y546216D01*
X295010Y545459D01*
X297058Y543411D01*
X295986Y541324D01*
X295777Y541100D01*
X293364D01*
X290942Y540451D01*
X288772Y539198D01*
X286999Y537425D01*
X286938Y537319D01*
X284398Y538000D01*
Y544130D01*
X284220Y545022D01*
X283715Y545778D01*
X277393Y552101D01*
X278088Y553306D01*
X278737Y555727D01*
Y558233D01*
X278088Y560655D01*
X276835Y562826D01*
X275062Y564598D01*
X272892Y565851D01*
X270470Y566500D01*
X267964D01*
X265542Y565851D01*
X263372Y564598D01*
X261599Y562826D01*
X260346Y560655D01*
X259697Y558233D01*
Y555727D01*
X260346Y553306D01*
X261599Y551135D01*
X263372Y549362D01*
X265542Y548109D01*
X267964Y547460D01*
X270470D01*
X272892Y548109D01*
X274096Y548805D01*
X279736Y543165D01*
Y537480D01*
X277196Y536800D01*
X276835Y537425D01*
X275062Y539198D01*
X272892Y540451D01*
X270470Y541100D01*
X267964D01*
X265542Y540451D01*
X263372Y539198D01*
X261792Y537618D01*
X260942Y537709D01*
X259252Y538440D01*
Y543876D01*
X259074Y544768D01*
X258569Y545524D01*
X251993Y552101D01*
X252688Y553306D01*
X253337Y555727D01*
Y558233D01*
X252688Y560655D01*
X251435Y562826D01*
X249662Y564598D01*
X247491Y565851D01*
X245070Y566500D01*
X242564D01*
X240142Y565851D01*
X237972Y564598D01*
X236199Y562826D01*
X234946Y560655D01*
X234297Y558233D01*
Y555727D01*
X234946Y553306D01*
X236199Y551135D01*
X237972Y549362D01*
X240142Y548109D01*
X242564Y547460D01*
X245070D01*
X247491Y548109D01*
X248696Y548805D01*
X254590Y542911D01*
Y537040D01*
X252050Y536360D01*
X251435Y537425D01*
X249662Y539198D01*
X247491Y540451D01*
X245070Y541100D01*
X242564D01*
X240142Y540451D01*
X237972Y539198D01*
X236214Y537440D01*
X236144Y537441D01*
X233674Y538132D01*
Y544054D01*
X233497Y544946D01*
X232991Y545702D01*
X226593Y552101D01*
X227288Y553306D01*
X227937Y555727D01*
Y558233D01*
X227288Y560655D01*
X226035Y562826D01*
X224262Y564598D01*
X222092Y565851D01*
X219670Y566500D01*
X217164D01*
X214742Y565851D01*
X212572Y564598D01*
X210799Y562826D01*
X209546Y560655D01*
X208897Y558233D01*
Y555727D01*
X209546Y553306D01*
X210799Y551135D01*
X212572Y549362D01*
X214742Y548109D01*
X217164Y547460D01*
X219670D01*
X222092Y548109D01*
X223296Y548805D01*
X229012Y543088D01*
Y537348D01*
X226472Y536668D01*
X226035Y537425D01*
X224262Y539198D01*
X222092Y540451D01*
X219670Y541100D01*
X217164D01*
X214742Y540451D01*
X212572Y539198D01*
X210799Y537425D01*
X210484Y536880D01*
X207944Y537560D01*
Y544384D01*
X207766Y545276D01*
X207261Y546032D01*
X201193Y552101D01*
X201888Y553306D01*
X202537Y555727D01*
Y558233D01*
X201888Y560655D01*
X200635Y562826D01*
X198862Y564598D01*
X196691Y565851D01*
X194270Y566500D01*
X191764D01*
X189342Y565851D01*
X187172Y564598D01*
X185399Y562826D01*
X184146Y560655D01*
X183497Y558233D01*
Y555727D01*
X184146Y553306D01*
X185399Y551135D01*
X187172Y549362D01*
X189342Y548109D01*
X191764Y547460D01*
X194270D01*
X196691Y548109D01*
X197896Y548805D01*
X203282Y543419D01*
Y537920D01*
X200742Y537240D01*
X200635Y537425D01*
X198862Y539198D01*
X196691Y540451D01*
X194270Y541100D01*
X191764D01*
X189342Y540451D01*
X187172Y539198D01*
X185630Y537656D01*
X184632Y537784D01*
X183090Y538506D01*
Y539000D01*
X182893Y539991D01*
X182331Y540831D01*
X173631Y549531D01*
X175235Y551135D01*
X176488Y553306D01*
X177137Y555727D01*
Y558233D01*
X176488Y560655D01*
X175235Y562826D01*
X173462Y564598D01*
X171292Y565851D01*
X168870Y566500D01*
X166364D01*
X163942Y565851D01*
X161772Y564598D01*
X159999Y562826D01*
X158746Y560655D01*
X158097Y558233D01*
Y555727D01*
X158746Y553306D01*
X159999Y551135D01*
X161772Y549362D01*
X163942Y548109D01*
X166364Y547460D01*
X168404D01*
X168457Y547381D01*
X174040Y541797D01*
X172481Y539765D01*
X171292Y540451D01*
X168870Y541100D01*
X166364D01*
X163942Y540451D01*
X161772Y539198D01*
X159999Y537425D01*
X158746Y535255D01*
X158097Y532834D01*
Y530327D01*
X158746Y527906D01*
X159999Y525735D01*
X161772Y523962D01*
X163942Y522709D01*
X165027Y522418D01*
Y517935D01*
X165097Y517585D01*
X165125Y517230D01*
X165194Y517094D01*
X165224Y516944D01*
X165422Y516648D01*
X165585Y516330D01*
X170886Y509617D01*
X170988Y509530D01*
X171061Y509418D01*
X274933Y402437D01*
X274949Y402426D01*
X274960Y402410D01*
X279799Y397570D01*
Y377303D01*
X279722Y377251D01*
X278904Y376028D01*
X278617Y374584D01*
Y367386D01*
X278904Y365943D01*
X279722Y364719D01*
X280946Y363902D01*
X282389Y363615D01*
X283832Y363902D01*
X284948Y364647D01*
X285057Y364719D01*
X287721D01*
X287830Y364647D01*
X288946Y363902D01*
X290389Y363615D01*
X291415Y361229D01*
Y359706D01*
X290555Y358845D01*
X289935Y357349D01*
Y355730D01*
X290555Y354234D01*
X291700Y353089D01*
X293195Y352470D01*
X294815D01*
X296311Y353089D01*
X296346Y353125D01*
X298005Y353958D01*
X299664Y353125D01*
X299700Y353089D01*
X301195Y352470D01*
X302815D01*
X304310Y353089D01*
X304611Y353390D01*
X307151Y352338D01*
Y343205D01*
X307413Y341887D01*
Y338435D01*
X315953D01*
Y341887D01*
X316215Y343205D01*
Y359366D01*
X317594Y360745D01*
X317594Y360745D01*
X318576Y362215D01*
X318921Y363949D01*
X318921Y363949D01*
Y370985D01*
Y432984D01*
X336798Y450860D01*
X342470D01*
X343920Y450260D01*
X345539D01*
X346989Y450860D01*
X350470D01*
X351920Y450260D01*
X353539D01*
X355035Y450879D01*
X356180Y452024D01*
X356401Y452557D01*
X357123Y453111D01*
X358344Y454703D01*
X359112Y456557D01*
X359374Y458546D01*
X359112Y460535D01*
X358344Y462389D01*
X357123Y463981D01*
X355883Y464932D01*
X355035Y465780D01*
X353539Y466400D01*
X351920D01*
X351515Y466232D01*
X345945D01*
X345539Y466400D01*
X343920D01*
X343515Y466232D01*
X335832D01*
X330941Y471123D01*
X331313Y473907D01*
X332790Y475148D01*
X332796Y475151D01*
X332952Y475255D01*
X334389Y475297D01*
X335826Y475255D01*
X335984Y475150D01*
X336946Y474507D01*
X338389Y474220D01*
X339832Y474507D01*
X340796Y475151D01*
X340952Y475255D01*
X342389Y475297D01*
X343826Y475255D01*
X343982Y475151D01*
X344946Y474507D01*
X346389Y474220D01*
X347832Y474507D01*
X348948Y475253D01*
X349057Y475325D01*
X351721D01*
X351830Y475253D01*
X352946Y474507D01*
X354389Y474220D01*
X355832Y474507D01*
X356948Y475253D01*
X357057Y475325D01*
X359721D01*
X359830Y475253D01*
X360946Y474507D01*
X362389Y474220D01*
X363832Y474507D01*
X364948Y475253D01*
X365057Y475325D01*
X367721D01*
X367830Y475253D01*
X368946Y474507D01*
X370389Y474220D01*
X371832Y474507D01*
X372796Y475151D01*
X372952Y475255D01*
X374389Y475297D01*
X375826Y475255D01*
X375982Y475151D01*
X376946Y474507D01*
X378389Y474220D01*
X379832Y474507D01*
X380948Y475253D01*
X381057Y475325D01*
X383721D01*
X383830Y475253D01*
X384946Y474507D01*
X386389Y474220D01*
X387832Y474507D01*
X388796Y475151D01*
X388952Y475255D01*
X390389Y475297D01*
X391826Y475255D01*
X391982Y475151D01*
X392946Y474507D01*
X394389Y474220D01*
X395832Y474507D01*
X396150Y474720D01*
X398690Y474293D01*
X399421Y474293D01*
X406088D01*
Y488889D01*
X404720D01*
Y511387D01*
X416738Y523405D01*
X417942Y522709D01*
X420364Y522060D01*
X422870D01*
X425291Y522709D01*
X427462Y523962D01*
X429235Y525735D01*
X430488Y527906D01*
X431137Y530327D01*
Y532834D01*
X430488Y535255D01*
X429235Y537425D01*
X427462Y539198D01*
X425291Y540451D01*
X422870Y541100D01*
X420364D01*
X417942Y540451D01*
X415772Y539198D01*
X413999Y537425D01*
X413371Y536337D01*
X410831Y537018D01*
Y542898D01*
X416738Y548805D01*
X417942Y548109D01*
X420364Y547460D01*
X422870D01*
X425291Y548109D01*
X427462Y549362D01*
X429235Y551135D01*
X430488Y553306D01*
X431137Y555727D01*
Y558233D01*
X430488Y560655D01*
X429235Y562826D01*
X427462Y564598D01*
X425291Y565851D01*
X422870Y566500D01*
D02*
G37*
G36*
X143470D02*
X140964D01*
X138542Y565851D01*
X136372Y564598D01*
X134599Y562826D01*
X133346Y560655D01*
X132697Y558233D01*
Y555727D01*
X133346Y553306D01*
X134599Y551135D01*
X136372Y549362D01*
X138542Y548109D01*
X140964Y547460D01*
X143470D01*
X145892Y548109D01*
X148062Y549362D01*
X149835Y551135D01*
X151088Y553306D01*
X151737Y555727D01*
Y558233D01*
X151088Y560655D01*
X149835Y562826D01*
X148062Y564598D01*
X145892Y565851D01*
X143470Y566500D01*
D02*
G37*
G36*
X118070Y541100D02*
X115564D01*
X113142Y540451D01*
X110972Y539198D01*
X109199Y537425D01*
X107946Y535255D01*
X107297Y532834D01*
Y530327D01*
X107946Y527906D01*
X109199Y525735D01*
X110972Y523962D01*
X113142Y522709D01*
X115564Y522060D01*
X118070D01*
X120492Y522709D01*
X122662Y523962D01*
X124435Y525735D01*
X125688Y527906D01*
X126337Y530327D01*
Y532834D01*
X125688Y535255D01*
X124435Y537425D01*
X122662Y539198D01*
X120492Y540451D01*
X118070Y541100D01*
D02*
G37*
G36*
X504053Y693520D02*
X501547D01*
X499125Y692871D01*
X496955Y691618D01*
X495182Y689845D01*
X493929Y687675D01*
X493280Y685253D01*
Y682747D01*
X493929Y680325D01*
X495114Y678272D01*
Y664328D01*
X493929Y662275D01*
X493280Y659853D01*
Y657347D01*
X493929Y654925D01*
X495114Y652872D01*
Y638928D01*
X493929Y636875D01*
X493280Y634453D01*
Y631947D01*
X493929Y629525D01*
X495114Y627472D01*
Y613528D01*
X493929Y611475D01*
X493280Y609053D01*
Y607321D01*
X492472Y606513D01*
X491251Y604922D01*
X490483Y603068D01*
X490221Y601079D01*
Y486348D01*
X489036Y484295D01*
X488387Y481874D01*
Y479367D01*
X489036Y476946D01*
X490289Y474775D01*
X492062Y473002D01*
X494232Y471749D01*
X496654Y471100D01*
X499160D01*
X501581Y471749D01*
X503752Y473002D01*
X505525Y474775D01*
X506778Y476946D01*
X507427Y479367D01*
Y481874D01*
X506778Y484295D01*
X505593Y486348D01*
Y597895D01*
X506834Y599136D01*
X508645Y600182D01*
X510418Y601955D01*
X511671Y604125D01*
X512320Y606547D01*
Y609053D01*
X511671Y611475D01*
X510486Y613528D01*
Y627472D01*
X511671Y629525D01*
X512320Y631947D01*
Y634453D01*
X511671Y636875D01*
X510486Y638928D01*
Y652872D01*
X511671Y654925D01*
X512320Y657347D01*
Y659853D01*
X511671Y662275D01*
X510486Y664328D01*
Y678272D01*
X511671Y680325D01*
X512320Y682747D01*
Y685253D01*
X511671Y687675D01*
X510418Y689845D01*
X508645Y691618D01*
X506475Y692871D01*
X504053Y693520D01*
D02*
G37*
G36*
X524560Y464740D02*
X522054D01*
X519632Y464091D01*
X517462Y462838D01*
X515689Y461066D01*
X514436Y458895D01*
X513787Y456474D01*
Y453967D01*
X514436Y451546D01*
X515131Y450341D01*
X510271Y445481D01*
X430955D01*
X430063Y445304D01*
X429307Y444798D01*
X362785Y378277D01*
X362389Y378356D01*
X360946Y378069D01*
X359830Y377323D01*
X359721Y377251D01*
X357057D01*
X356948Y377323D01*
X355832Y378069D01*
X354389Y378356D01*
X352946Y378069D01*
X351830Y377323D01*
X351721Y377251D01*
X349057D01*
X348948Y377323D01*
X347832Y378069D01*
X346389Y378356D01*
X344946Y378069D01*
X343830Y377323D01*
X343721Y377251D01*
X341057D01*
X340948Y377323D01*
X339832Y378069D01*
X338389Y378356D01*
X336946Y378069D01*
X335984Y377426D01*
X335826Y377321D01*
X334389Y377279D01*
X332952Y377321D01*
X332794Y377426D01*
X331832Y378069D01*
X330389Y378356D01*
X328946Y378069D01*
X327722Y377251D01*
X326904Y376028D01*
X326617Y374584D01*
Y367386D01*
X326904Y365943D01*
X327722Y364719D01*
X328351Y364299D01*
X328440Y363851D01*
X329001Y363011D01*
X365292Y326721D01*
X366132Y326159D01*
X367123Y325962D01*
X480495D01*
X481486Y326159D01*
X482326Y326721D01*
X486006Y330401D01*
X487694Y329743D01*
X488387Y329190D01*
Y326967D01*
X489036Y324546D01*
X490289Y322375D01*
X492062Y320602D01*
X494232Y319349D01*
X496654Y318700D01*
X499160D01*
X501581Y319349D01*
X503752Y320602D01*
X505525Y322375D01*
X506778Y324546D01*
X507427Y326967D01*
Y329473D01*
X506778Y331895D01*
X505525Y334066D01*
X503878Y335713D01*
X503917Y336282D01*
X504650Y338253D01*
X509612D01*
X514997Y332867D01*
X514436Y331895D01*
X513787Y329473D01*
Y326967D01*
X514436Y324546D01*
X515689Y322375D01*
X517462Y320602D01*
X519632Y319349D01*
X522054Y318700D01*
X524560D01*
X526982Y319349D01*
X529152Y320602D01*
X530925Y322375D01*
X532178Y324546D01*
X532827Y326967D01*
Y329473D01*
X532178Y331895D01*
X530925Y334066D01*
X529152Y335838D01*
X526982Y337091D01*
X524560Y337740D01*
X522054D01*
X519632Y337091D01*
X518660Y336530D01*
X512516Y342674D01*
X511676Y343235D01*
X510685Y343432D01*
X504381D01*
X503700Y345972D01*
X503752Y346002D01*
X505525Y347775D01*
X506778Y349946D01*
X507427Y352367D01*
Y354874D01*
X506778Y357295D01*
X505632Y359280D01*
X505843Y360072D01*
X506762Y361820D01*
X511444D01*
X514997Y358267D01*
X514436Y357295D01*
X513787Y354874D01*
Y352367D01*
X514436Y349946D01*
X515689Y347775D01*
X517462Y346002D01*
X519632Y344749D01*
X522054Y344100D01*
X524560D01*
X526982Y344749D01*
X529152Y346002D01*
X530925Y347775D01*
X532178Y349946D01*
X532827Y352367D01*
Y354874D01*
X532178Y357295D01*
X530925Y359466D01*
X529152Y361238D01*
X526982Y362491D01*
X524560Y363140D01*
X522054D01*
X519632Y362491D01*
X518660Y361930D01*
X514258Y366331D01*
X513418Y366893D01*
X513192Y366938D01*
X512238Y369051D01*
X512192Y369529D01*
X515763Y373101D01*
X517462Y371402D01*
X519632Y370149D01*
X522054Y369500D01*
X524560D01*
X526982Y370149D01*
X529152Y371402D01*
X530925Y373175D01*
X532178Y375346D01*
X532827Y377767D01*
Y380274D01*
X532178Y382695D01*
X530925Y384866D01*
X529152Y386638D01*
X526982Y387891D01*
X524560Y388540D01*
X522054D01*
X519632Y387891D01*
X517462Y386638D01*
X515689Y384866D01*
X514436Y382695D01*
X513787Y380274D01*
Y378360D01*
X513518Y378180D01*
X508383Y373046D01*
X506351Y374605D01*
X506778Y375346D01*
X507427Y377767D01*
Y380274D01*
X506778Y382695D01*
X505525Y384866D01*
X503752Y386638D01*
X503345Y386873D01*
X504025Y389413D01*
X510390D01*
X510631Y389365D01*
X511523Y389543D01*
X512279Y390048D01*
X512376Y390193D01*
X518428Y396245D01*
X519632Y395549D01*
X522054Y394900D01*
X524560D01*
X526982Y395549D01*
X529152Y396802D01*
X530925Y398575D01*
X532178Y400746D01*
X532827Y403167D01*
Y405673D01*
X532178Y408095D01*
X530925Y410266D01*
X529152Y412038D01*
X526982Y413291D01*
X524560Y413940D01*
X522054D01*
X519632Y413291D01*
X517462Y412038D01*
X515689Y410266D01*
X514436Y408095D01*
X513787Y405673D01*
Y403167D01*
X514436Y400746D01*
X515131Y399541D01*
X509666Y394075D01*
X504109D01*
X503428Y396615D01*
X503752Y396802D01*
X505525Y398575D01*
X506778Y400746D01*
X507427Y403167D01*
Y405673D01*
X506778Y408095D01*
X505525Y410266D01*
X503873Y411918D01*
X503909Y412465D01*
X504641Y414458D01*
X510275D01*
X511167Y414635D01*
X511923Y415140D01*
X518428Y421645D01*
X519632Y420949D01*
X522054Y420300D01*
X524560D01*
X526982Y420949D01*
X529152Y422202D01*
X530925Y423975D01*
X532178Y426146D01*
X532827Y428567D01*
Y431073D01*
X532178Y433495D01*
X530925Y435666D01*
X529152Y437438D01*
X526982Y438691D01*
X524560Y439340D01*
X522054D01*
X519632Y438691D01*
X517462Y437438D01*
X515689Y435666D01*
X514436Y433495D01*
X513787Y431073D01*
Y428567D01*
X514436Y426146D01*
X515131Y424941D01*
X509310Y419119D01*
X503493D01*
X502812Y421659D01*
X503752Y422202D01*
X505525Y423975D01*
X506778Y426146D01*
X507427Y428567D01*
Y431073D01*
X506778Y433495D01*
X505525Y435666D01*
X503752Y437438D01*
X502295Y438279D01*
X502976Y440819D01*
X511237D01*
X512129Y440997D01*
X512885Y441502D01*
X518428Y447045D01*
X519632Y446349D01*
X522054Y445700D01*
X524560D01*
X526982Y446349D01*
X529152Y447602D01*
X530925Y449375D01*
X532178Y451546D01*
X532827Y453967D01*
Y456474D01*
X532178Y458895D01*
X530925Y461066D01*
X529152Y462838D01*
X526982Y464091D01*
X524560Y464740D01*
D02*
G37*
G36*
X67180Y464740D02*
X64674D01*
X62252Y464091D01*
X60082Y462838D01*
X58309Y461065D01*
X57056Y458895D01*
X56407Y456474D01*
Y453967D01*
X57056Y451546D01*
X58309Y449375D01*
X60082Y447602D01*
X62252Y446349D01*
X64674Y445700D01*
X67180D01*
X69602Y446349D01*
X71772Y447602D01*
X73545Y449375D01*
X74798Y451546D01*
X75447Y453967D01*
Y456474D01*
X74798Y458895D01*
X73545Y461065D01*
X71772Y462838D01*
X69602Y464091D01*
X67180Y464740D01*
D02*
G37*
G36*
X41780D02*
X39274D01*
X36853Y464091D01*
X34682Y462838D01*
X32909Y461065D01*
X31656Y458895D01*
X31007Y456474D01*
Y453967D01*
X31656Y451546D01*
X32909Y449375D01*
X34682Y447602D01*
X36853Y446349D01*
X39274Y445700D01*
X41780D01*
X44202Y446349D01*
X46372Y447602D01*
X48145Y449375D01*
X49398Y451546D01*
X50047Y453967D01*
Y456474D01*
X49398Y458895D01*
X48145Y461065D01*
X46372Y462838D01*
X44202Y464091D01*
X41780Y464740D01*
D02*
G37*
G36*
X110691Y493844D02*
X109189Y492341D01*
X108379Y492180D01*
X106718Y491071D01*
X105609Y489410D01*
X105448Y488600D01*
X103945Y487098D01*
X105223Y485820D01*
X105609Y483882D01*
X106718Y482222D01*
X118556Y470384D01*
X118556Y470384D01*
X128039Y460901D01*
X136943Y451996D01*
X137364Y451367D01*
X138419Y450663D01*
X150880Y438201D01*
Y435230D01*
X163120D01*
Y446770D01*
X156788D01*
X144952Y458606D01*
X144527Y458890D01*
X135277Y468139D01*
X125794Y477623D01*
X125794Y477623D01*
X116171Y487246D01*
X116730Y487805D01*
X114949Y489586D01*
X113957Y491071D01*
X112472Y492063D01*
X110691Y493844D01*
D02*
G37*
G36*
X67180Y439340D02*
X64674D01*
X62252Y438691D01*
X60082Y437438D01*
X58309Y435666D01*
X57056Y433495D01*
X56407Y431073D01*
Y428567D01*
X57056Y426146D01*
X58309Y423975D01*
X60082Y422202D01*
X62252Y420949D01*
X64674Y420300D01*
X67180D01*
X69602Y420949D01*
X71772Y422202D01*
X73545Y423975D01*
X74798Y426146D01*
X75447Y428567D01*
Y431073D01*
X74798Y433495D01*
X73545Y435666D01*
X71772Y437438D01*
X69602Y438691D01*
X67180Y439340D01*
D02*
G37*
G36*
X41780D02*
X39274D01*
X36853Y438691D01*
X34682Y437438D01*
X32909Y435666D01*
X31656Y433495D01*
X31007Y431073D01*
Y428567D01*
X31656Y426146D01*
X32909Y423975D01*
X34682Y422202D01*
X36853Y420949D01*
X39274Y420300D01*
X41780D01*
X44202Y420949D01*
X46372Y422202D01*
X48145Y423975D01*
X49398Y426146D01*
X50047Y428567D01*
Y431073D01*
X49398Y433495D01*
X48145Y435666D01*
X46372Y437438D01*
X44202Y438691D01*
X41780Y439340D01*
D02*
G37*
G36*
Y413940D02*
X39274D01*
X36853Y413291D01*
X34682Y412038D01*
X32909Y410266D01*
X31656Y408095D01*
X31007Y405673D01*
Y403167D01*
X31656Y400746D01*
X32909Y398575D01*
X34682Y396802D01*
X36853Y395549D01*
X39274Y394900D01*
X41780D01*
X44202Y395549D01*
X46372Y396802D01*
X48145Y398575D01*
X49398Y400746D01*
X50047Y403167D01*
Y405673D01*
X49398Y408095D01*
X48145Y410266D01*
X46372Y412038D01*
X44202Y413291D01*
X41780Y413940D01*
D02*
G37*
G36*
X239722Y387178D02*
X238103D01*
X236607Y386559D01*
X236572Y386523D01*
X234912Y385690D01*
X233253Y386523D01*
X233218Y386559D01*
X231722Y387178D01*
X230103D01*
X228607Y386559D01*
X227462Y385414D01*
X226842Y383918D01*
Y382299D01*
X227462Y380803D01*
X228607Y379658D01*
X230103Y379038D01*
X230230Y378898D01*
X231219Y376498D01*
X230905Y376028D01*
X230617Y374584D01*
Y367386D01*
X230905Y365943D01*
X231722Y364719D01*
X232946Y363902D01*
X234389Y363615D01*
X235832Y363902D01*
X236948Y364647D01*
X237057Y364719D01*
X239721D01*
X239830Y364647D01*
X240946Y363902D01*
X242389Y363615D01*
X243832Y363902D01*
X244794Y364544D01*
X244952Y364649D01*
X246389Y364692D01*
X247826Y364649D01*
X247984Y364544D01*
X248946Y363902D01*
X250389Y363615D01*
X251832Y363902D01*
X252948Y364647D01*
X253057Y364719D01*
X255721D01*
X255830Y364647D01*
X256946Y363902D01*
X258389Y363615D01*
X259832Y363902D01*
X260948Y364647D01*
X261057Y364719D01*
X263721D01*
X263830Y364647D01*
X264946Y363902D01*
X266389Y363615D01*
X267832Y363902D01*
X269056Y364719D01*
X269874Y365943D01*
X270161Y367386D01*
Y374584D01*
X269874Y376028D01*
X269056Y377251D01*
X268979Y377303D01*
Y380191D01*
X268782Y381182D01*
X268427Y381713D01*
X268550Y382010D01*
Y383629D01*
X267930Y385125D01*
X266786Y386270D01*
X265290Y386890D01*
X263671D01*
X262175Y386270D01*
X262073Y386168D01*
X260403Y385412D01*
X258754Y386168D01*
X258643Y386279D01*
X257147Y386899D01*
X255528D01*
X254032Y386279D01*
X253997Y386244D01*
X252338Y385410D01*
X250678Y386244D01*
X250643Y386279D01*
X249147Y386899D01*
X247528D01*
X246032Y386279D01*
X245128Y385375D01*
X243233Y385317D01*
X242363Y385414D01*
X241218Y386559D01*
X239722Y387178D01*
D02*
G37*
G36*
X163120Y431070D02*
X150880D01*
Y419530D01*
X151882D01*
Y399005D01*
X151519Y397180D01*
Y383946D01*
X151595Y383563D01*
Y356434D01*
X149741Y354580D01*
X147684D01*
X146990Y354441D01*
X146401Y354048D01*
X146007Y353459D01*
X145869Y352765D01*
Y347785D01*
X146007Y347090D01*
X146401Y346501D01*
X146990Y346108D01*
X147684Y345970D01*
X150081D01*
X150716Y345546D01*
X152674Y345156D01*
X154633Y345546D01*
X155267Y345970D01*
X156664D01*
X157359Y346108D01*
X157948Y346501D01*
X158341Y347090D01*
X158479Y347785D01*
Y348841D01*
X160332Y350695D01*
X161442Y352355D01*
X161832Y354314D01*
Y383870D01*
X161755Y384253D01*
Y395718D01*
X162118Y397543D01*
Y419530D01*
X163120D01*
Y431070D01*
D02*
G37*
G36*
X67180Y363140D02*
X64674D01*
X62252Y362491D01*
X60082Y361238D01*
X58309Y359465D01*
X57056Y357295D01*
X56407Y354874D01*
Y352367D01*
X57056Y349946D01*
X58309Y347775D01*
X60082Y346002D01*
X62252Y344749D01*
X64674Y344100D01*
X67180D01*
X69602Y344749D01*
X71772Y346002D01*
X73545Y347775D01*
X74798Y349946D01*
X75447Y352367D01*
Y354874D01*
X74798Y357295D01*
X73545Y359465D01*
X71772Y361238D01*
X69602Y362491D01*
X67180Y363140D01*
D02*
G37*
G36*
X41780D02*
X39274D01*
X36853Y362491D01*
X34682Y361238D01*
X32909Y359465D01*
X31656Y357295D01*
X31007Y354874D01*
Y352367D01*
X31656Y349946D01*
X32909Y347775D01*
X34682Y346002D01*
X36853Y344749D01*
X39274Y344100D01*
X41780D01*
X44202Y344749D01*
X46372Y346002D01*
X48145Y347775D01*
X49398Y349946D01*
X50047Y352367D01*
Y354874D01*
X49398Y357295D01*
X48145Y359465D01*
X46372Y361238D01*
X44202Y362491D01*
X41780Y363140D01*
D02*
G37*
G36*
X67180Y337740D02*
X64674D01*
X62252Y337091D01*
X60082Y335838D01*
X58309Y334066D01*
X57056Y331895D01*
X56407Y329473D01*
Y326967D01*
X57056Y324546D01*
X58309Y322375D01*
X60082Y320602D01*
X62252Y319349D01*
X64674Y318700D01*
X67180D01*
X69602Y319349D01*
X71772Y320602D01*
X73545Y322375D01*
X74798Y324546D01*
X75447Y326967D01*
Y329473D01*
X74798Y331895D01*
X73545Y334066D01*
X71772Y335838D01*
X69602Y337091D01*
X67180Y337740D01*
D02*
G37*
G36*
X41780D02*
X39274D01*
X36853Y337091D01*
X34682Y335838D01*
X32909Y334066D01*
X31656Y331895D01*
X31007Y329473D01*
Y326967D01*
X31656Y324546D01*
X32909Y322375D01*
X34682Y320602D01*
X36853Y319349D01*
X39274Y318700D01*
X41780D01*
X44202Y319349D01*
X46372Y320602D01*
X48145Y322375D01*
X49398Y324546D01*
X50047Y326967D01*
Y329473D01*
X49398Y331895D01*
X48145Y334066D01*
X46372Y335838D01*
X44202Y337091D01*
X41780Y337740D01*
D02*
G37*
G36*
X129661Y372680D02*
X111449D01*
X111092Y372532D01*
X110712Y372466D01*
X91738Y360401D01*
X91648Y360272D01*
X91504Y360213D01*
X91356Y359856D01*
X91134Y359539D01*
X91161Y359385D01*
X91101Y359241D01*
Y347328D01*
X91504Y346356D01*
X92476Y345953D01*
X92227Y343551D01*
X92227Y343516D01*
Y341314D01*
X91994Y340965D01*
X91604Y339006D01*
Y323778D01*
X91994Y321819D01*
X93103Y320159D01*
X100421Y312840D01*
X102082Y311730D01*
X104041Y311341D01*
X135859D01*
X137817Y311730D01*
X139478Y312840D01*
X152794Y326156D01*
X162605D01*
X175352Y313409D01*
X175408Y313128D01*
X176518Y311468D01*
X178178Y310358D01*
X180137Y309969D01*
X193680D01*
X195431Y310317D01*
X197950D01*
Y312442D01*
X198409Y313128D01*
X198798Y315087D01*
X198409Y317046D01*
X197950Y317732D01*
Y319857D01*
X195431D01*
X193680Y320205D01*
X183033D01*
X168344Y334894D01*
X166684Y336003D01*
X164725Y336393D01*
X152174D01*
X151424Y336244D01*
X150674Y336393D01*
X148715Y336003D01*
X148081Y335580D01*
X147684D01*
X146990Y335442D01*
X146401Y335048D01*
X146007Y334459D01*
X145869Y333765D01*
Y333708D01*
X133739Y321578D01*
X127754D01*
X126782Y323924D01*
X129658Y326801D01*
X129692D01*
X130665Y327203D01*
X131067Y328175D01*
Y334190D01*
X131067Y334190D01*
X131067Y334190D01*
X130665Y335162D01*
X130664Y335162D01*
X130664Y335162D01*
X130606Y335221D01*
X130605Y335221D01*
X130125Y335420D01*
X130125Y335420D01*
X129648Y335623D01*
X129648Y335623D01*
X129186Y335628D01*
X129186Y335628D01*
X129174Y335628D01*
X129174Y335628D01*
X129173Y335628D01*
X102758Y335904D01*
X101841Y338260D01*
Y339006D01*
X101767Y339378D01*
Y343413D01*
X101767Y343551D01*
X102099Y345953D01*
X129661D01*
X130633Y346356D01*
X131036Y347328D01*
Y371306D01*
X130633Y372278D01*
X129661Y372680D01*
D02*
G37*
G36*
X41780Y312340D02*
X39274D01*
X36853Y311691D01*
X34682Y310438D01*
X32909Y308666D01*
X31656Y306495D01*
X31007Y304074D01*
Y301567D01*
X31656Y299146D01*
X32909Y296975D01*
X34682Y295202D01*
X36853Y293949D01*
X39274Y293300D01*
X41780D01*
X44202Y293949D01*
X46372Y295202D01*
X48145Y296975D01*
X49398Y299146D01*
X50047Y301567D01*
Y304074D01*
X49398Y306495D01*
X48145Y308666D01*
X46372Y310438D01*
X44202Y311691D01*
X41780Y312340D01*
D02*
G37*
G36*
X210950Y319857D02*
X202410D01*
Y310317D01*
X210950D01*
Y311126D01*
X274621D01*
X277920Y307827D01*
X278034Y307750D01*
X287502Y298283D01*
X281438Y292220D01*
X284927Y288730D01*
X284832Y287215D01*
X282926Y285529D01*
X282926D01*
X276180Y278783D01*
X273946Y279521D01*
X252636Y300831D01*
X251796Y301393D01*
X250805Y301590D01*
X75447D01*
Y304074D01*
X74798Y306495D01*
X73545Y308666D01*
X71772Y310438D01*
X69602Y311691D01*
X67180Y312340D01*
X64674D01*
X62252Y311691D01*
X60082Y310438D01*
X58309Y308666D01*
X57056Y306495D01*
X56407Y304074D01*
Y301567D01*
X57056Y299146D01*
X58309Y296975D01*
X60082Y295202D01*
X62252Y293949D01*
X64674Y293300D01*
X67180D01*
X69602Y293949D01*
X71772Y295202D01*
X73071Y296500D01*
X73525Y296410D01*
X185080D01*
X186132Y293870D01*
X170219Y277957D01*
X169109Y276297D01*
X168720Y274338D01*
Y258823D01*
X169109Y256865D01*
X170219Y255204D01*
X172721Y252701D01*
X172449Y252043D01*
X170816Y250355D01*
X169844Y249952D01*
X169844Y249952D01*
X169844Y249952D01*
X169785Y249893D01*
X169785Y249893D01*
X169586Y249412D01*
X169586Y249412D01*
X169383Y248936D01*
X169383Y248936D01*
X169378Y248474D01*
X169378Y248474D01*
X169378Y248462D01*
X169100Y221869D01*
X166744Y220938D01*
X163187D01*
Y217979D01*
X163063Y217792D01*
X162673Y215833D01*
X163063Y213875D01*
X163187Y213688D01*
Y211398D01*
X165394D01*
X165833Y211105D01*
X167792Y210715D01*
X181172D01*
X183131Y211105D01*
X184791Y212214D01*
X192436Y219859D01*
X193546Y221520D01*
X193935Y223478D01*
Y243844D01*
X193546Y245803D01*
X192436Y247464D01*
X178956Y260944D01*
Y272218D01*
X192907Y286169D01*
X194056D01*
X195807Y286517D01*
X198326D01*
Y288642D01*
X198785Y289328D01*
X199174Y291287D01*
X198785Y293246D01*
X198415Y293800D01*
X199139Y296177D01*
X200371Y296359D01*
X202786Y295632D01*
Y286517D01*
X211326D01*
Y287326D01*
X228892D01*
X229944Y284786D01*
X226269Y281111D01*
X233015Y274365D01*
X235976Y277326D01*
X237386Y277151D01*
X238304Y274477D01*
X235644Y271817D01*
X242390Y265071D01*
X243499Y262991D01*
X241649Y261094D01*
X241458Y260613D01*
X241259Y260134D01*
X241263Y260125D01*
X241259Y260117D01*
X241463Y259641D01*
X241662Y259162D01*
X257493Y243331D01*
X252065Y237904D01*
X250844Y236312D01*
X250076Y234458D01*
X249814Y232469D01*
Y211613D01*
X250076Y209623D01*
X250488Y208629D01*
X248733Y206816D01*
X248606Y206689D01*
X241987Y200070D01*
X243175Y198882D01*
X240375Y196082D01*
X238833Y197623D01*
X232795Y191585D01*
X239540Y184839D01*
X245579Y190878D01*
X244037Y192419D01*
X246838Y195219D01*
X248026Y194031D01*
X254300Y200305D01*
X256619Y200916D01*
X258473Y199062D01*
X258279Y197270D01*
X257830Y196821D01*
X251533Y190524D01*
X252904Y189153D01*
X249750Y185999D01*
X248026Y187724D01*
X241987Y181685D01*
X248733Y174939D01*
X254771Y180978D01*
X253047Y182703D01*
X256200Y185857D01*
X257572Y184485D01*
X263869Y190783D01*
X264317Y191231D01*
X266748Y191495D01*
X286594Y171649D01*
X288186Y170427D01*
X290040Y169660D01*
X292029Y169398D01*
X307419D01*
X308192Y168625D01*
X309783Y167404D01*
X311637Y166636D01*
X312743Y166490D01*
X314106Y165127D01*
X314678Y163747D01*
X315823Y162602D01*
X317203Y162031D01*
X321430Y157803D01*
Y156690D01*
X322050Y155195D01*
X323195Y154050D01*
X324690Y153430D01*
X325803D01*
X326048Y153186D01*
X326301Y153081D01*
X326494Y152887D01*
X326494D01*
X327258Y152584D01*
X328121Y151865D01*
X328381Y151551D01*
X328910Y150703D01*
Y137556D01*
X299234Y107880D01*
X298262Y108441D01*
X295840Y109090D01*
X293334D01*
X290912Y108441D01*
X288742Y107188D01*
X286969Y105416D01*
X285716Y103245D01*
X285067Y100823D01*
Y98317D01*
X285716Y95896D01*
X286969Y93725D01*
X288742Y91952D01*
X290912Y90699D01*
X293334Y90050D01*
X295840D01*
X298262Y90699D01*
X300432Y91952D01*
X302205Y93725D01*
X302591Y94394D01*
X305131Y93713D01*
Y88377D01*
X299234Y82480D01*
X298262Y83041D01*
X295840Y83690D01*
X293334D01*
X290912Y83041D01*
X288742Y81788D01*
X286969Y80016D01*
X285716Y77845D01*
X285067Y75423D01*
Y72917D01*
X285716Y70496D01*
X286969Y68325D01*
X288742Y66552D01*
X290912Y65299D01*
X293334Y64650D01*
X295840D01*
X298262Y65299D01*
X300432Y66552D01*
X302205Y68325D01*
X303458Y70496D01*
X304107Y72917D01*
Y75423D01*
X303458Y77845D01*
X302897Y78817D01*
X309552Y85473D01*
X310114Y86313D01*
X310311Y87304D01*
Y92346D01*
X310848Y92706D01*
X312851Y93243D01*
X314142Y91952D01*
X316312Y90699D01*
X318734Y90050D01*
X321240D01*
X323662Y90699D01*
X325832Y91952D01*
X326641Y92761D01*
X329181Y91708D01*
Y87026D01*
X324634Y82480D01*
X323662Y83041D01*
X321240Y83690D01*
X318734D01*
X316312Y83041D01*
X314142Y81788D01*
X312369Y80016D01*
X311116Y77845D01*
X310467Y75423D01*
Y72917D01*
X311116Y70496D01*
X312369Y68325D01*
X314142Y66552D01*
X316312Y65299D01*
X318734Y64650D01*
X321240D01*
X323662Y65299D01*
X325832Y66552D01*
X327605Y68325D01*
X328858Y70496D01*
X329507Y72917D01*
Y75423D01*
X328858Y77845D01*
X328297Y78817D01*
X333602Y84122D01*
X334163Y84963D01*
X334360Y85954D01*
Y94549D01*
X336900Y95230D01*
X337769Y93725D01*
X339542Y91952D01*
X341712Y90699D01*
X344134Y90050D01*
X346640D01*
X349062Y90699D01*
X350731Y91663D01*
X352364Y91038D01*
X353219Y90347D01*
X353021Y85466D01*
X350034Y82480D01*
X349062Y83041D01*
X346640Y83690D01*
X344134D01*
X341712Y83041D01*
X339542Y81788D01*
X337769Y80016D01*
X336516Y77845D01*
X335867Y75423D01*
Y72917D01*
X336516Y70496D01*
X337769Y68325D01*
X339542Y66552D01*
X341712Y65299D01*
X344134Y64650D01*
X346640D01*
X349062Y65299D01*
X351232Y66552D01*
X353005Y68325D01*
X354258Y70496D01*
X354907Y72917D01*
Y75423D01*
X354258Y77845D01*
X353697Y78817D01*
X356355Y81475D01*
X356383Y81498D01*
X358429Y82087D01*
X359749Y81533D01*
X359784Y81511D01*
X362477Y78817D01*
X361916Y77845D01*
X361267Y75423D01*
Y72917D01*
X361916Y70496D01*
X363169Y68325D01*
X364942Y66552D01*
X367112Y65299D01*
X369534Y64650D01*
X372040D01*
X374462Y65299D01*
X376632Y66552D01*
X378405Y68325D01*
X379658Y70496D01*
X380307Y72917D01*
Y75423D01*
X379658Y77845D01*
X378405Y80016D01*
X376632Y81788D01*
X374462Y83041D01*
X372040Y83690D01*
X369534D01*
X367112Y83041D01*
X366140Y82480D01*
X362711Y85909D01*
Y90591D01*
X364056Y91412D01*
X365251Y91774D01*
X367112Y90699D01*
X369534Y90050D01*
X372040D01*
X374462Y90699D01*
X376632Y91952D01*
X378405Y93725D01*
X378801Y94410D01*
X380705Y94244D01*
X381525Y94048D01*
X381998Y93340D01*
X390516Y84822D01*
X390342Y81788D01*
X388569Y80016D01*
X387316Y77845D01*
X386667Y75423D01*
Y72917D01*
X387316Y70496D01*
X388569Y68325D01*
X390342Y66552D01*
X392512Y65299D01*
X394934Y64650D01*
X397440D01*
X399862Y65299D01*
X402032Y66552D01*
X403805Y68325D01*
X405058Y70496D01*
X405707Y72917D01*
Y75423D01*
X405058Y77845D01*
X403805Y80016D01*
X402032Y81788D01*
X399862Y83041D01*
X397440Y83690D01*
X397110D01*
Y84479D01*
X396913Y85470D01*
X396352Y86311D01*
X395152Y87510D01*
X396204Y90050D01*
X397440D01*
X399862Y90699D01*
X402032Y91952D01*
X403805Y93725D01*
X405058Y95896D01*
X405707Y98317D01*
Y100823D01*
X405058Y103245D01*
X403805Y105416D01*
X402032Y107188D01*
X399862Y108441D01*
X397440Y109090D01*
X394934D01*
X392512Y108441D01*
X391540Y107880D01*
X382950Y116470D01*
X383123Y119889D01*
X383406Y120120D01*
X384414Y119702D01*
X388061Y119222D01*
X416235D01*
X433244Y102213D01*
X432896Y99570D01*
Y74170D01*
X433377Y70523D01*
X434784Y67125D01*
X437024Y64207D01*
X439942Y61967D01*
X443340Y60560D01*
X446987Y60080D01*
X450634Y60560D01*
X454032Y61967D01*
X456950Y64207D01*
X459190Y67125D01*
X460597Y70523D01*
X461078Y74170D01*
Y99570D01*
X460597Y103217D01*
X460280Y103984D01*
X460597Y104751D01*
X461078Y108398D01*
X460597Y112044D01*
X459190Y115443D01*
X456950Y118361D01*
X454673Y120639D01*
Y163832D01*
X454411Y165821D01*
X453643Y167675D01*
X452422Y169267D01*
X404047Y217642D01*
X403740Y218383D01*
X403719Y218404D01*
X403846Y218711D01*
X403444Y219683D01*
X400875Y222251D01*
X400875Y222251D01*
X381063Y242064D01*
X382035Y244410D01*
X409496D01*
X492148Y161758D01*
X492988Y161197D01*
X493979Y161000D01*
X511076D01*
X512067Y161197D01*
X512908Y161758D01*
X518660Y167511D01*
X519632Y166949D01*
X522054Y166300D01*
X524560D01*
X526982Y166949D01*
X529152Y168202D01*
X530925Y169975D01*
X532178Y172146D01*
X532827Y174567D01*
Y177073D01*
X532178Y179495D01*
X530925Y181666D01*
X529152Y183438D01*
X526982Y184691D01*
X524560Y185340D01*
X522054D01*
X519632Y184691D01*
X517462Y183438D01*
X515689Y181666D01*
X514436Y179495D01*
X513787Y177073D01*
Y174567D01*
X514436Y172146D01*
X514997Y171173D01*
X510004Y166179D01*
X505158D01*
X504889Y166566D01*
X504269Y168719D01*
X505525Y169975D01*
X506778Y172146D01*
X507427Y174567D01*
Y177073D01*
X506778Y179495D01*
X505525Y181666D01*
X503752Y183438D01*
X501581Y184691D01*
X499160Y185340D01*
X499256Y187840D01*
X512517D01*
X513508Y188038D01*
X514348Y188599D01*
X518660Y192910D01*
X519632Y192349D01*
X522054Y191700D01*
X524560D01*
X526982Y192349D01*
X529152Y193602D01*
X530925Y195375D01*
X532178Y197546D01*
X532827Y199967D01*
Y202474D01*
X532178Y204895D01*
X530925Y207066D01*
X529152Y208838D01*
X526982Y210091D01*
X524560Y210740D01*
X522054D01*
X519632Y210091D01*
X517462Y208838D01*
X515689Y207066D01*
X514436Y204895D01*
X513787Y202474D01*
Y199967D01*
X514436Y197546D01*
X514997Y196573D01*
X511444Y193020D01*
X506762D01*
X505843Y194769D01*
X505632Y195560D01*
X506778Y197546D01*
X507427Y199967D01*
Y202474D01*
X506778Y204895D01*
X505525Y207066D01*
X503752Y208838D01*
X501581Y210091D01*
X501178Y210200D01*
X501512Y212740D01*
X512016D01*
X513007Y212937D01*
X513847Y213498D01*
X518660Y218311D01*
X519632Y217749D01*
X522054Y217100D01*
X524560D01*
X526982Y217749D01*
X529152Y219002D01*
X530925Y220775D01*
X532178Y222946D01*
X532827Y225367D01*
Y227873D01*
X532178Y230295D01*
X530925Y232466D01*
X529152Y234238D01*
X526982Y235491D01*
X524560Y236140D01*
X522054D01*
X519632Y235491D01*
X517462Y234238D01*
X515689Y232466D01*
X514436Y230295D01*
X513787Y227873D01*
Y225367D01*
X514436Y222946D01*
X514997Y221973D01*
X510943Y217919D01*
X506261D01*
X505209Y220459D01*
X505525Y220775D01*
X506778Y222946D01*
X507427Y225367D01*
Y227873D01*
X506778Y230295D01*
X505525Y232466D01*
X503752Y234238D01*
X501581Y235491D01*
X501178Y235600D01*
X501512Y238140D01*
X512016D01*
X513007Y238337D01*
X513847Y238898D01*
X518660Y243710D01*
X519632Y243149D01*
X522054Y242500D01*
X524560D01*
X526982Y243149D01*
X529152Y244402D01*
X530925Y246175D01*
X532178Y248346D01*
X532827Y250767D01*
Y253274D01*
X532178Y255695D01*
X530925Y257866D01*
X529152Y259638D01*
X526982Y260891D01*
X524560Y261540D01*
X522054D01*
X519632Y260891D01*
X517462Y259638D01*
X515689Y257866D01*
X514436Y255695D01*
X513787Y253274D01*
Y250767D01*
X514436Y248346D01*
X514997Y247373D01*
X510943Y243319D01*
X506261D01*
X505209Y245859D01*
X505525Y246175D01*
X506778Y248346D01*
X507427Y250767D01*
Y253274D01*
X506778Y255695D01*
X505525Y257866D01*
X503752Y259638D01*
X502362Y260441D01*
X503043Y262981D01*
X504368D01*
X505359Y263178D01*
X506199Y263739D01*
X513224Y270764D01*
X515689Y271575D01*
X517462Y269802D01*
X519632Y268549D01*
X522054Y267900D01*
X524560D01*
X526982Y268549D01*
X529152Y269802D01*
X530925Y271575D01*
X532178Y273746D01*
X532469Y274830D01*
X540127D01*
X558463Y256495D01*
X557960Y255622D01*
X557328Y253265D01*
Y250824D01*
X557960Y248466D01*
X559180Y246352D01*
X560906Y244626D01*
X563020Y243406D01*
X565377Y242774D01*
X567818D01*
X570176Y243406D01*
X572290Y244626D01*
X574016Y246352D01*
X575236Y248466D01*
X575868Y250824D01*
Y253265D01*
X575236Y255622D01*
X574016Y257736D01*
X572290Y259462D01*
X570176Y260682D01*
X567818Y261314D01*
X565377D01*
X563020Y260682D01*
X562120Y260163D01*
X543032Y279251D01*
X542191Y279813D01*
X541200Y280010D01*
X532469D01*
X532178Y281095D01*
X530925Y283266D01*
X529227Y284964D01*
X529241Y285308D01*
X529962Y287504D01*
X541319D01*
X553210Y275613D01*
X554050Y275052D01*
X555041Y274854D01*
X557695D01*
X557960Y273866D01*
X559180Y271752D01*
X560906Y270026D01*
X563020Y268806D01*
X565377Y268174D01*
X567818D01*
X570176Y268806D01*
X572290Y270026D01*
X574016Y271752D01*
X575236Y273866D01*
X575868Y276224D01*
Y278665D01*
X575236Y281022D01*
X574016Y283136D01*
X572290Y284862D01*
X570176Y286082D01*
X567818Y286714D01*
X565377D01*
X563020Y286082D01*
X560906Y284862D01*
X559180Y283136D01*
X558125Y281309D01*
X556808Y280953D01*
X555287Y280861D01*
X544223Y291925D01*
X543383Y292486D01*
X542392Y292683D01*
X529869D01*
X529174Y295125D01*
X529173Y295223D01*
X530925Y296975D01*
X532178Y299146D01*
X532472Y300242D01*
X557698D01*
X557960Y299266D01*
X559180Y297152D01*
X560906Y295426D01*
X563020Y294206D01*
X565377Y293574D01*
X567818D01*
X570176Y294206D01*
X572290Y295426D01*
X574016Y297152D01*
X575236Y299266D01*
X575868Y301624D01*
Y304065D01*
X575236Y306422D01*
X574016Y308536D01*
X572290Y310262D01*
X570176Y311482D01*
X567818Y312114D01*
X565377D01*
X563020Y311482D01*
X560906Y310262D01*
X559180Y308536D01*
X557960Y306422D01*
X557691Y305422D01*
X532466D01*
X532178Y306495D01*
X530925Y308666D01*
X529152Y310438D01*
X526982Y311691D01*
X524560Y312340D01*
X522054D01*
X519632Y311691D01*
X517462Y310438D01*
X515689Y308666D01*
X514436Y306495D01*
X513787Y304074D01*
Y302726D01*
X512987Y302567D01*
X512146Y302005D01*
X509452Y299311D01*
X507175Y300626D01*
X507427Y301567D01*
Y304074D01*
X506778Y306495D01*
X505525Y308666D01*
X503752Y310438D01*
X501581Y311691D01*
X499160Y312340D01*
X496654D01*
X494232Y311691D01*
X492062Y310438D01*
X490289Y308666D01*
X489036Y306495D01*
X488387Y304074D01*
Y301567D01*
X489036Y299146D01*
X490289Y296975D01*
X492042Y295222D01*
X492041Y295129D01*
X491347Y292682D01*
X490596D01*
X489605Y292485D01*
X488765Y291924D01*
X486431Y289590D01*
X336279D01*
X335227Y292130D01*
X347989Y304892D01*
X348392Y305864D01*
X348182Y306370D01*
X348187Y306380D01*
Y307999D01*
X347567Y309495D01*
X346422Y310640D01*
X344926Y311259D01*
X343566D01*
X342530Y312296D01*
Y313656D01*
X341910Y315152D01*
X340765Y316297D01*
X339269Y316916D01*
X337909D01*
X336744Y318082D01*
X336322Y318503D01*
X336322D01*
X335350Y318906D01*
X334378Y318503D01*
Y318503D01*
X333957Y318082D01*
X307871Y291996D01*
X305331Y293048D01*
Y298985D01*
X305153Y299877D01*
X304648Y300633D01*
X297885Y307396D01*
X299257Y308767D01*
X292511Y315513D01*
X286993Y309995D01*
X283560Y313429D01*
X283445Y313505D01*
X279062Y317888D01*
X277777Y318747D01*
X276261Y319048D01*
X210950D01*
Y319857D01*
D02*
G37*
G36*
X67180Y286940D02*
X64674D01*
X62252Y286291D01*
X60082Y285038D01*
X58309Y283265D01*
X57056Y281095D01*
X56407Y278673D01*
Y276167D01*
X57056Y273746D01*
X58309Y271575D01*
X60082Y269802D01*
X62252Y268549D01*
X64674Y267900D01*
X67180D01*
X69602Y268549D01*
X71772Y269802D01*
X73545Y271575D01*
X74798Y273746D01*
X75447Y276167D01*
Y278673D01*
X74798Y281095D01*
X73545Y283265D01*
X71772Y285038D01*
X69602Y286291D01*
X67180Y286940D01*
D02*
G37*
G36*
X41780D02*
X39274D01*
X36853Y286291D01*
X34682Y285038D01*
X32909Y283265D01*
X31656Y281095D01*
X31007Y278673D01*
Y276167D01*
X31656Y273746D01*
X32909Y271575D01*
X34682Y269802D01*
X36853Y268549D01*
X39274Y267900D01*
X41780D01*
X44202Y268549D01*
X46372Y269802D01*
X48145Y271575D01*
X49398Y273746D01*
X50047Y276167D01*
Y278673D01*
X49398Y281095D01*
X48145Y283265D01*
X46372Y285038D01*
X44202Y286291D01*
X41780Y286940D01*
D02*
G37*
G36*
X150861Y281118D02*
X132000D01*
X130041Y280729D01*
X128381Y279619D01*
X98831Y250070D01*
X97722Y248409D01*
X97332Y246451D01*
Y234479D01*
X97383Y234224D01*
Y221017D01*
X97404Y220914D01*
Y210040D01*
X96402D01*
Y198500D01*
X108642D01*
Y210040D01*
X107640D01*
Y220997D01*
X107620Y221100D01*
Y234428D01*
X107569Y234684D01*
Y244331D01*
X134120Y270882D01*
X148741D01*
X150212Y269410D01*
X150533Y268930D01*
Y267033D01*
X150671Y266338D01*
X151065Y265749D01*
X151653Y265356D01*
X152348Y265218D01*
X157328D01*
X158022Y265356D01*
X158611Y265749D01*
X159005Y266338D01*
X159143Y267033D01*
Y268930D01*
X159567Y269564D01*
X159956Y271523D01*
Y272023D01*
X159567Y273981D01*
X159143Y274616D01*
Y276013D01*
X159005Y276707D01*
X158611Y277296D01*
X158022Y277689D01*
X157328Y277828D01*
X156272D01*
X154480Y279619D01*
X152820Y280729D01*
X150861Y281118D01*
D02*
G37*
G36*
X67180Y261540D02*
X64674D01*
X62252Y260891D01*
X60082Y259638D01*
X58309Y257866D01*
X57056Y255695D01*
X56407Y253274D01*
Y250767D01*
X57056Y248346D01*
X58309Y246175D01*
X60082Y244402D01*
X62252Y243149D01*
X64674Y242500D01*
X67180D01*
X69602Y243149D01*
X71772Y244402D01*
X73545Y246175D01*
X74798Y248346D01*
X75447Y250767D01*
Y253274D01*
X74798Y255695D01*
X73545Y257866D01*
X71772Y259638D01*
X69602Y260891D01*
X67180Y261540D01*
D02*
G37*
G36*
X41780D02*
X39274D01*
X36853Y260891D01*
X34682Y259638D01*
X32909Y257866D01*
X31656Y255695D01*
X31007Y253274D01*
Y250767D01*
X31656Y248346D01*
X32909Y246175D01*
X34682Y244402D01*
X36853Y243149D01*
X39274Y242500D01*
X41780D01*
X44202Y243149D01*
X46372Y244402D01*
X48145Y246175D01*
X49398Y248346D01*
X50047Y250767D01*
Y253274D01*
X49398Y255695D01*
X48145Y257866D01*
X46372Y259638D01*
X44202Y260891D01*
X41780Y261540D01*
D02*
G37*
G36*
X67180Y236140D02*
X64674D01*
X62252Y235491D01*
X60082Y234238D01*
X58309Y232465D01*
X57056Y230295D01*
X56407Y227873D01*
Y225367D01*
X57056Y222946D01*
X58309Y220775D01*
X60082Y219002D01*
X62252Y217749D01*
X64674Y217100D01*
X67180D01*
X69602Y217749D01*
X71772Y219002D01*
X73545Y220775D01*
X74798Y222946D01*
X75447Y225367D01*
Y227873D01*
X74798Y230295D01*
X73545Y232465D01*
X71772Y234238D01*
X69602Y235491D01*
X67180Y236140D01*
D02*
G37*
G36*
X41780D02*
X39274D01*
X36853Y235491D01*
X34682Y234238D01*
X32909Y232465D01*
X31656Y230295D01*
X31007Y227873D01*
Y225367D01*
X31656Y222946D01*
X32909Y220775D01*
X34682Y219002D01*
X36853Y217749D01*
X39274Y217100D01*
X41780D01*
X44202Y217749D01*
X46372Y219002D01*
X48145Y220775D01*
X49398Y222946D01*
X50047Y225367D01*
Y227873D01*
X49398Y230295D01*
X48145Y232465D01*
X46372Y234238D01*
X44202Y235491D01*
X41780Y236140D01*
D02*
G37*
G36*
X157836Y250439D02*
X133858D01*
X132886Y250037D01*
X132483Y249065D01*
Y230853D01*
X132631Y230496D01*
X132698Y230115D01*
X144763Y211141D01*
X144891Y211052D01*
X144951Y210907D01*
X145308Y210759D01*
X145624Y210537D01*
X145778Y210564D01*
X145923Y210504D01*
X157836D01*
X158808Y210907D01*
X159210Y211879D01*
Y249065D01*
X158808Y250037D01*
X157836Y250439D01*
D02*
G37*
G36*
X67180Y210740D02*
X64674D01*
X62252Y210091D01*
X60082Y208838D01*
X58309Y207066D01*
X57056Y204895D01*
X56407Y202474D01*
Y199967D01*
X57056Y197546D01*
X58309Y195375D01*
X60082Y193602D01*
X62252Y192349D01*
X64674Y191700D01*
X67180D01*
X69602Y192349D01*
X71772Y193602D01*
X73545Y195375D01*
X74798Y197546D01*
X75447Y199967D01*
Y202474D01*
X74798Y204895D01*
X73545Y207066D01*
X71772Y208838D01*
X69602Y210091D01*
X67180Y210740D01*
D02*
G37*
G36*
X41780D02*
X39274D01*
X36853Y210091D01*
X34682Y208838D01*
X32909Y207066D01*
X31656Y204895D01*
X31007Y202474D01*
Y199967D01*
X31656Y197546D01*
X32909Y195375D01*
X34682Y193602D01*
X36853Y192349D01*
X39274Y191700D01*
X41780D01*
X44202Y192349D01*
X46372Y193602D01*
X48145Y195375D01*
X49398Y197546D01*
X50047Y199967D01*
Y202474D01*
X49398Y204895D01*
X48145Y207066D01*
X46372Y208838D01*
X44202Y210091D01*
X41780Y210740D01*
D02*
G37*
G36*
X229641Y188431D02*
X223602Y182392D01*
X227405Y178590D01*
Y169333D01*
X200169Y142097D01*
X199607Y141257D01*
X199410Y140266D01*
Y109656D01*
X197634Y107880D01*
X196662Y108441D01*
X194240Y109090D01*
X191734D01*
X189312Y108441D01*
X187142Y107188D01*
X185369Y105416D01*
X184116Y103245D01*
X183467Y100823D01*
Y98317D01*
X184116Y95896D01*
X185369Y93725D01*
X187142Y91952D01*
X189312Y90699D01*
X191734Y90050D01*
X194240D01*
X196662Y90699D01*
X198832Y91952D01*
X200605Y93725D01*
X201093Y94570D01*
X203633Y93889D01*
Y88478D01*
X197634Y82480D01*
X196662Y83041D01*
X194240Y83690D01*
X191734D01*
X189312Y83041D01*
X187142Y81788D01*
X185369Y80016D01*
X184116Y77845D01*
X183467Y75423D01*
Y73000D01*
X177107D01*
Y75423D01*
X176458Y77845D01*
X175205Y80016D01*
X173432Y81788D01*
X171262Y83041D01*
X168840Y83690D01*
X166334D01*
X163912Y83041D01*
X161742Y81788D01*
X159969Y80016D01*
X158716Y77845D01*
X158067Y75423D01*
Y73000D01*
X151707D01*
Y75423D01*
X151058Y77845D01*
X149805Y80016D01*
X148032Y81788D01*
X145862Y83041D01*
X143440Y83690D01*
X140934D01*
X138512Y83041D01*
X136342Y81788D01*
X134569Y80016D01*
X133770Y78632D01*
X131230Y79313D01*
Y87717D01*
X131033Y88708D01*
X130472Y89548D01*
X125097Y94923D01*
X125658Y95896D01*
X126307Y98317D01*
Y100823D01*
X125658Y103245D01*
X124405Y105416D01*
X122632Y107188D01*
X120462Y108441D01*
X118040Y109090D01*
X115534D01*
X113112Y108441D01*
X110942Y107188D01*
X109169Y105416D01*
X107916Y103245D01*
X107267Y100823D01*
Y98317D01*
X107916Y95896D01*
X109169Y93725D01*
X110942Y91952D01*
X113112Y90699D01*
X115534Y90050D01*
X118040D01*
X120462Y90699D01*
X121434Y91260D01*
X126051Y86644D01*
Y83690D01*
X107267D01*
Y64650D01*
X122645D01*
X146432Y40863D01*
X145641Y39494D01*
X145010Y37136D01*
Y34695D01*
X145641Y32338D01*
X146862Y30224D01*
X148588Y28498D01*
X150702Y27277D01*
X153059Y26646D01*
X155500D01*
X157858Y27277D01*
X159972Y28498D01*
X161697Y30224D01*
X162918Y32338D01*
X163550Y34695D01*
Y35916D01*
X170410D01*
Y34695D01*
X171041Y32338D01*
X172262Y30224D01*
X173988Y28498D01*
X176101Y27277D01*
X178459Y26646D01*
X180900D01*
X183258Y27277D01*
X185371Y28498D01*
X187097Y30224D01*
X188318Y32338D01*
X188950Y34695D01*
Y35916D01*
X195810D01*
Y34695D01*
X196441Y32338D01*
X197662Y30224D01*
X199388Y28498D01*
X201502Y27277D01*
X203859Y26646D01*
X206300D01*
X208658Y27277D01*
X210772Y28498D01*
X212497Y30224D01*
X213718Y32338D01*
X214350Y34695D01*
Y35916D01*
X221210D01*
Y34695D01*
X221841Y32338D01*
X223062Y30224D01*
X224788Y28498D01*
X226901Y27277D01*
X229259Y26646D01*
X231700D01*
X234058Y27277D01*
X236171Y28498D01*
X237897Y30224D01*
X239118Y32338D01*
X239750Y34695D01*
Y37136D01*
X239118Y39494D01*
X237897Y41607D01*
X236171Y43333D01*
X234058Y44554D01*
X231700Y45186D01*
X229259D01*
X226901Y44554D01*
X226015Y44042D01*
X205461Y64597D01*
X204620Y65158D01*
X203629Y65356D01*
X201802D01*
X199719Y67439D01*
X200605Y68325D01*
X201858Y70496D01*
X202507Y72917D01*
Y75423D01*
X201858Y77845D01*
X201297Y78817D01*
X208054Y85575D01*
X208615Y86415D01*
X208812Y87406D01*
Y92268D01*
X208928Y92354D01*
X211352Y93141D01*
X212542Y91952D01*
X214712Y90699D01*
X217134Y90050D01*
X219640D01*
X222062Y90699D01*
X224232Y91952D01*
X226005Y93725D01*
X227258Y95896D01*
X227907Y98317D01*
Y100823D01*
X227258Y103245D01*
X226005Y105416D01*
X224232Y107188D01*
X222062Y108441D01*
X219640Y109090D01*
X217134D01*
X214712Y108441D01*
X212542Y107188D01*
X211352Y105999D01*
X208928Y106786D01*
X208812Y106872D01*
Y138028D01*
X235636Y164851D01*
X235786Y165076D01*
X237999Y167289D01*
X239540Y165747D01*
X245579Y171786D01*
X238833Y178532D01*
X235569Y175267D01*
X233157Y176205D01*
X232923Y178221D01*
X236387Y181685D01*
X229641Y188431D01*
D02*
G37*
G36*
X67180Y159940D02*
X64674D01*
X62252Y159291D01*
X60082Y158038D01*
X58309Y156265D01*
X57056Y154095D01*
X56407Y151673D01*
Y149167D01*
X57056Y146746D01*
X58309Y144575D01*
X60082Y142802D01*
X62252Y141549D01*
X64674Y140900D01*
X67180D01*
X69602Y141549D01*
X71772Y142802D01*
X73545Y144575D01*
X74798Y146746D01*
X75447Y149167D01*
Y151673D01*
X74798Y154095D01*
X73545Y156265D01*
X71772Y158038D01*
X69602Y159291D01*
X67180Y159940D01*
D02*
G37*
G36*
X41780D02*
X39274D01*
X36853Y159291D01*
X34682Y158038D01*
X32909Y156265D01*
X31656Y154095D01*
X31007Y151673D01*
Y149167D01*
X31656Y146746D01*
X32909Y144575D01*
X34682Y142802D01*
X36853Y141549D01*
X39274Y140900D01*
X41780D01*
X44202Y141549D01*
X46372Y142802D01*
X48145Y144575D01*
X49398Y146746D01*
X50047Y149167D01*
Y151673D01*
X49398Y154095D01*
X48145Y156265D01*
X46372Y158038D01*
X44202Y159291D01*
X41780Y159940D01*
D02*
G37*
G36*
X108642Y194340D02*
X96402D01*
Y182800D01*
X97378D01*
Y173483D01*
X97353Y173355D01*
Y160991D01*
X97124Y159842D01*
Y146710D01*
Y142336D01*
X82408Y127620D01*
X81416Y126135D01*
X79635Y124354D01*
X81138Y122851D01*
X81299Y122042D01*
X82408Y120381D01*
X84069Y119272D01*
X84879Y119111D01*
X86381Y117608D01*
X88162Y119389D01*
X89647Y120381D01*
X105862Y136596D01*
X106971Y138257D01*
X107361Y140216D01*
Y146710D01*
Y158922D01*
X107590Y160071D01*
Y173253D01*
X107615Y173380D01*
Y182800D01*
X108642D01*
Y194340D01*
D02*
G37*
G36*
X270440Y109090D02*
X267934D01*
X265512Y108441D01*
X263342Y107188D01*
X261569Y105416D01*
X260316Y103245D01*
X259667Y100823D01*
Y98317D01*
X260316Y95896D01*
X261569Y93725D01*
X263342Y91952D01*
X265512Y90699D01*
X267934Y90050D01*
X270440D01*
X272862Y90699D01*
X275032Y91952D01*
X276805Y93725D01*
X278058Y95896D01*
X278707Y98317D01*
Y100823D01*
X278058Y103245D01*
X276805Y105416D01*
X275032Y107188D01*
X272862Y108441D01*
X270440Y109090D01*
D02*
G37*
G36*
X245040D02*
X242534D01*
X240112Y108441D01*
X237942Y107188D01*
X236169Y105416D01*
X234916Y103245D01*
X234267Y100823D01*
Y98317D01*
X234916Y95896D01*
X236169Y93725D01*
X237942Y91952D01*
X240112Y90699D01*
X242534Y90050D01*
X245040D01*
X247462Y90699D01*
X249632Y91952D01*
X251405Y93725D01*
X252658Y95896D01*
X253307Y98317D01*
Y100823D01*
X252658Y103245D01*
X251405Y105416D01*
X249632Y107188D01*
X247462Y108441D01*
X245040Y109090D01*
D02*
G37*
G36*
X168840D02*
X166334D01*
X163912Y108441D01*
X161742Y107188D01*
X159969Y105416D01*
X158716Y103245D01*
X158067Y100823D01*
Y98317D01*
X158716Y95896D01*
X159969Y93725D01*
X161742Y91952D01*
X163912Y90699D01*
X166334Y90050D01*
X168840D01*
X171262Y90699D01*
X173432Y91952D01*
X175205Y93725D01*
X176458Y95896D01*
X177107Y98317D01*
Y100823D01*
X176458Y103245D01*
X175205Y105416D01*
X173432Y107188D01*
X171262Y108441D01*
X168840Y109090D01*
D02*
G37*
G36*
X143440D02*
X140934D01*
X138512Y108441D01*
X136342Y107188D01*
X134569Y105416D01*
X133316Y103245D01*
X132667Y100823D01*
Y98317D01*
X133316Y95896D01*
X134569Y93725D01*
X136342Y91952D01*
X138512Y90699D01*
X140934Y90050D01*
X143440D01*
X145862Y90699D01*
X148032Y91952D01*
X149805Y93725D01*
X151058Y95896D01*
X151707Y98317D01*
Y100823D01*
X151058Y103245D01*
X149805Y105416D01*
X148032Y107188D01*
X145862Y108441D01*
X143440Y109090D01*
D02*
G37*
G36*
X270440Y83690D02*
X267934D01*
X265512Y83041D01*
X263342Y81788D01*
X261569Y80016D01*
X260316Y77845D01*
X259667Y75423D01*
Y72917D01*
X260316Y70496D01*
X261569Y68325D01*
X263342Y66552D01*
X265512Y65299D01*
X267934Y64650D01*
X270440D01*
X272862Y65299D01*
X275032Y66552D01*
X276805Y68325D01*
X278058Y70496D01*
X278707Y72917D01*
Y75423D01*
X278058Y77845D01*
X276805Y80016D01*
X275032Y81788D01*
X272862Y83041D01*
X270440Y83690D01*
D02*
G37*
G36*
X245040D02*
X242534D01*
X240112Y83041D01*
X237942Y81788D01*
X236169Y80016D01*
X234916Y77845D01*
X234267Y75423D01*
Y72917D01*
X234916Y70496D01*
X236169Y68325D01*
X237942Y66552D01*
X240112Y65299D01*
X242534Y64650D01*
X245040D01*
X247462Y65299D01*
X249632Y66552D01*
X251405Y68325D01*
X252658Y70496D01*
X253307Y72917D01*
Y75423D01*
X252658Y77845D01*
X251405Y80016D01*
X249632Y81788D01*
X247462Y83041D01*
X245040Y83690D01*
D02*
G37*
G36*
X219640D02*
X217134D01*
X214712Y83041D01*
X212542Y81788D01*
X210769Y80016D01*
X209516Y77845D01*
X208867Y75423D01*
Y72917D01*
X209516Y70496D01*
X210769Y68325D01*
X212542Y66552D01*
X214712Y65299D01*
X217134Y64650D01*
X219640D01*
X222062Y65299D01*
X224232Y66552D01*
X226005Y68325D01*
X227258Y70496D01*
X227907Y72917D01*
Y75423D01*
X227258Y77845D01*
X226005Y80016D01*
X224232Y81788D01*
X222062Y83041D01*
X219640Y83690D01*
D02*
G37*
%LPD*%
G36*
X311146Y527906D02*
X312399Y525735D01*
X314172Y523962D01*
X316342Y522709D01*
X318764Y522060D01*
X321270D01*
X323691Y522709D01*
X324896Y523405D01*
X330816Y517485D01*
Y516696D01*
X329042Y514891D01*
X320502D01*
Y511668D01*
X320202Y510159D01*
X320240Y509967D01*
Y497973D01*
X320078Y497157D01*
Y491613D01*
X319184Y490719D01*
X318202Y489249D01*
X317857Y487514D01*
Y481591D01*
Y473266D01*
X318202Y471532D01*
X319184Y470061D01*
X327881Y461365D01*
X327537Y460535D01*
X327275Y458546D01*
X327537Y456557D01*
X328163Y455045D01*
X311184Y438066D01*
X310202Y436595D01*
X309857Y434861D01*
Y379771D01*
X309088Y379125D01*
X307317Y378172D01*
X306389Y378356D01*
X304946Y378069D01*
X303830Y377323D01*
X303721Y377251D01*
X301057D01*
X300948Y377323D01*
X299832Y378069D01*
X298389Y378356D01*
X296946Y378069D01*
X295830Y377323D01*
X295721Y377251D01*
X293057D01*
X292948Y377323D01*
X291832Y378069D01*
X290389Y378356D01*
X289694Y380807D01*
Y402425D01*
X289497Y403416D01*
X288935Y404256D01*
X183090Y510102D01*
Y524655D01*
X184632Y525376D01*
X185630Y525504D01*
X187172Y523962D01*
X189342Y522709D01*
X191764Y522060D01*
X194270D01*
X196691Y522709D01*
X197896Y523405D01*
X231042Y490259D01*
Y486839D01*
X230905Y486633D01*
X230617Y485190D01*
Y477992D01*
X230905Y476549D01*
X231722Y475325D01*
X232946Y474507D01*
X234389Y474220D01*
X235832Y474507D01*
X236796Y475151D01*
X236952Y475255D01*
X238389Y475297D01*
X239826Y475255D01*
X239982Y475151D01*
X240946Y474507D01*
X242389Y474220D01*
X243832Y474507D01*
X244794Y475150D01*
X244952Y475255D01*
X246389Y475297D01*
X247826Y475255D01*
X247984Y475150D01*
X248946Y474507D01*
X250389Y474220D01*
X251832Y474507D01*
X252796Y475151D01*
X252952Y475255D01*
X254389Y475297D01*
X255826Y475255D01*
X255982Y475151D01*
X256946Y474507D01*
X258389Y474220D01*
X259832Y474507D01*
X260796Y475151D01*
X260952Y475255D01*
X262389Y475297D01*
X263826Y475255D01*
X263982Y475151D01*
X264946Y474507D01*
X266389Y474220D01*
X267832Y474507D01*
X268948Y475253D01*
X269057Y475325D01*
X271721D01*
X271830Y475253D01*
X272946Y474507D01*
X274389Y474220D01*
X275832Y474507D01*
X276948Y475253D01*
X277057Y475325D01*
X279721D01*
X279830Y475253D01*
X280946Y474507D01*
X282389Y474220D01*
X283832Y474507D01*
X284796Y475151D01*
X284952Y475255D01*
X286389Y475297D01*
X287826Y475255D01*
X287982Y475151D01*
X288946Y474507D01*
X290389Y474220D01*
X291832Y474507D01*
X292948Y475253D01*
X293057Y475325D01*
X295721D01*
X295830Y475253D01*
X296946Y474507D01*
X298389Y474220D01*
X299832Y474507D01*
X300948Y475253D01*
X301057Y475325D01*
X303721D01*
X303830Y475253D01*
X304946Y474507D01*
X306389Y474220D01*
X307832Y474507D01*
X309056Y475325D01*
X309874Y476549D01*
X310161Y477992D01*
Y485190D01*
X309874Y486633D01*
X309056Y487857D01*
X308383Y488306D01*
Y488535D01*
X308206Y489427D01*
X307701Y490184D01*
X306140Y491744D01*
Y520844D01*
X307648Y522352D01*
X308153Y523108D01*
X308331Y524000D01*
Y528597D01*
X310871Y528932D01*
X311146Y527906D01*
D02*
G37*
G36*
X489036Y426146D02*
X490289Y423975D01*
X492062Y422202D01*
X493002Y421659D01*
X492321Y419119D01*
X421812D01*
X420760Y421659D01*
X426590Y427489D01*
X488676D01*
X489036Y426146D01*
D02*
G37*
G36*
X491905Y412465D02*
X491941Y411918D01*
X490289Y410266D01*
X489036Y408095D01*
X488676Y406751D01*
X417444D01*
X416392Y409291D01*
X421559Y414458D01*
X491173D01*
X491905Y412465D01*
D02*
G37*
G36*
X489036Y400746D02*
X490289Y398575D01*
X492062Y396802D01*
X492386Y396615D01*
X491705Y394075D01*
X412768D01*
X411716Y396615D01*
X417190Y402089D01*
X488676D01*
X489036Y400746D01*
D02*
G37*
G36*
X488387Y377767D02*
X489036Y375346D01*
X490182Y373360D01*
X489971Y372569D01*
X489052Y370820D01*
X484943D01*
X483952Y370623D01*
X483112Y370061D01*
X468192Y355142D01*
X366597D01*
X360082Y361656D01*
X361549Y363782D01*
X362389Y363615D01*
X363832Y363902D01*
X364948Y364647D01*
X365057Y364719D01*
X367721D01*
X367830Y364647D01*
X368946Y363902D01*
X370389Y363615D01*
X371832Y363902D01*
X372948Y364647D01*
X373057Y364719D01*
X375721D01*
X375830Y364647D01*
X376946Y363902D01*
X378389Y363615D01*
X379832Y363902D01*
X380948Y364647D01*
X381057Y364719D01*
X383721D01*
X383830Y364647D01*
X384946Y363902D01*
X386389Y363615D01*
X387832Y363902D01*
X388948Y364647D01*
X389057Y364719D01*
X391721D01*
X391830Y364647D01*
X392946Y363902D01*
X394389Y363615D01*
X395832Y363902D01*
X396948Y364647D01*
X397057Y364719D01*
X399721D01*
X399830Y364647D01*
X400946Y363902D01*
X402389Y363615D01*
X403832Y363902D01*
X405056Y364719D01*
X405873Y365943D01*
X406161Y367386D01*
Y374584D01*
X405889Y375948D01*
X409499Y379558D01*
X488387D01*
Y377767D01*
D02*
G37*
G36*
X129661Y347328D02*
X92476D01*
Y359241D01*
X111449Y371306D01*
X129661D01*
Y347328D01*
D02*
G37*
G36*
X129634Y334249D02*
X129692Y334190D01*
Y328175D01*
X129088D01*
X122491Y321578D01*
X106161D01*
X101841Y325898D01*
Y333636D01*
X102743Y334529D01*
X129634Y334249D01*
D02*
G37*
G36*
X347017Y305864D02*
X321166Y280013D01*
X317985Y283195D01*
X315145Y280355D01*
X306659Y288841D01*
X335350Y317531D01*
X347017Y305864D01*
D02*
G37*
G36*
X320194Y279041D02*
X320483Y278922D01*
X324353Y275051D01*
X331424Y267980D01*
X334959Y264445D01*
X338877Y260527D01*
X345566Y253838D01*
X352637Y246767D01*
X359131Y240273D01*
X357041Y238183D01*
X356975Y238024D01*
X352637Y233686D01*
X345566Y226615D01*
X338495Y219544D01*
X331424Y212472D01*
X324353Y205401D01*
X318194Y199243D01*
X311653Y205783D01*
X304582Y212854D01*
X301047Y216390D01*
X297511Y219925D01*
X293622Y216037D01*
X293410Y215895D01*
X291078Y213563D01*
X284815D01*
X283824Y213365D01*
X282984Y212804D01*
X281145Y210965D01*
X279710Y210972D01*
X277943Y211829D01*
X277619Y213430D01*
X283006Y218818D01*
X283015Y218808D01*
X290822Y226615D01*
X283369Y234068D01*
X277210Y240226D01*
X286905Y249921D01*
X293976Y256992D01*
X301429Y264445D01*
X293622Y272251D01*
X293433Y272062D01*
X288755Y276740D01*
Y277972D01*
X289140Y279068D01*
X291705Y279973D01*
X298104Y273574D01*
X298944Y273012D01*
X299224Y272957D01*
X304582Y267599D01*
X311653Y274670D01*
X318110Y281126D01*
X320194Y279041D01*
D02*
G37*
G36*
X485976Y259929D02*
X486816Y259368D01*
X486917Y259348D01*
X489597Y256667D01*
X489036Y255695D01*
X488387Y253274D01*
Y250767D01*
X489036Y248346D01*
X490289Y246175D01*
X490605Y245859D01*
X489553Y243319D01*
X474916D01*
X447862Y270374D01*
X448834Y272720D01*
X473185D01*
X485976Y259929D01*
D02*
G37*
G36*
X276332Y245076D02*
X277492Y243932D01*
X277496Y242662D01*
X275061Y240226D01*
X278242Y237045D01*
X271983Y230785D01*
X242634Y260134D01*
X250811Y268520D01*
X253119D01*
X276332Y245076D01*
D02*
G37*
G36*
X176831Y248592D02*
Y248376D01*
X183699Y241508D01*
Y225627D01*
X179024Y220952D01*
X171368D01*
X170475Y221854D01*
X170757Y248921D01*
X170816Y248980D01*
X176443D01*
X176831Y248592D01*
D02*
G37*
G36*
X399903Y221279D02*
X402472Y218711D01*
X399780Y216019D01*
X392282Y208521D01*
X375861Y224942D01*
X370242D01*
X364416Y230767D01*
X358013Y237211D01*
X364059Y243257D01*
X364191Y243345D01*
X365256Y244410D01*
X376772D01*
X399903Y221279D01*
D02*
G37*
G36*
X491336Y182712D02*
X490289Y181666D01*
X489036Y179495D01*
X488387Y177073D01*
Y176436D01*
X485847Y175384D01*
X414361Y246870D01*
X415413Y249410D01*
X424638D01*
X491336Y182712D01*
D02*
G37*
G36*
X327076Y194527D02*
X327152D01*
X328193Y193409D01*
Y154644D01*
X327020Y154157D01*
X301787Y179391D01*
X301820Y180040D01*
X320649Y199671D01*
X321919Y199684D01*
X327076Y194527D01*
D02*
G37*
G36*
X391310Y207549D02*
X392060Y207238D01*
X392327Y206971D01*
X393441Y206509D01*
X439301Y160649D01*
Y139329D01*
X436955Y138357D01*
X432035Y143276D01*
X429117Y145516D01*
X425719Y146923D01*
X422072Y147403D01*
X388061D01*
X384414Y146923D01*
X381016Y145516D01*
X379883Y144646D01*
X379222D01*
X377727Y144027D01*
X376582Y142882D01*
X375962Y141386D01*
Y140493D01*
X375858Y140358D01*
X374451Y136960D01*
X373971Y133313D01*
X374451Y129666D01*
X375232Y127780D01*
X373079Y126341D01*
X369221Y130199D01*
X369201Y130299D01*
X369090Y130465D01*
Y221295D01*
X370242Y223567D01*
X370242Y223567D01*
X375291D01*
X391310Y207549D01*
D02*
G37*
G36*
X157836Y211879D02*
X145923D01*
X133858Y230853D01*
Y249065D01*
X157836D01*
Y211879D01*
D02*
G37*
D13*
X169743Y556179D02*
G03*
X170076Y556082I880J2383D01*
G01*
X273351Y212891D02*
X273417D01*
X284960Y224434D01*
X281302Y228206D02*
X281425D01*
X275573Y222477D02*
X281302Y228206D01*
X275451Y222477D02*
X275573D01*
X284960Y224434D02*
Y224670D01*
X302913Y193126D02*
X309709Y199921D01*
X298706Y193126D02*
X302913D01*
X302301Y187504D02*
X302886Y188089D01*
X304947D01*
X313244Y196386D01*
X295638Y197660D02*
X295735Y197758D01*
X300474D01*
X306173Y203457D01*
X286766Y197484D02*
X287566D01*
X293082Y203000D01*
X298320D01*
X302312Y206992D01*
X289495Y206810D02*
X295059D01*
X288318Y205632D02*
X289495Y206810D01*
X287490Y205632D02*
X288318D01*
X264480Y382100D02*
Y382820D01*
Y382100D02*
X266389Y380191D01*
Y370985D02*
Y380191D01*
X366500Y129257D02*
X396187Y99570D01*
X366500Y129616D02*
X366808Y129308D01*
X366500Y129616D02*
Y223740D01*
X358499Y231741D02*
X366500Y223740D01*
X370787Y112691D02*
X370787Y99570D01*
X361980Y207401D02*
X362408Y127961D01*
X358170Y126811D02*
Y205823D01*
Y126811D02*
X358883Y126066D01*
X383829Y95171D02*
X394521Y84479D01*
X358883Y126066D02*
X370787Y113743D01*
Y112691D02*
Y113743D01*
X362724Y127645D02*
X383829Y106540D01*
X362408Y127961D02*
X362724Y127645D01*
X383829Y95171D02*
Y106540D01*
X295139Y189559D02*
X298706Y193126D01*
X294311Y189559D02*
X295139D01*
X279400Y205558D02*
X284815Y210973D01*
X292151D02*
X295241Y214063D01*
X284815Y210973D02*
X292151D01*
X273605Y227699D02*
X277647Y231741D01*
X268351Y227699D02*
X273605D01*
X277647Y231741D02*
X277869D01*
X309709Y199921D02*
X309709D01*
X206223Y87406D02*
Y139101D01*
X233804Y166757D02*
X239187Y172139D01*
X192987Y99570D02*
X202000Y108583D01*
Y140266D01*
X206223Y139101D02*
X233804Y166682D01*
X202000Y140266D02*
X229995Y168261D01*
X233804Y166682D02*
Y166757D01*
X295059Y206810D02*
X298777Y210528D01*
X282389Y370985D02*
Y398643D01*
X276791Y404241D02*
X282389Y398643D01*
X512517Y364410D02*
X513171Y363756D01*
X489861Y364410D02*
X512517D01*
X365524Y344552D02*
X470003D01*
X513171Y363756D02*
X523307Y353620D01*
X470003Y344552D02*
X489861Y364410D01*
X512427Y364500D02*
X512517Y364410D01*
X523307Y353620D01*
X484943Y368230D02*
X507230D01*
X515349Y376349D01*
X469265Y352552D02*
X484943Y368230D01*
X520636Y376349D02*
X523307Y379020D01*
X515349Y376349D02*
X520636D01*
X250805Y299000D02*
X280305Y269500D01*
X285385D02*
X292031Y262854D01*
X280305Y269500D02*
X285385D01*
X277353Y263390D02*
X284960Y255783D01*
X253268Y280404D02*
X281425Y252247D01*
X233015Y280404D02*
X253268D01*
X277353Y263390D02*
Y263610D01*
X255491Y271110D02*
X277889Y248712D01*
X242390Y271110D02*
X255491D01*
X366948Y336552D02*
X480839D01*
X338833Y364667D02*
X366948Y336552D01*
X338389Y370985D02*
X338833Y370542D01*
Y364667D02*
Y370542D01*
X346389Y363687D02*
X365524Y344552D01*
X346389Y363687D02*
Y370985D01*
X394521Y75837D02*
Y84479D01*
Y75837D02*
X396187Y74170D01*
X359997Y105610D02*
X360121Y105734D01*
Y114845D01*
X359997Y96500D02*
Y105610D01*
X354360Y120606D02*
X360121Y114845D01*
X350550Y116676D02*
X356177Y111049D01*
X350120Y208145D02*
X350550Y202666D01*
Y116676D02*
Y202666D01*
X355567Y84350D02*
X356168Y99132D01*
X356177D02*
Y111049D01*
X356168Y99132D02*
X356177D01*
X335310Y134905D02*
Y196354D01*
X334028Y131223D02*
X335310Y134905D01*
X337584Y202833D02*
X338328Y202090D01*
X339120Y133327D02*
Y197932D01*
X338736Y130218D02*
X339120Y133327D01*
X341756Y205733D02*
X342500Y204989D01*
X342930Y199510D01*
Y131749D02*
Y199510D01*
X342500Y128594D02*
X342930Y131749D01*
X346174Y206965D02*
X346310Y206567D01*
X346740Y201088D01*
Y130171D02*
Y201088D01*
X346376Y127081D02*
X346740Y130171D01*
X346310Y112031D02*
X346376Y127081D01*
X354360Y120606D02*
Y204244D01*
X353930Y209723D02*
X354360Y204244D01*
X334772Y198575D02*
X335310Y196354D01*
X333750Y206667D02*
X337584Y202833D01*
X328624Y197652D02*
X330756Y195519D01*
X357740Y211301D02*
X358170Y205823D01*
X342138Y116333D02*
X342500Y128594D01*
X357608Y211695D02*
X357740Y211301D01*
X356869Y213895D02*
X357608Y211695D01*
X353794Y210121D02*
X353930Y209723D01*
X349984Y208543D02*
X350120Y208145D01*
X349250Y210698D02*
X349984Y208543D01*
X338328Y202090D02*
X339120Y197932D01*
X337584Y117167D02*
X338736Y130218D01*
X319987Y99570D02*
X337584Y117167D01*
X345387Y99570D02*
X346303Y111937D01*
X361547Y212943D02*
X361980Y207401D01*
X294587Y99570D02*
X331500Y136483D01*
X330756Y195519D02*
X331500Y194775D01*
X307721Y104916D02*
X334028Y131223D01*
X330215Y203132D02*
X334028Y199318D01*
X331500Y136483D02*
Y194775D01*
X345440Y209120D02*
X346174Y206965D01*
X331771Y102879D02*
X341756Y112865D01*
X342138Y116333D01*
X346303Y111937D02*
X346310Y112031D01*
X361061Y222108D02*
X361547Y212943D01*
X334028Y199318D02*
X334772Y198575D01*
X353060Y212276D02*
X353794Y210121D01*
X356667Y219431D02*
X356869Y213895D01*
X360317Y222852D02*
X361061Y222108D01*
X348811Y211137D02*
X349250Y210698D01*
X352621Y212715D02*
X353060Y212276D01*
X340821Y213738D02*
X344696Y209864D01*
X337286Y210203D02*
X341756Y205733D01*
X344696Y209864D02*
X345440Y209120D01*
X360121Y84836D02*
Y96500D01*
X347892Y221135D02*
X351877Y217150D01*
X355923Y220175D02*
X356667Y219431D01*
X360121Y84836D02*
X360865Y84092D01*
X344357Y217599D02*
X348067Y213889D01*
X360865Y84092D02*
X370787Y74170D01*
X345387D02*
X355567Y84350D01*
X351877Y217150D02*
X352621Y216406D01*
Y212715D02*
Y216406D01*
X348067Y213889D02*
X348811Y213145D01*
Y211137D02*
Y213145D01*
X440367Y263430D02*
X488467Y215329D01*
X427289Y255810D02*
X492669Y190430D01*
X358824Y248712D02*
X362113Y252000D01*
X425711D02*
X493911Y183800D01*
X358852Y255810D02*
X427289D01*
X512517Y190430D02*
X523307Y201220D01*
X492669Y190430D02*
X512517D01*
X351753Y255783D02*
X355591Y259620D01*
X438789D01*
X355289Y252247D02*
X358852Y255810D01*
X352329Y263430D02*
X440367D01*
X362113Y252000D02*
X425711D01*
X348218Y259318D02*
X352329Y263430D01*
X438789Y259620D02*
X497188Y201220D01*
X358499Y248712D02*
X358824D01*
X497188Y201220D02*
X497907D01*
X488467Y215329D02*
X512016D01*
X443073Y271500D02*
X473844Y240729D01*
X344682Y262854D02*
X349328Y267500D01*
X346257Y271500D02*
X443073D01*
X441685Y267500D02*
X482565Y226620D01*
X349328Y267500D02*
X441685D01*
X474258Y275310D02*
X487807Y261761D01*
X334076Y273461D02*
X339735Y279120D01*
X341147Y266389D02*
X346257Y271500D01*
X473844Y240729D02*
X512016D01*
X339735Y279120D02*
X475836D01*
X342996Y275310D02*
X474258D01*
X337611Y269925D02*
X342996Y275310D01*
X475836Y279120D02*
X489385Y265571D01*
X336544Y283000D02*
X488550D01*
X494129Y277420D02*
X497907D01*
X330540Y276996D02*
X336544Y283000D01*
X488550D02*
X494129Y277420D01*
X487807Y261761D02*
X488167D01*
X497907Y252020D01*
X327005Y280532D02*
X333473Y287000D01*
X487504D02*
X490596Y290092D01*
X333473Y287000D02*
X487504D01*
X169536Y555061D02*
X170288Y554309D01*
Y549212D02*
Y554309D01*
X180500Y509029D02*
Y539000D01*
X170288Y549212D02*
X180500Y539000D01*
X169728Y556185D02*
X169743Y556179D01*
X180500Y509029D02*
X287104Y402425D01*
X167617Y517935D02*
X172919Y511222D01*
X276791Y404241D01*
X167617Y556980D02*
X169728Y556185D01*
X167617Y517935D02*
Y531580D01*
X410569Y247000D02*
X493979Y163590D01*
X362360Y245176D02*
X364305Y247121D01*
X364425Y247000D01*
X410569D01*
X362035Y245176D02*
X362360D01*
X490596Y290092D02*
X503896D01*
X69705Y302820D02*
X73525Y299000D01*
X65927Y302820D02*
X69705D01*
X73525Y299000D02*
X250805D01*
X297169Y286000D02*
X306173Y276996D01*
X287477Y289773D02*
Y292220D01*
Y289773D02*
X287830Y289419D01*
Y287510D02*
Y289419D01*
X299935Y275405D02*
X300693D01*
X287477Y292220D02*
X287830Y292573D01*
Y287510D02*
X299935Y275405D01*
X300693D02*
X302638Y273461D01*
X288592Y375744D02*
X288603D01*
X290389Y370985D02*
Y373957D01*
X287104Y377231D02*
X288592Y375744D01*
X288603D02*
X290389Y373957D01*
X287104Y377231D02*
Y402425D01*
X256338Y382256D02*
X258389Y380205D01*
Y370985D02*
Y380205D01*
X256338Y382256D02*
Y382829D01*
X326679Y280532D02*
X327005D01*
X330389Y370985D02*
X330833Y370542D01*
Y364842D02*
X367123Y328552D01*
X480495D01*
X330833Y364842D02*
Y370542D01*
X504368Y265571D02*
X513774Y274977D01*
X347892Y259318D02*
X348218D01*
X520864Y274977D02*
X523307Y277420D01*
X511076Y163590D02*
X523307Y175820D01*
X520661Y300174D02*
X523307Y302820D01*
X307721Y87304D02*
Y104916D01*
X238912Y383108D02*
X242389Y379632D01*
X566586Y302832D02*
X566598Y302844D01*
X523307Y302820D02*
X523319Y302832D01*
X192987Y74170D02*
X206223Y87406D01*
X330215Y203132D02*
Y203457D01*
X344357Y262854D02*
X344682D01*
X302005Y356540D02*
Y363270D01*
X294005Y356540D02*
Y362737D01*
X510580Y290093D02*
X542392D01*
X480495Y328552D02*
X492785Y340843D01*
X555041Y277444D02*
X566598D01*
X351428Y224670D02*
X355923Y220175D01*
X333750Y273461D02*
X334076D01*
X242389Y370985D02*
Y379632D01*
X492785Y340843D02*
X510685D01*
X493979Y163590D02*
X511076D01*
X541200Y277420D02*
X566576Y252044D01*
X229995Y168261D02*
Y182039D01*
X298777Y210528D02*
X299102D01*
X116787Y74170D02*
X154280Y36678D01*
X354389Y363687D02*
X365524Y352552D01*
X282573Y279137D02*
X282696D01*
X128640Y70927D02*
Y87717D01*
X482565Y226620D02*
X497907D01*
X258279Y191231D02*
Y192802D01*
X354964Y228206D02*
X360317Y222852D01*
X340821Y266389D02*
X341147D01*
X183794Y57201D02*
X205080Y35916D01*
X493911Y183594D02*
X497907Y179598D01*
X306389Y367654D02*
Y370985D01*
X167587Y74170D02*
X178991Y62766D01*
X523319Y302832D02*
X566586D01*
X512016Y240729D02*
X523307Y252020D01*
X178991Y62766D02*
X203629D01*
X513774Y274977D02*
X520864D01*
X480839Y336552D02*
X497907Y353620D01*
X239187Y191231D02*
X248379Y200424D01*
X163830Y51765D02*
X179680Y35916D01*
X250389Y370985D02*
Y380205D01*
X159156Y57201D02*
X183794D01*
X203629Y62766D02*
X230480Y35916D01*
X116787Y99570D02*
X128640Y87717D01*
X294005Y362737D02*
X298389Y367121D01*
X294587Y74170D02*
X307721Y87304D01*
X302005Y363270D02*
X306389Y367654D01*
X248338Y382256D02*
Y382829D01*
X147803Y51765D02*
X163830D01*
X331771Y85954D02*
Y102879D01*
X248338Y382256D02*
X250389Y380205D01*
X232662Y280757D02*
X233015Y280404D01*
X497907Y175820D02*
Y179598D01*
X330215Y276996D02*
X330540D01*
X282696Y279137D02*
X295443Y266389D01*
X354389Y363687D02*
Y370985D01*
X295241Y214063D02*
X295567D01*
X326679Y199921D02*
X328624Y197977D01*
X242037Y271463D02*
X242390Y271110D01*
X503896Y290092D02*
X513978Y300174D01*
X333750Y206667D02*
Y206992D01*
X351428Y255783D02*
X351753D01*
X234389Y370985D02*
Y379632D01*
X128640Y70927D02*
X147803Y51765D01*
X523307Y277420D02*
X541200D01*
X497907D02*
X510580Y290093D01*
X340821Y213738D02*
Y214063D01*
X295443Y266389D02*
X295567D01*
X230912Y383108D02*
X234389Y379632D01*
X542392Y290093D02*
X555041Y277444D01*
X302312Y206992D02*
X302638D01*
X337286Y269925D02*
X337611D01*
X337286Y210203D02*
Y210528D01*
X493911Y183594D02*
Y183800D01*
X142187Y74170D02*
X159156Y57201D01*
X328624Y197652D02*
Y197977D01*
X298389Y367121D02*
Y370985D01*
X354964Y252247D02*
X355289D01*
X365524Y352552D02*
X469265D01*
X154280Y35916D02*
Y36678D01*
X489385Y265571D02*
X504368D01*
X319987Y74170D02*
X331771Y85954D01*
X513978Y300174D02*
X520661D01*
X510685Y340843D02*
X523307Y328220D01*
X566576Y252044D02*
X566598D01*
X512016Y215329D02*
X523307Y226620D01*
D18*
X50975Y672008D02*
D03*
X56500Y28600D02*
D03*
D19*
X23275Y672008D02*
D03*
X78675D02*
D03*
X28800Y28600D02*
D03*
X84200D02*
D03*
D20*
X157000Y441000D02*
D03*
Y425300D02*
D03*
X102522Y188570D02*
D03*
Y204270D02*
D03*
D21*
X282573Y279137D02*
D03*
X273380Y288329D02*
D03*
X325265Y301745D02*
D03*
X316073Y310937D02*
D03*
X239187Y209616D02*
D03*
X248379Y200424D02*
D03*
X267118Y181685D02*
D03*
X257925Y190878D02*
D03*
X334520Y311178D02*
D03*
X325327Y320370D02*
D03*
X287830Y292573D02*
D03*
X278638Y301766D02*
D03*
X110338Y487451D02*
D03*
X101145Y496644D02*
D03*
D22*
X392931Y216231D02*
D03*
X383739Y207039D02*
D03*
X260846Y252691D02*
D03*
X251653Y243499D02*
D03*
X302057Y318313D02*
D03*
X292864Y309120D02*
D03*
X313626Y174060D02*
D03*
X304434Y164867D02*
D03*
X239187Y191231D02*
D03*
X229995Y182039D02*
D03*
X239187Y172139D02*
D03*
X248379Y181332D02*
D03*
X383477Y225790D02*
D03*
X374285Y216597D02*
D03*
X251470Y262067D02*
D03*
X242278Y252874D02*
D03*
X322915Y164670D02*
D03*
X313723Y155477D02*
D03*
X131658Y464520D02*
D03*
X140850Y473713D02*
D03*
X122175Y474003D02*
D03*
X131367Y483196D02*
D03*
X232662Y280757D02*
D03*
X223469Y271565D02*
D03*
X242037Y271463D02*
D03*
X232844Y262271D02*
D03*
X140983Y454987D02*
D03*
X150175Y464179D02*
D03*
X86027Y124000D02*
D03*
X76835Y114808D02*
D03*
D23*
X156637Y397180D02*
D03*
X143637D02*
D03*
X156713Y383870D02*
D03*
X143713D02*
D03*
X102451Y234479D02*
D03*
X115451D02*
D03*
X102471Y160071D02*
D03*
X115471D02*
D03*
X102243Y146710D02*
D03*
X115243D02*
D03*
X102501Y221017D02*
D03*
X115501D02*
D03*
X193680Y315087D02*
D03*
X206680D02*
D03*
X194056Y291287D02*
D03*
X207056D02*
D03*
X177114Y229604D02*
D03*
X164114D02*
D03*
X102497Y173380D02*
D03*
X115497D02*
D03*
X124383Y365641D02*
D03*
X137383D02*
D03*
X167457Y216168D02*
D03*
X154457D02*
D03*
X375488Y499923D02*
D03*
X362488D02*
D03*
X286228Y502006D02*
D03*
X273228D02*
D03*
X324772Y510121D02*
D03*
X311772D02*
D03*
X324810Y496926D02*
D03*
X311810D02*
D03*
X311683Y356464D02*
D03*
X324683D02*
D03*
X311683Y343205D02*
D03*
X324683D02*
D03*
D24*
X110332Y327394D02*
D03*
Y340394D02*
D03*
X96997Y339281D02*
D03*
Y352281D02*
D03*
X139446Y243300D02*
D03*
Y256300D02*
D03*
D25*
X318194Y240226D02*
D03*
D26*
X347892Y221135D02*
D03*
X362035Y235277D02*
D03*
X358499Y231741D02*
D03*
X354964Y228206D02*
D03*
X351428Y224670D02*
D03*
X344357Y217599D02*
D03*
X340821Y214063D02*
D03*
X337286Y210528D02*
D03*
X333750Y206992D02*
D03*
X330215Y203457D02*
D03*
X326679Y199921D02*
D03*
X323144Y196386D02*
D03*
X274353Y245176D02*
D03*
X277889Y248712D02*
D03*
X281425Y252247D02*
D03*
X284960Y255783D02*
D03*
X288496Y259318D02*
D03*
X292031Y262854D02*
D03*
X295567Y266389D02*
D03*
X299102Y269925D02*
D03*
X302638Y273461D02*
D03*
X306173Y276996D02*
D03*
X309709Y280532D02*
D03*
X313244Y284067D02*
D03*
D27*
X323144D02*
D03*
X326679Y280532D02*
D03*
X330215Y276996D02*
D03*
X333750Y273461D02*
D03*
X337286Y269925D02*
D03*
X340821Y266389D02*
D03*
X344357Y262854D02*
D03*
X347892Y259318D02*
D03*
X351428Y255783D02*
D03*
X354964Y252247D02*
D03*
X358499Y248712D02*
D03*
X362035Y245176D02*
D03*
X313244Y196386D02*
D03*
X309709Y199921D02*
D03*
X306173Y203457D02*
D03*
X302638Y206992D02*
D03*
X299102Y210528D02*
D03*
X295567Y214063D02*
D03*
X292031Y217599D02*
D03*
X288496Y221135D02*
D03*
X284960Y224670D02*
D03*
X281425Y228206D02*
D03*
X277889Y231741D02*
D03*
X274353Y235277D02*
D03*
D28*
X274389Y370985D02*
D03*
X266389D02*
D03*
X258389D02*
D03*
X282389D02*
D03*
X394389Y481591D02*
D03*
X386389D02*
D03*
X378389D02*
D03*
X370389D02*
D03*
X362389D02*
D03*
X354389D02*
D03*
X346389D02*
D03*
X338389D02*
D03*
X330389D02*
D03*
X322389D02*
D03*
X314389D02*
D03*
X306389D02*
D03*
X298389D02*
D03*
X290389D02*
D03*
X282389D02*
D03*
X274389D02*
D03*
X266389D02*
D03*
X258389D02*
D03*
X250389D02*
D03*
X242389D02*
D03*
X234389D02*
D03*
Y370985D02*
D03*
X242389D02*
D03*
X250389D02*
D03*
X290389D02*
D03*
X298389D02*
D03*
X306389D02*
D03*
X314389D02*
D03*
X322389D02*
D03*
X330389D02*
D03*
X338389D02*
D03*
X346389D02*
D03*
X354389D02*
D03*
X362389D02*
D03*
X370389D02*
D03*
X378389D02*
D03*
X386389D02*
D03*
X394389D02*
D03*
X402389D02*
D03*
D29*
Y481591D02*
D03*
D30*
X152174Y331275D02*
D03*
Y340775D02*
D03*
Y350275D02*
D03*
X124674D02*
D03*
Y331275D02*
D03*
D31*
X173838Y271523D02*
D03*
X164338D02*
D03*
X154838D02*
D03*
Y244023D02*
D03*
X173838D02*
D03*
D52*
X334961Y458546D02*
X351688D01*
X397515Y213304D02*
X446987Y163832D01*
X391065Y219754D02*
X397515Y213304D01*
X310602Y177083D02*
X313626Y174060D01*
X292029Y177083D02*
X310602D01*
X257500Y211613D02*
X292029Y177083D01*
X257500Y232469D02*
X266065Y241034D01*
X257500Y211613D02*
Y232469D01*
X502800Y658600D02*
Y684000D01*
Y633200D02*
Y658600D01*
Y607800D02*
Y633200D01*
X497907Y601079D02*
X502800Y605972D01*
X497907Y480620D02*
Y601079D01*
X502800Y605972D02*
Y607000D01*
X446987Y108398D02*
Y163832D01*
Y99570D02*
Y108398D01*
D53*
X388061Y133313D02*
X422072D01*
X446987Y74170D02*
Y99570D01*
X422072Y133313D02*
X446987Y108398D01*
D54*
X324610Y489735D02*
Y497157D01*
X314389Y370985D02*
Y434861D01*
Y363949D02*
Y370985D01*
X311683Y356464D02*
Y361244D01*
Y343205D02*
Y356464D01*
Y361244D02*
X314389Y363949D01*
X324772Y497319D02*
Y510121D01*
X324734Y510159D02*
X324772Y510121D01*
X322389Y481591D02*
Y487514D01*
X314389Y434861D02*
X334961Y455433D01*
X324772Y497319D02*
X324810Y497357D01*
X324772Y496964D02*
X324810Y496926D01*
X334961Y455433D02*
Y458546D01*
X324772Y496964D02*
Y497319D01*
X322389Y487514D02*
X324610Y489735D01*
X334961Y458546D02*
Y460694D01*
X324810Y496776D02*
Y496926D01*
X324635Y496601D02*
X324810Y496776D01*
X322389Y473266D02*
X334961Y460694D01*
X324610Y497157D02*
X324772Y497319D01*
X322389Y473266D02*
Y481591D01*
D55*
X152674Y350275D02*
X156713Y354314D01*
X167792Y215833D02*
X181172D01*
X188817Y223478D01*
Y243844D01*
X173838Y258823D02*
X188817Y243844D01*
X190787Y291287D02*
X194056D01*
X173838Y274338D02*
X190787Y291287D01*
X173838Y258823D02*
Y274338D01*
X150861Y276000D02*
X154838Y272023D01*
X132000Y276000D02*
X150861D01*
X154838Y271523D02*
Y272023D01*
X102451Y246451D02*
X132000Y276000D01*
X102451Y234479D02*
Y246451D01*
X102501Y221017D02*
Y234428D01*
X102451Y234479D02*
X102501Y234428D01*
Y221017D02*
X102522Y220997D01*
Y204270D02*
Y220997D01*
X102497Y173380D02*
Y188544D01*
X102522Y188570D01*
X102471Y173355D02*
X102497Y173380D01*
X102471Y160071D02*
Y173355D01*
X102243Y159842D02*
X102471Y160071D01*
X102243Y146710D02*
Y159842D01*
X86027Y124000D02*
X102243Y140216D01*
Y146710D01*
X56500Y28600D02*
Y94473D01*
X76835Y114808D01*
X156250Y441750D02*
X157000Y441000D01*
X141333Y454987D02*
X154570Y441750D01*
X131658Y464520D02*
X140983Y455195D01*
Y454987D02*
Y455195D01*
X122175Y474003D02*
X122175D01*
X131658Y464520D01*
X110338Y485841D02*
X122175Y474003D01*
X110338Y485841D02*
Y487451D01*
X156713Y354314D02*
Y383870D01*
X156637Y383946D02*
X156713Y383870D01*
X156637Y383946D02*
Y397180D01*
X157000Y397543D01*
Y425300D01*
X180137Y315087D02*
Y315863D01*
X164725Y331275D02*
X180137Y315863D01*
X152174Y331275D02*
X164725D01*
X96722Y323778D02*
X104041Y316459D01*
X96722Y323778D02*
Y339006D01*
X135859Y316459D02*
X150674Y331275D01*
X104041Y316459D02*
X135859D01*
X180137Y315087D02*
X193680D01*
X50975Y546814D02*
X101145Y496644D01*
X50975Y546814D02*
Y672008D01*
D56*
X303000Y287240D02*
Y298985D01*
Y287240D02*
X309709Y280532D01*
X292864Y309120D02*
X303000Y298985D01*
X359500Y508850D02*
X362488Y505862D01*
X345417Y556980D02*
X356198Y546199D01*
X359500Y508850D02*
Y545663D01*
X370817Y556980D01*
X356198Y522009D02*
Y546199D01*
X354389Y520200D02*
X356198Y522009D01*
X362488Y499923D02*
Y505862D01*
X354389Y481591D02*
Y520200D01*
X394389Y481591D02*
Y511889D01*
X408500Y543863D02*
X421617Y556980D01*
X408500Y526000D02*
Y543863D01*
X394389Y511889D02*
X408500Y526000D01*
X306000Y524000D02*
Y537766D01*
X303809Y490779D02*
Y521809D01*
X306000Y524000D01*
X296658Y547108D02*
X306000Y537766D01*
X279756Y492354D02*
X282389Y489720D01*
X320017Y531580D02*
X333146Y518451D01*
X386389Y481591D02*
Y521752D01*
X510631Y391744D02*
X523307Y404420D01*
X296658Y547108D02*
Y554939D01*
X378830Y482032D02*
Y488431D01*
X233373Y482607D02*
Y491224D01*
X282067Y528371D02*
Y544130D01*
X420593Y416789D02*
X510275D01*
X425625Y429820D02*
X497907D01*
X231343Y526212D02*
Y544054D01*
X294617Y527665D02*
X298389Y523893D01*
X386389Y370985D02*
Y374584D01*
X193017Y556980D02*
X205613Y544384D01*
X243817Y556980D02*
X256921Y543876D01*
X303809Y490779D02*
X306053Y488535D01*
X402389Y375349D02*
X403650Y376610D01*
X282389Y481591D02*
Y489720D01*
X257925Y190878D02*
X258102Y191054D01*
X333146Y490728D02*
Y518451D01*
X333273Y525450D02*
Y543724D01*
X386389Y521752D02*
X396217Y531580D01*
X269217Y556980D02*
X282067Y544130D01*
X362439Y481641D02*
Y499873D01*
X193017Y531580D02*
X233373Y491224D01*
X252750Y518172D02*
X265373Y505550D01*
X248379Y181332D02*
X257925Y190878D01*
X510275Y416789D02*
X523307Y429820D01*
X370389Y374584D02*
X425625Y429820D01*
X218417Y556980D02*
X231343Y544054D01*
X298389Y481591D02*
Y523893D01*
X394389Y370985D02*
Y374584D01*
X416225Y404420D02*
X497907D01*
X256921Y518812D02*
Y543876D01*
X408534Y381889D02*
X489483D01*
X403650Y377005D02*
X408534Y381889D01*
X279756Y492354D02*
Y508965D01*
X330389Y481591D02*
X330840Y482042D01*
X338389Y481591D02*
Y520334D01*
X382727Y543490D02*
X396217Y556980D01*
X290389Y481591D02*
Y489347D01*
X362389Y481591D02*
X362439Y481641D01*
X362389Y370985D02*
Y374584D01*
X265373Y482607D02*
Y505550D01*
X218417Y531580D02*
X249373Y500624D01*
X378389Y374584D02*
X420593Y416789D01*
X370389Y370985D02*
Y374584D01*
X257373Y482607D02*
Y500182D01*
X273848Y482132D02*
X274389Y481591D01*
X489583Y381788D02*
X495139D01*
X256921Y518812D02*
X273228Y502506D01*
X346389Y481591D02*
Y530608D01*
X306053Y481927D02*
Y488535D01*
X345417Y531580D02*
X346389Y530608D01*
X402389Y370985D02*
Y375349D01*
X241373Y482607D02*
X242389Y481591D01*
X330840Y488421D02*
X333146Y490728D01*
X320017Y556980D02*
X333273Y543724D01*
X378830Y488431D02*
X382727Y492328D01*
X294107Y493065D02*
Y516331D01*
X362439Y499873D02*
X362488Y499923D01*
X394389Y374584D02*
X411549Y391744D01*
X362389Y374584D02*
X430955Y443150D01*
X252750Y518172D02*
Y522647D01*
X257373Y482607D02*
X258389Y481591D01*
X368813Y492679D02*
X370389Y491103D01*
X378389Y370985D02*
Y374584D01*
X205613Y527482D02*
X241373Y491722D01*
X273228Y502006D02*
X273848Y501385D01*
X489483Y381889D02*
X489583Y381788D01*
X269217Y519504D02*
Y531580D01*
X402389Y481591D02*
Y512352D01*
X249373Y482607D02*
X250389Y481591D01*
X330840Y482042D02*
Y488421D01*
X333273Y525450D02*
X338389Y520334D01*
X378389Y481591D02*
X378830Y482032D01*
X282067Y528371D02*
X294107Y516331D01*
X368813Y529576D02*
X370817Y531580D01*
X411549Y391744D02*
X510631D01*
X511237Y443150D02*
X523307Y455220D01*
X243817Y531580D02*
X252750Y522647D01*
X265373Y482607D02*
X266389Y481591D01*
X370389D02*
Y491103D01*
X205613Y527482D02*
Y544384D01*
X273848Y482132D02*
Y501385D01*
X495139Y381788D02*
X497907Y379020D01*
X269217Y519504D02*
X279756Y508965D01*
X402389Y512352D02*
X421617Y531580D01*
X249373Y482607D02*
Y500624D01*
X294617Y556980D02*
X296658Y554939D01*
X382727Y492328D02*
Y543490D01*
X510631Y391696D02*
Y391744D01*
X290389Y489347D02*
X294107Y493065D01*
X233373Y482607D02*
X234389Y481591D01*
X430955Y443150D02*
X511237D01*
X231343Y526212D02*
X257373Y500182D01*
X294617Y527665D02*
Y531580D01*
X368813Y492679D02*
Y529576D01*
X386389Y374584D02*
X416225Y404420D01*
X258102Y191054D02*
X258279Y191231D01*
X241373Y482607D02*
Y491722D01*
X273228Y502006D02*
Y502506D01*
X306053Y481927D02*
X306389Y481591D01*
X403650Y376610D02*
Y377005D01*
D57*
X207056Y291287D02*
X249675D01*
X277353Y263610D01*
X297169Y286000D02*
Y294217D01*
X280759Y310628D02*
X297169Y294217D01*
X206680Y315087D02*
X276261D01*
X280721Y310628D02*
X280759D01*
X276261Y315087D02*
X280721Y310628D01*
D58*
X65927Y353620D02*
D03*
Y252020D02*
D03*
Y302820D02*
D03*
Y328220D02*
D03*
Y277420D02*
D03*
X40527Y252020D02*
D03*
Y302820D02*
D03*
Y353620D02*
D03*
Y328220D02*
D03*
Y277420D02*
D03*
Y226620D02*
D03*
X65927D02*
D03*
Y150420D02*
D03*
Y175820D02*
D03*
X40527Y150420D02*
D03*
Y175820D02*
D03*
Y201220D02*
D03*
X65927D02*
D03*
X40527Y455220D02*
D03*
X65927Y480620D02*
D03*
Y455220D02*
D03*
X40527Y429820D02*
D03*
X65927D02*
D03*
X40527Y404420D02*
D03*
X65927D02*
D03*
Y379020D02*
D03*
X40527D02*
D03*
X116787Y99570D02*
D03*
X142187D02*
D03*
Y74170D02*
D03*
X167587D02*
D03*
Y99570D02*
D03*
X192987Y74170D02*
D03*
Y99570D02*
D03*
X218387D02*
D03*
Y74170D02*
D03*
X243787Y99570D02*
D03*
X345387D02*
D03*
X294587D02*
D03*
X269187D02*
D03*
X319987D02*
D03*
X345387Y74170D02*
D03*
X294587D02*
D03*
X243787D02*
D03*
X269187D02*
D03*
X319987D02*
D03*
X370787D02*
D03*
Y99570D02*
D03*
X446987D02*
D03*
X421587D02*
D03*
X446987Y74170D02*
D03*
X421587D02*
D03*
X396187D02*
D03*
Y99570D02*
D03*
X167617Y531580D02*
D03*
Y556980D02*
D03*
X193017Y531580D02*
D03*
Y556980D02*
D03*
X243817D02*
D03*
X294617D02*
D03*
X345417D02*
D03*
X320017D02*
D03*
X269217D02*
D03*
X218417D02*
D03*
X142217D02*
D03*
X116817D02*
D03*
X142217Y531580D02*
D03*
X116817D02*
D03*
X243817D02*
D03*
X294617D02*
D03*
X320017D02*
D03*
X269217D02*
D03*
X218417D02*
D03*
X345417D02*
D03*
X370817D02*
D03*
Y556980D02*
D03*
X396217Y531580D02*
D03*
Y556980D02*
D03*
X421617D02*
D03*
Y531580D02*
D03*
X447017D02*
D03*
X497907Y429820D02*
D03*
X523307D02*
D03*
X497907Y404420D02*
D03*
X523307D02*
D03*
Y353620D02*
D03*
Y302820D02*
D03*
Y252020D02*
D03*
Y277420D02*
D03*
Y328220D02*
D03*
Y379020D02*
D03*
Y455220D02*
D03*
Y480620D02*
D03*
X497907Y455220D02*
D03*
Y480620D02*
D03*
Y353620D02*
D03*
Y302820D02*
D03*
Y277420D02*
D03*
Y328220D02*
D03*
Y379020D02*
D03*
Y252020D02*
D03*
Y226620D02*
D03*
X523307D02*
D03*
X497907Y201220D02*
D03*
X523307D02*
D03*
Y175820D02*
D03*
X497907D02*
D03*
Y150420D02*
D03*
X166800Y607000D02*
D03*
X192200D02*
D03*
X116000Y632400D02*
D03*
Y607000D02*
D03*
X166800Y683200D02*
D03*
Y632400D02*
D03*
X192200D02*
D03*
Y657800D02*
D03*
X217600Y683200D02*
D03*
X116000Y657800D02*
D03*
X166800D02*
D03*
X243000Y683200D02*
D03*
Y657800D02*
D03*
Y632400D02*
D03*
X217600Y657800D02*
D03*
Y607000D02*
D03*
X243000D02*
D03*
X217600Y632400D02*
D03*
X268400Y657800D02*
D03*
X293800Y607000D02*
D03*
X268400D02*
D03*
Y632400D02*
D03*
X293800D02*
D03*
Y657800D02*
D03*
X268400Y683200D02*
D03*
X293800D02*
D03*
X192200D02*
D03*
X116000D02*
D03*
X452000Y684000D02*
D03*
X426600D02*
D03*
X502800Y658600D02*
D03*
Y684000D02*
D03*
X452000Y607800D02*
D03*
Y658600D02*
D03*
X426600D02*
D03*
Y633200D02*
D03*
X401200Y607800D02*
D03*
X502800Y633200D02*
D03*
X452000D02*
D03*
X375800Y607800D02*
D03*
Y633200D02*
D03*
Y658600D02*
D03*
X401200Y633200D02*
D03*
Y684000D02*
D03*
X375800D02*
D03*
X401200Y658600D02*
D03*
X350400Y633200D02*
D03*
X325000Y684000D02*
D03*
X350400D02*
D03*
Y658600D02*
D03*
X325000D02*
D03*
Y633200D02*
D03*
X350400Y607800D02*
D03*
X325000D02*
D03*
X426600D02*
D03*
X502800D02*
D03*
D59*
X40527Y480620D02*
D03*
X523307Y150420D02*
D03*
X141400Y683200D02*
D03*
Y657800D02*
D03*
Y632400D02*
D03*
Y607000D02*
D03*
X477400Y607800D02*
D03*
Y633200D02*
D03*
Y658600D02*
D03*
Y684000D02*
D03*
D60*
X116787Y74170D02*
D03*
X447017Y556980D02*
D03*
D61*
X230480Y35916D02*
D03*
X205080D02*
D03*
X154280D02*
D03*
X179680D02*
D03*
X566598Y252044D02*
D03*
Y277444D02*
D03*
Y302844D02*
D03*
D62*
X128880Y35916D02*
D03*
D63*
X566598Y226644D02*
D03*
D64*
X476500Y191000D02*
D03*
X465000Y203000D02*
D03*
X453500Y214000D02*
D03*
X443000Y224000D02*
D03*
X433500Y234000D02*
D03*
X423000Y244000D02*
D03*
X426700Y423500D02*
D03*
X439400D02*
D03*
X452100D02*
D03*
X464800D02*
D03*
X477500D02*
D03*
X426200Y410500D02*
D03*
X438900D02*
D03*
X451600D02*
D03*
X464300D02*
D03*
X477000D02*
D03*
X426200Y398000D02*
D03*
X438900D02*
D03*
X451600D02*
D03*
X464300D02*
D03*
X477000D02*
D03*
X98000Y306500D02*
D03*
X109100Y306000D02*
D03*
X121800D02*
D03*
X134500D02*
D03*
X379226Y308352D02*
D03*
X391926D02*
D03*
X404626D02*
D03*
X417326D02*
D03*
X430026D02*
D03*
X442726D02*
D03*
X455426D02*
D03*
X468126D02*
D03*
X366526D02*
D03*
X454500Y269500D02*
D03*
X475500Y254500D02*
D03*
X217000Y282500D02*
D03*
X318000Y322500D02*
D03*
X340500Y323000D02*
D03*
X268500Y298000D02*
D03*
X238600Y306000D02*
D03*
X251300D02*
D03*
X264000D02*
D03*
X187900D02*
D03*
X200600D02*
D03*
X213300D02*
D03*
X226000D02*
D03*
X304000Y308000D02*
D03*
X309500Y300500D02*
D03*
X193421Y326873D02*
D03*
X129921Y453873D02*
D03*
X28321Y555473D02*
D03*
X41021Y530073D02*
D03*
X72771Y618973D02*
D03*
X79121Y606273D02*
D03*
X72771Y390373D02*
D03*
X60071D02*
D03*
X402971Y161773D02*
D03*
X409321Y174473D02*
D03*
X402971Y187173D02*
D03*
X580771Y669773D02*
D03*
Y644373D02*
D03*
Y618973D02*
D03*
Y593573D02*
D03*
Y568173D02*
D03*
Y542773D02*
D03*
Y517373D02*
D03*
Y491973D02*
D03*
Y466573D02*
D03*
Y415773D02*
D03*
X587121Y403073D02*
D03*
X580771Y390373D02*
D03*
X587121Y377673D02*
D03*
X580771Y364973D02*
D03*
X587121Y352273D02*
D03*
X580771Y339573D02*
D03*
X587121Y326873D02*
D03*
X580771Y314173D02*
D03*
X587121Y301473D02*
D03*
X580771Y288773D02*
D03*
X587121Y276073D02*
D03*
X580771Y263373D02*
D03*
X587121Y250673D02*
D03*
X580771Y237973D02*
D03*
X587121Y225273D02*
D03*
X580771Y212573D02*
D03*
X587121Y199873D02*
D03*
X580771Y187173D02*
D03*
X587121Y174473D02*
D03*
X580771Y161773D02*
D03*
X587121Y149073D02*
D03*
X580771Y136373D02*
D03*
X587121Y123673D02*
D03*
X580771Y110973D02*
D03*
X587121Y98273D02*
D03*
X580771Y85573D02*
D03*
X587121Y72873D02*
D03*
X580771Y60173D02*
D03*
X587121Y47473D02*
D03*
X580771Y34773D02*
D03*
X587121Y22073D02*
D03*
X580771Y9373D02*
D03*
X574421Y682473D02*
D03*
X568071Y669773D02*
D03*
X574421Y657073D02*
D03*
X568071Y644373D02*
D03*
X574421Y631673D02*
D03*
X568071Y618973D02*
D03*
X574421Y606273D02*
D03*
X568071Y593573D02*
D03*
X574421Y580873D02*
D03*
X568071Y568173D02*
D03*
X574421Y555473D02*
D03*
X568071Y542773D02*
D03*
X574421Y530073D02*
D03*
X568071Y517373D02*
D03*
X574421Y504673D02*
D03*
X568071Y491973D02*
D03*
X574421Y479273D02*
D03*
X568071Y466573D02*
D03*
X574421Y453873D02*
D03*
X568071Y441173D02*
D03*
X574421Y428473D02*
D03*
X568071Y415773D02*
D03*
X574421Y403073D02*
D03*
X568071Y390373D02*
D03*
X574421Y377673D02*
D03*
X568071Y364973D02*
D03*
X574421Y352273D02*
D03*
X568071Y339573D02*
D03*
X574421Y326873D02*
D03*
X568071Y212573D02*
D03*
X574421Y199873D02*
D03*
X568071Y187173D02*
D03*
X574421Y174473D02*
D03*
X568071Y161773D02*
D03*
X574421Y149073D02*
D03*
X568071Y136373D02*
D03*
X574421Y123673D02*
D03*
X568071Y110973D02*
D03*
X574421Y98273D02*
D03*
X568071Y85573D02*
D03*
X574421Y72873D02*
D03*
X568071Y60173D02*
D03*
X574421Y47473D02*
D03*
X568071Y34773D02*
D03*
X574421Y22073D02*
D03*
X568071Y9373D02*
D03*
X561721Y682473D02*
D03*
X555371Y669773D02*
D03*
X561721Y657073D02*
D03*
X555371Y644373D02*
D03*
X561721Y631673D02*
D03*
X555371Y618973D02*
D03*
X561721Y606273D02*
D03*
X555371Y593573D02*
D03*
X561721Y580873D02*
D03*
X555371Y568173D02*
D03*
X561721Y555473D02*
D03*
X555371Y542773D02*
D03*
X561721Y530073D02*
D03*
X555371Y517373D02*
D03*
X561721Y504673D02*
D03*
X555371Y491973D02*
D03*
X561721Y479273D02*
D03*
X555371Y466573D02*
D03*
X561721Y453873D02*
D03*
X555371Y441173D02*
D03*
X561721Y428473D02*
D03*
X555371Y415773D02*
D03*
X561721Y403073D02*
D03*
X555371Y390373D02*
D03*
X561721Y377673D02*
D03*
X555371Y364973D02*
D03*
X561721Y352273D02*
D03*
X555371Y339573D02*
D03*
X561721Y326873D02*
D03*
X555371Y314173D02*
D03*
Y237973D02*
D03*
Y212573D02*
D03*
X561721Y199873D02*
D03*
X555371Y187173D02*
D03*
X561721Y174473D02*
D03*
X555371Y161773D02*
D03*
X561721Y149073D02*
D03*
X555371Y136373D02*
D03*
X561721Y123673D02*
D03*
X555371Y110973D02*
D03*
X561721Y98273D02*
D03*
X555371Y85573D02*
D03*
X561721Y72873D02*
D03*
X555371Y60173D02*
D03*
X561721Y47473D02*
D03*
X555371Y34773D02*
D03*
X561721Y22073D02*
D03*
X555371Y9373D02*
D03*
X549021Y682473D02*
D03*
X542671Y669773D02*
D03*
X549021Y657073D02*
D03*
X542671Y644373D02*
D03*
X549021Y631673D02*
D03*
X542671Y618973D02*
D03*
X549021Y606273D02*
D03*
X542671Y593573D02*
D03*
X549021Y580873D02*
D03*
X542671Y568173D02*
D03*
X549021Y555473D02*
D03*
X542671Y542773D02*
D03*
X549021Y530073D02*
D03*
X542671Y517373D02*
D03*
X549021Y504673D02*
D03*
X542671Y491973D02*
D03*
X549021Y479273D02*
D03*
X542671Y466573D02*
D03*
X549021Y453873D02*
D03*
X542671Y441173D02*
D03*
X549021Y428473D02*
D03*
X542671Y415773D02*
D03*
X549021Y403073D02*
D03*
X542671Y390373D02*
D03*
X549021Y377673D02*
D03*
X542671Y364973D02*
D03*
X549021Y352273D02*
D03*
X542671Y339573D02*
D03*
X549021Y326873D02*
D03*
X542671Y314173D02*
D03*
Y263373D02*
D03*
X549021Y250673D02*
D03*
X542671Y237973D02*
D03*
X549021Y225273D02*
D03*
X542671Y212573D02*
D03*
X549021Y199873D02*
D03*
X542671Y187173D02*
D03*
X549021Y174473D02*
D03*
X542671Y161773D02*
D03*
X549021Y149073D02*
D03*
X542671Y136373D02*
D03*
X549021Y123673D02*
D03*
X542671Y110973D02*
D03*
X549021Y98273D02*
D03*
X542671Y85573D02*
D03*
X549021Y72873D02*
D03*
X542671Y60173D02*
D03*
X549021Y47473D02*
D03*
X542671Y34773D02*
D03*
X549021Y22073D02*
D03*
X542671Y9373D02*
D03*
X536321Y682473D02*
D03*
X529971Y669773D02*
D03*
X536321Y657073D02*
D03*
X529971Y644373D02*
D03*
X536321Y631673D02*
D03*
X529971Y618973D02*
D03*
X536321Y606273D02*
D03*
X529971Y593573D02*
D03*
X536321Y580873D02*
D03*
X529971Y568173D02*
D03*
X536321Y555473D02*
D03*
X529971Y542773D02*
D03*
X536321Y530073D02*
D03*
X529971Y517373D02*
D03*
X536321Y504673D02*
D03*
X529971Y491973D02*
D03*
X536321Y479273D02*
D03*
Y149073D02*
D03*
X529971Y136373D02*
D03*
X536321Y123673D02*
D03*
X529971Y110973D02*
D03*
X536321Y98273D02*
D03*
X529971Y85573D02*
D03*
X536321Y72873D02*
D03*
X529971Y60173D02*
D03*
X536321Y47473D02*
D03*
X529971Y34773D02*
D03*
X536321Y22073D02*
D03*
X529971Y9373D02*
D03*
X523621Y682473D02*
D03*
X517271Y669773D02*
D03*
X523621Y657073D02*
D03*
X517271Y644373D02*
D03*
X523621Y631673D02*
D03*
X517271Y618973D02*
D03*
X523621Y606273D02*
D03*
X517271Y593573D02*
D03*
X523621Y580873D02*
D03*
X517271Y568173D02*
D03*
X523621Y555473D02*
D03*
X517271Y542773D02*
D03*
X523621Y530073D02*
D03*
Y504673D02*
D03*
X517271Y491973D02*
D03*
Y136373D02*
D03*
X523621Y123673D02*
D03*
X517271Y110973D02*
D03*
X523621Y98273D02*
D03*
X517271Y85573D02*
D03*
X523621Y72873D02*
D03*
X517271Y60173D02*
D03*
X523621Y47473D02*
D03*
X517271Y34773D02*
D03*
X523621Y22073D02*
D03*
X517271Y9373D02*
D03*
X510921Y580873D02*
D03*
Y555473D02*
D03*
Y530073D02*
D03*
X504571Y466573D02*
D03*
X510921Y149073D02*
D03*
X504571Y136373D02*
D03*
X510921Y123673D02*
D03*
X504571Y110973D02*
D03*
X510921Y98273D02*
D03*
X504571Y85573D02*
D03*
X510921Y72873D02*
D03*
X504571Y60173D02*
D03*
X510921Y47473D02*
D03*
X504571Y34773D02*
D03*
X510921Y22073D02*
D03*
X504571Y9373D02*
D03*
X491871Y466573D02*
D03*
Y136373D02*
D03*
X498221Y123673D02*
D03*
X491871Y110973D02*
D03*
X498221Y98273D02*
D03*
X491871Y85573D02*
D03*
X498221Y72873D02*
D03*
X491871Y60173D02*
D03*
X498221Y47473D02*
D03*
X491871Y34773D02*
D03*
X498221Y22073D02*
D03*
X491871Y9373D02*
D03*
X485521Y580873D02*
D03*
X479171Y568173D02*
D03*
X485521Y555473D02*
D03*
Y530073D02*
D03*
X479171Y517373D02*
D03*
X485521Y504673D02*
D03*
X479171Y466573D02*
D03*
X485521Y453873D02*
D03*
X479171Y161773D02*
D03*
X485521Y149073D02*
D03*
X479171Y136373D02*
D03*
X485521Y123673D02*
D03*
X479171Y110973D02*
D03*
X485521Y98273D02*
D03*
Y72873D02*
D03*
X479171Y60173D02*
D03*
X485521Y47473D02*
D03*
X479171Y34773D02*
D03*
X485521Y22073D02*
D03*
X479171Y9373D02*
D03*
X466471Y593573D02*
D03*
X472821Y580873D02*
D03*
X466471Y568173D02*
D03*
X472821Y555473D02*
D03*
X466471Y542773D02*
D03*
X472821Y530073D02*
D03*
X466471Y517373D02*
D03*
X472821Y504673D02*
D03*
X466471Y466573D02*
D03*
X472821Y453873D02*
D03*
X466471Y364973D02*
D03*
Y263373D02*
D03*
Y161773D02*
D03*
Y136373D02*
D03*
X472821Y123673D02*
D03*
X466471Y110973D02*
D03*
X472821Y98273D02*
D03*
X466471Y85573D02*
D03*
X472821Y72873D02*
D03*
X466471Y60173D02*
D03*
X472821Y47473D02*
D03*
X466471Y34773D02*
D03*
X472821Y22073D02*
D03*
X466471Y9373D02*
D03*
X453771Y593573D02*
D03*
X460121Y580873D02*
D03*
Y555473D02*
D03*
X453771Y542773D02*
D03*
X460121Y530073D02*
D03*
X453771Y517373D02*
D03*
X460121Y504673D02*
D03*
X453771Y466573D02*
D03*
X460121Y453873D02*
D03*
X453771Y364973D02*
D03*
Y187173D02*
D03*
X460121Y174473D02*
D03*
Y149073D02*
D03*
Y123673D02*
D03*
Y47473D02*
D03*
X453771Y34773D02*
D03*
X460121Y22073D02*
D03*
X453771Y9373D02*
D03*
X441071Y669773D02*
D03*
Y644373D02*
D03*
Y618973D02*
D03*
Y593573D02*
D03*
Y542773D02*
D03*
Y517373D02*
D03*
X447421Y504673D02*
D03*
X441071Y466573D02*
D03*
X447421Y453873D02*
D03*
X441071Y364973D02*
D03*
Y187173D02*
D03*
X447421Y47473D02*
D03*
X441071Y34773D02*
D03*
X447421Y22073D02*
D03*
X441071Y9373D02*
D03*
X428371Y593573D02*
D03*
X434721Y580873D02*
D03*
X428371Y517373D02*
D03*
X434721Y504673D02*
D03*
X428371Y466573D02*
D03*
X434721Y453873D02*
D03*
X428371Y364973D02*
D03*
Y212573D02*
D03*
X434721Y199873D02*
D03*
X428371Y161773D02*
D03*
X434721Y149073D02*
D03*
X428371Y85573D02*
D03*
Y60173D02*
D03*
X434721Y47473D02*
D03*
X428371Y34773D02*
D03*
X434721Y22073D02*
D03*
X428371Y9373D02*
D03*
X415671Y669773D02*
D03*
Y644373D02*
D03*
Y618973D02*
D03*
Y593573D02*
D03*
X422021Y504673D02*
D03*
X415671Y466573D02*
D03*
X422021Y453873D02*
D03*
X415671Y441173D02*
D03*
Y364973D02*
D03*
X422021Y225273D02*
D03*
X415671Y212573D02*
D03*
Y161773D02*
D03*
Y110973D02*
D03*
Y85573D02*
D03*
Y60173D02*
D03*
X422021Y47473D02*
D03*
X415671Y34773D02*
D03*
X422021Y22073D02*
D03*
X415671Y9373D02*
D03*
X402971Y593573D02*
D03*
X409321Y580873D02*
D03*
Y504673D02*
D03*
X402971Y466573D02*
D03*
X409321Y453873D02*
D03*
X402971Y441173D02*
D03*
Y237973D02*
D03*
X409321Y225273D02*
D03*
X402971Y60173D02*
D03*
X409321Y47473D02*
D03*
X402971Y34773D02*
D03*
X409321Y22073D02*
D03*
X402971Y9373D02*
D03*
X390271Y669773D02*
D03*
Y644373D02*
D03*
Y618973D02*
D03*
Y593573D02*
D03*
Y466573D02*
D03*
X396621Y453873D02*
D03*
X390271Y441173D02*
D03*
X396621Y428473D02*
D03*
X390271Y415773D02*
D03*
Y187173D02*
D03*
X396621Y174473D02*
D03*
X390271Y161773D02*
D03*
Y60173D02*
D03*
X396621Y47473D02*
D03*
X390271Y34773D02*
D03*
X396621Y22073D02*
D03*
X390271Y9373D02*
D03*
X377571Y593573D02*
D03*
X383921Y580873D02*
D03*
X377571Y466573D02*
D03*
X383921Y453873D02*
D03*
X377571Y441173D02*
D03*
X383921Y428473D02*
D03*
X377571Y415773D02*
D03*
Y187173D02*
D03*
X383921Y174473D02*
D03*
X377571Y161773D02*
D03*
Y60173D02*
D03*
X383921Y47473D02*
D03*
Y22073D02*
D03*
X377571Y9373D02*
D03*
X364871Y669773D02*
D03*
Y644373D02*
D03*
Y618973D02*
D03*
Y593573D02*
D03*
X371221Y453873D02*
D03*
X364871Y441173D02*
D03*
X371221Y428473D02*
D03*
X364871Y415773D02*
D03*
X371221Y403073D02*
D03*
X364871Y390373D02*
D03*
Y60173D02*
D03*
X371221Y47473D02*
D03*
Y22073D02*
D03*
X364871Y9373D02*
D03*
X352171Y593573D02*
D03*
X358521Y580873D02*
D03*
X352171Y441173D02*
D03*
X358521Y428473D02*
D03*
X352171Y415773D02*
D03*
X358521Y403073D02*
D03*
X352171Y390373D02*
D03*
Y314173D02*
D03*
Y60173D02*
D03*
X358521Y47473D02*
D03*
Y22073D02*
D03*
X352171Y9373D02*
D03*
X339471Y669773D02*
D03*
Y644373D02*
D03*
Y618973D02*
D03*
Y593573D02*
D03*
Y441173D02*
D03*
X345821Y428473D02*
D03*
X339471Y415773D02*
D03*
X345821Y403073D02*
D03*
X339471Y390373D02*
D03*
Y60173D02*
D03*
X345821Y47473D02*
D03*
Y22073D02*
D03*
X339471Y9373D02*
D03*
X326771Y593573D02*
D03*
X333121Y580873D02*
D03*
Y428473D02*
D03*
X326771Y415773D02*
D03*
X333121Y403073D02*
D03*
X326771Y390373D02*
D03*
X333121Y352273D02*
D03*
X326771Y60173D02*
D03*
X333121Y47473D02*
D03*
Y22073D02*
D03*
X326771Y9373D02*
D03*
X314071Y669773D02*
D03*
Y644373D02*
D03*
Y618973D02*
D03*
Y593573D02*
D03*
Y466573D02*
D03*
X320421Y453873D02*
D03*
X314071Y136373D02*
D03*
Y60173D02*
D03*
X320421Y47473D02*
D03*
Y22073D02*
D03*
X314071Y9373D02*
D03*
X307721Y682473D02*
D03*
X301371Y669773D02*
D03*
X307721Y657073D02*
D03*
X301371Y644373D02*
D03*
X307721Y631673D02*
D03*
X301371Y618973D02*
D03*
X307721Y606273D02*
D03*
X301371Y593573D02*
D03*
X307721Y580873D02*
D03*
X301371Y466573D02*
D03*
X307721Y453873D02*
D03*
X301371Y441173D02*
D03*
Y415773D02*
D03*
Y390373D02*
D03*
X307721Y326873D02*
D03*
Y149073D02*
D03*
X301371Y136373D02*
D03*
X307721Y123673D02*
D03*
X301371Y60173D02*
D03*
X307721Y47473D02*
D03*
Y22073D02*
D03*
X301371Y9373D02*
D03*
X288671Y593573D02*
D03*
Y466573D02*
D03*
X295021Y453873D02*
D03*
X288671Y441173D02*
D03*
X295021Y428473D02*
D03*
X288671Y415773D02*
D03*
X295021Y403073D02*
D03*
X288671Y339573D02*
D03*
X295021Y326873D02*
D03*
X288671Y161773D02*
D03*
Y136373D02*
D03*
Y60173D02*
D03*
X295021Y47473D02*
D03*
Y22073D02*
D03*
X288671Y9373D02*
D03*
X275971Y669773D02*
D03*
Y644373D02*
D03*
Y618973D02*
D03*
Y593573D02*
D03*
X282321Y580873D02*
D03*
X275971Y466573D02*
D03*
X282321Y453873D02*
D03*
X275971Y441173D02*
D03*
X282321Y428473D02*
D03*
Y352273D02*
D03*
X275971Y339573D02*
D03*
X282321Y326873D02*
D03*
X275971Y60173D02*
D03*
X282321Y47473D02*
D03*
Y22073D02*
D03*
X275971Y9373D02*
D03*
X263271Y593573D02*
D03*
Y466573D02*
D03*
X269621Y453873D02*
D03*
X263271Y441173D02*
D03*
X269621Y352273D02*
D03*
X263271Y339573D02*
D03*
X269621Y326873D02*
D03*
X263271Y60173D02*
D03*
X269621Y47473D02*
D03*
Y22073D02*
D03*
X263271Y9373D02*
D03*
X250571Y669773D02*
D03*
Y644373D02*
D03*
Y618973D02*
D03*
Y593573D02*
D03*
X256921Y580873D02*
D03*
X250571Y466573D02*
D03*
X256921Y453873D02*
D03*
Y352273D02*
D03*
X250571Y339573D02*
D03*
X256921Y326873D02*
D03*
X250571Y60173D02*
D03*
X256921Y47473D02*
D03*
X250571Y34773D02*
D03*
X256921Y22073D02*
D03*
X250571Y9373D02*
D03*
X237871Y593573D02*
D03*
Y466573D02*
D03*
X244221Y352273D02*
D03*
X237871Y339573D02*
D03*
X244221Y326873D02*
D03*
X237871Y237973D02*
D03*
X244221Y225273D02*
D03*
Y149073D02*
D03*
X237871Y136373D02*
D03*
Y60173D02*
D03*
X244221Y47473D02*
D03*
Y22073D02*
D03*
X225171Y669773D02*
D03*
Y644373D02*
D03*
Y618973D02*
D03*
Y593573D02*
D03*
X231521Y580873D02*
D03*
Y428473D02*
D03*
X225171Y364973D02*
D03*
X231521Y352273D02*
D03*
X225171Y339573D02*
D03*
X231521Y326873D02*
D03*
Y250673D02*
D03*
X225171Y237973D02*
D03*
X231521Y225273D02*
D03*
X225171Y212573D02*
D03*
Y136373D02*
D03*
Y60173D02*
D03*
X231521Y22073D02*
D03*
X212471Y593573D02*
D03*
Y491973D02*
D03*
Y441173D02*
D03*
X218821Y428473D02*
D03*
X212471Y390373D02*
D03*
X218821Y377673D02*
D03*
X212471Y364973D02*
D03*
X218821Y352273D02*
D03*
X212471Y339573D02*
D03*
X218821Y326873D02*
D03*
X212471Y263373D02*
D03*
X218821Y250673D02*
D03*
X212471Y237973D02*
D03*
X218821Y225273D02*
D03*
X212471Y212573D02*
D03*
X218821Y199873D02*
D03*
X212471Y187173D02*
D03*
X218821Y22073D02*
D03*
X199771Y669773D02*
D03*
Y644373D02*
D03*
Y618973D02*
D03*
Y593573D02*
D03*
X206121Y580873D02*
D03*
Y504673D02*
D03*
Y453873D02*
D03*
X199771Y441173D02*
D03*
X206121Y428473D02*
D03*
X199771Y390373D02*
D03*
X206121Y377673D02*
D03*
X199771Y364973D02*
D03*
X206121Y352273D02*
D03*
X199771Y339573D02*
D03*
X206121Y326873D02*
D03*
Y276073D02*
D03*
X199771Y263373D02*
D03*
X206121Y250673D02*
D03*
X199771Y237973D02*
D03*
X206121Y225273D02*
D03*
X199771Y212573D02*
D03*
X206121Y199873D02*
D03*
X199771Y187173D02*
D03*
X206121Y22073D02*
D03*
X187071Y593573D02*
D03*
Y466573D02*
D03*
X193421Y453873D02*
D03*
X187071Y441173D02*
D03*
X193421Y428473D02*
D03*
X187071Y390373D02*
D03*
X193421Y377673D02*
D03*
X187071Y364973D02*
D03*
X193421Y352273D02*
D03*
X187071Y339573D02*
D03*
X193421Y276073D02*
D03*
Y199873D02*
D03*
X187071Y187173D02*
D03*
X193421Y174473D02*
D03*
X187071Y161773D02*
D03*
X193421Y22073D02*
D03*
X174371Y669773D02*
D03*
Y644373D02*
D03*
Y618973D02*
D03*
Y593573D02*
D03*
X180721Y580873D02*
D03*
Y479273D02*
D03*
X174371Y466573D02*
D03*
X180721Y453873D02*
D03*
X174371Y441173D02*
D03*
X180721Y428473D02*
D03*
X174371Y390373D02*
D03*
X180721Y377673D02*
D03*
Y352273D02*
D03*
X174371Y339573D02*
D03*
X180721Y199873D02*
D03*
X174371Y187173D02*
D03*
X180721Y174473D02*
D03*
X174371Y161773D02*
D03*
X180721Y22073D02*
D03*
X161671Y593573D02*
D03*
Y491973D02*
D03*
X168021Y479273D02*
D03*
X161671Y466573D02*
D03*
X168021Y453873D02*
D03*
Y428473D02*
D03*
X161671Y187173D02*
D03*
X168021Y174473D02*
D03*
X161671Y161773D02*
D03*
X168021Y149073D02*
D03*
X161671Y136373D02*
D03*
X168021Y22073D02*
D03*
X148971Y593573D02*
D03*
X155321Y580873D02*
D03*
X148971Y517373D02*
D03*
X155321Y504673D02*
D03*
X148971Y491973D02*
D03*
X155321Y479273D02*
D03*
Y174473D02*
D03*
X148971Y161773D02*
D03*
X155321Y149073D02*
D03*
X148971Y136373D02*
D03*
X155321Y22073D02*
D03*
X136271Y593573D02*
D03*
Y542773D02*
D03*
Y517373D02*
D03*
Y491973D02*
D03*
X142621Y428473D02*
D03*
X136271Y390373D02*
D03*
Y339573D02*
D03*
Y212573D02*
D03*
Y161773D02*
D03*
X142621Y149073D02*
D03*
X136271Y136373D02*
D03*
X142621Y22073D02*
D03*
X123571Y593573D02*
D03*
X129921Y580873D02*
D03*
X123571Y568173D02*
D03*
Y517373D02*
D03*
X129921Y504673D02*
D03*
X123571Y441173D02*
D03*
X129921Y428473D02*
D03*
X123571Y390373D02*
D03*
Y237973D02*
D03*
X129921Y225273D02*
D03*
Y149073D02*
D03*
X123571Y136373D02*
D03*
X129921Y22073D02*
D03*
X110871Y568173D02*
D03*
Y517373D02*
D03*
X117221Y453873D02*
D03*
X110871Y441173D02*
D03*
X117221Y428473D02*
D03*
X110871Y390373D02*
D03*
Y288773D02*
D03*
X117221Y199873D02*
D03*
X110871Y60173D02*
D03*
X117221Y47473D02*
D03*
X110871Y34773D02*
D03*
X117221Y22073D02*
D03*
X110871Y9373D02*
D03*
X98171Y669773D02*
D03*
Y644373D02*
D03*
Y618973D02*
D03*
Y466573D02*
D03*
X104521Y453873D02*
D03*
X98171Y441173D02*
D03*
X104521Y428473D02*
D03*
X98171Y390373D02*
D03*
X104521Y377673D02*
D03*
X98171Y288773D02*
D03*
Y110973D02*
D03*
Y85573D02*
D03*
Y60173D02*
D03*
X104521Y47473D02*
D03*
X98171Y34773D02*
D03*
X104521Y22073D02*
D03*
X98171Y9373D02*
D03*
X91821Y682473D02*
D03*
Y657073D02*
D03*
Y631673D02*
D03*
X85471Y618973D02*
D03*
X91821Y606273D02*
D03*
X85471Y593573D02*
D03*
Y542773D02*
D03*
X91821Y479273D02*
D03*
X85471Y466573D02*
D03*
X91821Y453873D02*
D03*
X85471Y390373D02*
D03*
X91821Y377673D02*
D03*
X85471Y364973D02*
D03*
Y339573D02*
D03*
Y314173D02*
D03*
Y288773D02*
D03*
Y263373D02*
D03*
X91821Y199873D02*
D03*
Y98273D02*
D03*
X85471Y85573D02*
D03*
X91821Y72873D02*
D03*
X85471Y60173D02*
D03*
X79121Y631673D02*
D03*
X72771Y593573D02*
D03*
X79121Y580873D02*
D03*
X72771Y568173D02*
D03*
X79121Y555473D02*
D03*
X72771Y491973D02*
D03*
X79121Y479273D02*
D03*
Y377673D02*
D03*
X72771Y187173D02*
D03*
X79121Y174473D02*
D03*
X72771Y136373D02*
D03*
X79121Y72873D02*
D03*
X60071Y491973D02*
D03*
Y187173D02*
D03*
Y136373D02*
D03*
X47371Y390373D02*
D03*
Y187173D02*
D03*
Y136373D02*
D03*
X53721Y123673D02*
D03*
X47371Y110973D02*
D03*
X34671Y644373D02*
D03*
Y542773D02*
D03*
Y517373D02*
D03*
X41021Y504673D02*
D03*
X34671Y390373D02*
D03*
Y187173D02*
D03*
Y136373D02*
D03*
X41021Y123673D02*
D03*
X34671Y110973D02*
D03*
Y85573D02*
D03*
Y60173D02*
D03*
X28321Y631673D02*
D03*
X21971Y618973D02*
D03*
X28321Y606273D02*
D03*
X21971Y593573D02*
D03*
X28321Y580873D02*
D03*
X21971Y568173D02*
D03*
Y542773D02*
D03*
X28321Y530073D02*
D03*
X21971Y517373D02*
D03*
X28321Y504673D02*
D03*
X21971Y491973D02*
D03*
Y466573D02*
D03*
Y441173D02*
D03*
Y415773D02*
D03*
Y390373D02*
D03*
Y364973D02*
D03*
Y339573D02*
D03*
Y314173D02*
D03*
Y288773D02*
D03*
Y263373D02*
D03*
Y237973D02*
D03*
Y212573D02*
D03*
Y187173D02*
D03*
Y161773D02*
D03*
Y136373D02*
D03*
X28321Y123673D02*
D03*
X21971Y110973D02*
D03*
X28321Y98273D02*
D03*
X21971Y85573D02*
D03*
X28321Y72873D02*
D03*
X21971Y60173D02*
D03*
X9271Y669773D02*
D03*
Y644373D02*
D03*
X15621Y631673D02*
D03*
X9271Y618973D02*
D03*
X15621Y606273D02*
D03*
X9271Y593573D02*
D03*
X15621Y580873D02*
D03*
X9271Y568173D02*
D03*
X15621Y555473D02*
D03*
X9271Y542773D02*
D03*
X15621Y530073D02*
D03*
X9271Y517373D02*
D03*
X15621Y504673D02*
D03*
X9271Y491973D02*
D03*
Y466573D02*
D03*
Y441173D02*
D03*
Y415773D02*
D03*
Y390373D02*
D03*
Y364973D02*
D03*
Y339573D02*
D03*
Y314173D02*
D03*
Y288773D02*
D03*
Y263373D02*
D03*
Y237973D02*
D03*
Y212573D02*
D03*
Y187173D02*
D03*
Y161773D02*
D03*
Y136373D02*
D03*
X15621Y123673D02*
D03*
X9271Y110973D02*
D03*
X15621Y98273D02*
D03*
X9271Y85573D02*
D03*
X15621Y72873D02*
D03*
X9271Y60173D02*
D03*
X15621Y47473D02*
D03*
X9271Y34773D02*
D03*
X15621Y22073D02*
D03*
X9271Y9373D02*
D03*
X372005Y233048D02*
D03*
X377662Y238705D02*
D03*
X326128Y182053D02*
D03*
X318128D02*
D03*
X317500Y294500D02*
D03*
X327000Y290000D02*
D03*
X325500Y157500D02*
D03*
X273351Y212891D02*
D03*
X275451Y222477D02*
D03*
X302301Y187504D02*
D03*
X295638Y197660D02*
D03*
X286766Y197484D02*
D03*
X287490Y205632D02*
D03*
X264480Y382820D02*
D03*
X176596Y225080D02*
D03*
X131142Y261885D02*
D03*
X125386Y256129D02*
D03*
X113874Y244617D02*
D03*
X119630Y250373D02*
D03*
X122688Y280972D02*
D03*
X137031Y267504D02*
D03*
X145171Y267420D02*
D03*
X156986Y283145D02*
D03*
X111177Y269460D02*
D03*
X99665Y257949D02*
D03*
X105421Y263705D02*
D03*
X97242Y121445D02*
D03*
X68481Y92683D02*
D03*
X133500Y446000D02*
D03*
X105387Y327530D02*
D03*
X123643Y459766D02*
D03*
X165989Y438474D02*
D03*
X82715Y501304D02*
D03*
X48180Y535839D02*
D03*
X53936Y530083D02*
D03*
X60549Y623088D02*
D03*
Y614948D02*
D03*
Y631227D02*
D03*
Y639367D02*
D03*
X73168Y538392D02*
D03*
X84679Y526880D02*
D03*
X101947Y509612D02*
D03*
X78924Y532636D02*
D03*
X107833Y503990D02*
D03*
X90435Y521124D02*
D03*
X96191Y515368D02*
D03*
X67412Y544147D02*
D03*
X61656Y549903D02*
D03*
X60549Y557968D02*
D03*
Y574248D02*
D03*
Y566108D02*
D03*
Y606808D02*
D03*
Y582388D02*
D03*
Y590527D02*
D03*
Y598667D02*
D03*
X41074Y639328D02*
D03*
Y574208D02*
D03*
Y614908D02*
D03*
Y549789D02*
D03*
Y623048D02*
D03*
Y557929D02*
D03*
Y631188D02*
D03*
Y566068D02*
D03*
Y606768D02*
D03*
Y590489D02*
D03*
Y582349D02*
D03*
Y598629D02*
D03*
X65447Y518571D02*
D03*
X59692Y524327D02*
D03*
X88471Y495548D02*
D03*
X71203Y512816D02*
D03*
X76959Y507060D02*
D03*
X94093Y489662D02*
D03*
X156397Y541061D02*
D03*
X154226Y525565D02*
D03*
X159468Y519338D02*
D03*
X162529Y511795D02*
D03*
X167643Y505462D02*
D03*
X173313Y499622D02*
D03*
X178983Y493782D02*
D03*
X184654Y487942D02*
D03*
X190324Y482101D02*
D03*
X195994Y476261D02*
D03*
X207335Y464581D02*
D03*
X213006Y458741D02*
D03*
X218676Y452901D02*
D03*
X224346Y447061D02*
D03*
X230017Y441221D02*
D03*
X235687Y435381D02*
D03*
X241357Y429541D02*
D03*
X247028Y423701D02*
D03*
X252698Y417861D02*
D03*
X258368Y412021D02*
D03*
X264039Y406180D02*
D03*
X269709Y400340D02*
D03*
X274591Y393827D02*
D03*
Y385687D02*
D03*
X275740Y361623D02*
D03*
X294311Y189559D02*
D03*
X268351Y227699D02*
D03*
X279400Y205558D02*
D03*
X396032Y124576D02*
D03*
X352730Y454330D02*
D03*
X113387Y327530D02*
D03*
X388032Y132576D02*
D03*
X380032D02*
D03*
X327146Y301533D02*
D03*
X318128Y174053D02*
D03*
X256338Y382829D02*
D03*
X383319Y221735D02*
D03*
X248379Y200424D02*
D03*
X332803Y295876D02*
D03*
X396032Y140576D02*
D03*
X121387Y327530D02*
D03*
X344730Y454330D02*
D03*
X318128Y166053D02*
D03*
X380032Y124576D02*
D03*
X388976Y227391D02*
D03*
X396032Y132576D02*
D03*
X287514Y497404D02*
D03*
X388032Y140576D02*
D03*
X338460Y312846D02*
D03*
X176596Y233080D02*
D03*
X352730Y462330D02*
D03*
X326128Y166053D02*
D03*
X383319Y233048D02*
D03*
X380032Y140576D02*
D03*
X230912Y383108D02*
D03*
X377126Y503400D02*
D03*
X394632Y221735D02*
D03*
X176596Y241080D02*
D03*
X338460Y301533D02*
D03*
X394632Y210421D02*
D03*
X388032Y124576D02*
D03*
X344730Y462330D02*
D03*
X326128Y174053D02*
D03*
X377662Y227391D02*
D03*
X302005Y356540D02*
D03*
X344117Y307190D02*
D03*
X294005Y356540D02*
D03*
X377126Y495400D02*
D03*
X400289Y216078D02*
D03*
X238912Y383108D02*
D03*
X248338Y382829D02*
D03*
X332803Y307190D02*
D03*
X258102Y191054D02*
D03*
X388976Y216078D02*
D03*
X534799Y310630D02*
D03*
X510753Y307166D02*
D03*
X481719Y294798D02*
D03*
X473579D02*
D03*
X465439D02*
D03*
X457299D02*
D03*
X449159D02*
D03*
X441019D02*
D03*
X432879D02*
D03*
X424739D02*
D03*
X416599D02*
D03*
X408459D02*
D03*
X400319D02*
D03*
X392179D02*
D03*
X384039D02*
D03*
X375899D02*
D03*
X367759D02*
D03*
X359619D02*
D03*
X351479D02*
D03*
X538000Y296500D02*
D03*
X547757Y295034D02*
D03*
X555897D02*
D03*
X342748Y341898D02*
D03*
X367173Y320754D02*
D03*
X375313D02*
D03*
X383453D02*
D03*
X391593D02*
D03*
X399733D02*
D03*
X407873D02*
D03*
X416013D02*
D03*
X424153D02*
D03*
X432293D02*
D03*
X440433D02*
D03*
X448573D02*
D03*
X456713D02*
D03*
X464853D02*
D03*
X106555Y477207D02*
D03*
X112310Y471451D02*
D03*
X117887Y465521D02*
D03*
X140820Y442484D02*
D03*
X146576Y436728D02*
D03*
X158575Y452270D02*
D03*
X124271Y487031D02*
D03*
X118516Y492787D02*
D03*
X205814Y75969D02*
D03*
X222196Y172873D02*
D03*
X217173Y166467D02*
D03*
X211417Y160712D02*
D03*
X205662Y154956D02*
D03*
X199906Y149200D02*
D03*
X194760Y142892D02*
D03*
X194202Y134771D02*
D03*
Y126631D02*
D03*
Y118491D02*
D03*
X216243Y138093D02*
D03*
X221999Y143848D02*
D03*
X227754Y149604D02*
D03*
X233510Y155360D02*
D03*
X239266Y161116D02*
D03*
X137099Y286978D02*
D03*
X129006Y286105D02*
D03*
X116932Y275216D02*
D03*
X94153Y251958D02*
D03*
X92713Y243947D02*
D03*
Y235807D02*
D03*
X92739Y227667D02*
D03*
X92775Y219527D02*
D03*
Y211387D02*
D03*
X92772Y188335D02*
D03*
Y180195D02*
D03*
X92747Y172055D02*
D03*
Y163915D02*
D03*
X82985Y134728D02*
D03*
X77554Y128665D02*
D03*
X71699Y123010D02*
D03*
X65731Y117474D02*
D03*
X59975Y111719D02*
D03*
X54219Y105963D02*
D03*
X48572Y100101D02*
D03*
X46600Y92203D02*
D03*
Y84063D02*
D03*
Y75923D02*
D03*
Y67783D02*
D03*
Y59643D02*
D03*
X46100Y51503D02*
D03*
Y43363D02*
D03*
Y35223D02*
D03*
Y27083D02*
D03*
X67120Y27927D02*
D03*
X67074Y36067D02*
D03*
Y44207D02*
D03*
Y52347D02*
D03*
X66074Y60487D02*
D03*
Y68627D02*
D03*
Y76767D02*
D03*
Y84907D02*
D03*
X74236Y98439D02*
D03*
X79992Y104195D02*
D03*
X85374Y110302D02*
D03*
X91296Y115887D02*
D03*
X102998Y127201D02*
D03*
X108754Y132957D02*
D03*
X112246Y181127D02*
D03*
X112136Y189266D02*
D03*
X112249Y212234D02*
D03*
X151618Y262451D02*
D03*
X149740Y286855D02*
D03*
X146976Y370794D02*
D03*
Y362654D02*
D03*
X143105Y347048D02*
D03*
X163394Y346224D02*
D03*
X166450Y353768D02*
D03*
Y361908D02*
D03*
Y370048D02*
D03*
Y378188D02*
D03*
X166412Y386328D02*
D03*
X38551Y687767D02*
D03*
Y679628D02*
D03*
Y671488D02*
D03*
Y663347D02*
D03*
Y655208D02*
D03*
X42637Y541800D02*
D03*
X101208Y485707D02*
D03*
X63395Y646993D02*
D03*
X63398Y655133D02*
D03*
Y663273D02*
D03*
Y671413D02*
D03*
Y679553D02*
D03*
Y687693D02*
D03*
X6500Y26500D02*
D03*
X287514Y505404D02*
D03*
D65*
X317790Y240631D02*
D03*
X344186Y240086D02*
D03*
X330895Y226796D02*
D03*
X304852Y227694D02*
D03*
X317964Y265950D02*
D03*
X292280Y240266D02*
D03*
X305212Y253198D02*
D03*
X330715Y253557D02*
D03*
X318323Y214223D02*
D03*
M02*
