G04*
G04 #@! TF.GenerationSoftware,Altium Limited,Altium Designer,23.2.1 (34)*
G04*
G04 Layer_Color=8421504*
%FSLAX44Y44*%
%MOMM*%
G71*
G04*
G04 #@! TF.SameCoordinates,ABC1B65B-6388-4075-88A0-289E2620619A*
G04*
G04*
G04 #@! TF.FilePolarity,Positive*
G04*
G01*
G75*
%ADD18R,1.2000X5.0000*%
%ADD19R,1.6000X5.0000*%
%ADD20R,0.9700X0.9000*%
G04:AMPARAMS|DCode=21|XSize=0.7mm|YSize=0.6mm|CornerRadius=0mm|HoleSize=0mm|Usage=FLASHONLY|Rotation=45.000|XOffset=0mm|YOffset=0mm|HoleType=Round|Shape=Rectangle|*
%AMROTATEDRECTD21*
4,1,4,-0.0354,-0.4596,-0.4596,-0.0354,0.0354,0.4596,0.4596,0.0354,-0.0354,-0.4596,0.0*
%
%ADD21ROTATEDRECTD21*%

G04:AMPARAMS|DCode=22|XSize=0.7mm|YSize=0.6mm|CornerRadius=0mm|HoleSize=0mm|Usage=FLASHONLY|Rotation=135.000|XOffset=0mm|YOffset=0mm|HoleType=Round|Shape=Rectangle|*
%AMROTATEDRECTD22*
4,1,4,0.4596,-0.0354,0.0354,-0.4596,-0.4596,0.0354,-0.0354,0.4596,0.4596,-0.0354,0.0*
%
%ADD22ROTATEDRECTD22*%

%ADD23R,0.6000X0.7000*%
%ADD24R,0.7000X0.6000*%
%ADD25P,7.9196X4X90.0*%
G04:AMPARAMS|DCode=26|XSize=0.85mm|YSize=0.3mm|CornerRadius=0mm|HoleSize=0mm|Usage=FLASHONLY|Rotation=315.000|XOffset=0mm|YOffset=0mm|HoleType=Round|Shape=Rectangle|*
%AMROTATEDRECTD26*
4,1,4,-0.4066,0.1945,-0.1945,0.4066,0.4066,-0.1945,0.1945,-0.4066,-0.4066,0.1945,0.0*
%
%ADD26ROTATEDRECTD26*%

G04:AMPARAMS|DCode=27|XSize=0.85mm|YSize=0.3mm|CornerRadius=0mm|HoleSize=0mm|Usage=FLASHONLY|Rotation=45.000|XOffset=0mm|YOffset=0mm|HoleType=Round|Shape=Rectangle|*
%AMROTATEDRECTD27*
4,1,4,-0.1945,-0.4066,-0.4066,-0.1945,0.1945,0.4066,0.4066,0.1945,-0.1945,-0.4066,0.0*
%
%ADD27ROTATEDRECTD27*%

%ADD28O,0.4858X1.2056*%
%ADD29R,0.4858X1.2056*%
G04:AMPARAMS|DCode=30|XSize=0.6mm|YSize=1mm|CornerRadius=0.051mm|HoleSize=0mm|Usage=FLASHONLY|Rotation=270.000|XOffset=0mm|YOffset=0mm|HoleType=Round|Shape=RoundedRectangle|*
%AMROUNDEDRECTD30*
21,1,0.6000,0.8980,0,0,270.0*
21,1,0.4980,1.0000,0,0,270.0*
1,1,0.1020,-0.4490,-0.2490*
1,1,0.1020,-0.4490,0.2490*
1,1,0.1020,0.4490,0.2490*
1,1,0.1020,0.4490,-0.2490*
%
%ADD30ROUNDEDRECTD30*%
G04:AMPARAMS|DCode=31|XSize=0.6mm|YSize=1mm|CornerRadius=0.051mm|HoleSize=0mm|Usage=FLASHONLY|Rotation=0.000|XOffset=0mm|YOffset=0mm|HoleType=Round|Shape=RoundedRectangle|*
%AMROUNDEDRECTD31*
21,1,0.6000,0.8980,0,0,0.0*
21,1,0.4980,1.0000,0,0,0.0*
1,1,0.1020,0.2490,-0.4490*
1,1,0.1020,-0.2490,-0.4490*
1,1,0.1020,-0.2490,0.4490*
1,1,0.1020,0.2490,0.4490*
%
%ADD31ROUNDEDRECTD31*%
D18*
X50975Y672008D02*
D03*
X56500Y28600D02*
D03*
D19*
X23275Y672008D02*
D03*
X78675D02*
D03*
X28800Y28600D02*
D03*
X84200D02*
D03*
D20*
X157000Y441000D02*
D03*
Y425300D02*
D03*
X102522Y188570D02*
D03*
Y204270D02*
D03*
D21*
X282573Y279137D02*
D03*
X273380Y288329D02*
D03*
X325265Y301745D02*
D03*
X316073Y310937D02*
D03*
X239187Y209616D02*
D03*
X248379Y200424D02*
D03*
X267118Y181685D02*
D03*
X257925Y190878D02*
D03*
X334520Y311178D02*
D03*
X325327Y320370D02*
D03*
X287830Y292573D02*
D03*
X278638Y301766D02*
D03*
X110338Y487451D02*
D03*
X101145Y496644D02*
D03*
D22*
X392931Y216231D02*
D03*
X383739Y207039D02*
D03*
X260846Y252691D02*
D03*
X251653Y243499D02*
D03*
X302057Y318313D02*
D03*
X292864Y309120D02*
D03*
X313626Y174060D02*
D03*
X304434Y164867D02*
D03*
X239187Y191231D02*
D03*
X229995Y182039D02*
D03*
X239187Y172139D02*
D03*
X248379Y181332D02*
D03*
X383477Y225790D02*
D03*
X374285Y216597D02*
D03*
X251470Y262067D02*
D03*
X242278Y252874D02*
D03*
X322915Y164670D02*
D03*
X313723Y155477D02*
D03*
X131658Y464520D02*
D03*
X140850Y473713D02*
D03*
X122175Y474003D02*
D03*
X131367Y483196D02*
D03*
X232662Y280757D02*
D03*
X223469Y271565D02*
D03*
X242037Y271463D02*
D03*
X232844Y262271D02*
D03*
X140983Y454987D02*
D03*
X150175Y464179D02*
D03*
X86027Y124000D02*
D03*
X76835Y114808D02*
D03*
D23*
X156637Y397180D02*
D03*
X143637D02*
D03*
X156713Y383870D02*
D03*
X143713D02*
D03*
X102451Y234479D02*
D03*
X115451D02*
D03*
X102471Y160071D02*
D03*
X115471D02*
D03*
X102243Y146710D02*
D03*
X115243D02*
D03*
X102501Y221017D02*
D03*
X115501D02*
D03*
X193680Y315087D02*
D03*
X206680D02*
D03*
X194056Y291287D02*
D03*
X207056D02*
D03*
X177114Y229604D02*
D03*
X164114D02*
D03*
X102497Y173380D02*
D03*
X115497D02*
D03*
X124383Y365641D02*
D03*
X137383D02*
D03*
X167457Y216168D02*
D03*
X154457D02*
D03*
X375488Y499923D02*
D03*
X362488D02*
D03*
X286228Y502006D02*
D03*
X273228D02*
D03*
X324772Y510121D02*
D03*
X311772D02*
D03*
X324810Y496926D02*
D03*
X311810D02*
D03*
X311683Y356464D02*
D03*
X324683D02*
D03*
X311683Y343205D02*
D03*
X324683D02*
D03*
D24*
X110332Y327394D02*
D03*
Y340394D02*
D03*
X96997Y339281D02*
D03*
Y352281D02*
D03*
X139446Y243300D02*
D03*
Y256300D02*
D03*
D25*
X318194Y240226D02*
D03*
D26*
X347892Y221135D02*
D03*
X362035Y235277D02*
D03*
X358499Y231741D02*
D03*
X354964Y228206D02*
D03*
X351428Y224670D02*
D03*
X344357Y217599D02*
D03*
X340821Y214063D02*
D03*
X337286Y210528D02*
D03*
X333750Y206992D02*
D03*
X330215Y203457D02*
D03*
X326679Y199921D02*
D03*
X323144Y196386D02*
D03*
X274353Y245176D02*
D03*
X277889Y248712D02*
D03*
X281425Y252247D02*
D03*
X284960Y255783D02*
D03*
X288496Y259318D02*
D03*
X292031Y262854D02*
D03*
X295567Y266389D02*
D03*
X299102Y269925D02*
D03*
X302638Y273461D02*
D03*
X306173Y276996D02*
D03*
X309709Y280532D02*
D03*
X313244Y284067D02*
D03*
D27*
X323144D02*
D03*
X326679Y280532D02*
D03*
X330215Y276996D02*
D03*
X333750Y273461D02*
D03*
X337286Y269925D02*
D03*
X340821Y266389D02*
D03*
X344357Y262854D02*
D03*
X347892Y259318D02*
D03*
X351428Y255783D02*
D03*
X354964Y252247D02*
D03*
X358499Y248712D02*
D03*
X362035Y245176D02*
D03*
X313244Y196386D02*
D03*
X309709Y199921D02*
D03*
X306173Y203457D02*
D03*
X302638Y206992D02*
D03*
X299102Y210528D02*
D03*
X295567Y214063D02*
D03*
X292031Y217599D02*
D03*
X288496Y221135D02*
D03*
X284960Y224670D02*
D03*
X281425Y228206D02*
D03*
X277889Y231741D02*
D03*
X274353Y235277D02*
D03*
D28*
X274389Y370985D02*
D03*
X266389D02*
D03*
X258389D02*
D03*
X282389D02*
D03*
X394389Y481591D02*
D03*
X386389D02*
D03*
X378389D02*
D03*
X370389D02*
D03*
X362389D02*
D03*
X354389D02*
D03*
X346389D02*
D03*
X338389D02*
D03*
X330389D02*
D03*
X322389D02*
D03*
X314389D02*
D03*
X306389D02*
D03*
X298389D02*
D03*
X290389D02*
D03*
X282389D02*
D03*
X274389D02*
D03*
X266389D02*
D03*
X258389D02*
D03*
X250389D02*
D03*
X242389D02*
D03*
X234389D02*
D03*
Y370985D02*
D03*
X242389D02*
D03*
X250389D02*
D03*
X290389D02*
D03*
X298389D02*
D03*
X306389D02*
D03*
X314389D02*
D03*
X322389D02*
D03*
X330389D02*
D03*
X338389D02*
D03*
X346389D02*
D03*
X354389D02*
D03*
X362389D02*
D03*
X370389D02*
D03*
X378389D02*
D03*
X386389D02*
D03*
X394389D02*
D03*
X402389D02*
D03*
D29*
Y481591D02*
D03*
D30*
X152174Y331275D02*
D03*
Y340775D02*
D03*
Y350275D02*
D03*
X124674D02*
D03*
Y331275D02*
D03*
D31*
X173838Y271523D02*
D03*
X164338D02*
D03*
X154838D02*
D03*
Y244023D02*
D03*
X173838D02*
D03*
M02*
