G04*
G04 #@! TF.GenerationSoftware,Altium Limited,Altium Designer,24.2.2 (26)*
G04*
G04 Layer_Physical_Order=3*
G04 Layer_Color=16440176*
%FSLAX44Y44*%
%MOMM*%
G71*
G04*
G04 #@! TF.SameCoordinates,02CEA6E1-F361-457A-AF05-86797ADE389F*
G04*
G04*
G04 #@! TF.FilePolarity,Positive*
G04*
G01*
G75*
%ADD47C,0.6000*%
%ADD50R,1.5700X1.5700*%
%ADD51C,1.5700*%
%ADD52P,2.2203X4X270.0*%
%ADD60C,1.6000*%
%ADD61R,1.6000X1.6000*%
%ADD88C,1.6500*%
G04:AMPARAMS|DCode=89|XSize=1.65mm|YSize=1.65mm|CornerRadius=0.4125mm|HoleSize=0mm|Usage=FLASHONLY|Rotation=180.000|XOffset=0mm|YOffset=0mm|HoleType=Round|Shape=RoundedRectangle|*
%AMROUNDEDRECTD89*
21,1,1.6500,0.8250,0,0,180.0*
21,1,0.8250,1.6500,0,0,180.0*
1,1,0.8250,-0.4125,0.4125*
1,1,0.8250,0.4125,0.4125*
1,1,0.8250,0.4125,-0.4125*
1,1,0.8250,-0.4125,-0.4125*
%
%ADD89ROUNDEDRECTD89*%
%ADD90C,2.5500*%
%ADD91C,2.2500*%
%ADD92C,3.5000*%
%ADD93C,1.5080*%
%ADD94R,1.5080X1.5080*%
%ADD95C,0.5000*%
%ADD96C,0.7700*%
%ADD97R,1.6500X1.6500*%
%ADD98R,1.6500X1.6500*%
G04:AMPARAMS|DCode=99|XSize=1.65mm|YSize=1.65mm|CornerRadius=0.4125mm|HoleSize=0mm|Usage=FLASHONLY|Rotation=90.000|XOffset=0mm|YOffset=0mm|HoleType=Round|Shape=RoundedRectangle|*
%AMROUNDEDRECTD99*
21,1,1.6500,0.8250,0,0,90.0*
21,1,0.8250,1.6500,0,0,90.0*
1,1,0.8250,0.4125,0.4125*
1,1,0.8250,0.4125,-0.4125*
1,1,0.8250,-0.4125,-0.4125*
1,1,0.8250,-0.4125,0.4125*
%
%ADD99ROUNDEDRECTD99*%
%ADD100C,1.8000*%
%ADD101R,1.8000X1.8000*%
%ADD102R,1.8000X1.8000*%
%ADD103C,1.5000*%
%ADD104R,1.5000X1.5000*%
%ADD105C,1.2700*%
G36*
X276500Y712000D02*
X307500Y676000D01*
X361495D01*
X363040Y675586D01*
X365360D01*
X366905Y676000D01*
X386895D01*
X388440Y675586D01*
X390760D01*
X392305Y676000D01*
X404500D01*
Y696000D01*
X477500D01*
Y613520D01*
X474352D01*
X471167Y612667D01*
X468313Y611018D01*
X465981Y608687D01*
X464333Y605832D01*
X463480Y602648D01*
Y599352D01*
X464333Y596167D01*
X465981Y593313D01*
X468313Y590981D01*
X471167Y589333D01*
X474352Y588480D01*
X477500D01*
Y554500D01*
X463000D01*
X397374Y490444D01*
X392360Y495458D01*
X379463Y482560D01*
X383681Y478341D01*
X383674Y477071D01*
X378978Y472488D01*
X377920Y473098D01*
X375600Y473720D01*
X373199D01*
X370880Y473098D01*
X368800Y471898D01*
X367102Y470200D01*
X365901Y468120D01*
X365280Y465800D01*
Y463399D01*
X365901Y461079D01*
X366402Y460213D01*
X45000Y146500D01*
X1942D01*
Y804520D01*
X102215Y805913D01*
X103063Y804654D01*
X102730Y803849D01*
Y802151D01*
X103380Y800581D01*
X104581Y799380D01*
X106151Y798730D01*
X107849D01*
X109419Y799380D01*
X110620Y800581D01*
X111270Y802151D01*
Y803849D01*
X110892Y804763D01*
X111654Y806044D01*
X216500Y807500D01*
X276500Y712000D01*
D02*
G37*
G36*
X998058Y19942D02*
X1942D01*
Y145125D01*
X45000D01*
X45479Y145324D01*
X45960Y145516D01*
X117668Y215509D01*
X119815Y214055D01*
X119730Y213849D01*
Y212151D01*
X120380Y210581D01*
X121581Y209380D01*
X123151Y208730D01*
X124849D01*
X126419Y209380D01*
X127620Y210581D01*
X128270Y212151D01*
Y213849D01*
X127620Y215419D01*
X126419Y216620D01*
X124849Y217270D01*
X123151D01*
X123078Y217240D01*
X121654Y219399D01*
X367362Y459229D01*
X367506Y459566D01*
X367729Y459857D01*
X367706Y460033D01*
X367776Y460196D01*
X367640Y460537D01*
X367592Y460900D01*
X367182Y461610D01*
X366654Y463580D01*
Y465619D01*
X367182Y467589D01*
X368202Y469356D01*
X369644Y470798D01*
X371410Y471817D01*
X373380Y472345D01*
X375419D01*
X377389Y471817D01*
X378290Y471297D01*
X378638Y471251D01*
X378961Y471113D01*
X379141Y471185D01*
X379333Y471160D01*
X379612Y471373D01*
X379938Y471504D01*
X384634Y476088D01*
X386952Y475071D01*
X392360Y469663D01*
X405258Y482560D01*
X399624Y488194D01*
X399639Y490734D01*
X463560Y553125D01*
X477500D01*
X478472Y553528D01*
X478875Y554500D01*
Y588480D01*
X479061Y588859D01*
X480832Y589333D01*
X483687Y590981D01*
X486018Y593313D01*
X487667Y596167D01*
X488520Y599352D01*
Y602648D01*
X487667Y605832D01*
X486018Y608687D01*
X483687Y611018D01*
X480832Y612667D01*
X479061Y613141D01*
X478875Y613520D01*
Y696000D01*
X478472Y696972D01*
X477500Y697375D01*
X404500D01*
X403528Y696972D01*
X403125Y696000D01*
Y677375D01*
X398404D01*
X397186Y679915D01*
X397810Y680995D01*
X398410Y683236D01*
Y685556D01*
X397810Y687796D01*
X396650Y689805D01*
X395009Y691446D01*
X393000Y692606D01*
X390760Y693206D01*
X388440D01*
X386199Y692606D01*
X384190Y691446D01*
X382550Y689805D01*
X381390Y687796D01*
X380790Y685556D01*
Y683236D01*
X381390Y680995D01*
X382014Y679915D01*
X380796Y677375D01*
X373004D01*
X371786Y679915D01*
X372410Y680995D01*
X373010Y683236D01*
Y685556D01*
X372410Y687796D01*
X371250Y689805D01*
X369609Y691446D01*
X367601Y692606D01*
X365360Y693206D01*
X363040D01*
X360799Y692606D01*
X358791Y691446D01*
X357150Y689805D01*
X355990Y687796D01*
X355390Y685556D01*
Y683236D01*
X355990Y680995D01*
X356614Y679915D01*
X355396Y677375D01*
X308130D01*
X277609Y712819D01*
X217664Y808231D01*
X217526Y808329D01*
X217458Y808485D01*
X217111Y808624D01*
X216806Y808840D01*
X216639Y808812D01*
X216481Y808875D01*
X111635Y807418D01*
X111482Y807352D01*
X111316Y807376D01*
X111015Y807151D01*
X110669Y807002D01*
X108257Y807101D01*
X107849Y807270D01*
X106151D01*
X104581Y806620D01*
X103173Y806898D01*
X102806Y807044D01*
X102477Y807262D01*
X102333Y807233D01*
X102196Y807287D01*
X3751Y805920D01*
X1942Y807703D01*
Y932058D01*
X998058D01*
Y19942D01*
D02*
G37*
%LPC*%
G36*
X58349Y792770D02*
X56651D01*
X55081Y792120D01*
X53880Y790919D01*
X53230Y789349D01*
Y787651D01*
X53880Y786081D01*
X55081Y784880D01*
X56651Y784230D01*
X58349D01*
X59919Y784880D01*
X61120Y786081D01*
X61770Y787651D01*
Y789349D01*
X61120Y790919D01*
X59919Y792120D01*
X58349Y792770D01*
D02*
G37*
G36*
X119469Y786510D02*
X117771D01*
X116201Y785860D01*
X115000Y784659D01*
X114350Y783089D01*
Y781391D01*
X115000Y779821D01*
X116201Y778620D01*
X117771Y777970D01*
X119469D01*
X121039Y778620D01*
X122240Y779821D01*
X122890Y781391D01*
Y783089D01*
X122240Y784659D01*
X121039Y785860D01*
X119469Y786510D01*
D02*
G37*
G36*
X104229D02*
X102531D01*
X100961Y785860D01*
X99760Y784659D01*
X99110Y783089D01*
Y781391D01*
X99760Y779821D01*
X100961Y778620D01*
X102531Y777970D01*
X104229D01*
X105799Y778620D01*
X107000Y779821D01*
X107650Y781391D01*
Y783089D01*
X107000Y784659D01*
X105799Y785860D01*
X104229Y786510D01*
D02*
G37*
G36*
X38747Y785270D02*
X36253D01*
X33948Y784315D01*
X32185Y782552D01*
X31230Y780247D01*
Y777753D01*
X32185Y775448D01*
X33948Y773685D01*
X36253Y772730D01*
X38747D01*
X41052Y773685D01*
X42815Y775448D01*
X43770Y777753D01*
Y780247D01*
X42815Y782552D01*
X41052Y784315D01*
X38747Y785270D01*
D02*
G37*
G36*
X111849Y771270D02*
X110151D01*
X108581Y770620D01*
X107380Y769419D01*
X106730Y767849D01*
Y766151D01*
X107380Y764581D01*
X108581Y763380D01*
X110151Y762730D01*
X111849D01*
X113419Y763380D01*
X114620Y764581D01*
X115270Y766151D01*
Y767849D01*
X114620Y769419D01*
X113419Y770620D01*
X111849Y771270D01*
D02*
G37*
G36*
X96609D02*
X94911D01*
X93341Y770620D01*
X92140Y769419D01*
X91490Y767849D01*
Y766151D01*
X92140Y764581D01*
X93341Y763380D01*
X94911Y762730D01*
X96609D01*
X98179Y763380D01*
X99380Y764581D01*
X100030Y766151D01*
Y767849D01*
X99380Y769419D01*
X98179Y770620D01*
X96609Y771270D01*
D02*
G37*
G36*
X81369D02*
X79671D01*
X78101Y770620D01*
X76900Y769419D01*
X76250Y767849D01*
Y766151D01*
X76900Y764581D01*
X78101Y763380D01*
X79671Y762730D01*
X81369D01*
X82939Y763380D01*
X84140Y764581D01*
X84790Y766151D01*
Y767849D01*
X84140Y769419D01*
X82939Y770620D01*
X81369Y771270D01*
D02*
G37*
G36*
X26849Y760770D02*
X25151D01*
X23581Y760120D01*
X22380Y758919D01*
X21730Y757349D01*
Y755651D01*
X22380Y754081D01*
X23581Y752880D01*
X25151Y752230D01*
X26849D01*
X28419Y752880D01*
X29620Y754081D01*
X30270Y755651D01*
Y757349D01*
X29620Y758919D01*
X28419Y760120D01*
X26849Y760770D01*
D02*
G37*
G36*
X119469Y756030D02*
X117771D01*
X116201Y755380D01*
X115000Y754179D01*
X114350Y752609D01*
Y750911D01*
X115000Y749341D01*
X116201Y748140D01*
X117771Y747490D01*
X119469D01*
X121039Y748140D01*
X122240Y749341D01*
X122890Y750911D01*
Y752609D01*
X122240Y754179D01*
X121039Y755380D01*
X119469Y756030D01*
D02*
G37*
G36*
X104229D02*
X102531D01*
X100961Y755380D01*
X99760Y754179D01*
X99110Y752609D01*
Y750911D01*
X99760Y749341D01*
X100961Y748140D01*
X102531Y747490D01*
X104229D01*
X105799Y748140D01*
X107000Y749341D01*
X107650Y750911D01*
Y752609D01*
X107000Y754179D01*
X105799Y755380D01*
X104229Y756030D01*
D02*
G37*
G36*
X88989D02*
X87291D01*
X85721Y755380D01*
X84520Y754179D01*
X83870Y752609D01*
Y750911D01*
X84520Y749341D01*
X85721Y748140D01*
X87291Y747490D01*
X88989D01*
X90559Y748140D01*
X91760Y749341D01*
X92410Y750911D01*
Y752609D01*
X91760Y754179D01*
X90559Y755380D01*
X88989Y756030D01*
D02*
G37*
G36*
X73749D02*
X72051D01*
X70481Y755380D01*
X69280Y754179D01*
X68630Y752609D01*
Y750911D01*
X69280Y749341D01*
X70481Y748140D01*
X72051Y747490D01*
X73749D01*
X75319Y748140D01*
X76520Y749341D01*
X77170Y750911D01*
Y752609D01*
X76520Y754179D01*
X75319Y755380D01*
X73749Y756030D01*
D02*
G37*
G36*
X100589Y726890D02*
X98891D01*
X97321Y726240D01*
X96120Y725039D01*
X95470Y723469D01*
Y721771D01*
X96120Y720201D01*
X97321Y719000D01*
X98891Y718350D01*
X100589D01*
X102159Y719000D01*
X103360Y720201D01*
X104010Y721771D01*
Y723469D01*
X103360Y725039D01*
X102159Y726240D01*
X100589Y726890D01*
D02*
G37*
G36*
X70109D02*
X68411D01*
X66841Y726240D01*
X65640Y725039D01*
X64990Y723469D01*
Y721771D01*
X65640Y720201D01*
X66841Y719000D01*
X68411Y718350D01*
X70109D01*
X71679Y719000D01*
X72880Y720201D01*
X73530Y721771D01*
Y723469D01*
X72880Y725039D01*
X71679Y726240D01*
X70109Y726890D01*
D02*
G37*
G36*
X246461Y719711D02*
X244762D01*
X243193Y719061D01*
X241992Y717859D01*
X241342Y716290D01*
Y714591D01*
X241992Y713022D01*
X243193Y711821D01*
X244762Y711171D01*
X246461D01*
X248031Y711821D01*
X249232Y713022D01*
X249882Y714591D01*
Y716290D01*
X249232Y717859D01*
X248031Y719061D01*
X246461Y719711D01*
D02*
G37*
G36*
X85349Y719270D02*
X83651D01*
X82081Y718620D01*
X80880Y717419D01*
X80230Y715849D01*
Y714151D01*
X80880Y712581D01*
X82081Y711380D01*
X83651Y710730D01*
X85349D01*
X86919Y711380D01*
X88120Y712581D01*
X88770Y714151D01*
Y715849D01*
X88120Y717419D01*
X86919Y718620D01*
X85349Y719270D01*
D02*
G37*
G36*
X100589Y711650D02*
X98891D01*
X97321Y711000D01*
X96120Y709799D01*
X95470Y708229D01*
Y706531D01*
X96120Y704961D01*
X97321Y703760D01*
X98891Y703110D01*
X100589D01*
X102159Y703760D01*
X103360Y704961D01*
X104010Y706531D01*
Y708229D01*
X103360Y709799D01*
X102159Y711000D01*
X100589Y711650D01*
D02*
G37*
G36*
X70109D02*
X68411D01*
X66841Y711000D01*
X65640Y709799D01*
X64990Y708229D01*
Y706531D01*
X65640Y704961D01*
X66841Y703760D01*
X68411Y703110D01*
X70109D01*
X71679Y703760D01*
X72880Y704961D01*
X73530Y706531D01*
Y708229D01*
X72880Y709799D01*
X71679Y711000D01*
X70109Y711650D01*
D02*
G37*
G36*
X85349Y704030D02*
X83651D01*
X82081Y703380D01*
X80880Y702179D01*
X80230Y700609D01*
Y698911D01*
X80880Y697341D01*
X82081Y696140D01*
X83651Y695490D01*
X85349D01*
X86919Y696140D01*
X88120Y697341D01*
X88770Y698911D01*
Y700609D01*
X88120Y702179D01*
X86919Y703380D01*
X85349Y704030D01*
D02*
G37*
G36*
X38747Y705270D02*
X36253D01*
X33948Y704315D01*
X32185Y702552D01*
X31230Y700247D01*
Y697753D01*
X32185Y695448D01*
X33948Y693685D01*
X36253Y692730D01*
X38747D01*
X41052Y693685D01*
X42815Y695448D01*
X43770Y697753D01*
Y700247D01*
X42815Y702552D01*
X41052Y704315D01*
X38747Y705270D01*
D02*
G37*
G36*
X164508Y700350D02*
X162809D01*
X161240Y699700D01*
X160039Y698499D01*
X159389Y696930D01*
Y695231D01*
X160039Y693662D01*
X161240Y692460D01*
X162809Y691810D01*
X164508D01*
X166077Y692460D01*
X167278Y693662D01*
X167929Y695231D01*
Y696930D01*
X167278Y698499D01*
X166077Y699700D01*
X164508Y700350D01*
D02*
G37*
G36*
X268014Y698158D02*
X266315D01*
X264746Y697508D01*
X263545Y696307D01*
X262894Y694737D01*
Y693039D01*
X263545Y691469D01*
X264746Y690268D01*
X266315Y689618D01*
X268014D01*
X269583Y690268D01*
X270784Y691469D01*
X271434Y693039D01*
Y694737D01*
X270784Y696307D01*
X269583Y697508D01*
X268014Y698158D01*
D02*
G37*
G36*
X224909D02*
X223210D01*
X221640Y697508D01*
X220439Y696307D01*
X219789Y694737D01*
Y693039D01*
X220439Y691469D01*
X221640Y690268D01*
X223210Y689618D01*
X224909D01*
X226478Y690268D01*
X227679Y691469D01*
X228329Y693039D01*
Y694737D01*
X227679Y696307D01*
X226478Y697508D01*
X224909Y698158D01*
D02*
G37*
G36*
X100589Y696410D02*
X98891D01*
X97321Y695760D01*
X96120Y694559D01*
X95470Y692989D01*
Y691291D01*
X96120Y689721D01*
X97321Y688520D01*
X98891Y687870D01*
X100589D01*
X102159Y688520D01*
X103360Y689721D01*
X104010Y691291D01*
Y692989D01*
X103360Y694559D01*
X102159Y695760D01*
X100589Y696410D01*
D02*
G37*
G36*
X70109D02*
X68411D01*
X66841Y695760D01*
X65640Y694559D01*
X64990Y692989D01*
Y691291D01*
X65640Y689721D01*
X66841Y688520D01*
X68411Y687870D01*
X70109D01*
X71679Y688520D01*
X72880Y689721D01*
X73530Y691291D01*
Y692989D01*
X72880Y694559D01*
X71679Y695760D01*
X70109Y696410D01*
D02*
G37*
G36*
X251849Y692770D02*
X250151D01*
X248581Y692120D01*
X247380Y690919D01*
X246730Y689349D01*
Y687651D01*
X247380Y686081D01*
X248581Y684880D01*
X250151Y684230D01*
X251849D01*
X253419Y684880D01*
X254620Y686081D01*
X255270Y687651D01*
Y689349D01*
X254620Y690919D01*
X253419Y692120D01*
X251849Y692770D01*
D02*
G37*
G36*
X85349Y688790D02*
X83651D01*
X82081Y688140D01*
X80880Y686939D01*
X80230Y685369D01*
Y683671D01*
X80880Y682101D01*
X82081Y680900D01*
X83651Y680250D01*
X85349D01*
X86919Y680900D01*
X88120Y682101D01*
X88770Y683671D01*
Y685369D01*
X88120Y686939D01*
X86919Y688140D01*
X85349Y688790D01*
D02*
G37*
G36*
X164508Y685110D02*
X162809D01*
X161240Y684460D01*
X160039Y683259D01*
X159389Y681690D01*
Y679991D01*
X160039Y678422D01*
X161240Y677220D01*
X162809Y676570D01*
X164508D01*
X166077Y677220D01*
X167278Y678422D01*
X167929Y679991D01*
Y681690D01*
X167278Y683259D01*
X166077Y684460D01*
X164508Y685110D01*
D02*
G37*
G36*
X416160Y693206D02*
X413840D01*
X411600Y692606D01*
X409590Y691446D01*
X407950Y689805D01*
X406790Y687796D01*
X406190Y685556D01*
Y683236D01*
X406790Y680995D01*
X407950Y678987D01*
X409590Y677346D01*
X411600Y676186D01*
X413840Y675586D01*
X416160D01*
X418400Y676186D01*
X420410Y677346D01*
X422050Y678987D01*
X423210Y680995D01*
X423810Y683236D01*
Y685556D01*
X423210Y687796D01*
X422050Y689805D01*
X420410Y691446D01*
X418400Y692606D01*
X416160Y693206D01*
D02*
G37*
G36*
X100589Y681170D02*
X98891D01*
X97321Y680520D01*
X96120Y679319D01*
X95470Y677749D01*
Y676051D01*
X96120Y674481D01*
X97321Y673280D01*
X98891Y672630D01*
X100589D01*
X102159Y673280D01*
X103360Y674481D01*
X104010Y676051D01*
Y677749D01*
X103360Y679319D01*
X102159Y680520D01*
X100589Y681170D01*
D02*
G37*
G36*
X70109D02*
X68411D01*
X66841Y680520D01*
X65640Y679319D01*
X64990Y677749D01*
Y676051D01*
X65640Y674481D01*
X66841Y673280D01*
X68411Y672630D01*
X70109D01*
X71679Y673280D01*
X72880Y674481D01*
X73530Y676051D01*
Y677749D01*
X72880Y679319D01*
X71679Y680520D01*
X70109Y681170D01*
D02*
G37*
G36*
X246461Y676606D02*
X244762D01*
X243193Y675955D01*
X241992Y674754D01*
X241342Y673185D01*
Y671486D01*
X241992Y669917D01*
X243193Y668716D01*
X244762Y668065D01*
X246461D01*
X248031Y668716D01*
X249232Y669917D01*
X249882Y671486D01*
Y673185D01*
X249232Y674754D01*
X248031Y675955D01*
X246461Y676606D01*
D02*
G37*
G36*
X85349Y673550D02*
X83651D01*
X82081Y672900D01*
X80880Y671699D01*
X80230Y670129D01*
Y668431D01*
X80880Y666861D01*
X82081Y665660D01*
X83651Y665010D01*
X85349D01*
X86919Y665660D01*
X88120Y666861D01*
X88770Y668431D01*
Y670129D01*
X88120Y671699D01*
X86919Y672900D01*
X85349Y673550D01*
D02*
G37*
G36*
X273402Y671217D02*
X271703D01*
X270134Y670567D01*
X268933Y669366D01*
X268283Y667797D01*
Y666098D01*
X268933Y664529D01*
X270134Y663327D01*
X271703Y662677D01*
X273402D01*
X274971Y663327D01*
X276173Y664529D01*
X276823Y666098D01*
Y667797D01*
X276173Y669366D01*
X274971Y670567D01*
X273402Y671217D01*
D02*
G37*
G36*
X164508Y669870D02*
X162809D01*
X161240Y669220D01*
X160039Y668019D01*
X159389Y666450D01*
Y664751D01*
X160039Y663182D01*
X161240Y661980D01*
X162809Y661330D01*
X164508D01*
X166077Y661980D01*
X167278Y663182D01*
X167929Y664751D01*
Y666450D01*
X167278Y668019D01*
X166077Y669220D01*
X164508Y669870D01*
D02*
G37*
G36*
Y654630D02*
X162809D01*
X161240Y653980D01*
X160039Y652779D01*
X159389Y651210D01*
Y649511D01*
X160039Y647942D01*
X161240Y646740D01*
X162809Y646090D01*
X164508D01*
X166077Y646740D01*
X167278Y647942D01*
X167929Y649511D01*
Y651210D01*
X167278Y652779D01*
X166077Y653980D01*
X164508Y654630D01*
D02*
G37*
G36*
X137349Y649270D02*
X135651D01*
X134081Y648620D01*
X132880Y647419D01*
X132230Y645849D01*
Y644151D01*
X132880Y642581D01*
X134081Y641380D01*
X135651Y640730D01*
X137349D01*
X138919Y641380D01*
X140120Y642581D01*
X140770Y644151D01*
Y645849D01*
X140120Y647419D01*
X138919Y648620D01*
X137349Y649270D01*
D02*
G37*
G36*
X247349Y636250D02*
X245651D01*
X244081Y635600D01*
X242880Y634399D01*
X242230Y632829D01*
Y631131D01*
X242880Y629561D01*
X244081Y628360D01*
X245651Y627710D01*
X247349D01*
X248919Y628360D01*
X250120Y629561D01*
X250770Y631131D01*
Y632829D01*
X250120Y634399D01*
X248919Y635600D01*
X247349Y636250D01*
D02*
G37*
G36*
X156089Y634150D02*
X154391D01*
X152821Y633500D01*
X151620Y632299D01*
X150970Y630729D01*
Y629031D01*
X151620Y627461D01*
X152821Y626260D01*
X154391Y625610D01*
X156089D01*
X157659Y626260D01*
X158860Y627461D01*
X159510Y629031D01*
Y630729D01*
X158860Y632299D01*
X157659Y633500D01*
X156089Y634150D01*
D02*
G37*
G36*
X137349Y634030D02*
X135651D01*
X134081Y633380D01*
X132880Y632179D01*
X132230Y630609D01*
Y628911D01*
X132880Y627341D01*
X134081Y626140D01*
X135651Y625490D01*
X137349D01*
X138919Y626140D01*
X140120Y627341D01*
X140770Y628911D01*
Y630609D01*
X140120Y632179D01*
X138919Y633380D01*
X137349Y634030D01*
D02*
G37*
G36*
X452446Y640420D02*
X448754D01*
X445188Y639464D01*
X441992Y637619D01*
X439381Y635009D01*
X437535Y631811D01*
X436580Y628246D01*
Y624554D01*
X437535Y620989D01*
X439381Y617791D01*
X441992Y615181D01*
X445188Y613335D01*
X448754Y612380D01*
X452446D01*
X456012Y613335D01*
X459208Y615181D01*
X461819Y617791D01*
X463665Y620989D01*
X464620Y624554D01*
Y628246D01*
X463665Y631811D01*
X461819Y635009D01*
X459208Y637619D01*
X456012Y639464D01*
X452446Y640420D01*
D02*
G37*
G36*
X156089Y618910D02*
X154391D01*
X152821Y618260D01*
X151620Y617059D01*
X150970Y615489D01*
Y613791D01*
X151620Y612221D01*
X152821Y611020D01*
X154391Y610370D01*
X156089D01*
X157659Y611020D01*
X158860Y612221D01*
X159510Y613791D01*
Y615489D01*
X158860Y617059D01*
X157659Y618260D01*
X156089Y618910D01*
D02*
G37*
G36*
X137349Y618790D02*
X135651D01*
X134081Y618140D01*
X132880Y616939D01*
X132230Y615369D01*
Y613671D01*
X132880Y612101D01*
X134081Y610900D01*
X135651Y610250D01*
X137349D01*
X138919Y610900D01*
X140120Y612101D01*
X140770Y613671D01*
Y615369D01*
X140120Y616939D01*
X138919Y618140D01*
X137349Y618790D01*
D02*
G37*
G36*
X262589Y613390D02*
X260891D01*
X259321Y612740D01*
X258120Y611539D01*
X257470Y609969D01*
Y608271D01*
X258120Y606701D01*
X259321Y605500D01*
X260891Y604850D01*
X262589D01*
X264159Y605500D01*
X265360Y606701D01*
X266010Y608271D01*
Y609969D01*
X265360Y611539D01*
X264159Y612740D01*
X262589Y613390D01*
D02*
G37*
G36*
X232109D02*
X230411D01*
X228841Y612740D01*
X227640Y611539D01*
X226990Y609969D01*
Y608271D01*
X227640Y606701D01*
X228841Y605500D01*
X230411Y604850D01*
X232109D01*
X233679Y605500D01*
X234880Y606701D01*
X235530Y608271D01*
Y609969D01*
X234880Y611539D01*
X233679Y612740D01*
X232109Y613390D01*
D02*
G37*
G36*
X247349Y605770D02*
X245651D01*
X244081Y605120D01*
X242880Y603919D01*
X242230Y602349D01*
Y600651D01*
X242880Y599081D01*
X244081Y597880D01*
X245651Y597230D01*
X247349D01*
X248919Y597880D01*
X250120Y599081D01*
X250770Y600651D01*
Y602349D01*
X250120Y603919D01*
X248919Y605120D01*
X247349Y605770D01*
D02*
G37*
G36*
X156089Y603670D02*
X154391D01*
X152821Y603020D01*
X151620Y601819D01*
X150970Y600249D01*
Y598551D01*
X151620Y596981D01*
X152821Y595780D01*
X154391Y595130D01*
X156089D01*
X157659Y595780D01*
X158860Y596981D01*
X159510Y598551D01*
Y600249D01*
X158860Y601819D01*
X157659Y603020D01*
X156089Y603670D01*
D02*
G37*
G36*
X137349Y603550D02*
X135651D01*
X134081Y602900D01*
X132880Y601699D01*
X132230Y600129D01*
Y598431D01*
X132880Y596861D01*
X134081Y595660D01*
X135651Y595010D01*
X137349D01*
X138919Y595660D01*
X140120Y596861D01*
X140770Y598431D01*
Y600129D01*
X140120Y601699D01*
X138919Y602900D01*
X137349Y603550D01*
D02*
G37*
G36*
X416160Y609210D02*
X413840D01*
X411600Y608610D01*
X409590Y607450D01*
X407950Y605809D01*
X406790Y603801D01*
X406190Y601560D01*
Y599240D01*
X406790Y596999D01*
X407950Y594991D01*
X409590Y593350D01*
X411600Y592190D01*
X413840Y591590D01*
X416160D01*
X418400Y592190D01*
X420410Y593350D01*
X422050Y594991D01*
X423210Y596999D01*
X423810Y599240D01*
Y601560D01*
X423210Y603801D01*
X422050Y605809D01*
X420410Y607450D01*
X418400Y608610D01*
X416160Y609210D01*
D02*
G37*
G36*
X390760D02*
X388440D01*
X386199Y608610D01*
X384190Y607450D01*
X382550Y605809D01*
X381390Y603801D01*
X380790Y601560D01*
Y599240D01*
X381390Y596999D01*
X382550Y594991D01*
X384190Y593350D01*
X386199Y592190D01*
X388440Y591590D01*
X390760D01*
X393000Y592190D01*
X395009Y593350D01*
X396650Y594991D01*
X397810Y596999D01*
X398410Y599240D01*
Y601560D01*
X397810Y603801D01*
X396650Y605809D01*
X395009Y607450D01*
X393000Y608610D01*
X390760Y609210D01*
D02*
G37*
G36*
X365360D02*
X363040D01*
X360799Y608610D01*
X358791Y607450D01*
X357150Y605809D01*
X355990Y603801D01*
X355390Y601560D01*
Y599240D01*
X355990Y596999D01*
X357150Y594991D01*
X358791Y593350D01*
X360799Y592190D01*
X363040Y591590D01*
X365360D01*
X367601Y592190D01*
X369609Y593350D01*
X371250Y594991D01*
X372410Y596999D01*
X373010Y599240D01*
Y601560D01*
X372410Y603801D01*
X371250Y605809D01*
X369609Y607450D01*
X367601Y608610D01*
X365360Y609210D01*
D02*
G37*
G36*
X156089Y588430D02*
X154391D01*
X152821Y587780D01*
X151620Y586579D01*
X150970Y585009D01*
Y583311D01*
X151620Y581741D01*
X152821Y580540D01*
X154391Y579890D01*
X156089D01*
X157659Y580540D01*
X158860Y581741D01*
X159510Y583311D01*
Y585009D01*
X158860Y586579D01*
X157659Y587780D01*
X156089Y588430D01*
D02*
G37*
G36*
X43852Y597970D02*
X41148D01*
X38536Y597270D01*
X36194Y595918D01*
X34282Y594006D01*
X32930Y591664D01*
X32230Y589052D01*
Y586348D01*
X32930Y583736D01*
X34282Y581394D01*
X36194Y579482D01*
X38536Y578130D01*
X41148Y577430D01*
X43852D01*
X46464Y578130D01*
X48806Y579482D01*
X50718Y581394D01*
X52070Y583736D01*
X52770Y586348D01*
Y589052D01*
X52070Y591664D01*
X50718Y594006D01*
X48806Y595918D01*
X46464Y597270D01*
X43852Y597970D01*
D02*
G37*
G36*
X262589Y582910D02*
X260891D01*
X259321Y582260D01*
X258120Y581059D01*
X257470Y579489D01*
Y578107D01*
X256753Y577321D01*
X256389Y577082D01*
X254753Y577520D01*
X252247D01*
X249825Y576871D01*
X247655Y575618D01*
X245882Y573845D01*
X244629Y571675D01*
X243980Y569253D01*
Y566747D01*
X244629Y564325D01*
X245882Y562155D01*
X247655Y560382D01*
X249825Y559129D01*
X252247Y558480D01*
X254753D01*
X257175Y559129D01*
X259345Y560382D01*
X261118Y562155D01*
X262371Y564325D01*
X263020Y566747D01*
Y569253D01*
X262371Y571675D01*
X261548Y573100D01*
X262281Y574370D01*
X262589D01*
X264159Y575020D01*
X265360Y576221D01*
X266010Y577791D01*
Y579489D01*
X265360Y581059D01*
X264159Y582260D01*
X262589Y582910D01*
D02*
G37*
G36*
X232109D02*
X230411D01*
X228841Y582260D01*
X227640Y581059D01*
X226990Y579489D01*
Y577791D01*
X227640Y576221D01*
X228841Y575020D01*
X230411Y574370D01*
X232109D01*
X233679Y575020D01*
X234880Y576221D01*
X235530Y577791D01*
Y579489D01*
X234880Y581059D01*
X233679Y582260D01*
X232109Y582910D01*
D02*
G37*
G36*
X452446Y589620D02*
X448754D01*
X445188Y588665D01*
X441992Y586819D01*
X439381Y584208D01*
X437535Y581012D01*
X436580Y577446D01*
Y573754D01*
X437535Y570188D01*
X439381Y566992D01*
X441992Y564381D01*
X445188Y562536D01*
X448754Y561580D01*
X452446D01*
X456012Y562536D01*
X459208Y564381D01*
X461819Y566992D01*
X463665Y570188D01*
X464620Y573754D01*
Y577446D01*
X463665Y581012D01*
X461819Y584208D01*
X459208Y586819D01*
X456012Y588665D01*
X452446Y589620D01*
D02*
G37*
G36*
X43852Y572570D02*
X41148D01*
X38536Y571870D01*
X36194Y570518D01*
X34282Y568606D01*
X32930Y566264D01*
X32230Y563652D01*
Y560948D01*
X32930Y558336D01*
X34282Y555994D01*
X36194Y554082D01*
X38536Y552730D01*
X41148Y552030D01*
X43852D01*
X46464Y552730D01*
X48806Y554082D01*
X50718Y555994D01*
X52070Y558336D01*
X52770Y560948D01*
Y563652D01*
X52070Y566264D01*
X50718Y568606D01*
X48806Y570518D01*
X46464Y571870D01*
X43852Y572570D01*
D02*
G37*
G36*
Y547170D02*
X41148D01*
X38536Y546470D01*
X36194Y545118D01*
X34282Y543206D01*
X32930Y540864D01*
X32230Y538252D01*
Y535548D01*
X32930Y532936D01*
X34282Y530594D01*
X36194Y528682D01*
X38536Y527330D01*
X41148Y526630D01*
X43852D01*
X46464Y527330D01*
X48806Y528682D01*
X50718Y530594D01*
X52070Y532936D01*
X52770Y535548D01*
Y538252D01*
X52070Y540864D01*
X50718Y543206D01*
X48806Y545118D01*
X46464Y546470D01*
X43852Y547170D01*
D02*
G37*
G36*
X272349Y507490D02*
X270651D01*
X269081Y506840D01*
X267880Y505639D01*
X267230Y504069D01*
Y502371D01*
X267880Y500801D01*
X269081Y499600D01*
X270651Y498950D01*
X272349D01*
X273919Y499600D01*
X275120Y500801D01*
X275770Y502371D01*
Y504069D01*
X275120Y505639D01*
X273919Y506840D01*
X272349Y507490D01*
D02*
G37*
G36*
X287589Y499870D02*
X285891D01*
X284321Y499220D01*
X283120Y498019D01*
X282470Y496449D01*
Y494751D01*
X283120Y493181D01*
X284321Y491980D01*
X285891Y491330D01*
X287589D01*
X289159Y491980D01*
X290360Y493181D01*
X291010Y494751D01*
Y496449D01*
X290360Y498019D01*
X289159Y499220D01*
X287589Y499870D01*
D02*
G37*
G36*
X257109D02*
X255411D01*
X253841Y499220D01*
X252640Y498019D01*
X251990Y496449D01*
Y494751D01*
X252640Y493181D01*
X253841Y491980D01*
X255411Y491330D01*
X257109D01*
X258679Y491980D01*
X259880Y493181D01*
X260530Y494751D01*
Y496449D01*
X259880Y498019D01*
X258679Y499220D01*
X257109Y499870D01*
D02*
G37*
G36*
X272349Y492250D02*
X270651D01*
X269081Y491600D01*
X267880Y490399D01*
X267230Y488829D01*
Y487131D01*
X267880Y485561D01*
X269081Y484360D01*
X270651Y483710D01*
X272349D01*
X273919Y484360D01*
X275120Y485561D01*
X275770Y487131D01*
Y488829D01*
X275120Y490399D01*
X273919Y491600D01*
X272349Y492250D01*
D02*
G37*
G36*
X287589Y484630D02*
X285891D01*
X284321Y483980D01*
X283120Y482779D01*
X282470Y481209D01*
Y479511D01*
X283120Y477941D01*
X284321Y476740D01*
X285891Y476090D01*
X287589D01*
X289159Y476740D01*
X290360Y477941D01*
X291010Y479511D01*
Y481209D01*
X290360Y482779D01*
X289159Y483980D01*
X287589Y484630D01*
D02*
G37*
G36*
X257109D02*
X255411D01*
X253841Y483980D01*
X252640Y482779D01*
X251990Y481209D01*
Y479511D01*
X252640Y477941D01*
X253841Y476740D01*
X255411Y476090D01*
X257109D01*
X258679Y476740D01*
X259880Y477941D01*
X260530Y479511D01*
Y481209D01*
X259880Y482779D01*
X258679Y483980D01*
X257109Y484630D01*
D02*
G37*
G36*
X272349Y477010D02*
X270651D01*
X269081Y476360D01*
X267880Y475159D01*
X267230Y473589D01*
Y471891D01*
X267880Y470321D01*
X269081Y469120D01*
X270651Y468470D01*
X272349D01*
X273919Y469120D01*
X275120Y470321D01*
X275770Y471891D01*
Y473589D01*
X275120Y475159D01*
X273919Y476360D01*
X272349Y477010D01*
D02*
G37*
G36*
X287589Y469390D02*
X285891D01*
X284321Y468740D01*
X283120Y467539D01*
X282470Y465969D01*
Y464271D01*
X283120Y462701D01*
X284321Y461500D01*
X285891Y460850D01*
X287589D01*
X289159Y461500D01*
X290360Y462701D01*
X291010Y464271D01*
Y465969D01*
X290360Y467539D01*
X289159Y468740D01*
X287589Y469390D01*
D02*
G37*
G36*
X257109D02*
X255411D01*
X253841Y468740D01*
X252640Y467539D01*
X251990Y465969D01*
Y464271D01*
X252640Y462701D01*
X253841Y461500D01*
X255411Y460850D01*
X257109D01*
X258679Y461500D01*
X259880Y462701D01*
X260530Y464271D01*
Y465969D01*
X259880Y467539D01*
X258679Y468740D01*
X257109Y469390D01*
D02*
G37*
G36*
X272349Y461770D02*
X270651D01*
X269081Y461120D01*
X267880Y459919D01*
X267230Y458349D01*
Y456651D01*
X267880Y455081D01*
X269081Y453880D01*
X270651Y453230D01*
X272349D01*
X273919Y453880D01*
X275120Y455081D01*
X275770Y456651D01*
Y458349D01*
X275120Y459919D01*
X273919Y461120D01*
X272349Y461770D01*
D02*
G37*
G36*
X287589Y454150D02*
X285891D01*
X284321Y453500D01*
X283120Y452299D01*
X282470Y450729D01*
Y449031D01*
X283120Y447461D01*
X284321Y446260D01*
X285891Y445610D01*
X287589D01*
X289159Y446260D01*
X290360Y447461D01*
X291010Y449031D01*
Y450729D01*
X290360Y452299D01*
X289159Y453500D01*
X287589Y454150D01*
D02*
G37*
G36*
X257109D02*
X255411D01*
X253841Y453500D01*
X252640Y452299D01*
X251990Y450729D01*
Y449031D01*
X252640Y447461D01*
X253841Y446260D01*
X255411Y445610D01*
X257109D01*
X258679Y446260D01*
X259880Y447461D01*
X260530Y449031D01*
Y450729D01*
X259880Y452299D01*
X258679Y453500D01*
X257109Y454150D01*
D02*
G37*
G36*
X51053Y478766D02*
X47355D01*
X43729Y478045D01*
X40313Y476630D01*
X37239Y474576D01*
X34624Y471961D01*
X32570Y468887D01*
X31155Y465471D01*
X30434Y461845D01*
Y458147D01*
X31155Y454521D01*
X32570Y451105D01*
X34624Y448031D01*
X37239Y445416D01*
X40313Y443362D01*
X43729Y441947D01*
X47355Y441226D01*
X51053D01*
X54679Y441947D01*
X58095Y443362D01*
X61169Y445416D01*
X63784Y448031D01*
X65838Y451105D01*
X67253Y454521D01*
X67974Y458147D01*
Y461845D01*
X67253Y465471D01*
X65838Y468887D01*
X63784Y471961D01*
X61169Y474576D01*
X58095Y476630D01*
X54679Y478045D01*
X51053Y478766D01*
D02*
G37*
G36*
X216980Y459378D02*
X204083Y446480D01*
X216980Y433583D01*
X229878Y446480D01*
X216980Y459378D01*
D02*
G37*
G36*
X200220Y437640D02*
X197819D01*
X195500Y437018D01*
X193420Y435817D01*
X191722Y434120D01*
X190521Y432040D01*
X189900Y429720D01*
Y427319D01*
X190521Y425000D01*
X191722Y422920D01*
X193420Y421222D01*
X195500Y420021D01*
X197819Y419400D01*
X200220D01*
X202540Y420021D01*
X204620Y421222D01*
X206318Y422920D01*
X207518Y425000D01*
X208140Y427319D01*
Y429720D01*
X207518Y432040D01*
X206318Y434120D01*
X204620Y435817D01*
X202540Y437018D01*
X200220Y437640D01*
D02*
G37*
G36*
X115849Y426770D02*
X114151D01*
X112581Y426120D01*
X111380Y424919D01*
X110730Y423349D01*
Y421651D01*
X111380Y420081D01*
X112581Y418880D01*
X114151Y418230D01*
X115849D01*
X117419Y418880D01*
X118620Y420081D01*
X119270Y421651D01*
Y423349D01*
X118620Y424919D01*
X117419Y426120D01*
X115849Y426770D01*
D02*
G37*
G36*
X103849D02*
X102151D01*
X100581Y426120D01*
X99380Y424919D01*
X98730Y423349D01*
Y421651D01*
X99380Y420081D01*
X100581Y418880D01*
X102151Y418230D01*
X103849D01*
X105419Y418880D01*
X106620Y420081D01*
X107270Y421651D01*
Y423349D01*
X106620Y424919D01*
X105419Y426120D01*
X103849Y426770D01*
D02*
G37*
G36*
X90849D02*
X89151D01*
X87581Y426120D01*
X86380Y424919D01*
X85730Y423349D01*
Y421651D01*
X86380Y420081D01*
X87581Y418880D01*
X89151Y418230D01*
X90849D01*
X92419Y418880D01*
X93620Y420081D01*
X94270Y421651D01*
Y423349D01*
X93620Y424919D01*
X92419Y426120D01*
X90849Y426770D01*
D02*
G37*
G36*
X78349D02*
X76651D01*
X75081Y426120D01*
X73880Y424919D01*
X73230Y423349D01*
Y421651D01*
X73880Y420081D01*
X75081Y418880D01*
X76651Y418230D01*
X78349D01*
X79919Y418880D01*
X81120Y420081D01*
X81770Y421651D01*
Y423349D01*
X81120Y424919D01*
X79919Y426120D01*
X78349Y426770D01*
D02*
G37*
G36*
X35849Y421270D02*
X34151D01*
X32581Y420620D01*
X31380Y419419D01*
X30730Y417849D01*
Y416151D01*
X31380Y414581D01*
X32581Y413380D01*
X34151Y412730D01*
X35849D01*
X37419Y413380D01*
X38620Y414581D01*
X39270Y416151D01*
Y417849D01*
X38620Y419419D01*
X37419Y420620D01*
X35849Y421270D01*
D02*
G37*
G36*
X23349D02*
X21651D01*
X20081Y420620D01*
X18880Y419419D01*
X18230Y417849D01*
Y416151D01*
X18880Y414581D01*
X20081Y413380D01*
X21651Y412730D01*
X23349D01*
X24919Y413380D01*
X26120Y414581D01*
X26770Y416151D01*
Y417849D01*
X26120Y419419D01*
X24919Y420620D01*
X23349Y421270D01*
D02*
G37*
G36*
X109975Y382469D02*
X108276D01*
X106707Y381819D01*
X105506Y380618D01*
X104856Y379049D01*
Y377350D01*
X105506Y375780D01*
X106707Y374579D01*
X108276Y373929D01*
X109975D01*
X111544Y374579D01*
X112746Y375780D01*
X113396Y377350D01*
Y379049D01*
X112746Y380618D01*
X111544Y381819D01*
X109975Y382469D01*
D02*
G37*
G36*
X64255D02*
X62556D01*
X60987Y381819D01*
X59786Y380618D01*
X59136Y379049D01*
Y377350D01*
X59786Y375780D01*
X60987Y374579D01*
X62556Y373929D01*
X64255D01*
X65824Y374579D01*
X67026Y375780D01*
X67676Y377350D01*
Y379049D01*
X67026Y380618D01*
X65824Y381819D01*
X64255Y382469D01*
D02*
G37*
G36*
X134349Y368770D02*
X132651D01*
X131081Y368120D01*
X129880Y366919D01*
X129230Y365349D01*
Y363651D01*
X129880Y362081D01*
X131081Y360880D01*
X132651Y360230D01*
X134349D01*
X135919Y360880D01*
X137120Y362081D01*
X137770Y363651D01*
Y365349D01*
X137120Y366919D01*
X135919Y368120D01*
X134349Y368770D01*
D02*
G37*
G36*
X41349Y368270D02*
X39651D01*
X38081Y367620D01*
X36880Y366419D01*
X36230Y364849D01*
Y363151D01*
X36880Y361581D01*
X38081Y360380D01*
X39651Y359730D01*
X41349D01*
X42919Y360380D01*
X44120Y361581D01*
X44770Y363151D01*
Y364849D01*
X44120Y366419D01*
X42919Y367620D01*
X41349Y368270D01*
D02*
G37*
G36*
X87115Y367229D02*
X85416D01*
X83847Y366579D01*
X82646Y365378D01*
X81996Y363809D01*
Y362110D01*
X82646Y360540D01*
X83847Y359339D01*
X85416Y358689D01*
X87115D01*
X88684Y359339D01*
X89886Y360540D01*
X90536Y362110D01*
Y363809D01*
X89886Y365378D01*
X88684Y366579D01*
X87115Y367229D01*
D02*
G37*
G36*
X203849Y361770D02*
X202151D01*
X200581Y361120D01*
X199380Y359919D01*
X198730Y358349D01*
Y356651D01*
X199380Y355081D01*
X200581Y353880D01*
X202151Y353230D01*
X203849D01*
X205419Y353880D01*
X206620Y355081D01*
X207270Y356651D01*
Y358349D01*
X206620Y359919D01*
X205419Y361120D01*
X203849Y361770D01*
D02*
G37*
G36*
X109975Y351989D02*
X108276D01*
X106707Y351339D01*
X105506Y350138D01*
X104856Y348568D01*
Y346870D01*
X105506Y345300D01*
X106707Y344099D01*
X108276Y343449D01*
X109975D01*
X111544Y344099D01*
X112746Y345300D01*
X113396Y346870D01*
Y348568D01*
X112746Y350138D01*
X111544Y351339D01*
X109975Y351989D01*
D02*
G37*
G36*
X64255D02*
X62556D01*
X60987Y351339D01*
X59786Y350138D01*
X59136Y348568D01*
Y346870D01*
X59786Y345300D01*
X60987Y344099D01*
X62556Y343449D01*
X64255D01*
X65824Y344099D01*
X67026Y345300D01*
X67676Y346870D01*
Y348568D01*
X67026Y350138D01*
X65824Y351339D01*
X64255Y351989D01*
D02*
G37*
G36*
X152390Y350516D02*
X150691D01*
X149122Y349866D01*
X147921Y348664D01*
X147271Y347095D01*
Y345396D01*
X147921Y343827D01*
X149122Y342626D01*
X150691Y341976D01*
X152390D01*
X153960Y342626D01*
X155161Y343827D01*
X155811Y345396D01*
Y347095D01*
X155161Y348664D01*
X153960Y349866D01*
X152390Y350516D01*
D02*
G37*
G36*
X203849Y348770D02*
X202151D01*
X200581Y348120D01*
X199380Y346919D01*
X198730Y345349D01*
Y343651D01*
X199380Y342081D01*
X200581Y340880D01*
X202151Y340230D01*
X203849D01*
X205419Y340880D01*
X206620Y342081D01*
X207270Y343651D01*
Y345349D01*
X206620Y346919D01*
X205419Y348120D01*
X203849Y348770D01*
D02*
G37*
G36*
X28390Y340516D02*
X26692D01*
X25122Y339866D01*
X23921Y338664D01*
X23271Y337095D01*
Y335396D01*
X23921Y333827D01*
X25122Y332626D01*
X26692Y331976D01*
X28390D01*
X29960Y332626D01*
X31161Y333827D01*
X31811Y335396D01*
Y337095D01*
X31161Y338664D01*
X29960Y339866D01*
X28390Y340516D01*
D02*
G37*
G36*
X95849Y327770D02*
X94151D01*
X92581Y327120D01*
X91380Y325919D01*
X90730Y324349D01*
Y322651D01*
X91380Y321081D01*
X92581Y319880D01*
X94151Y319230D01*
X95849D01*
X97419Y319880D01*
X98620Y321081D01*
X99270Y322651D01*
Y324349D01*
X98620Y325919D01*
X97419Y327120D01*
X95849Y327770D01*
D02*
G37*
G36*
X80849D02*
X79151D01*
X77581Y327120D01*
X76380Y325919D01*
X75730Y324349D01*
Y322651D01*
X76380Y321081D01*
X77581Y319880D01*
X79151Y319230D01*
X80849D01*
X82419Y319880D01*
X83620Y321081D01*
X84270Y322651D01*
Y324349D01*
X83620Y325919D01*
X82419Y327120D01*
X80849Y327770D01*
D02*
G37*
G36*
X167630Y327656D02*
X165931D01*
X164362Y327006D01*
X163161Y325804D01*
X162511Y324235D01*
Y322536D01*
X163161Y320967D01*
X164362Y319766D01*
X165931Y319116D01*
X167630D01*
X169200Y319766D01*
X170401Y320967D01*
X171051Y322536D01*
Y324235D01*
X170401Y325804D01*
X169200Y327006D01*
X167630Y327656D01*
D02*
G37*
G36*
X137150D02*
X135451D01*
X133882Y327006D01*
X132681Y325804D01*
X132031Y324235D01*
Y322536D01*
X132681Y320967D01*
X133882Y319766D01*
X135451Y319116D01*
X137150D01*
X138720Y319766D01*
X139921Y320967D01*
X140571Y322536D01*
Y324235D01*
X139921Y325804D01*
X138720Y327006D01*
X137150Y327656D01*
D02*
G37*
G36*
X113349Y323770D02*
X111651D01*
X110081Y323120D01*
X108880Y321919D01*
X108230Y320349D01*
Y318651D01*
X108880Y317081D01*
X110081Y315880D01*
X111651Y315230D01*
X113349D01*
X114919Y315880D01*
X116120Y317081D01*
X116770Y318651D01*
Y320349D01*
X116120Y321919D01*
X114919Y323120D01*
X113349Y323770D01*
D02*
G37*
G36*
X61849D02*
X60151D01*
X58581Y323120D01*
X57380Y321919D01*
X56730Y320349D01*
Y318651D01*
X57380Y317081D01*
X58581Y315880D01*
X60151Y315230D01*
X61849D01*
X63419Y315880D01*
X64620Y317081D01*
X65270Y318651D01*
Y320349D01*
X64620Y321919D01*
X63419Y323120D01*
X61849Y323770D01*
D02*
G37*
G36*
X43630Y317656D02*
X41932D01*
X40362Y317006D01*
X39161Y315804D01*
X38511Y314235D01*
Y312536D01*
X39161Y310967D01*
X40362Y309766D01*
X41932Y309116D01*
X43630D01*
X45200Y309766D01*
X46401Y310967D01*
X47051Y312536D01*
Y314235D01*
X46401Y315804D01*
X45200Y317006D01*
X43630Y317656D01*
D02*
G37*
G36*
X28390Y310036D02*
X26692D01*
X25122Y309386D01*
X23921Y308184D01*
X23271Y306615D01*
Y304916D01*
X23921Y303347D01*
X25122Y302146D01*
X26692Y301496D01*
X28390D01*
X29960Y302146D01*
X31161Y303347D01*
X31811Y304916D01*
Y306615D01*
X31161Y308184D01*
X29960Y309386D01*
X28390Y310036D01*
D02*
G37*
G36*
X113349Y308770D02*
X111651D01*
X110081Y308120D01*
X108880Y306919D01*
X108230Y305349D01*
Y303651D01*
X108880Y302081D01*
X110081Y300880D01*
X111651Y300230D01*
X113349D01*
X114919Y300880D01*
X116120Y302081D01*
X116770Y303651D01*
Y305349D01*
X116120Y306919D01*
X114919Y308120D01*
X113349Y308770D01*
D02*
G37*
G36*
X61849D02*
X60151D01*
X58581Y308120D01*
X57380Y306919D01*
X56730Y305349D01*
Y303651D01*
X57380Y302081D01*
X58581Y300880D01*
X60151Y300230D01*
X61849D01*
X63419Y300880D01*
X64620Y302081D01*
X65270Y303651D01*
Y305349D01*
X64620Y306919D01*
X63419Y308120D01*
X61849Y308770D01*
D02*
G37*
G36*
X167630Y297176D02*
X165931D01*
X164362Y296526D01*
X163161Y295324D01*
X162511Y293755D01*
Y292056D01*
X163161Y290487D01*
X164362Y289286D01*
X165931Y288636D01*
X167630D01*
X169200Y289286D01*
X170401Y290487D01*
X171051Y292056D01*
Y293755D01*
X170401Y295324D01*
X169200Y296526D01*
X167630Y297176D01*
D02*
G37*
G36*
X137150D02*
X135451D01*
X133882Y296526D01*
X132681Y295324D01*
X132031Y293755D01*
Y292056D01*
X132681Y290487D01*
X133882Y289286D01*
X135451Y288636D01*
X137150D01*
X138720Y289286D01*
X139921Y290487D01*
X140571Y292056D01*
Y293755D01*
X139921Y295324D01*
X138720Y296526D01*
X137150Y297176D01*
D02*
G37*
G36*
X113349Y293770D02*
X111651D01*
X110081Y293120D01*
X108880Y291919D01*
X108230Y290349D01*
Y288651D01*
X108880Y287081D01*
X110081Y285880D01*
X111651Y285230D01*
X113349D01*
X114919Y285880D01*
X116120Y287081D01*
X116770Y288651D01*
Y290349D01*
X116120Y291919D01*
X114919Y293120D01*
X113349Y293770D01*
D02*
G37*
G36*
X61849D02*
X60151D01*
X58581Y293120D01*
X57380Y291919D01*
X56730Y290349D01*
Y288651D01*
X57380Y287081D01*
X58581Y285880D01*
X60151Y285230D01*
X61849D01*
X63419Y285880D01*
X64620Y287081D01*
X65270Y288651D01*
Y290349D01*
X64620Y291919D01*
X63419Y293120D01*
X61849Y293770D01*
D02*
G37*
G36*
X43630Y287176D02*
X41932D01*
X40362Y286526D01*
X39161Y285324D01*
X38511Y283755D01*
Y282056D01*
X39161Y280487D01*
X40362Y279286D01*
X41932Y278636D01*
X43630D01*
X45200Y279286D01*
X46401Y280487D01*
X47051Y282056D01*
Y283755D01*
X46401Y285324D01*
X45200Y286526D01*
X43630Y287176D01*
D02*
G37*
G36*
X113349Y278770D02*
X111651D01*
X110081Y278120D01*
X108880Y276919D01*
X108230Y275349D01*
Y273651D01*
X108880Y272081D01*
X110081Y270880D01*
X111651Y270230D01*
X113349D01*
X114919Y270880D01*
X116120Y272081D01*
X116770Y273651D01*
Y275349D01*
X116120Y276919D01*
X114919Y278120D01*
X113349Y278770D01*
D02*
G37*
G36*
X61849D02*
X60151D01*
X58581Y278120D01*
X57380Y276919D01*
X56730Y275349D01*
Y273651D01*
X57380Y272081D01*
X58581Y270880D01*
X60151Y270230D01*
X61849D01*
X63419Y270880D01*
X64620Y272081D01*
X65270Y273651D01*
Y275349D01*
X64620Y276919D01*
X63419Y278120D01*
X61849Y278770D01*
D02*
G37*
G36*
X94849Y276270D02*
X93151D01*
X91581Y275620D01*
X90380Y274419D01*
X89730Y272849D01*
Y271151D01*
X90380Y269581D01*
X91581Y268380D01*
X93151Y267730D01*
X94849D01*
X96419Y268380D01*
X97620Y269581D01*
X98270Y271151D01*
Y272849D01*
X97620Y274419D01*
X96419Y275620D01*
X94849Y276270D01*
D02*
G37*
G36*
X79849D02*
X78151D01*
X76581Y275620D01*
X75380Y274419D01*
X74730Y272849D01*
Y271151D01*
X75380Y269581D01*
X76581Y268380D01*
X78151Y267730D01*
X79849D01*
X81419Y268380D01*
X82620Y269581D01*
X83270Y271151D01*
Y272849D01*
X82620Y274419D01*
X81419Y275620D01*
X79849Y276270D01*
D02*
G37*
G36*
X35849Y246770D02*
X34151D01*
X32581Y246120D01*
X31380Y244919D01*
X30730Y243349D01*
Y241651D01*
X31380Y240081D01*
X32581Y238880D01*
X34151Y238230D01*
X35849D01*
X37419Y238880D01*
X38620Y240081D01*
X39270Y241651D01*
Y243349D01*
X38620Y244919D01*
X37419Y246120D01*
X35849Y246770D01*
D02*
G37*
G36*
X86849Y216270D02*
X85151D01*
X83581Y215620D01*
X82380Y214419D01*
X81730Y212849D01*
Y211151D01*
X82380Y209581D01*
X83581Y208380D01*
X85151Y207730D01*
X86849D01*
X88419Y208380D01*
X89620Y209581D01*
X90270Y211151D01*
Y212849D01*
X89620Y214419D01*
X88419Y215620D01*
X86849Y216270D01*
D02*
G37*
G36*
X71849D02*
X70151D01*
X68581Y215620D01*
X67380Y214419D01*
X66730Y212849D01*
Y211151D01*
X67380Y209581D01*
X68581Y208380D01*
X70151Y207730D01*
X71849D01*
X73419Y208380D01*
X74620Y209581D01*
X75270Y211151D01*
Y212849D01*
X74620Y214419D01*
X73419Y215620D01*
X71849Y216270D01*
D02*
G37*
G36*
X59349D02*
X57651D01*
X56081Y215620D01*
X54880Y214419D01*
X54230Y212849D01*
Y211151D01*
X54880Y209581D01*
X56081Y208380D01*
X57651Y207730D01*
X59349D01*
X60919Y208380D01*
X62120Y209581D01*
X62770Y211151D01*
Y212849D01*
X62120Y214419D01*
X60919Y215620D01*
X59349Y216270D01*
D02*
G37*
G36*
X48849D02*
X47151D01*
X45581Y215620D01*
X44380Y214419D01*
X43730Y212849D01*
Y211151D01*
X44380Y209581D01*
X45581Y208380D01*
X47151Y207730D01*
X48849D01*
X50419Y208380D01*
X51620Y209581D01*
X52270Y211151D01*
Y212849D01*
X51620Y214419D01*
X50419Y215620D01*
X48849Y216270D01*
D02*
G37*
%LPD*%
G36*
X455481Y638184D02*
X458364Y636519D01*
X460719Y634164D01*
X462383Y631281D01*
X463245Y628065D01*
Y624735D01*
X462384Y621519D01*
X460719Y618636D01*
X458364Y616281D01*
X455481Y614616D01*
X452265Y613755D01*
X448935D01*
X445719Y614616D01*
X442836Y616281D01*
X440481Y618636D01*
X438816Y621519D01*
X437955Y624735D01*
Y628065D01*
X438816Y631281D01*
X440481Y634164D01*
X442836Y636519D01*
X445719Y638184D01*
X448935Y639045D01*
X452265D01*
X455481Y638184D01*
D02*
G37*
G36*
X367070Y607329D02*
X368765Y606350D01*
X370150Y604965D01*
X371129Y603270D01*
X371635Y601379D01*
Y599421D01*
X371129Y597530D01*
X370150Y595835D01*
X368765Y594450D01*
X367070Y593471D01*
X365179Y592965D01*
X363221D01*
X361330Y593471D01*
X359635Y594450D01*
X358250Y595835D01*
X357271Y597530D01*
X356765Y599421D01*
Y601379D01*
X357271Y603270D01*
X358250Y604965D01*
X359635Y606350D01*
X361330Y607329D01*
X363221Y607835D01*
X365179D01*
X367070Y607329D01*
D02*
G37*
G36*
X45933Y595989D02*
X47962Y594818D01*
X49618Y593162D01*
X50789Y591134D01*
X51395Y588871D01*
Y586529D01*
X50789Y584267D01*
X49618Y582238D01*
X47962Y580582D01*
X45933Y579411D01*
X43671Y578805D01*
X41329D01*
X39067Y579411D01*
X37038Y580582D01*
X35382Y582238D01*
X34211Y584267D01*
X33605Y586529D01*
Y588871D01*
X34211Y591134D01*
X35382Y593162D01*
X37038Y594818D01*
X39067Y595989D01*
X41329Y596595D01*
X43671D01*
X45933Y595989D01*
D02*
G37*
G36*
X263380Y581095D02*
X264195Y580280D01*
X264635Y579216D01*
Y578064D01*
X264195Y577000D01*
X263380Y576185D01*
X262316Y575745D01*
X262281D01*
X262110Y575674D01*
X261926Y575698D01*
X261641Y575479D01*
X261310Y575342D01*
X261238Y575170D01*
X261091Y575057D01*
X260358Y573787D01*
X260333Y573603D01*
X260221Y573456D01*
X260267Y573100D01*
X260220Y572744D01*
X260334Y572597D01*
X260358Y572413D01*
X261090Y571144D01*
X261645Y569072D01*
Y566928D01*
X261090Y564856D01*
X260018Y562999D01*
X258501Y561482D01*
X256644Y560410D01*
X254572Y559855D01*
X252428D01*
X250356Y560410D01*
X248499Y561482D01*
X246982Y562999D01*
X245910Y564856D01*
X245355Y566928D01*
Y569072D01*
X245910Y571144D01*
X246982Y573001D01*
X248499Y574518D01*
X250356Y575590D01*
X252428Y576145D01*
X254572D01*
X256033Y575754D01*
X256075Y575759D01*
X256109Y575736D01*
X256591Y575827D01*
X257076Y575891D01*
X257102Y575924D01*
X257143Y575932D01*
X257507Y576171D01*
X257607Y576319D01*
X257769Y576394D01*
X258486Y577181D01*
X258655Y577648D01*
X258845Y578107D01*
Y579216D01*
X259285Y580280D01*
X260100Y581095D01*
X261164Y581535D01*
X262316D01*
X263380Y581095D01*
D02*
G37*
G36*
X455481Y587384D02*
X458364Y585719D01*
X460719Y583364D01*
X462383Y580481D01*
X463245Y577265D01*
Y573935D01*
X462384Y570719D01*
X460719Y567836D01*
X458364Y565481D01*
X455481Y563816D01*
X452265Y562955D01*
X448935D01*
X445719Y563816D01*
X442836Y565481D01*
X440481Y567836D01*
X438816Y570719D01*
X437955Y573935D01*
Y577265D01*
X438816Y580481D01*
X440481Y583364D01*
X442836Y585719D01*
X445719Y587383D01*
X448935Y588245D01*
X452265D01*
X455481Y587384D01*
D02*
G37*
G36*
X54278Y476723D02*
X57444Y475411D01*
X60293Y473508D01*
X62716Y471085D01*
X64620Y468236D01*
X65931Y465070D01*
X66599Y461709D01*
Y458283D01*
X65931Y454922D01*
X64620Y451756D01*
X62716Y448907D01*
X60293Y446484D01*
X57444Y444580D01*
X54278Y443269D01*
X50917Y442601D01*
X47491D01*
X44130Y443269D01*
X40964Y444580D01*
X38115Y446484D01*
X35692Y448907D01*
X33788Y451756D01*
X32477Y454922D01*
X31809Y458283D01*
Y461709D01*
X32477Y465070D01*
X33788Y468236D01*
X35692Y471085D01*
X38115Y473508D01*
X40964Y475411D01*
X44130Y476723D01*
X47491Y477391D01*
X50917D01*
X54278Y476723D01*
D02*
G37*
G36*
X227934Y446480D02*
X216980Y435527D01*
X206027Y446480D01*
X216980Y457434D01*
X227934Y446480D01*
D02*
G37*
%LPC*%
G36*
X377820Y910620D02*
X359580D01*
Y892380D01*
X377820D01*
Y910620D01*
D02*
G37*
G36*
X151953Y902520D02*
X149447D01*
X147025Y901871D01*
X144855Y900618D01*
X143082Y898845D01*
X141829Y896675D01*
X141180Y894253D01*
Y891747D01*
X141829Y889325D01*
X143082Y887155D01*
X144855Y885382D01*
X147025Y884129D01*
X149447Y883480D01*
X151953D01*
X154375Y884129D01*
X156545Y885382D01*
X158318Y887155D01*
X159571Y889325D01*
X160220Y891747D01*
Y894253D01*
X159571Y896675D01*
X158318Y898845D01*
X156545Y900618D01*
X154375Y901871D01*
X151953Y902520D01*
D02*
G37*
G36*
X231025Y902626D02*
X222775D01*
X220670Y902207D01*
X218885Y901015D01*
X217693Y899230D01*
X217274Y897125D01*
Y888875D01*
X217693Y886770D01*
X218885Y884985D01*
X220670Y883793D01*
X222775Y883374D01*
X231025D01*
X233130Y883793D01*
X234915Y884985D01*
X236107Y886770D01*
X236526Y888875D01*
Y897125D01*
X236107Y899230D01*
X234915Y901015D01*
X233130Y902207D01*
X231025Y902626D01*
D02*
G37*
G36*
X970770Y883670D02*
X952230D01*
Y865130D01*
X970770D01*
Y883670D01*
D02*
G37*
G36*
X228153Y877120D02*
X225647D01*
X223225Y876471D01*
X221055Y875218D01*
X219282Y873445D01*
X218029Y871275D01*
X217380Y868853D01*
Y866347D01*
X218029Y863925D01*
X219282Y861755D01*
X221055Y859982D01*
X223225Y858729D01*
X225647Y858080D01*
X228153D01*
X230575Y858729D01*
X232745Y859982D01*
X234518Y861755D01*
X235771Y863925D01*
X236420Y866347D01*
Y868853D01*
X235771Y871275D01*
X234518Y873445D01*
X232745Y875218D01*
X230575Y876471D01*
X228153Y877120D01*
D02*
G37*
G36*
X177353D02*
X174847D01*
X172425Y876471D01*
X170255Y875218D01*
X168482Y873445D01*
X167229Y871275D01*
X166580Y868853D01*
Y866347D01*
X167229Y863925D01*
X168482Y861755D01*
X170255Y859982D01*
X172425Y858729D01*
X174847Y858080D01*
X177353D01*
X179775Y858729D01*
X181945Y859982D01*
X183718Y861755D01*
X184971Y863925D01*
X185620Y866347D01*
Y868853D01*
X184971Y871275D01*
X183718Y873445D01*
X181945Y875218D01*
X179775Y876471D01*
X177353Y877120D01*
D02*
G37*
G36*
X151953D02*
X149447D01*
X147025Y876471D01*
X144855Y875218D01*
X143082Y873445D01*
X141829Y871275D01*
X141180Y868853D01*
Y866347D01*
X141829Y863925D01*
X143082Y861755D01*
X144855Y859982D01*
X147025Y858729D01*
X149447Y858080D01*
X151953D01*
X154375Y858729D01*
X156545Y859982D01*
X158318Y861755D01*
X159571Y863925D01*
X160220Y866347D01*
Y868853D01*
X159571Y871275D01*
X158318Y873445D01*
X156545Y875218D01*
X154375Y876471D01*
X151953Y877120D01*
D02*
G37*
G36*
X202753Y877120D02*
X200247D01*
X197825Y876471D01*
X195655Y875218D01*
X193882Y873445D01*
X192629Y871274D01*
X191980Y868853D01*
Y866347D01*
X192629Y863925D01*
X193882Y861755D01*
X195655Y859982D01*
X197825Y858729D01*
X200247Y858080D01*
X202753D01*
X205175Y858729D01*
X207345Y859982D01*
X209118Y861755D01*
X210371Y863925D01*
X211020Y866347D01*
Y868853D01*
X210371Y871274D01*
X209118Y873445D01*
X207345Y875218D01*
X205175Y876471D01*
X202753Y877120D01*
D02*
G37*
G36*
X126553D02*
X124047D01*
X121625Y876471D01*
X119455Y875218D01*
X117682Y873445D01*
X116429Y871274D01*
X115780Y868853D01*
Y866347D01*
X116429Y863925D01*
X117682Y861755D01*
X119455Y859982D01*
X121625Y858729D01*
X124047Y858080D01*
X126553D01*
X128975Y858729D01*
X131145Y859982D01*
X132918Y861755D01*
X134171Y863925D01*
X134820Y866347D01*
Y868853D01*
X134171Y871274D01*
X132918Y873445D01*
X131145Y875218D01*
X128975Y876471D01*
X126553Y877120D01*
D02*
G37*
G36*
X962720Y858270D02*
X960280D01*
X957922Y857638D01*
X955808Y856418D01*
X954082Y854692D01*
X952862Y852578D01*
X952230Y850221D01*
Y847780D01*
X952862Y845422D01*
X954082Y843308D01*
X955808Y841582D01*
X957922Y840362D01*
X960280Y839730D01*
X962720D01*
X965078Y840362D01*
X967192Y841582D01*
X968918Y843308D01*
X970138Y845422D01*
X970770Y847780D01*
Y850221D01*
X970138Y852578D01*
X968918Y854692D01*
X967192Y856418D01*
X965078Y857638D01*
X962720Y858270D01*
D02*
G37*
G36*
X126249Y833270D02*
X124551D01*
X122981Y832620D01*
X121780Y831419D01*
X121130Y829849D01*
Y828151D01*
X121780Y826581D01*
X122981Y825380D01*
X124551Y824730D01*
X126249D01*
X127819Y825380D01*
X129020Y826581D01*
X129670Y828151D01*
Y829849D01*
X129020Y831419D01*
X127819Y832620D01*
X126249Y833270D01*
D02*
G37*
G36*
X962720Y832870D02*
X960280D01*
X957922Y832238D01*
X955808Y831018D01*
X954082Y829292D01*
X952862Y827178D01*
X952230Y824820D01*
Y822380D01*
X952862Y820022D01*
X954082Y817908D01*
X955808Y816182D01*
X957922Y814962D01*
X960280Y814330D01*
X962720D01*
X965078Y814962D01*
X967192Y816182D01*
X968918Y817908D01*
X970138Y820022D01*
X970770Y822380D01*
Y824820D01*
X970138Y827178D01*
X968918Y829292D01*
X967192Y831018D01*
X965078Y832238D01*
X962720Y832870D01*
D02*
G37*
G36*
X859349Y774270D02*
X857651D01*
X856081Y773620D01*
X854880Y772419D01*
X854230Y770849D01*
Y769151D01*
X854880Y767581D01*
X856081Y766380D01*
X857651Y765730D01*
X859349D01*
X860919Y766380D01*
X862120Y767581D01*
X862770Y769151D01*
Y770849D01*
X862120Y772419D01*
X860919Y773620D01*
X859349Y774270D01*
D02*
G37*
G36*
X868849Y734770D02*
X867151D01*
X865581Y734120D01*
X864380Y732919D01*
X863730Y731349D01*
Y729651D01*
X864380Y728081D01*
X865581Y726880D01*
X867151Y726230D01*
X868849D01*
X870419Y726880D01*
X871620Y728081D01*
X872270Y729651D01*
Y731349D01*
X871620Y732919D01*
X870419Y734120D01*
X868849Y734770D01*
D02*
G37*
G36*
X492360Y693206D02*
X490040D01*
X487799Y692606D01*
X485790Y691446D01*
X484150Y689805D01*
X482990Y687796D01*
X482390Y685556D01*
Y683236D01*
X482990Y680995D01*
X484150Y678987D01*
X485790Y677346D01*
X487799Y676186D01*
X490040Y675586D01*
X492360D01*
X494600Y676186D01*
X496609Y677346D01*
X498250Y678987D01*
X499410Y680995D01*
X500010Y683236D01*
Y685556D01*
X499410Y687796D01*
X498250Y689805D01*
X496609Y691446D01*
X494600Y692606D01*
X492360Y693206D01*
D02*
G37*
G36*
X891036Y624968D02*
X871995D01*
Y605928D01*
X891036D01*
Y624968D01*
D02*
G37*
G36*
X857369D02*
X854862D01*
X852441Y624319D01*
X850270Y623066D01*
X848498Y621294D01*
X847244Y619123D01*
X846596Y616702D01*
Y614195D01*
X847244Y611774D01*
X848498Y609603D01*
X850270Y607830D01*
X852441Y606577D01*
X854862Y605928D01*
X857369D01*
X859790Y606577D01*
X861961Y607830D01*
X863733Y609603D01*
X864987Y611774D01*
X865636Y614195D01*
Y616702D01*
X864987Y619123D01*
X863733Y621294D01*
X861961Y623066D01*
X859790Y624319D01*
X857369Y624968D01*
D02*
G37*
G36*
X831969D02*
X829462D01*
X827041Y624319D01*
X824870Y623066D01*
X823098Y621294D01*
X821844Y619123D01*
X821196Y616702D01*
Y614195D01*
X821844Y611774D01*
X823098Y609603D01*
X824870Y607830D01*
X827041Y606577D01*
X829462Y605928D01*
X831969D01*
X834390Y606577D01*
X836561Y607830D01*
X838333Y609603D01*
X839587Y611774D01*
X840236Y614195D01*
Y616702D01*
X839587Y619123D01*
X838333Y621294D01*
X836561Y623066D01*
X834390Y624319D01*
X831969Y624968D01*
D02*
G37*
G36*
X806569D02*
X804062D01*
X801641Y624319D01*
X799470Y623066D01*
X797698Y621294D01*
X796444Y619123D01*
X795796Y616702D01*
Y614195D01*
X796444Y611774D01*
X797698Y609603D01*
X799470Y607830D01*
X801641Y606577D01*
X804062Y605928D01*
X806569D01*
X808990Y606577D01*
X811161Y607830D01*
X812933Y609603D01*
X814187Y611774D01*
X814836Y614195D01*
Y616702D01*
X814187Y619123D01*
X812933Y621294D01*
X811161Y623066D01*
X808990Y624319D01*
X806569Y624968D01*
D02*
G37*
G36*
X781169D02*
X778662D01*
X776241Y624319D01*
X774070Y623066D01*
X772298Y621294D01*
X771044Y619123D01*
X770396Y616702D01*
Y614195D01*
X771044Y611774D01*
X772298Y609603D01*
X774070Y607830D01*
X776241Y606577D01*
X778662Y605928D01*
X781169D01*
X783590Y606577D01*
X785761Y607830D01*
X787533Y609603D01*
X788787Y611774D01*
X789436Y614195D01*
Y616702D01*
X788787Y619123D01*
X787533Y621294D01*
X785761Y623066D01*
X783590Y624319D01*
X781169Y624968D01*
D02*
G37*
G36*
X755769D02*
X753262D01*
X750841Y624319D01*
X748670Y623066D01*
X746898Y621294D01*
X745644Y619123D01*
X744995Y616702D01*
Y614195D01*
X745644Y611774D01*
X746898Y609603D01*
X748670Y607830D01*
X750841Y606577D01*
X753262Y605928D01*
X755769D01*
X758190Y606577D01*
X760361Y607830D01*
X762133Y609603D01*
X763387Y611774D01*
X764035Y614195D01*
Y616702D01*
X763387Y619123D01*
X762133Y621294D01*
X760361Y623066D01*
X758190Y624319D01*
X755769Y624968D01*
D02*
G37*
G36*
X730369D02*
X727862D01*
X725441Y624319D01*
X723270Y623066D01*
X721498Y621294D01*
X720244Y619123D01*
X719595Y616702D01*
Y614195D01*
X720244Y611774D01*
X721498Y609603D01*
X723270Y607830D01*
X725441Y606577D01*
X727862Y605928D01*
X730369D01*
X732790Y606577D01*
X734961Y607830D01*
X736733Y609603D01*
X737987Y611774D01*
X738635Y614195D01*
Y616702D01*
X737987Y619123D01*
X736733Y621294D01*
X734961Y623066D01*
X732790Y624319D01*
X730369Y624968D01*
D02*
G37*
G36*
X704969D02*
X702462D01*
X700041Y624319D01*
X697870Y623066D01*
X696098Y621294D01*
X694844Y619123D01*
X694195Y616702D01*
Y614195D01*
X694844Y611774D01*
X696098Y609603D01*
X697870Y607830D01*
X700041Y606577D01*
X702462Y605928D01*
X704969D01*
X707390Y606577D01*
X709561Y607830D01*
X711333Y609603D01*
X712587Y611774D01*
X713235Y614195D01*
Y616702D01*
X712587Y619123D01*
X711333Y621294D01*
X709561Y623066D01*
X707390Y624319D01*
X704969Y624968D01*
D02*
G37*
G36*
X679569D02*
X677062D01*
X674641Y624319D01*
X672470Y623066D01*
X670698Y621294D01*
X669444Y619123D01*
X668795Y616702D01*
Y614195D01*
X669444Y611774D01*
X670698Y609603D01*
X672470Y607830D01*
X674641Y606577D01*
X677062Y605928D01*
X679569D01*
X681990Y606577D01*
X684161Y607830D01*
X685933Y609603D01*
X687187Y611774D01*
X687835Y614195D01*
Y616702D01*
X687187Y619123D01*
X685933Y621294D01*
X684161Y623066D01*
X681990Y624319D01*
X679569Y624968D01*
D02*
G37*
G36*
X654169D02*
X651662D01*
X649241Y624319D01*
X647070Y623066D01*
X645298Y621294D01*
X644044Y619123D01*
X643395Y616702D01*
Y614195D01*
X644044Y611774D01*
X645298Y609603D01*
X647070Y607830D01*
X649241Y606577D01*
X651662Y605928D01*
X654169D01*
X656590Y606577D01*
X658761Y607830D01*
X660533Y609603D01*
X661787Y611774D01*
X662436Y614195D01*
Y616702D01*
X661787Y619123D01*
X660533Y621294D01*
X658761Y623066D01*
X656590Y624319D01*
X654169Y624968D01*
D02*
G37*
G36*
X628769D02*
X626262D01*
X623841Y624319D01*
X621670Y623066D01*
X619898Y621294D01*
X618644Y619123D01*
X617995Y616702D01*
Y614195D01*
X618644Y611774D01*
X619898Y609603D01*
X621670Y607830D01*
X623841Y606577D01*
X626262Y605928D01*
X628769D01*
X631190Y606577D01*
X633361Y607830D01*
X635133Y609603D01*
X636387Y611774D01*
X637035Y614195D01*
Y616702D01*
X636387Y619123D01*
X635133Y621294D01*
X633361Y623066D01*
X631190Y624319D01*
X628769Y624968D01*
D02*
G37*
G36*
X949560Y609210D02*
X947240D01*
X944999Y608610D01*
X942990Y607450D01*
X941350Y605809D01*
X940190Y603801D01*
X939590Y601560D01*
Y599240D01*
X940190Y596999D01*
X941350Y594991D01*
X942990Y593350D01*
X944999Y592190D01*
X947240Y591590D01*
X949560D01*
X951801Y592190D01*
X953810Y593350D01*
X955450Y594991D01*
X956610Y596999D01*
X957210Y599240D01*
Y601560D01*
X956610Y603801D01*
X955450Y605809D01*
X953810Y607450D01*
X951801Y608610D01*
X949560Y609210D01*
D02*
G37*
G36*
X924160D02*
X921840D01*
X919600Y608610D01*
X917590Y607450D01*
X915950Y605809D01*
X914790Y603801D01*
X914190Y601560D01*
Y599240D01*
X914790Y596999D01*
X915950Y594991D01*
X917590Y593350D01*
X919600Y592190D01*
X921840Y591590D01*
X924160D01*
X926401Y592190D01*
X928410Y593350D01*
X930050Y594991D01*
X931210Y596999D01*
X931810Y599240D01*
Y601560D01*
X931210Y603801D01*
X930050Y605809D01*
X928410Y607450D01*
X926401Y608610D01*
X924160Y609210D01*
D02*
G37*
G36*
X882769Y599568D02*
X880262D01*
X877841Y598919D01*
X875670Y597666D01*
X873898Y595894D01*
X872644Y593723D01*
X871995Y591301D01*
Y588795D01*
X872644Y586374D01*
X873898Y584203D01*
X875670Y582430D01*
X877841Y581177D01*
X880262Y580528D01*
X882769D01*
X885190Y581177D01*
X887361Y582430D01*
X889133Y584203D01*
X890387Y586374D01*
X891036Y588795D01*
Y591301D01*
X890387Y593723D01*
X889133Y595894D01*
X887361Y597666D01*
X885190Y598919D01*
X882769Y599568D01*
D02*
G37*
G36*
X857369D02*
X854862D01*
X852441Y598919D01*
X850270Y597666D01*
X848498Y595894D01*
X847244Y593723D01*
X846596Y591301D01*
Y588795D01*
X847244Y586374D01*
X848498Y584203D01*
X850270Y582430D01*
X852441Y581177D01*
X854862Y580528D01*
X857369D01*
X859790Y581177D01*
X861961Y582430D01*
X863733Y584203D01*
X864987Y586374D01*
X865636Y588795D01*
Y591301D01*
X864987Y593723D01*
X863733Y595894D01*
X861961Y597666D01*
X859790Y598919D01*
X857369Y599568D01*
D02*
G37*
G36*
X831969D02*
X829462D01*
X827041Y598919D01*
X824870Y597666D01*
X823098Y595894D01*
X821844Y593723D01*
X821196Y591301D01*
Y588795D01*
X821844Y586374D01*
X823098Y584203D01*
X824870Y582430D01*
X827041Y581177D01*
X829462Y580528D01*
X831969D01*
X834390Y581177D01*
X836561Y582430D01*
X838333Y584203D01*
X839587Y586374D01*
X840236Y588795D01*
Y591301D01*
X839587Y593723D01*
X838333Y595894D01*
X836561Y597666D01*
X834390Y598919D01*
X831969Y599568D01*
D02*
G37*
G36*
X806569D02*
X804062D01*
X801641Y598919D01*
X799470Y597666D01*
X797698Y595894D01*
X796444Y593723D01*
X795796Y591301D01*
Y588795D01*
X796444Y586374D01*
X797698Y584203D01*
X799470Y582430D01*
X801641Y581177D01*
X804062Y580528D01*
X806569D01*
X808990Y581177D01*
X811161Y582430D01*
X812933Y584203D01*
X814187Y586374D01*
X814836Y588795D01*
Y591301D01*
X814187Y593723D01*
X812933Y595894D01*
X811161Y597666D01*
X808990Y598919D01*
X806569Y599568D01*
D02*
G37*
G36*
X781169D02*
X778662D01*
X776241Y598919D01*
X774070Y597666D01*
X772298Y595894D01*
X771044Y593723D01*
X770396Y591301D01*
Y588795D01*
X771044Y586374D01*
X772298Y584203D01*
X774070Y582430D01*
X776241Y581177D01*
X778662Y580528D01*
X781169D01*
X783590Y581177D01*
X785761Y582430D01*
X787533Y584203D01*
X788787Y586374D01*
X789436Y588795D01*
Y591301D01*
X788787Y593723D01*
X787533Y595894D01*
X785761Y597666D01*
X783590Y598919D01*
X781169Y599568D01*
D02*
G37*
G36*
X755769D02*
X753262D01*
X750841Y598919D01*
X748670Y597666D01*
X746898Y595894D01*
X745644Y593723D01*
X744995Y591301D01*
Y588795D01*
X745644Y586374D01*
X746898Y584203D01*
X748670Y582430D01*
X750841Y581177D01*
X753262Y580528D01*
X755769D01*
X758190Y581177D01*
X760361Y582430D01*
X762133Y584203D01*
X763387Y586374D01*
X764035Y588795D01*
Y591301D01*
X763387Y593723D01*
X762133Y595894D01*
X760361Y597666D01*
X758190Y598919D01*
X755769Y599568D01*
D02*
G37*
G36*
X730369D02*
X727862D01*
X725441Y598919D01*
X723270Y597666D01*
X721498Y595894D01*
X720244Y593723D01*
X719595Y591301D01*
Y588795D01*
X720244Y586374D01*
X721498Y584203D01*
X723270Y582430D01*
X725441Y581177D01*
X727862Y580528D01*
X730369D01*
X732790Y581177D01*
X734961Y582430D01*
X736733Y584203D01*
X737987Y586374D01*
X738635Y588795D01*
Y591301D01*
X737987Y593723D01*
X736733Y595894D01*
X734961Y597666D01*
X732790Y598919D01*
X730369Y599568D01*
D02*
G37*
G36*
X704969D02*
X702462D01*
X700041Y598919D01*
X697870Y597666D01*
X696098Y595894D01*
X694844Y593723D01*
X694195Y591301D01*
Y588795D01*
X694844Y586374D01*
X696098Y584203D01*
X697870Y582430D01*
X700041Y581177D01*
X702462Y580528D01*
X704969D01*
X707390Y581177D01*
X709561Y582430D01*
X711333Y584203D01*
X712587Y586374D01*
X713235Y588795D01*
Y591301D01*
X712587Y593723D01*
X711333Y595894D01*
X709561Y597666D01*
X707390Y598919D01*
X704969Y599568D01*
D02*
G37*
G36*
X679569D02*
X677062D01*
X674641Y598919D01*
X672470Y597666D01*
X670698Y595894D01*
X669444Y593723D01*
X668795Y591301D01*
Y588795D01*
X669444Y586374D01*
X670698Y584203D01*
X672470Y582430D01*
X674641Y581177D01*
X677062Y580528D01*
X679569D01*
X681990Y581177D01*
X684161Y582430D01*
X685933Y584203D01*
X687187Y586374D01*
X687835Y588795D01*
Y591301D01*
X687187Y593723D01*
X685933Y595894D01*
X684161Y597666D01*
X681990Y598919D01*
X679569Y599568D01*
D02*
G37*
G36*
X654169D02*
X651662D01*
X649241Y598919D01*
X647070Y597666D01*
X645298Y595894D01*
X644044Y593723D01*
X643395Y591301D01*
Y588795D01*
X644044Y586374D01*
X645298Y584203D01*
X647070Y582430D01*
X649241Y581177D01*
X651662Y580528D01*
X654169D01*
X656590Y581177D01*
X658761Y582430D01*
X660533Y584203D01*
X661787Y586374D01*
X662436Y588795D01*
Y591301D01*
X661787Y593723D01*
X660533Y595894D01*
X658761Y597666D01*
X656590Y598919D01*
X654169Y599568D01*
D02*
G37*
G36*
X628769D02*
X626262D01*
X623841Y598919D01*
X621670Y597666D01*
X619898Y595894D01*
X618644Y593723D01*
X617995Y591301D01*
Y588795D01*
X618644Y586374D01*
X619898Y584203D01*
X621670Y582430D01*
X623841Y581177D01*
X626262Y580528D01*
X628769D01*
X631190Y581177D01*
X633361Y582430D01*
X635133Y584203D01*
X636387Y586374D01*
X637035Y588795D01*
Y591301D01*
X636387Y593723D01*
X635133Y595894D01*
X633361Y597666D01*
X631190Y598919D01*
X628769Y599568D01*
D02*
G37*
G36*
X924192Y560361D02*
X923990Y560309D01*
X923787Y560358D01*
X804055Y541615D01*
X803981Y541570D01*
X803895Y541580D01*
X803895Y541580D01*
X803541Y541301D01*
X803157Y541067D01*
X803136Y540983D01*
X803068Y540930D01*
X803068Y540929D01*
X802447Y539822D01*
X802447Y539822D01*
X802437Y539736D01*
X802376Y539675D01*
Y539225D01*
X802322Y538778D01*
X802322Y538777D01*
X802376Y538709D01*
Y538623D01*
X802395Y538576D01*
Y537424D01*
X801955Y536360D01*
X801140Y535546D01*
X800076Y535105D01*
X798924D01*
X797860Y535546D01*
X797287Y536119D01*
X797007Y536235D01*
X796784Y536439D01*
X795970Y536735D01*
X795500Y536714D01*
X795030Y536735D01*
X794216Y536439D01*
X793993Y536235D01*
X793713Y536119D01*
X793140Y535546D01*
X792076Y535105D01*
X790924D01*
X789860Y535546D01*
X789287Y536119D01*
X789007Y536235D01*
X788784Y536439D01*
X787970Y536735D01*
X787500Y536714D01*
X787030Y536735D01*
X786216Y536439D01*
X785993Y536235D01*
X785713Y536119D01*
X785140Y535546D01*
X784076Y535105D01*
X782924D01*
X781860Y535546D01*
X781046Y536360D01*
X780816Y536913D01*
X780552Y537178D01*
X780356Y537498D01*
X780192Y537537D01*
X780072Y537657D01*
X779698D01*
X779334Y537745D01*
X709787Y526858D01*
X709437Y526644D01*
X709054Y526497D01*
X709001Y526378D01*
X708889Y526310D01*
X708793Y525911D01*
X708626Y525537D01*
X706585Y448847D01*
X706689Y448575D01*
Y448284D01*
X706870Y448103D01*
X706961Y447865D01*
X707227Y447746D01*
X707433Y447540D01*
X707640Y447455D01*
X708455Y446640D01*
X708895Y445576D01*
Y444424D01*
X708455Y443360D01*
X707640Y442545D01*
X707228Y442375D01*
X707047Y442194D01*
X706808Y442102D01*
X706690Y441836D01*
X706484Y441631D01*
Y441375D01*
X706380Y441141D01*
X706164Y433026D01*
X706156Y432750D01*
X706156Y432750D01*
X706255Y432492D01*
X706249Y432216D01*
X706436Y432020D01*
X706533Y431767D01*
X706533Y431767D01*
X706785Y431655D01*
X706915Y431519D01*
X706976Y431455D01*
X706976Y431455D01*
X707002Y431444D01*
X707558Y431199D01*
X707619Y431009D01*
X707134Y428541D01*
X707133Y428537D01*
X706804Y428323D01*
X706437Y428182D01*
X706376Y428045D01*
X706251Y427964D01*
X706169Y427580D01*
X706009Y427221D01*
X705544Y409744D01*
X705691Y409362D01*
X705765Y408959D01*
X705815Y407720D01*
X705675Y406338D01*
X705593Y405954D01*
X705434Y405595D01*
X705126Y394037D01*
X705294Y393599D01*
X705421Y393148D01*
X705479Y393116D01*
X705502Y393054D01*
X705931Y392863D01*
X706340Y392635D01*
X714046Y391731D01*
X714220Y391780D01*
X714396Y391734D01*
X714709Y391918D01*
X715059Y392017D01*
X715147Y392175D01*
X715303Y392267D01*
X716191Y393442D01*
X716237Y393617D01*
X716365Y393745D01*
Y394108D01*
X716456Y394460D01*
X716365Y394616D01*
Y394797D01*
X716105Y395424D01*
Y396576D01*
X716545Y397640D01*
X717360Y398455D01*
X718424Y398895D01*
X719576D01*
X720640Y398455D01*
X721455Y397640D01*
X721895Y396576D01*
Y395424D01*
X721366Y394147D01*
X721210Y394007D01*
X721191Y393696D01*
X721072Y393408D01*
X721162Y393191D01*
X721148Y392957D01*
X721611Y391624D01*
X721767Y391449D01*
X721831Y391223D01*
X722103Y391071D01*
X722310Y390838D01*
X722545Y390824D01*
X722750Y390710D01*
X742460Y388398D01*
X742554Y388424D01*
X742644Y388388D01*
X743049Y388564D01*
X743473Y388684D01*
X743520Y388769D01*
X743609Y388808D01*
X744719Y389957D01*
X744908Y390436D01*
X745105Y390911D01*
Y391576D01*
X745545Y392640D01*
X746360Y393455D01*
X747424Y393895D01*
X748576D01*
X749640Y393455D01*
X750455Y392640D01*
X750895Y391576D01*
Y390424D01*
X750803Y390200D01*
Y390100D01*
X750742Y390021D01*
X750803Y389586D01*
X750803Y389148D01*
X750873Y389077D01*
X750887Y388979D01*
X751530Y387883D01*
X751609Y387823D01*
X751637Y387727D01*
X752019Y387513D01*
X752369Y387248D01*
X752468Y387262D01*
X752555Y387214D01*
X811132Y380342D01*
X811537Y380457D01*
X811955Y380503D01*
X892913Y425046D01*
X893037Y425201D01*
X893222Y425278D01*
X924927Y456983D01*
X926530Y455380D01*
X928701Y454127D01*
X931122Y453478D01*
X933629D01*
X936050Y454127D01*
X938221Y455380D01*
X939993Y457153D01*
X941247Y459324D01*
X941896Y461745D01*
Y464252D01*
X941247Y466673D01*
X939993Y468844D01*
X938391Y470447D01*
X950327Y482383D01*
X951930Y480780D01*
X954101Y479527D01*
X956522Y478878D01*
X959029D01*
X961450Y479527D01*
X963621Y480780D01*
X965393Y482553D01*
X966647Y484724D01*
X967296Y487145D01*
Y489651D01*
X966647Y492073D01*
X965393Y494244D01*
X963791Y495846D01*
X970472Y502528D01*
X970875Y503500D01*
X970875Y503500D01*
Y552000D01*
X970788Y552210D01*
X970804Y552436D01*
X970804Y552436D01*
X970604Y553035D01*
X970455Y553206D01*
X970398Y553425D01*
X970123Y553588D01*
X969914Y553829D01*
X969914Y553829D01*
X969687Y553845D01*
X969492Y553960D01*
X924192Y560361D01*
D02*
G37*
G36*
X501649Y523318D02*
X499142D01*
X496721Y522669D01*
X494550Y521416D01*
X492778Y519644D01*
X491524Y517473D01*
X490876Y515051D01*
Y512545D01*
X491524Y510124D01*
X492778Y507953D01*
X494550Y506180D01*
X496721Y504927D01*
X499142Y504278D01*
X501649D01*
X504070Y504927D01*
X506241Y506180D01*
X508013Y507953D01*
X509267Y510124D01*
X509916Y512545D01*
Y515051D01*
X509267Y517473D01*
X508013Y519644D01*
X506241Y521416D01*
X504070Y522669D01*
X501649Y523318D01*
D02*
G37*
G36*
X476249D02*
X473742D01*
X471321Y522669D01*
X469150Y521416D01*
X467378Y519644D01*
X466124Y517473D01*
X465476Y515051D01*
Y512545D01*
X466124Y510124D01*
X467378Y507953D01*
X469150Y506180D01*
X471321Y504927D01*
X473742Y504278D01*
X476249D01*
X478670Y504927D01*
X480841Y506180D01*
X482613Y507953D01*
X483867Y510124D01*
X484515Y512545D01*
Y515051D01*
X483867Y517473D01*
X482613Y519644D01*
X480841Y521416D01*
X478670Y522669D01*
X476249Y523318D01*
D02*
G37*
G36*
X501649Y497918D02*
X499142D01*
X496721Y497269D01*
X494550Y496016D01*
X492778Y494244D01*
X491524Y492073D01*
X490876Y489651D01*
Y487145D01*
X491524Y484724D01*
X492778Y482553D01*
X494550Y480780D01*
X496721Y479527D01*
X499142Y478878D01*
X501649D01*
X504070Y479527D01*
X506241Y480780D01*
X508013Y482553D01*
X509267Y484724D01*
X509916Y487145D01*
Y489651D01*
X509267Y492073D01*
X508013Y494244D01*
X506241Y496016D01*
X504070Y497269D01*
X501649Y497918D01*
D02*
G37*
G36*
X476249D02*
X473742D01*
X471321Y497269D01*
X469150Y496016D01*
X467378Y494244D01*
X466124Y492073D01*
X465476Y489651D01*
Y487145D01*
X466124Y484724D01*
X467378Y482553D01*
X469150Y480780D01*
X471321Y479527D01*
X473742Y478878D01*
X476249D01*
X478670Y479527D01*
X480841Y480780D01*
X482613Y482553D01*
X483867Y484724D01*
X484515Y487145D01*
Y489651D01*
X483867Y492073D01*
X482613Y494244D01*
X480841Y496016D01*
X478670Y497269D01*
X476249Y497918D01*
D02*
G37*
G36*
X538972Y630847D02*
X538000Y630444D01*
Y630444D01*
X537028Y629472D01*
X537026Y629468D01*
X537022Y629466D01*
X536825Y628983D01*
X536625Y628500D01*
X536627Y628496D01*
X536625Y628491D01*
X536938Y578905D01*
X537141Y578424D01*
X537341Y577941D01*
X537341Y577941D01*
X537782Y576877D01*
Y575725D01*
X537237Y574408D01*
Y574365D01*
X537172Y574206D01*
X536971Y573721D01*
X536973Y573717D01*
X536971Y573713D01*
X536988Y571049D01*
X537092Y570801D01*
Y570531D01*
X537289Y570335D01*
X537397Y570079D01*
X537646Y569978D01*
X537836Y569787D01*
X538640Y569455D01*
X539454Y568640D01*
X539895Y567576D01*
Y566424D01*
X539454Y565360D01*
X538640Y564546D01*
X537887Y564234D01*
X537691Y564037D01*
X537435Y563930D01*
X537334Y563680D01*
X537144Y563490D01*
Y563212D01*
X537039Y562955D01*
X537625Y469995D01*
Y462500D01*
X538028Y461528D01*
X538028Y461528D01*
X570488Y429068D01*
X570741Y428963D01*
X570934Y428770D01*
X571207D01*
X571355Y428709D01*
X571460Y428665D01*
X571713Y428770D01*
X571986D01*
X573256Y429296D01*
X573449Y429489D01*
X573702Y429594D01*
X573745Y429698D01*
X573807Y429847D01*
X574000Y430040D01*
Y430313D01*
X574105Y430566D01*
Y431076D01*
X574545Y432140D01*
X575360Y432955D01*
X576424Y433395D01*
X577576D01*
X577957Y433237D01*
X578655Y432678D01*
X579556Y431713D01*
X579895Y430028D01*
Y429924D01*
X579454Y428860D01*
X578640Y428045D01*
X577576Y427605D01*
X577066D01*
X576814Y427500D01*
X576540D01*
X576347Y427307D01*
X576199Y427245D01*
X576094Y427202D01*
X575989Y426949D01*
X575796Y426756D01*
X575270Y425486D01*
Y425213D01*
X575165Y424960D01*
X575209Y424856D01*
X575270Y424707D01*
Y424434D01*
X575463Y424241D01*
X575568Y423988D01*
X593028Y406528D01*
X594000Y406125D01*
X594000Y406125D01*
X619500D01*
X620472Y406528D01*
X620875Y407500D01*
Y435207D01*
X620770Y435459D01*
Y435733D01*
X620577Y435926D01*
X620472Y436179D01*
X620219Y436283D01*
X620026Y436477D01*
X619860Y436545D01*
X619045Y437360D01*
X618605Y438424D01*
Y439576D01*
X619045Y440640D01*
X619860Y441455D01*
X620026Y441523D01*
X620219Y441717D01*
X620472Y441821D01*
X620577Y442074D01*
X620770Y442267D01*
Y442541D01*
X620875Y442793D01*
Y468510D01*
X620770Y468762D01*
Y469036D01*
X620577Y469229D01*
X620515Y469377D01*
X620472Y469482D01*
X620219Y469586D01*
X620026Y469780D01*
X618756Y470306D01*
X618483D01*
X618230Y470410D01*
X618126Y470367D01*
X617977Y470306D01*
X617704D01*
X617588Y470190D01*
X616271Y469644D01*
X615119D01*
X614055Y470085D01*
X613241Y470900D01*
X612800Y471964D01*
Y473115D01*
X613241Y474179D01*
X614055Y474994D01*
X615119Y475435D01*
X616271D01*
X617588Y474889D01*
X617704Y474773D01*
X617977D01*
X618125Y474712D01*
X618230Y474669D01*
X618483Y474773D01*
X618756D01*
X620026Y475299D01*
X620219Y475493D01*
X620472Y475597D01*
X620515Y475701D01*
X620577Y475850D01*
X620770Y476043D01*
Y476317D01*
X620875Y476569D01*
Y572111D01*
X620757Y572394D01*
X620742Y572700D01*
X613652Y587668D01*
X613430Y587869D01*
X613290Y588135D01*
X613055Y588208D01*
X612872Y588374D01*
X611839Y590159D01*
X611636Y590940D01*
Y591301D01*
X610987Y593723D01*
X609733Y595894D01*
X607961Y597666D01*
X607573Y599561D01*
X607560Y599817D01*
X607653Y600055D01*
X607535Y600322D01*
X607520Y600612D01*
X605249Y605407D01*
X605790Y606577D01*
X607961Y607830D01*
X609733Y609603D01*
X610987Y611774D01*
X611636Y614195D01*
Y616702D01*
X610987Y619123D01*
X609733Y621294D01*
X607961Y623066D01*
X605790Y624319D01*
X603369Y624968D01*
X600862D01*
X598441Y624319D01*
X596270Y623066D01*
X594498Y621294D01*
X594316Y620978D01*
X591797Y620647D01*
X585847Y626597D01*
Y629472D01*
X585444Y630444D01*
X584472Y630847D01*
X538972D01*
X538972Y630847D01*
D02*
G37*
G36*
X959029Y472518D02*
X956522D01*
X954101Y471869D01*
X951930Y470616D01*
X950158Y468844D01*
X948904Y466673D01*
X948255Y464252D01*
Y461745D01*
X948904Y459324D01*
X950158Y457153D01*
X951930Y455380D01*
X954101Y454127D01*
X956522Y453478D01*
X959029D01*
X961450Y454127D01*
X963621Y455380D01*
X965393Y457153D01*
X966647Y459324D01*
X967296Y461745D01*
Y464252D01*
X966647Y466673D01*
X965393Y468844D01*
X963621Y470616D01*
X961450Y471869D01*
X959029Y472518D01*
D02*
G37*
G36*
X501649Y472518D02*
X499142D01*
X496721Y471869D01*
X494550Y470616D01*
X492778Y468843D01*
X491524Y466673D01*
X490876Y464252D01*
Y461745D01*
X491524Y459324D01*
X492778Y457153D01*
X494550Y455380D01*
X496721Y454127D01*
X499142Y453478D01*
X501649D01*
X504070Y454127D01*
X506241Y455380D01*
X508013Y457153D01*
X509267Y459324D01*
X509916Y461745D01*
Y464252D01*
X509267Y466673D01*
X508013Y468843D01*
X506241Y470616D01*
X504070Y471869D01*
X501649Y472518D01*
D02*
G37*
G36*
X476249D02*
X473742D01*
X471321Y471869D01*
X469150Y470616D01*
X467378Y468843D01*
X466124Y466673D01*
X465476Y464252D01*
Y461745D01*
X466124Y459324D01*
X467378Y457153D01*
X469150Y455380D01*
X471321Y454127D01*
X473742Y453478D01*
X476249D01*
X478670Y454127D01*
X480841Y455380D01*
X482613Y457153D01*
X483867Y459324D01*
X484515Y461745D01*
Y464252D01*
X483867Y466673D01*
X482613Y468843D01*
X480841Y470616D01*
X478670Y471869D01*
X476249Y472518D01*
D02*
G37*
G36*
X959029Y447118D02*
X956522D01*
X954101Y446469D01*
X951930Y445216D01*
X950158Y443444D01*
X948904Y441273D01*
X948255Y438852D01*
Y436345D01*
X948904Y433924D01*
X950158Y431753D01*
X951930Y429980D01*
X954101Y428727D01*
X956522Y428078D01*
X959029D01*
X961450Y428727D01*
X963621Y429980D01*
X965393Y431753D01*
X966647Y433924D01*
X967296Y436345D01*
Y438852D01*
X966647Y441273D01*
X965393Y443444D01*
X963621Y445216D01*
X961450Y446469D01*
X959029Y447118D01*
D02*
G37*
G36*
X933629D02*
X931122D01*
X928701Y446469D01*
X926530Y445216D01*
X924758Y443444D01*
X923504Y441273D01*
X922856Y438852D01*
Y436345D01*
X923504Y433924D01*
X924758Y431753D01*
X926530Y429980D01*
X928701Y428727D01*
X931122Y428078D01*
X933629D01*
X936050Y428727D01*
X938221Y429980D01*
X939993Y431753D01*
X941247Y433924D01*
X941896Y436345D01*
Y438852D01*
X941247Y441273D01*
X939993Y443444D01*
X938221Y445216D01*
X936050Y446469D01*
X933629Y447118D01*
D02*
G37*
G36*
X501649Y447118D02*
X499142D01*
X496721Y446469D01*
X494550Y445216D01*
X492778Y443443D01*
X491524Y441273D01*
X490876Y438852D01*
Y436345D01*
X491524Y433924D01*
X492778Y431753D01*
X494550Y429980D01*
X496721Y428727D01*
X499142Y428078D01*
X501649D01*
X504070Y428727D01*
X506241Y429980D01*
X508013Y431753D01*
X509267Y433924D01*
X509916Y436345D01*
Y438852D01*
X509267Y441273D01*
X508013Y443443D01*
X506241Y445216D01*
X504070Y446469D01*
X501649Y447118D01*
D02*
G37*
G36*
X476249D02*
X473742D01*
X471321Y446469D01*
X469150Y445216D01*
X467378Y443443D01*
X466124Y441273D01*
X465476Y438852D01*
Y436345D01*
X466124Y433924D01*
X467378Y431753D01*
X469150Y429980D01*
X471321Y428727D01*
X473742Y428078D01*
X476249D01*
X478670Y428727D01*
X480841Y429980D01*
X482613Y431753D01*
X483867Y433924D01*
X484515Y436345D01*
Y438852D01*
X483867Y441273D01*
X482613Y443443D01*
X480841Y445216D01*
X478670Y446469D01*
X476249Y447118D01*
D02*
G37*
G36*
X959029Y421718D02*
X956522D01*
X954101Y421069D01*
X951930Y419816D01*
X950158Y418044D01*
X948904Y415873D01*
X948255Y413451D01*
Y410945D01*
X948904Y408524D01*
X950158Y406353D01*
X951930Y404580D01*
X954101Y403327D01*
X956522Y402678D01*
X959029D01*
X961450Y403327D01*
X963621Y404580D01*
X965393Y406353D01*
X966647Y408524D01*
X967296Y410945D01*
Y413451D01*
X966647Y415873D01*
X965393Y418044D01*
X963621Y419816D01*
X961450Y421069D01*
X959029Y421718D01*
D02*
G37*
G36*
X933629D02*
X931122D01*
X928701Y421069D01*
X926530Y419816D01*
X924758Y418044D01*
X923504Y415873D01*
X922856Y413451D01*
Y410945D01*
X923504Y408524D01*
X924758Y406353D01*
X926530Y404580D01*
X928701Y403327D01*
X931122Y402678D01*
X933629D01*
X936050Y403327D01*
X938221Y404580D01*
X939993Y406353D01*
X941247Y408524D01*
X941896Y410945D01*
Y413451D01*
X941247Y415873D01*
X939993Y418044D01*
X938221Y419816D01*
X936050Y421069D01*
X933629Y421718D01*
D02*
G37*
G36*
X501649Y421718D02*
X499142D01*
X496721Y421069D01*
X494550Y419816D01*
X492778Y418044D01*
X491524Y415873D01*
X490876Y413451D01*
Y410945D01*
X491524Y408524D01*
X492778Y406353D01*
X494550Y404580D01*
X496721Y403327D01*
X499142Y402678D01*
X501649D01*
X504070Y403327D01*
X506241Y404580D01*
X508013Y406353D01*
X509267Y408524D01*
X509916Y410945D01*
Y413451D01*
X509267Y415873D01*
X508013Y418044D01*
X506241Y419816D01*
X504070Y421069D01*
X501649Y421718D01*
D02*
G37*
G36*
X476249D02*
X473742D01*
X471321Y421069D01*
X469150Y419816D01*
X467378Y418044D01*
X466124Y415873D01*
X465476Y413451D01*
Y410945D01*
X466124Y408524D01*
X467378Y406353D01*
X469150Y404580D01*
X471321Y403327D01*
X473742Y402678D01*
X476249D01*
X478670Y403327D01*
X480841Y404580D01*
X482613Y406353D01*
X483867Y408524D01*
X484515Y410945D01*
Y413451D01*
X483867Y415873D01*
X482613Y418044D01*
X480841Y419816D01*
X478670Y421069D01*
X476249Y421718D01*
D02*
G37*
G36*
X959029Y396318D02*
X956522D01*
X954101Y395669D01*
X951930Y394416D01*
X950158Y392644D01*
X948904Y390473D01*
X948255Y388051D01*
Y385545D01*
X948904Y383124D01*
X950158Y380953D01*
X951930Y379180D01*
X954101Y377927D01*
X956522Y377278D01*
X959029D01*
X961450Y377927D01*
X963621Y379180D01*
X965393Y380953D01*
X966647Y383124D01*
X967296Y385545D01*
Y388051D01*
X966647Y390473D01*
X965393Y392644D01*
X963621Y394416D01*
X961450Y395669D01*
X959029Y396318D01*
D02*
G37*
G36*
X933629D02*
X931122D01*
X928701Y395669D01*
X926530Y394416D01*
X924758Y392644D01*
X923504Y390473D01*
X922856Y388051D01*
Y385545D01*
X923504Y383124D01*
X924758Y380953D01*
X926530Y379180D01*
X928701Y377927D01*
X931122Y377278D01*
X933629D01*
X936050Y377927D01*
X938221Y379180D01*
X939993Y380953D01*
X941247Y383124D01*
X941896Y385545D01*
Y388051D01*
X941247Y390473D01*
X939993Y392644D01*
X938221Y394416D01*
X936050Y395669D01*
X933629Y396318D01*
D02*
G37*
G36*
X501649Y396318D02*
X499142D01*
X496721Y395669D01*
X494550Y394416D01*
X492778Y392644D01*
X491524Y390473D01*
X490876Y388051D01*
Y385545D01*
X491524Y383124D01*
X492778Y380953D01*
X494550Y379180D01*
X496721Y377927D01*
X499142Y377278D01*
X501649D01*
X504070Y377927D01*
X506241Y379180D01*
X508013Y380953D01*
X509267Y383124D01*
X509916Y385545D01*
Y388051D01*
X509267Y390473D01*
X508013Y392644D01*
X506241Y394416D01*
X504070Y395669D01*
X501649Y396318D01*
D02*
G37*
G36*
X476249D02*
X473742D01*
X471321Y395669D01*
X469150Y394416D01*
X467378Y392644D01*
X466124Y390473D01*
X465476Y388051D01*
Y385545D01*
X466124Y383124D01*
X467378Y380953D01*
X469150Y379180D01*
X471321Y377927D01*
X473742Y377278D01*
X476249D01*
X478670Y377927D01*
X480841Y379180D01*
X482613Y380953D01*
X483867Y383124D01*
X484515Y385545D01*
Y388051D01*
X483867Y390473D01*
X482613Y392644D01*
X480841Y394416D01*
X478670Y395669D01*
X476249Y396318D01*
D02*
G37*
G36*
X959029Y370918D02*
X956522D01*
X954101Y370269D01*
X951930Y369016D01*
X950158Y367244D01*
X948904Y365073D01*
X948255Y362651D01*
Y360145D01*
X948904Y357724D01*
X950158Y355553D01*
X951930Y353780D01*
X954101Y352527D01*
X956522Y351878D01*
X959029D01*
X961450Y352527D01*
X963621Y353780D01*
X965393Y355553D01*
X966647Y357724D01*
X967296Y360145D01*
Y362651D01*
X966647Y365073D01*
X965393Y367244D01*
X963621Y369016D01*
X961450Y370269D01*
X959029Y370918D01*
D02*
G37*
G36*
X933629D02*
X931122D01*
X928701Y370269D01*
X926530Y369016D01*
X924758Y367244D01*
X923504Y365073D01*
X922856Y362651D01*
Y360145D01*
X923504Y357724D01*
X924758Y355553D01*
X926530Y353780D01*
X928701Y352527D01*
X931122Y351878D01*
X933629D01*
X936050Y352527D01*
X938221Y353780D01*
X939993Y355553D01*
X941247Y357724D01*
X941896Y360145D01*
Y362651D01*
X941247Y365073D01*
X939993Y367244D01*
X938221Y369016D01*
X936050Y370269D01*
X933629Y370918D01*
D02*
G37*
G36*
X501649Y370918D02*
X499142D01*
X496721Y370269D01*
X494550Y369016D01*
X492778Y367243D01*
X491524Y365073D01*
X490876Y362651D01*
Y360145D01*
X491524Y357724D01*
X492778Y355553D01*
X494550Y353780D01*
X496721Y352527D01*
X499142Y351878D01*
X501649D01*
X504070Y352527D01*
X506241Y353780D01*
X508013Y355553D01*
X509267Y357724D01*
X509916Y360145D01*
Y362651D01*
X509267Y365073D01*
X508013Y367243D01*
X506241Y369016D01*
X504070Y370269D01*
X501649Y370918D01*
D02*
G37*
G36*
X476249D02*
X473742D01*
X471321Y370269D01*
X469150Y369016D01*
X467378Y367243D01*
X466124Y365073D01*
X465476Y362651D01*
Y360145D01*
X466124Y357724D01*
X467378Y355553D01*
X469150Y353780D01*
X471321Y352527D01*
X473742Y351878D01*
X476249D01*
X478670Y352527D01*
X480841Y353780D01*
X482613Y355553D01*
X483867Y357724D01*
X484515Y360145D01*
Y362651D01*
X483867Y365073D01*
X482613Y367243D01*
X480841Y369016D01*
X478670Y370269D01*
X476249Y370918D01*
D02*
G37*
G36*
X959029Y345518D02*
X956522D01*
X954101Y344869D01*
X951930Y343616D01*
X950158Y341844D01*
X948904Y339673D01*
X948255Y337252D01*
Y334745D01*
X948904Y332324D01*
X950158Y330153D01*
X951930Y328380D01*
X954101Y327127D01*
X956522Y326478D01*
X959029D01*
X961450Y327127D01*
X963621Y328380D01*
X965393Y330153D01*
X966647Y332324D01*
X967296Y334745D01*
Y337252D01*
X966647Y339673D01*
X965393Y341844D01*
X963621Y343616D01*
X961450Y344869D01*
X959029Y345518D01*
D02*
G37*
G36*
X933629D02*
X931122D01*
X928701Y344869D01*
X926530Y343616D01*
X924758Y341844D01*
X923504Y339673D01*
X922856Y337252D01*
Y334745D01*
X923504Y332324D01*
X924758Y330153D01*
X926530Y328380D01*
X928701Y327127D01*
X931122Y326478D01*
X933629D01*
X936050Y327127D01*
X938221Y328380D01*
X939993Y330153D01*
X941247Y332324D01*
X941896Y334745D01*
Y337252D01*
X941247Y339673D01*
X939993Y341844D01*
X938221Y343616D01*
X936050Y344869D01*
X933629Y345518D01*
D02*
G37*
G36*
X501649Y345518D02*
X499142D01*
X496721Y344869D01*
X494550Y343616D01*
X492778Y341843D01*
X491524Y339673D01*
X490876Y337252D01*
Y334745D01*
X491524Y332324D01*
X492778Y330153D01*
X494550Y328380D01*
X496721Y327127D01*
X499142Y326478D01*
X501649D01*
X504070Y327127D01*
X506241Y328380D01*
X508013Y330153D01*
X509267Y332324D01*
X509916Y334745D01*
Y337252D01*
X509267Y339673D01*
X508013Y341843D01*
X506241Y343616D01*
X504070Y344869D01*
X501649Y345518D01*
D02*
G37*
G36*
X476249D02*
X473742D01*
X471321Y344869D01*
X469150Y343616D01*
X467378Y341843D01*
X466124Y339673D01*
X465476Y337252D01*
Y334745D01*
X466124Y332324D01*
X467378Y330153D01*
X469150Y328380D01*
X471321Y327127D01*
X473742Y326478D01*
X476249D01*
X478670Y327127D01*
X480841Y328380D01*
X482613Y330153D01*
X483867Y332324D01*
X484515Y334745D01*
Y337252D01*
X483867Y339673D01*
X482613Y341843D01*
X480841Y343616D01*
X478670Y344869D01*
X476249Y345518D01*
D02*
G37*
G36*
X501649Y320118D02*
X499142D01*
X496721Y319469D01*
X494550Y318216D01*
X492778Y316444D01*
X491524Y314273D01*
X490876Y311852D01*
Y309345D01*
X491524Y306924D01*
X492778Y304753D01*
X494550Y302980D01*
X496721Y301727D01*
X499142Y301078D01*
X501649D01*
X504070Y301727D01*
X506241Y302980D01*
X508013Y304753D01*
X509267Y306924D01*
X509916Y309345D01*
Y311852D01*
X509267Y314273D01*
X508013Y316444D01*
X506241Y318216D01*
X504070Y319469D01*
X501649Y320118D01*
D02*
G37*
G36*
X476249D02*
X473742D01*
X471321Y319469D01*
X469150Y318216D01*
X467378Y316444D01*
X466124Y314273D01*
X465476Y311852D01*
Y309345D01*
X466124Y306924D01*
X467378Y304753D01*
X469150Y302980D01*
X471321Y301727D01*
X473742Y301078D01*
X476249D01*
X478670Y301727D01*
X480841Y302980D01*
X482613Y304753D01*
X483867Y306924D01*
X484515Y309345D01*
Y311852D01*
X483867Y314273D01*
X482613Y316444D01*
X480841Y318216D01*
X478670Y319469D01*
X476249Y320118D01*
D02*
G37*
G36*
X699155Y292888D02*
X697456D01*
X695887Y292238D01*
X694686Y291037D01*
X694035Y289468D01*
Y287769D01*
X694686Y286199D01*
X695887Y284998D01*
X697456Y284348D01*
X699155D01*
X700724Y284998D01*
X701925Y286199D01*
X702576Y287769D01*
Y289468D01*
X701925Y291037D01*
X700724Y292238D01*
X699155Y292888D01*
D02*
G37*
G36*
X686655D02*
X684956D01*
X683387Y292238D01*
X682186Y291037D01*
X681535Y289468D01*
Y287769D01*
X682186Y286199D01*
X683387Y284998D01*
X684956Y284348D01*
X686655D01*
X688224Y284998D01*
X689425Y286199D01*
X690076Y287769D01*
Y289468D01*
X689425Y291037D01*
X688224Y292238D01*
X686655Y292888D01*
D02*
G37*
G36*
X674155D02*
X672456D01*
X670887Y292238D01*
X669686Y291037D01*
X669035Y289468D01*
Y287769D01*
X669686Y286199D01*
X670887Y284998D01*
X672456Y284348D01*
X674155D01*
X675724Y284998D01*
X676925Y286199D01*
X677576Y287769D01*
Y289468D01*
X676925Y291037D01*
X675724Y292238D01*
X674155Y292888D01*
D02*
G37*
G36*
X959029Y294718D02*
X956522D01*
X954101Y294069D01*
X951930Y292816D01*
X950158Y291044D01*
X948904Y288873D01*
X948255Y286451D01*
Y283945D01*
X948904Y281524D01*
X950158Y279353D01*
X951930Y277580D01*
X954101Y276327D01*
X956522Y275678D01*
X959029D01*
X961450Y276327D01*
X963621Y277580D01*
X965393Y279353D01*
X966647Y281524D01*
X967296Y283945D01*
Y286451D01*
X966647Y288873D01*
X965393Y291044D01*
X963621Y292816D01*
X961450Y294069D01*
X959029Y294718D01*
D02*
G37*
G36*
X501649Y294718D02*
X499142D01*
X496721Y294069D01*
X494550Y292816D01*
X492778Y291043D01*
X491524Y288873D01*
X490876Y286451D01*
Y283945D01*
X491524Y281524D01*
X492778Y279353D01*
X494550Y277580D01*
X496721Y276327D01*
X499142Y275678D01*
X501649D01*
X504070Y276327D01*
X506241Y277580D01*
X508013Y279353D01*
X509267Y281524D01*
X509916Y283945D01*
Y286451D01*
X509267Y288873D01*
X508013Y291043D01*
X506241Y292816D01*
X504070Y294069D01*
X501649Y294718D01*
D02*
G37*
G36*
X476249D02*
X473742D01*
X471321Y294069D01*
X469150Y292816D01*
X467378Y291043D01*
X466124Y288873D01*
X465476Y286451D01*
Y283945D01*
X466124Y281524D01*
X467378Y279353D01*
X469150Y277580D01*
X471321Y276327D01*
X473742Y275678D01*
X476249D01*
X478670Y276327D01*
X480841Y277580D01*
X482613Y279353D01*
X483867Y281524D01*
X484515Y283945D01*
Y286451D01*
X483867Y288873D01*
X482613Y291043D01*
X480841Y292816D01*
X478670Y294069D01*
X476249Y294718D01*
D02*
G37*
G36*
X959029Y269318D02*
X956522D01*
X954101Y268669D01*
X951930Y267416D01*
X950158Y265644D01*
X948904Y263473D01*
X948255Y261052D01*
Y258545D01*
X948904Y256124D01*
X950158Y253953D01*
X951930Y252180D01*
X954101Y250927D01*
X956522Y250278D01*
X959029D01*
X961450Y250927D01*
X963621Y252180D01*
X965393Y253953D01*
X966647Y256124D01*
X967296Y258545D01*
Y261052D01*
X966647Y263473D01*
X965393Y265644D01*
X963621Y267416D01*
X961450Y268669D01*
X959029Y269318D01*
D02*
G37*
G36*
X933629D02*
X931122D01*
X928701Y268669D01*
X926530Y267416D01*
X924758Y265644D01*
X923504Y263473D01*
X922856Y261052D01*
Y258545D01*
X923504Y256124D01*
X924758Y253953D01*
X926530Y252180D01*
X928701Y250927D01*
X931122Y250278D01*
X933629D01*
X936050Y250927D01*
X938221Y252180D01*
X939993Y253953D01*
X941247Y256124D01*
X941896Y258545D01*
Y261052D01*
X941247Y263473D01*
X939993Y265644D01*
X938221Y267416D01*
X936050Y268669D01*
X933629Y269318D01*
D02*
G37*
G36*
X501649Y269318D02*
X499142D01*
X496721Y268669D01*
X494550Y267416D01*
X492778Y265644D01*
X491524Y263473D01*
X490876Y261052D01*
Y258545D01*
X491524Y256124D01*
X492778Y253953D01*
X494550Y252180D01*
X496721Y250927D01*
X499142Y250278D01*
X501649D01*
X504070Y250927D01*
X506241Y252180D01*
X508013Y253953D01*
X509267Y256124D01*
X509916Y258545D01*
Y261052D01*
X509267Y263473D01*
X508013Y265644D01*
X506241Y267416D01*
X504070Y268669D01*
X501649Y269318D01*
D02*
G37*
G36*
X476249D02*
X473742D01*
X471321Y268669D01*
X469150Y267416D01*
X467378Y265644D01*
X466124Y263473D01*
X465476Y261052D01*
Y258545D01*
X466124Y256124D01*
X467378Y253953D01*
X469150Y252180D01*
X471321Y250927D01*
X473742Y250278D01*
X476249D01*
X478670Y250927D01*
X480841Y252180D01*
X482613Y253953D01*
X483867Y256124D01*
X484515Y258545D01*
Y261052D01*
X483867Y263473D01*
X482613Y265644D01*
X480841Y267416D01*
X478670Y268669D01*
X476249Y269318D01*
D02*
G37*
G36*
X616000Y351875D02*
X615028Y351472D01*
Y351472D01*
X514028Y250472D01*
X514010Y250429D01*
X513969Y250409D01*
X506359Y241775D01*
X506202Y241315D01*
X506016Y240866D01*
X506034Y240824D01*
X506019Y240780D01*
X506232Y240343D01*
X506419Y239894D01*
X506913Y239399D01*
X507986Y237542D01*
X508541Y235471D01*
Y233326D01*
X507986Y231254D01*
X506913Y229397D01*
X505397Y227880D01*
X503540Y226808D01*
X501468Y226253D01*
X499323D01*
X497252Y226808D01*
X495520Y227808D01*
X495124Y227860D01*
X494746Y227989D01*
X494618Y227927D01*
X494477Y227945D01*
X494160Y227702D01*
X493801Y227526D01*
X487969Y220909D01*
X487811Y220449D01*
X487625Y220000D01*
Y197500D01*
X488028Y196528D01*
X489000Y196125D01*
X664000D01*
X664972Y196528D01*
X665375Y197500D01*
Y284478D01*
X665270Y284730D01*
Y285004D01*
X665077Y285197D01*
X664972Y285450D01*
X664576Y287769D01*
Y289410D01*
X664972Y291786D01*
X665270Y292232D01*
X665270Y292506D01*
X665375Y292758D01*
X665375Y294160D01*
Y347000D01*
X665375Y347000D01*
X664972Y347972D01*
X664972Y347972D01*
X661472Y351472D01*
X660500Y351875D01*
X660500Y351875D01*
X616000D01*
X616000Y351875D01*
D02*
G37*
G36*
X959029Y243918D02*
X956522D01*
X954101Y243269D01*
X951930Y242016D01*
X950158Y240244D01*
X948904Y238073D01*
X948255Y235651D01*
Y233145D01*
X948904Y230724D01*
X950158Y228553D01*
X951930Y226780D01*
X954101Y225527D01*
X956522Y224878D01*
X959029D01*
X961450Y225527D01*
X963621Y226780D01*
X965393Y228553D01*
X966647Y230724D01*
X967296Y233145D01*
Y235651D01*
X966647Y238073D01*
X965393Y240244D01*
X963621Y242016D01*
X961450Y243269D01*
X959029Y243918D01*
D02*
G37*
G36*
X933629D02*
X931122D01*
X928701Y243269D01*
X926530Y242016D01*
X924758Y240244D01*
X923504Y238073D01*
X922856Y235651D01*
Y233145D01*
X923504Y230724D01*
X924758Y228553D01*
X926530Y226780D01*
X928701Y225527D01*
X931122Y224878D01*
X933629D01*
X936050Y225527D01*
X938221Y226780D01*
X939993Y228553D01*
X941247Y230724D01*
X941896Y233145D01*
Y235651D01*
X941247Y238073D01*
X939993Y240244D01*
X938221Y242016D01*
X936050Y243269D01*
X933629Y243918D01*
D02*
G37*
G36*
X476249Y243918D02*
X473742D01*
X471321Y243269D01*
X469150Y242016D01*
X467378Y240243D01*
X466124Y238073D01*
X465476Y235651D01*
Y233145D01*
X466124Y230724D01*
X467378Y228553D01*
X469150Y226780D01*
X471321Y225527D01*
X473742Y224878D01*
X476249D01*
X478670Y225527D01*
X480841Y226780D01*
X482613Y228553D01*
X483867Y230724D01*
X484515Y233145D01*
Y235651D01*
X483867Y238073D01*
X482613Y240243D01*
X480841Y242016D01*
X478670Y243269D01*
X476249Y243918D01*
D02*
G37*
G36*
X872263Y260375D02*
X834500D01*
X833528Y259972D01*
X833125Y259000D01*
X833125Y228974D01*
X833125Y228951D01*
X833125Y228951D01*
X833179Y228821D01*
X833152Y228683D01*
X833152Y228682D01*
X833374Y228349D01*
X833528Y227979D01*
X833658Y227925D01*
X833736Y227808D01*
X834196Y227501D01*
X834196Y227501D01*
X834589Y227423D01*
X834959Y227269D01*
X834960Y227269D01*
X835030Y227269D01*
X836385D01*
X837449Y226828D01*
X838264Y226014D01*
X838704Y224950D01*
Y223798D01*
X838659Y223689D01*
X838600Y223564D01*
X837732Y222451D01*
X836618Y221583D01*
X836494Y221524D01*
X836385Y221479D01*
X835030D01*
X834960Y221479D01*
X834959Y221478D01*
X834589Y221325D01*
X834196Y221247D01*
X834196Y221247D01*
X833736Y220940D01*
X833658Y220823D01*
X833528Y220769D01*
X833374Y220398D01*
X833152Y220065D01*
X833152Y220065D01*
X833179Y219927D01*
X833125Y219797D01*
X833125Y219797D01*
X833125Y219774D01*
Y168469D01*
X831939Y167558D01*
X829432D01*
X827011Y166909D01*
X824840Y165656D01*
X823068Y163884D01*
X821814Y161713D01*
X821165Y159291D01*
Y156785D01*
X821814Y154364D01*
X823068Y152193D01*
X824840Y150420D01*
X827011Y149167D01*
X829432Y148518D01*
X831939D01*
X834360Y149167D01*
X836531Y150420D01*
X837333Y151223D01*
X849270Y139286D01*
X848468Y138484D01*
X847214Y136313D01*
X846565Y133891D01*
Y131385D01*
X847214Y128964D01*
X848468Y126793D01*
X850240Y125020D01*
X852411Y123767D01*
X854832Y123118D01*
X857339D01*
X859760Y123767D01*
X861931Y125020D01*
X862733Y125823D01*
X869028Y119528D01*
X869503Y119331D01*
X869973Y119126D01*
X894566Y118643D01*
X894573Y118646D01*
X894580Y118643D01*
X894580Y118643D01*
X895062Y118837D01*
X895454Y118991D01*
X895546Y119027D01*
X895552Y119035D01*
X895556Y119036D01*
X895556Y119037D01*
X896462Y119925D01*
X896462Y119925D01*
X896464Y119930D01*
X896472Y119935D01*
X896510Y120026D01*
X896671Y120415D01*
X896874Y120893D01*
X896875Y120893D01*
X896872Y120900D01*
X896875Y120907D01*
Y211054D01*
X896692Y211494D01*
X896545Y211947D01*
X896545Y211947D01*
X896494Y211973D01*
X896472Y212026D01*
X896032Y212208D01*
X895608Y212425D01*
X895153Y212460D01*
X895043Y212484D01*
X894140Y214791D01*
X894143Y214878D01*
X894385Y215095D01*
X894386Y215096D01*
X894386Y215096D01*
X894609Y215440D01*
X894891Y215739D01*
X894887Y215869D01*
X894958Y215979D01*
X894873Y216380D01*
X894861Y216790D01*
X882527Y244331D01*
X882368Y244481D01*
X882296Y244687D01*
X882001Y244829D01*
X881762Y245054D01*
X881544Y245047D01*
X881347Y245142D01*
X879921Y245219D01*
X879883Y245206D01*
X879846Y245221D01*
X879392Y245033D01*
X878928Y244870D01*
X878911Y244834D01*
X878874Y244819D01*
X878188Y244132D01*
X877124Y243692D01*
X875972D01*
X874908Y244132D01*
X874093Y244947D01*
X873652Y246011D01*
Y247163D01*
X874093Y248227D01*
X874908Y249041D01*
X875120Y249130D01*
X875314Y249323D01*
X875566Y249428D01*
X875671Y249680D01*
X875864Y249874D01*
Y250147D01*
X875969Y250399D01*
Y251774D01*
X875864Y252027D01*
X875864Y252300D01*
X875671Y252494D01*
X875566Y252746D01*
X875314Y252851D01*
X875121Y253044D01*
X874908Y253132D01*
X874093Y253947D01*
X873652Y255011D01*
Y256163D01*
X874084Y257204D01*
Y257216D01*
X874092Y257225D01*
X874084Y257740D01*
Y258256D01*
X874075Y258265D01*
X874075Y258277D01*
X873524Y259547D01*
X873335Y259729D01*
X873235Y259972D01*
X872972Y260081D01*
X872768Y260278D01*
X872505Y260274D01*
X872263Y260375D01*
D02*
G37*
G36*
X138349Y207920D02*
X136651D01*
X135081Y207270D01*
X133880Y206069D01*
X133230Y204499D01*
Y202801D01*
X133880Y201231D01*
X135081Y200030D01*
X136651Y199380D01*
X138349D01*
X139919Y200030D01*
X141120Y201231D01*
X141770Y202801D01*
Y204499D01*
X141120Y206069D01*
X139919Y207270D01*
X138349Y207920D01*
D02*
G37*
G36*
X302452Y206270D02*
X299748D01*
X297136Y205570D01*
X294794Y204218D01*
X292882Y202306D01*
X291530Y199964D01*
X290830Y197352D01*
Y194648D01*
X291530Y192036D01*
X292882Y189694D01*
X294794Y187782D01*
X297136Y186430D01*
X299748Y185730D01*
X302452D01*
X305064Y186430D01*
X307406Y187782D01*
X309318Y189694D01*
X310670Y192036D01*
X311370Y194648D01*
Y197352D01*
X310670Y199964D01*
X309318Y202306D01*
X307406Y204218D01*
X305064Y205570D01*
X302452Y206270D01*
D02*
G37*
G36*
X353252Y206270D02*
X350548D01*
X347936Y205570D01*
X345594Y204218D01*
X343682Y202306D01*
X342330Y199964D01*
X341630Y197352D01*
Y194648D01*
X342330Y192036D01*
X343682Y189694D01*
X345594Y187782D01*
X347936Y186430D01*
X350548Y185730D01*
X353252D01*
X355864Y186430D01*
X358206Y187782D01*
X360118Y189694D01*
X361470Y192036D01*
X362170Y194648D01*
Y197352D01*
X361470Y199964D01*
X360118Y202306D01*
X358206Y204218D01*
X355864Y205570D01*
X353252Y206270D01*
D02*
G37*
G36*
X327852D02*
X325148D01*
X322536Y205570D01*
X320194Y204218D01*
X318282Y202306D01*
X316930Y199964D01*
X316230Y197352D01*
Y194648D01*
X316930Y192036D01*
X318282Y189694D01*
X320194Y187782D01*
X322536Y186430D01*
X325148Y185730D01*
X327852D01*
X330464Y186430D01*
X332806Y187782D01*
X334718Y189694D01*
X336070Y192036D01*
X336770Y194648D01*
Y197352D01*
X336070Y199964D01*
X334718Y202306D01*
X332806Y204218D01*
X330464Y205570D01*
X327852Y206270D01*
D02*
G37*
G36*
X277052D02*
X274348D01*
X271736Y205570D01*
X269394Y204218D01*
X267482Y202306D01*
X266130Y199964D01*
X265430Y197352D01*
Y194648D01*
X266130Y192036D01*
X267482Y189694D01*
X269394Y187782D01*
X271736Y186430D01*
X274348Y185730D01*
X277052D01*
X279664Y186430D01*
X282006Y187782D01*
X283918Y189694D01*
X285270Y192036D01*
X285970Y194648D01*
Y197352D01*
X285270Y199964D01*
X283918Y202306D01*
X282006Y204218D01*
X279664Y205570D01*
X277052Y206270D01*
D02*
G37*
G36*
X260570D02*
X240030D01*
Y185730D01*
X260570D01*
Y206270D01*
D02*
G37*
G36*
X111018Y176242D02*
X108982D01*
X107100Y175462D01*
X106734Y175097D01*
X105075Y174302D01*
X103416Y175097D01*
X103050Y175462D01*
X101168Y176242D01*
X99132D01*
X97250Y175462D01*
X95809Y174022D01*
X95030Y172140D01*
Y170103D01*
X95809Y168221D01*
X97250Y166781D01*
X99132Y166002D01*
X101168D01*
X103050Y166781D01*
X103416Y167147D01*
X105075Y167941D01*
X106734Y167147D01*
X107100Y166781D01*
X108982Y166002D01*
X111018D01*
X112900Y166781D01*
X114340Y168221D01*
X115120Y170103D01*
Y172140D01*
X114340Y174022D01*
X112900Y175462D01*
X111018Y176242D01*
D02*
G37*
G36*
X519500Y495000D02*
X514000D01*
Y371441D01*
X692856Y357647D01*
X795204Y270204D01*
Y113500D01*
X798500D01*
Y122630D01*
X801040Y124097D01*
X801611Y123767D01*
X804032Y123118D01*
X806539D01*
X808960Y123767D01*
X811131Y125020D01*
X812903Y126793D01*
X814157Y128964D01*
X814806Y131385D01*
Y133891D01*
X814157Y136313D01*
X812903Y138484D01*
X811131Y140256D01*
X808960Y141509D01*
X806539Y142158D01*
X804032D01*
X801611Y141509D01*
X801040Y141180D01*
X798500Y142646D01*
Y148030D01*
X801040Y149497D01*
X801611Y149167D01*
X804032Y148518D01*
X806539D01*
X808960Y149167D01*
X811131Y150420D01*
X812903Y152193D01*
X814157Y154364D01*
X814806Y156785D01*
Y159291D01*
X814157Y161713D01*
X812903Y163884D01*
X811131Y165656D01*
X808960Y166909D01*
X806539Y167558D01*
X804032D01*
X801611Y166909D01*
X801040Y166580D01*
X798500Y168046D01*
Y187500D01*
Y273500D01*
X697155Y361396D01*
X519500Y375504D01*
Y495000D01*
D02*
G37*
G36*
X781139Y167558D02*
X778632D01*
X776211Y166909D01*
X774040Y165656D01*
X772268Y163884D01*
X771014Y161713D01*
X770366Y159291D01*
Y156785D01*
X771014Y154364D01*
X772268Y152193D01*
X774040Y150420D01*
X776211Y149167D01*
X778632Y148518D01*
X781139D01*
X783560Y149167D01*
X785731Y150420D01*
X787503Y152193D01*
X788757Y154364D01*
X789406Y156785D01*
Y159291D01*
X788757Y161713D01*
X787503Y163884D01*
X785731Y165656D01*
X783560Y166909D01*
X781139Y167558D01*
D02*
G37*
G36*
X755739D02*
X753232D01*
X750811Y166909D01*
X748640Y165656D01*
X746868Y163884D01*
X745614Y161713D01*
X744966Y159291D01*
Y156785D01*
X745614Y154364D01*
X746868Y152193D01*
X748640Y150420D01*
X750811Y149167D01*
X753232Y148518D01*
X755739D01*
X758160Y149167D01*
X760331Y150420D01*
X762103Y152193D01*
X763357Y154364D01*
X764006Y156785D01*
Y159291D01*
X763357Y161713D01*
X762103Y163884D01*
X760331Y165656D01*
X758160Y166909D01*
X755739Y167558D01*
D02*
G37*
G36*
X730339D02*
X727832D01*
X725411Y166909D01*
X723240Y165656D01*
X721468Y163884D01*
X720214Y161713D01*
X719566Y159291D01*
Y156785D01*
X720214Y154364D01*
X721468Y152193D01*
X723240Y150420D01*
X725411Y149167D01*
X727832Y148518D01*
X730339D01*
X732760Y149167D01*
X734931Y150420D01*
X736703Y152193D01*
X737957Y154364D01*
X738605Y156785D01*
Y159291D01*
X737957Y161713D01*
X736703Y163884D01*
X734931Y165656D01*
X732760Y166909D01*
X730339Y167558D01*
D02*
G37*
G36*
X704939D02*
X702432D01*
X700011Y166909D01*
X697840Y165656D01*
X696068Y163884D01*
X694814Y161713D01*
X694165Y159291D01*
Y156785D01*
X694814Y154364D01*
X696068Y152193D01*
X697840Y150420D01*
X700011Y149167D01*
X702432Y148518D01*
X704939D01*
X707360Y149167D01*
X709531Y150420D01*
X711303Y152193D01*
X712557Y154364D01*
X713205Y156785D01*
Y159291D01*
X712557Y161713D01*
X711303Y163884D01*
X709531Y165656D01*
X707360Y166909D01*
X704939Y167558D01*
D02*
G37*
G36*
X679539D02*
X677032D01*
X674611Y166909D01*
X672440Y165656D01*
X670668Y163884D01*
X669414Y161713D01*
X668765Y159291D01*
Y156785D01*
X669414Y154364D01*
X670668Y152193D01*
X672440Y150420D01*
X674611Y149167D01*
X677032Y148518D01*
X679539D01*
X681960Y149167D01*
X684131Y150420D01*
X685903Y152193D01*
X687157Y154364D01*
X687805Y156785D01*
Y159291D01*
X687157Y161713D01*
X685903Y163884D01*
X684131Y165656D01*
X681960Y166909D01*
X679539Y167558D01*
D02*
G37*
G36*
X654139D02*
X651632D01*
X649211Y166909D01*
X647040Y165656D01*
X645268Y163884D01*
X644014Y161713D01*
X643365Y159291D01*
Y156785D01*
X644014Y154364D01*
X645268Y152193D01*
X647040Y150420D01*
X649211Y149167D01*
X651632Y148518D01*
X654139D01*
X656560Y149167D01*
X658731Y150420D01*
X660503Y152193D01*
X661757Y154364D01*
X662405Y156785D01*
Y159291D01*
X661757Y161713D01*
X660503Y163884D01*
X658731Y165656D01*
X656560Y166909D01*
X654139Y167558D01*
D02*
G37*
G36*
X628739D02*
X626232D01*
X623811Y166909D01*
X621640Y165656D01*
X619868Y163884D01*
X618614Y161713D01*
X617966Y159291D01*
Y156785D01*
X618614Y154364D01*
X619868Y152193D01*
X621640Y150420D01*
X623811Y149167D01*
X626232Y148518D01*
X628739D01*
X631160Y149167D01*
X633331Y150420D01*
X635103Y152193D01*
X636357Y154364D01*
X637006Y156785D01*
Y159291D01*
X636357Y161713D01*
X635103Y163884D01*
X633331Y165656D01*
X631160Y166909D01*
X628739Y167558D01*
D02*
G37*
G36*
X603339D02*
X600832D01*
X598411Y166909D01*
X596240Y165656D01*
X594468Y163884D01*
X593214Y161713D01*
X592565Y159291D01*
Y156785D01*
X593214Y154364D01*
X594468Y152193D01*
X596240Y150420D01*
X598411Y149167D01*
X600832Y148518D01*
X603339D01*
X605760Y149167D01*
X607931Y150420D01*
X609703Y152193D01*
X610957Y154364D01*
X611605Y156785D01*
Y159291D01*
X610957Y161713D01*
X609703Y163884D01*
X607931Y165656D01*
X605760Y166909D01*
X603339Y167558D01*
D02*
G37*
G36*
X577939D02*
X575432D01*
X573011Y166909D01*
X570840Y165656D01*
X569068Y163884D01*
X567814Y161713D01*
X567165Y159291D01*
Y156785D01*
X567814Y154364D01*
X569068Y152193D01*
X570840Y150420D01*
X573011Y149167D01*
X575432Y148518D01*
X577939D01*
X580360Y149167D01*
X582531Y150420D01*
X584303Y152193D01*
X585557Y154364D01*
X586205Y156785D01*
Y159291D01*
X585557Y161713D01*
X584303Y163884D01*
X582531Y165656D01*
X580360Y166909D01*
X577939Y167558D01*
D02*
G37*
G36*
X247753Y147960D02*
X245247D01*
X242825Y147311D01*
X240655Y146058D01*
X238882Y144285D01*
X237629Y142114D01*
X236980Y139693D01*
Y137187D01*
X237629Y134765D01*
X238882Y132595D01*
X240655Y130822D01*
X242825Y129569D01*
X245247Y128920D01*
X247753D01*
X250175Y129569D01*
X252345Y130822D01*
X254118Y132595D01*
X255371Y134765D01*
X256020Y137187D01*
Y139693D01*
X255371Y142114D01*
X254118Y144285D01*
X252345Y146058D01*
X250175Y147311D01*
X247753Y147960D01*
D02*
G37*
G36*
X192849Y134770D02*
X191151D01*
X189581Y134120D01*
X188380Y132919D01*
X187730Y131349D01*
Y129651D01*
X188380Y128081D01*
X189581Y126880D01*
X191151Y126230D01*
X192849D01*
X194419Y126880D01*
X195620Y128081D01*
X196270Y129651D01*
Y131349D01*
X195620Y132919D01*
X194419Y134120D01*
X192849Y134770D01*
D02*
G37*
G36*
X831939Y142158D02*
X829432D01*
X827011Y141509D01*
X824840Y140256D01*
X823068Y138484D01*
X821814Y136313D01*
X821165Y133891D01*
Y131385D01*
X821814Y128964D01*
X823068Y126793D01*
X824840Y125020D01*
X827011Y123767D01*
X829432Y123118D01*
X831939D01*
X834360Y123767D01*
X836531Y125020D01*
X838303Y126793D01*
X839557Y128964D01*
X840206Y131385D01*
Y133891D01*
X839557Y136313D01*
X838303Y138484D01*
X836531Y140256D01*
X834360Y141509D01*
X831939Y142158D01*
D02*
G37*
G36*
X781139D02*
X778632D01*
X776211Y141509D01*
X774040Y140256D01*
X772268Y138484D01*
X771014Y136313D01*
X770366Y133891D01*
Y131385D01*
X771014Y128964D01*
X772268Y126793D01*
X774040Y125020D01*
X776211Y123767D01*
X778632Y123118D01*
X781139D01*
X783560Y123767D01*
X785731Y125020D01*
X787503Y126793D01*
X788757Y128964D01*
X789406Y131385D01*
Y133891D01*
X788757Y136313D01*
X787503Y138484D01*
X785731Y140256D01*
X783560Y141509D01*
X781139Y142158D01*
D02*
G37*
G36*
X755739D02*
X753232D01*
X750811Y141509D01*
X748640Y140256D01*
X746868Y138484D01*
X745614Y136313D01*
X744966Y133891D01*
Y131385D01*
X745614Y128964D01*
X746868Y126793D01*
X748640Y125020D01*
X750811Y123767D01*
X753232Y123118D01*
X755739D01*
X758160Y123767D01*
X760331Y125020D01*
X762103Y126793D01*
X763357Y128964D01*
X764006Y131385D01*
Y133891D01*
X763357Y136313D01*
X762103Y138484D01*
X760331Y140256D01*
X758160Y141509D01*
X755739Y142158D01*
D02*
G37*
G36*
X730339D02*
X727832D01*
X725411Y141509D01*
X723240Y140256D01*
X721468Y138484D01*
X720214Y136313D01*
X719566Y133891D01*
Y131385D01*
X720214Y128964D01*
X721468Y126793D01*
X723240Y125020D01*
X725411Y123767D01*
X727832Y123118D01*
X730339D01*
X732760Y123767D01*
X734931Y125020D01*
X736703Y126793D01*
X737957Y128964D01*
X738605Y131385D01*
Y133891D01*
X737957Y136313D01*
X736703Y138484D01*
X734931Y140256D01*
X732760Y141509D01*
X730339Y142158D01*
D02*
G37*
G36*
X704939D02*
X702432D01*
X700011Y141509D01*
X697840Y140256D01*
X696068Y138484D01*
X694814Y136313D01*
X694165Y133891D01*
Y131385D01*
X694814Y128964D01*
X696068Y126793D01*
X697840Y125020D01*
X700011Y123767D01*
X702432Y123118D01*
X704939D01*
X707360Y123767D01*
X709531Y125020D01*
X711303Y126793D01*
X712557Y128964D01*
X713205Y131385D01*
Y133891D01*
X712557Y136313D01*
X711303Y138484D01*
X709531Y140256D01*
X707360Y141509D01*
X704939Y142158D01*
D02*
G37*
G36*
X679539D02*
X677032D01*
X674611Y141509D01*
X672440Y140256D01*
X670668Y138484D01*
X669414Y136313D01*
X668765Y133891D01*
Y131385D01*
X669414Y128964D01*
X670668Y126793D01*
X672440Y125020D01*
X674611Y123767D01*
X677032Y123118D01*
X679539D01*
X681960Y123767D01*
X684131Y125020D01*
X685903Y126793D01*
X687157Y128964D01*
X687805Y131385D01*
Y133891D01*
X687157Y136313D01*
X685903Y138484D01*
X684131Y140256D01*
X681960Y141509D01*
X679539Y142158D01*
D02*
G37*
G36*
X654139D02*
X651632D01*
X649211Y141509D01*
X647040Y140256D01*
X645268Y138484D01*
X644014Y136313D01*
X643365Y133891D01*
Y131385D01*
X644014Y128964D01*
X645268Y126793D01*
X647040Y125020D01*
X649211Y123767D01*
X651632Y123118D01*
X654139D01*
X656560Y123767D01*
X658731Y125020D01*
X660503Y126793D01*
X661757Y128964D01*
X662405Y131385D01*
Y133891D01*
X661757Y136313D01*
X660503Y138484D01*
X658731Y140256D01*
X656560Y141509D01*
X654139Y142158D01*
D02*
G37*
G36*
X628739D02*
X626232D01*
X623811Y141509D01*
X621640Y140256D01*
X619868Y138484D01*
X618614Y136313D01*
X617966Y133891D01*
Y131385D01*
X618614Y128964D01*
X619868Y126793D01*
X621640Y125020D01*
X623811Y123767D01*
X626232Y123118D01*
X628739D01*
X631160Y123767D01*
X633331Y125020D01*
X635103Y126793D01*
X636357Y128964D01*
X637006Y131385D01*
Y133891D01*
X636357Y136313D01*
X635103Y138484D01*
X633331Y140256D01*
X631160Y141509D01*
X628739Y142158D01*
D02*
G37*
G36*
X603339D02*
X600832D01*
X598411Y141509D01*
X596240Y140256D01*
X594468Y138484D01*
X593214Y136313D01*
X592565Y133891D01*
Y131385D01*
X593214Y128964D01*
X594468Y126793D01*
X596240Y125020D01*
X598411Y123767D01*
X600832Y123118D01*
X603339D01*
X605760Y123767D01*
X607931Y125020D01*
X609703Y126793D01*
X610957Y128964D01*
X611605Y131385D01*
Y133891D01*
X610957Y136313D01*
X609703Y138484D01*
X607931Y140256D01*
X605760Y141509D01*
X603339Y142158D01*
D02*
G37*
G36*
X577939D02*
X575432D01*
X573011Y141509D01*
X570840Y140256D01*
X569068Y138484D01*
X567814Y136313D01*
X567165Y133891D01*
Y131385D01*
X567814Y128964D01*
X569068Y126793D01*
X570840Y125020D01*
X573011Y123767D01*
X575432Y123118D01*
X577939D01*
X580360Y123767D01*
X582531Y125020D01*
X584303Y126793D01*
X585557Y128964D01*
X586205Y131385D01*
Y133891D01*
X585557Y136313D01*
X584303Y138484D01*
X582531Y140256D01*
X580360Y141509D01*
X577939Y142158D01*
D02*
G37*
G36*
X65770Y129270D02*
X48230D01*
Y111730D01*
X65770D01*
Y129270D01*
D02*
G37*
G36*
X192849Y117270D02*
X191151D01*
X189581Y116620D01*
X188380Y115419D01*
X187730Y113849D01*
Y112151D01*
X188380Y110581D01*
X189581Y109380D01*
X191151Y108730D01*
X192849D01*
X194419Y109380D01*
X195620Y110581D01*
X196270Y112151D01*
Y113849D01*
X195620Y115419D01*
X194419Y116620D01*
X192849Y117270D01*
D02*
G37*
G36*
X273153Y122560D02*
X270647D01*
X268225Y121911D01*
X266055Y120658D01*
X264282Y118885D01*
X263029Y116715D01*
X262380Y114293D01*
Y111787D01*
X263029Y109365D01*
X264282Y107195D01*
X266055Y105422D01*
X268225Y104169D01*
X270647Y103520D01*
X273153D01*
X275575Y104169D01*
X277745Y105422D01*
X279518Y107195D01*
X280771Y109365D01*
X281420Y111787D01*
Y114293D01*
X280771Y116715D01*
X279518Y118885D01*
X277745Y120658D01*
X275575Y121911D01*
X273153Y122560D01*
D02*
G37*
G36*
X247753Y122560D02*
X245247D01*
X242825Y121911D01*
X240655Y120658D01*
X238882Y118885D01*
X237629Y116714D01*
X236980Y114293D01*
Y111787D01*
X237629Y109365D01*
X238882Y107195D01*
X240655Y105422D01*
X242825Y104169D01*
X245247Y103520D01*
X247753D01*
X250175Y104169D01*
X252345Y105422D01*
X254118Y107195D01*
X255371Y109365D01*
X256020Y111787D01*
Y114293D01*
X255371Y116714D01*
X254118Y118885D01*
X252345Y120658D01*
X250175Y121911D01*
X247753Y122560D01*
D02*
G37*
G36*
X192849Y97270D02*
X191151D01*
X189581Y96620D01*
X188380Y95419D01*
X187730Y93849D01*
Y92151D01*
X188380Y90581D01*
X189581Y89380D01*
X191151Y88730D01*
X192849D01*
X194419Y89380D01*
X195620Y90581D01*
X196270Y92151D01*
Y93849D01*
X195620Y95419D01*
X194419Y96620D01*
X192849Y97270D01*
D02*
G37*
G36*
X247753Y97160D02*
X245247D01*
X242825Y96511D01*
X240655Y95258D01*
X238882Y93485D01*
X237629Y91315D01*
X236980Y88893D01*
Y86387D01*
X237629Y83965D01*
X238882Y81795D01*
X240655Y80022D01*
X242825Y78769D01*
X245247Y78120D01*
X247753D01*
X250175Y78769D01*
X252345Y80022D01*
X254118Y81795D01*
X255371Y83965D01*
X256020Y86387D01*
Y88893D01*
X255371Y91315D01*
X254118Y93485D01*
X252345Y95258D01*
X250175Y96511D01*
X247753Y97160D01*
D02*
G37*
G36*
X276025Y97266D02*
X267775D01*
X265670Y96847D01*
X263885Y95654D01*
X262693Y93870D01*
X262274Y91765D01*
Y83515D01*
X262693Y81410D01*
X263885Y79625D01*
X265670Y78433D01*
X267775Y78014D01*
X276025D01*
X278130Y78433D01*
X279915Y79625D01*
X281107Y81410D01*
X281526Y83515D01*
Y91765D01*
X281107Y93870D01*
X279915Y95654D01*
X278130Y96847D01*
X276025Y97266D01*
D02*
G37*
G36*
X873360Y75810D02*
X871040D01*
X868800Y75210D01*
X866790Y74050D01*
X865150Y72409D01*
X863990Y70401D01*
X863390Y68160D01*
Y65840D01*
X863990Y63599D01*
X865150Y61590D01*
X866790Y59950D01*
X868800Y58790D01*
X871040Y58190D01*
X873360D01*
X875601Y58790D01*
X877609Y59950D01*
X879250Y61590D01*
X880410Y63599D01*
X881010Y65840D01*
Y68160D01*
X880410Y70401D01*
X879250Y72409D01*
X877609Y74050D01*
X875601Y75210D01*
X873360Y75810D01*
D02*
G37*
G36*
X847960D02*
X845640D01*
X843400Y75210D01*
X841391Y74050D01*
X839750Y72409D01*
X838590Y70401D01*
X837990Y68160D01*
Y65840D01*
X838590Y63599D01*
X839750Y61590D01*
X841391Y59950D01*
X843400Y58790D01*
X845640Y58190D01*
X847960D01*
X850201Y58790D01*
X852209Y59950D01*
X853850Y61590D01*
X855010Y63599D01*
X855610Y65840D01*
Y68160D01*
X855010Y70401D01*
X853850Y72409D01*
X852209Y74050D01*
X850201Y75210D01*
X847960Y75810D01*
D02*
G37*
G36*
X822560D02*
X820240D01*
X817999Y75210D01*
X815991Y74050D01*
X814350Y72409D01*
X813190Y70401D01*
X812590Y68160D01*
Y65840D01*
X813190Y63599D01*
X814350Y61590D01*
X815991Y59950D01*
X817999Y58790D01*
X820240Y58190D01*
X822560D01*
X824800Y58790D01*
X826809Y59950D01*
X828450Y61590D01*
X829610Y63599D01*
X830210Y65840D01*
Y68160D01*
X829610Y70401D01*
X828450Y72409D01*
X826809Y74050D01*
X824800Y75210D01*
X822560Y75810D01*
D02*
G37*
G36*
X797160D02*
X794840D01*
X792599Y75210D01*
X790591Y74050D01*
X788950Y72409D01*
X787790Y70401D01*
X787190Y68160D01*
Y65840D01*
X787790Y63599D01*
X788950Y61590D01*
X790591Y59950D01*
X792599Y58790D01*
X794840Y58190D01*
X797160D01*
X799400Y58790D01*
X801410Y59950D01*
X803050Y61590D01*
X804210Y63599D01*
X804810Y65840D01*
Y68160D01*
X804210Y70401D01*
X803050Y72409D01*
X801410Y74050D01*
X799400Y75210D01*
X797160Y75810D01*
D02*
G37*
G36*
X771760D02*
X769440D01*
X767199Y75210D01*
X765191Y74050D01*
X763550Y72409D01*
X762390Y70401D01*
X761790Y68160D01*
Y65840D01*
X762390Y63599D01*
X763550Y61590D01*
X765191Y59950D01*
X767199Y58790D01*
X769440Y58190D01*
X771760D01*
X774000Y58790D01*
X776010Y59950D01*
X777650Y61590D01*
X778810Y63599D01*
X779410Y65840D01*
Y68160D01*
X778810Y70401D01*
X777650Y72409D01*
X776010Y74050D01*
X774000Y75210D01*
X771760Y75810D01*
D02*
G37*
G36*
X746360D02*
X744040D01*
X741799Y75210D01*
X739790Y74050D01*
X738150Y72409D01*
X736990Y70401D01*
X736390Y68160D01*
Y65840D01*
X736990Y63599D01*
X738150Y61590D01*
X739790Y59950D01*
X741799Y58790D01*
X744040Y58190D01*
X746360D01*
X748600Y58790D01*
X750610Y59950D01*
X752250Y61590D01*
X753410Y63599D01*
X754010Y65840D01*
Y68160D01*
X753410Y70401D01*
X752250Y72409D01*
X750610Y74050D01*
X748600Y75210D01*
X746360Y75810D01*
D02*
G37*
G36*
X720960D02*
X718640D01*
X716400Y75210D01*
X714390Y74050D01*
X712750Y72409D01*
X711590Y70401D01*
X710990Y68160D01*
Y65840D01*
X711590Y63599D01*
X712750Y61590D01*
X714390Y59950D01*
X716400Y58790D01*
X718640Y58190D01*
X720960D01*
X723201Y58790D01*
X725210Y59950D01*
X726850Y61590D01*
X728010Y63599D01*
X728610Y65840D01*
Y68160D01*
X728010Y70401D01*
X726850Y72409D01*
X725210Y74050D01*
X723201Y75210D01*
X720960Y75810D01*
D02*
G37*
G36*
X695560D02*
X693240D01*
X691000Y75210D01*
X688990Y74050D01*
X687350Y72409D01*
X686190Y70401D01*
X685590Y68160D01*
Y65840D01*
X686190Y63599D01*
X687350Y61590D01*
X688990Y59950D01*
X691000Y58790D01*
X693240Y58190D01*
X695560D01*
X697801Y58790D01*
X699809Y59950D01*
X701450Y61590D01*
X702610Y63599D01*
X703210Y65840D01*
Y68160D01*
X702610Y70401D01*
X701450Y72409D01*
X699809Y74050D01*
X697801Y75210D01*
X695560Y75810D01*
D02*
G37*
G36*
X670160D02*
X667840D01*
X665600Y75210D01*
X663590Y74050D01*
X661950Y72409D01*
X660790Y70401D01*
X660190Y68160D01*
Y65840D01*
X660790Y63599D01*
X661950Y61590D01*
X663590Y59950D01*
X665600Y58790D01*
X667840Y58190D01*
X670160D01*
X672401Y58790D01*
X674409Y59950D01*
X676050Y61590D01*
X677210Y63599D01*
X677810Y65840D01*
Y68160D01*
X677210Y70401D01*
X676050Y72409D01*
X674409Y74050D01*
X672401Y75210D01*
X670160Y75810D01*
D02*
G37*
G36*
X644760D02*
X642440D01*
X640200Y75210D01*
X638190Y74050D01*
X636550Y72409D01*
X635390Y70401D01*
X634790Y68160D01*
Y65840D01*
X635390Y63599D01*
X636550Y61590D01*
X638190Y59950D01*
X640200Y58790D01*
X642440Y58190D01*
X644760D01*
X647001Y58790D01*
X649009Y59950D01*
X650650Y61590D01*
X651810Y63599D01*
X652410Y65840D01*
Y68160D01*
X651810Y70401D01*
X650650Y72409D01*
X649009Y74050D01*
X647001Y75210D01*
X644760Y75810D01*
D02*
G37*
G36*
X619360D02*
X617040D01*
X614799Y75210D01*
X612790Y74050D01*
X611150Y72409D01*
X609990Y70401D01*
X609390Y68160D01*
Y65840D01*
X609990Y63599D01*
X611150Y61590D01*
X612790Y59950D01*
X614799Y58790D01*
X617040Y58190D01*
X619360D01*
X621600Y58790D01*
X623610Y59950D01*
X625250Y61590D01*
X626410Y63599D01*
X627010Y65840D01*
Y68160D01*
X626410Y70401D01*
X625250Y72409D01*
X623610Y74050D01*
X621600Y75210D01*
X619360Y75810D01*
D02*
G37*
G36*
X593960D02*
X591640D01*
X589399Y75210D01*
X587391Y74050D01*
X585750Y72409D01*
X584590Y70401D01*
X583990Y68160D01*
Y65840D01*
X584590Y63599D01*
X585750Y61590D01*
X587391Y59950D01*
X589399Y58790D01*
X591640Y58190D01*
X593960D01*
X596200Y58790D01*
X598209Y59950D01*
X599850Y61590D01*
X601010Y63599D01*
X601610Y65840D01*
Y68160D01*
X601010Y70401D01*
X599850Y72409D01*
X598209Y74050D01*
X596200Y75210D01*
X593960Y75810D01*
D02*
G37*
G36*
X568560D02*
X566240D01*
X563999Y75210D01*
X561991Y74050D01*
X560350Y72409D01*
X559190Y70401D01*
X558590Y68160D01*
Y65840D01*
X559190Y63599D01*
X560350Y61590D01*
X561991Y59950D01*
X563999Y58790D01*
X566240Y58190D01*
X568560D01*
X570801Y58790D01*
X572809Y59950D01*
X574450Y61590D01*
X575610Y63599D01*
X576210Y65840D01*
Y68160D01*
X575610Y70401D01*
X574450Y72409D01*
X572809Y74050D01*
X570801Y75210D01*
X568560Y75810D01*
D02*
G37*
G36*
X543160D02*
X540840D01*
X538600Y75210D01*
X536590Y74050D01*
X534950Y72409D01*
X533790Y70401D01*
X533190Y68160D01*
Y65840D01*
X533790Y63599D01*
X534950Y61590D01*
X536590Y59950D01*
X538600Y58790D01*
X540840Y58190D01*
X543160D01*
X545401Y58790D01*
X547410Y59950D01*
X549050Y61590D01*
X550210Y63599D01*
X550810Y65840D01*
Y68160D01*
X550210Y70401D01*
X549050Y72409D01*
X547410Y74050D01*
X545401Y75210D01*
X543160Y75810D01*
D02*
G37*
G36*
X517760D02*
X515440D01*
X513200Y75210D01*
X511190Y74050D01*
X509550Y72409D01*
X508390Y70401D01*
X507790Y68160D01*
Y65840D01*
X508390Y63599D01*
X509550Y61590D01*
X511190Y59950D01*
X513200Y58790D01*
X515440Y58190D01*
X517760D01*
X520000Y58790D01*
X522010Y59950D01*
X523650Y61590D01*
X524810Y63599D01*
X525410Y65840D01*
Y68160D01*
X524810Y70401D01*
X523650Y72409D01*
X522010Y74050D01*
X520000Y75210D01*
X517760Y75810D01*
D02*
G37*
G36*
X492360D02*
X490040D01*
X487799Y75210D01*
X485790Y74050D01*
X484150Y72409D01*
X482990Y70401D01*
X482390Y68160D01*
Y65840D01*
X482990Y63599D01*
X484150Y61590D01*
X485790Y59950D01*
X487799Y58790D01*
X490040Y58190D01*
X492360D01*
X494600Y58790D01*
X496609Y59950D01*
X498250Y61590D01*
X499410Y63599D01*
X500010Y65840D01*
Y68160D01*
X499410Y70401D01*
X498250Y72409D01*
X496609Y74050D01*
X494600Y75210D01*
X492360Y75810D01*
D02*
G37*
G36*
X466960D02*
X464640D01*
X462399Y75210D01*
X460391Y74050D01*
X458750Y72409D01*
X457590Y70401D01*
X456990Y68160D01*
Y65840D01*
X457590Y63599D01*
X458750Y61590D01*
X460391Y59950D01*
X462399Y58790D01*
X464640Y58190D01*
X466960D01*
X469201Y58790D01*
X471209Y59950D01*
X472850Y61590D01*
X474010Y63599D01*
X474610Y65840D01*
Y68160D01*
X474010Y70401D01*
X472850Y72409D01*
X471209Y74050D01*
X469201Y75210D01*
X466960Y75810D01*
D02*
G37*
G36*
X441560D02*
X439240D01*
X437000Y75210D01*
X434991Y74050D01*
X433350Y72409D01*
X432190Y70401D01*
X431590Y68160D01*
Y65840D01*
X432190Y63599D01*
X433350Y61590D01*
X434991Y59950D01*
X437000Y58790D01*
X439240Y58190D01*
X441560D01*
X443801Y58790D01*
X445810Y59950D01*
X447450Y61590D01*
X448610Y63599D01*
X449210Y65840D01*
Y68160D01*
X448610Y70401D01*
X447450Y72409D01*
X445810Y74050D01*
X443801Y75210D01*
X441560Y75810D01*
D02*
G37*
G36*
X416160D02*
X413840D01*
X411600Y75210D01*
X409590Y74050D01*
X407950Y72409D01*
X406790Y70401D01*
X406190Y68160D01*
Y65840D01*
X406790Y63599D01*
X407950Y61590D01*
X409590Y59950D01*
X411600Y58790D01*
X413840Y58190D01*
X416160D01*
X418400Y58790D01*
X420410Y59950D01*
X422050Y61590D01*
X423210Y63599D01*
X423810Y65840D01*
Y68160D01*
X423210Y70401D01*
X422050Y72409D01*
X420410Y74050D01*
X418400Y75210D01*
X416160Y75810D01*
D02*
G37*
G36*
X390760D02*
X388440D01*
X386199Y75210D01*
X384190Y74050D01*
X382550Y72409D01*
X381390Y70401D01*
X380790Y68160D01*
Y65840D01*
X381390Y63599D01*
X382550Y61590D01*
X384190Y59950D01*
X386199Y58790D01*
X388440Y58190D01*
X390760D01*
X393000Y58790D01*
X395009Y59950D01*
X396650Y61590D01*
X397810Y63599D01*
X398410Y65840D01*
Y68160D01*
X397810Y70401D01*
X396650Y72409D01*
X395009Y74050D01*
X393000Y75210D01*
X390760Y75810D01*
D02*
G37*
G36*
X928148Y79020D02*
X924852D01*
X921667Y78167D01*
X918813Y76519D01*
X916481Y74187D01*
X914833Y71333D01*
X913980Y68148D01*
Y64852D01*
X914833Y61667D01*
X916481Y58813D01*
X918813Y56481D01*
X921667Y54833D01*
X924852Y53980D01*
X928148D01*
X931332Y54833D01*
X934187Y56481D01*
X936518Y58813D01*
X938167Y61667D01*
X939020Y64852D01*
Y68148D01*
X938167Y71333D01*
X936518Y74187D01*
X934187Y76519D01*
X931332Y78167D01*
X928148Y79020D01*
D02*
G37*
G36*
X58155Y64270D02*
X55845D01*
X53615Y63672D01*
X51615Y62518D01*
X49982Y60885D01*
X48828Y58885D01*
X48230Y56655D01*
Y54345D01*
X48828Y52115D01*
X49982Y50115D01*
X51615Y48482D01*
X53615Y47328D01*
X55845Y46730D01*
X58155D01*
X60385Y47328D01*
X62385Y48482D01*
X64018Y50115D01*
X65172Y52115D01*
X65770Y54345D01*
Y56655D01*
X65172Y58885D01*
X64018Y60885D01*
X62385Y62518D01*
X60385Y63672D01*
X58155Y64270D01*
D02*
G37*
%LPD*%
G36*
X969300Y552599D02*
X969500Y552000D01*
Y503500D01*
X962604Y496604D01*
X961450Y497269D01*
X959029Y497918D01*
X956522D01*
X954101Y497269D01*
X951930Y496016D01*
X950158Y494244D01*
X948904Y492073D01*
X948255Y489651D01*
Y487145D01*
X948904Y484724D01*
X949570Y483570D01*
X937204Y471203D01*
X936050Y471869D01*
X933629Y472518D01*
X931122D01*
X928701Y471869D01*
X926530Y470616D01*
X924758Y468844D01*
X923504Y466673D01*
X922856Y464252D01*
Y461745D01*
X923504Y459324D01*
X924170Y458170D01*
X892250Y426250D01*
X811292Y381708D01*
X752715Y388579D01*
X752073Y389674D01*
X752270Y390151D01*
Y391849D01*
X751620Y393419D01*
X750419Y394620D01*
X748849Y395270D01*
X747151D01*
X745581Y394620D01*
X744380Y393419D01*
X743730Y391849D01*
Y390911D01*
X742621Y389763D01*
X722910Y392075D01*
X722447Y393408D01*
X722620Y393581D01*
X723270Y395151D01*
Y396849D01*
X722620Y398419D01*
X721419Y399620D01*
X719849Y400270D01*
X718151D01*
X716581Y399620D01*
X715380Y398419D01*
X714730Y396849D01*
Y395151D01*
X715095Y394271D01*
X714206Y393096D01*
X706500Y394000D01*
X706808Y405559D01*
X708084Y405795D01*
X708380Y405081D01*
X709581Y403880D01*
X711151Y403230D01*
X712849D01*
X714419Y403880D01*
X715620Y405081D01*
X716270Y406651D01*
Y408349D01*
X715620Y409919D01*
X714419Y411120D01*
X712849Y411770D01*
X711151D01*
X709581Y411120D01*
X708380Y409919D01*
X708181Y409439D01*
X706918Y409708D01*
X707383Y427185D01*
X708660Y427421D01*
X708682Y427368D01*
X709883Y426167D01*
X711453Y425517D01*
X713151D01*
X714721Y426167D01*
X715922Y427368D01*
X716572Y428937D01*
Y430636D01*
X715922Y432206D01*
X714721Y433407D01*
X713151Y434057D01*
X711453D01*
X709883Y433407D01*
X708790Y432314D01*
X708292Y432378D01*
X707530Y432713D01*
X707754Y441105D01*
X708419Y441380D01*
X709620Y442581D01*
X710270Y444151D01*
Y445849D01*
X709620Y447419D01*
X708419Y448620D01*
X707959Y448810D01*
X710000Y525500D01*
X779546Y536387D01*
X779880Y535581D01*
X781081Y534380D01*
X782651Y533730D01*
X784349D01*
X785919Y534380D01*
X786685Y535147D01*
X787500Y535443D01*
X788315Y535147D01*
X789081Y534380D01*
X790651Y533730D01*
X792349D01*
X793919Y534380D01*
X794685Y535147D01*
X795500Y535443D01*
X796315Y535147D01*
X797081Y534380D01*
X798651Y533730D01*
X800349D01*
X801919Y534380D01*
X803120Y535581D01*
X803770Y537151D01*
Y538849D01*
X803646Y539149D01*
X804267Y540257D01*
X924000Y559000D01*
X969300Y552599D01*
D02*
G37*
%LPC*%
G36*
X959029Y523318D02*
X956522D01*
X954101Y522669D01*
X951930Y521416D01*
X950158Y519644D01*
X948904Y517473D01*
X948255Y515051D01*
Y512545D01*
X948904Y510124D01*
X950158Y507953D01*
X951930Y506180D01*
X954101Y504927D01*
X956522Y504278D01*
X959029D01*
X961450Y504927D01*
X963621Y506180D01*
X965393Y507953D01*
X966647Y510124D01*
X967296Y512545D01*
Y515051D01*
X966647Y517473D01*
X965393Y519644D01*
X963621Y521416D01*
X961450Y522669D01*
X959029Y523318D01*
D02*
G37*
G36*
X933629D02*
X931122D01*
X928701Y522669D01*
X926530Y521416D01*
X924758Y519644D01*
X923504Y517473D01*
X922856Y515051D01*
Y512545D01*
X923504Y510124D01*
X924758Y507953D01*
X926530Y506180D01*
X928701Y504927D01*
X931122Y504278D01*
X933629D01*
X936050Y504927D01*
X938221Y506180D01*
X939993Y507953D01*
X941247Y510124D01*
X941896Y512545D01*
Y515051D01*
X941247Y517473D01*
X939993Y519644D01*
X938221Y521416D01*
X936050Y522669D01*
X933629Y523318D01*
D02*
G37*
G36*
X787440Y494212D02*
X785434D01*
X783496Y493693D01*
X781758Y492690D01*
X780340Y491271D01*
X779337Y489533D01*
X778817Y487595D01*
Y485589D01*
X779337Y483651D01*
X780340Y481913D01*
X781758Y480495D01*
X783496Y479492D01*
X785434Y478972D01*
X787440D01*
X789379Y479492D01*
X791116Y480495D01*
X792535Y481913D01*
X793538Y483651D01*
X794057Y485589D01*
Y487595D01*
X793538Y489533D01*
X792535Y491271D01*
X791116Y492690D01*
X789379Y493693D01*
X787440Y494212D01*
D02*
G37*
G36*
X933629Y497918D02*
X931122D01*
X928701Y497269D01*
X926530Y496016D01*
X924758Y494244D01*
X923504Y492073D01*
X922856Y489651D01*
Y487145D01*
X923504Y484724D01*
X924758Y482553D01*
X926530Y480780D01*
X928701Y479527D01*
X931122Y478878D01*
X933629D01*
X936050Y479527D01*
X938221Y480780D01*
X939993Y482553D01*
X941247Y484724D01*
X941896Y487145D01*
Y489651D01*
X941247Y492073D01*
X939993Y494244D01*
X938221Y496016D01*
X936050Y497269D01*
X933629Y497918D01*
D02*
G37*
G36*
X800731Y480921D02*
X798725D01*
X796787Y480402D01*
X795049Y479399D01*
X793631Y477980D01*
X792627Y476243D01*
X792108Y474305D01*
Y472298D01*
X792627Y470360D01*
X793631Y468623D01*
X795049Y467204D01*
X796787Y466201D01*
X798725Y465681D01*
X800731D01*
X802669Y466201D01*
X804407Y467204D01*
X805826Y468623D01*
X806829Y470360D01*
X807348Y472298D01*
Y474305D01*
X806829Y476243D01*
X805826Y477980D01*
X804407Y479399D01*
X802669Y480402D01*
X800731Y480921D01*
D02*
G37*
G36*
X773970Y480742D02*
X771964D01*
X770026Y480223D01*
X768288Y479219D01*
X766869Y477801D01*
X765866Y476063D01*
X765347Y474125D01*
Y472119D01*
X765866Y470181D01*
X766869Y468443D01*
X768288Y467024D01*
X770026Y466021D01*
X771964Y465502D01*
X773970D01*
X775908Y466021D01*
X777646Y467024D01*
X779064Y468443D01*
X780068Y470181D01*
X780587Y472119D01*
Y474125D01*
X780068Y476063D01*
X779064Y477801D01*
X777646Y479219D01*
X775908Y480223D01*
X773970Y480742D01*
D02*
G37*
G36*
X873692Y489241D02*
X871994D01*
X870424Y488591D01*
X869223Y487389D01*
X868573Y485820D01*
Y484736D01*
X868207Y483950D01*
X867421Y483584D01*
X866337D01*
X864768Y482934D01*
X863566Y481732D01*
X862916Y480163D01*
Y478464D01*
X863566Y476895D01*
X864768Y475694D01*
X866337Y475044D01*
X867421D01*
X868207Y474677D01*
X868573Y473892D01*
Y472808D01*
X869223Y471238D01*
X870424Y470037D01*
X871994Y469387D01*
X873078D01*
X873864Y469020D01*
X874230Y468235D01*
Y467151D01*
X874880Y465581D01*
X876081Y464380D01*
X877651Y463730D01*
X879349D01*
X880919Y464380D01*
X882120Y465581D01*
X882770Y467151D01*
Y468235D01*
X883137Y469020D01*
X883922Y469387D01*
X885006D01*
X886576Y470037D01*
X887777Y471238D01*
X888427Y472808D01*
Y474506D01*
X887777Y476076D01*
X886576Y477277D01*
X885006Y477927D01*
X883922D01*
X883137Y478293D01*
X882770Y479079D01*
Y480163D01*
X882120Y481732D01*
X880919Y482934D01*
X879349Y483584D01*
X878265D01*
X877480Y483950D01*
X877113Y484736D01*
Y485820D01*
X876463Y487389D01*
X875262Y488591D01*
X873692Y489241D01*
D02*
G37*
G36*
X813304Y468349D02*
X811297D01*
X809359Y467830D01*
X807622Y466827D01*
X806203Y465408D01*
X805200Y463670D01*
X804680Y461732D01*
Y459726D01*
X805200Y457788D01*
X806203Y456050D01*
X807622Y454632D01*
X809359Y453628D01*
X811297Y453109D01*
X813304D01*
X815242Y453628D01*
X816979Y454632D01*
X818398Y456050D01*
X819401Y457788D01*
X819920Y459726D01*
Y461732D01*
X819401Y463670D01*
X818398Y465408D01*
X816979Y466827D01*
X815242Y467830D01*
X813304Y468349D01*
D02*
G37*
G36*
X761577Y467990D02*
X759571D01*
X757633Y467471D01*
X755895Y466467D01*
X754477Y465049D01*
X753473Y463311D01*
X752954Y461373D01*
Y459367D01*
X753473Y457429D01*
X754477Y455691D01*
X755895Y454272D01*
X757633Y453269D01*
X759571Y452750D01*
X761577D01*
X763515Y453269D01*
X765253Y454272D01*
X766672Y455691D01*
X767675Y457429D01*
X768194Y459367D01*
Y461373D01*
X767675Y463311D01*
X766672Y465049D01*
X765253Y466467D01*
X763515Y467471D01*
X761577Y467990D01*
D02*
G37*
G36*
X786896Y467816D02*
X784890D01*
X782952Y467297D01*
X781214Y466293D01*
X779795Y464875D01*
X778792Y463137D01*
X778273Y461199D01*
Y459193D01*
X778792Y457255D01*
X779795Y455517D01*
X781214Y454098D01*
X782952Y453095D01*
X784890Y452576D01*
X786896D01*
X788834Y453095D01*
X790572Y454098D01*
X791990Y455517D01*
X792993Y457255D01*
X793513Y459193D01*
Y461199D01*
X792993Y463137D01*
X791990Y464875D01*
X790572Y466293D01*
X788834Y467297D01*
X786896Y467816D01*
D02*
G37*
G36*
X774329Y455238D02*
X772323D01*
X770385Y454719D01*
X768647Y453716D01*
X767229Y452297D01*
X766225Y450559D01*
X765706Y448621D01*
Y446615D01*
X766225Y444677D01*
X767229Y442939D01*
X768647Y441520D01*
X770385Y440517D01*
X772323Y439998D01*
X774329D01*
X776267Y440517D01*
X778005Y441520D01*
X779424Y442939D01*
X780427Y444677D01*
X780946Y446615D01*
Y448621D01*
X780427Y450559D01*
X779424Y452297D01*
X778005Y453716D01*
X776267Y454719D01*
X774329Y455238D01*
D02*
G37*
G36*
X799833Y454879D02*
X797827D01*
X795889Y454359D01*
X794151Y453356D01*
X792732Y451937D01*
X791729Y450200D01*
X791210Y448262D01*
Y446255D01*
X791729Y444318D01*
X792732Y442580D01*
X794151Y441161D01*
X795889Y440158D01*
X797827Y439639D01*
X799833D01*
X801771Y440158D01*
X803509Y441161D01*
X804928Y442580D01*
X805931Y444318D01*
X806450Y446255D01*
Y448262D01*
X805931Y450200D01*
X804928Y451937D01*
X803509Y453356D01*
X801771Y454359D01*
X799833Y454879D01*
D02*
G37*
G36*
X787261Y442306D02*
X785255D01*
X783316Y441787D01*
X781579Y440784D01*
X780160Y439365D01*
X779157Y437627D01*
X778638Y435690D01*
Y433683D01*
X779157Y431745D01*
X780160Y430008D01*
X781579Y428589D01*
X783316Y427586D01*
X785255Y427066D01*
X787261D01*
X789199Y427586D01*
X790937Y428589D01*
X792355Y430008D01*
X793358Y431745D01*
X793878Y433683D01*
Y435690D01*
X793358Y437627D01*
X792355Y439365D01*
X790937Y440784D01*
X789199Y441787D01*
X787261Y442306D01*
D02*
G37*
G36*
X759849Y428270D02*
X758151D01*
X756581Y427620D01*
X755380Y426419D01*
X754730Y424849D01*
Y423151D01*
X755380Y421581D01*
X756581Y420380D01*
X758151Y419730D01*
X759849D01*
X761419Y420380D01*
X762620Y421581D01*
X763270Y423151D01*
Y424849D01*
X762620Y426419D01*
X761419Y427620D01*
X759849Y428270D01*
D02*
G37*
G36*
X819849Y425270D02*
X818151D01*
X816581Y424620D01*
X815380Y423419D01*
X814730Y421849D01*
Y420151D01*
X815380Y418581D01*
X816581Y417380D01*
X818151Y416730D01*
X819849D01*
X821419Y417380D01*
X822620Y418581D01*
X823270Y420151D01*
Y421849D01*
X822620Y423419D01*
X821419Y424620D01*
X819849Y425270D01*
D02*
G37*
G36*
X802721Y416642D02*
X801022D01*
X799453Y415992D01*
X798252Y414790D01*
X797602Y413221D01*
Y411522D01*
X798252Y409953D01*
X799453Y408752D01*
X801022Y408102D01*
X802721D01*
X804290Y408752D01*
X805492Y409953D01*
X806142Y411522D01*
Y413221D01*
X805492Y414790D01*
X804290Y415992D01*
X802721Y416642D01*
D02*
G37*
G36*
X828849Y416270D02*
X827151D01*
X825581Y415620D01*
X824380Y414419D01*
X823730Y412849D01*
Y411151D01*
X824380Y409581D01*
X825581Y408380D01*
X827151Y407730D01*
X828849D01*
X830419Y408380D01*
X831620Y409581D01*
X832270Y411151D01*
Y412849D01*
X831620Y414419D01*
X830419Y415620D01*
X828849Y416270D01*
D02*
G37*
G36*
X724849Y412770D02*
X723151D01*
X721581Y412120D01*
X720380Y410919D01*
X719730Y409349D01*
Y407651D01*
X720380Y406081D01*
X721581Y404880D01*
X723151Y404230D01*
X724849D01*
X726419Y404880D01*
X727620Y406081D01*
X728270Y407651D01*
Y409349D01*
X727620Y410919D01*
X726419Y412120D01*
X724849Y412770D01*
D02*
G37*
G36*
X736835Y407553D02*
X735137D01*
X733567Y406903D01*
X732366Y405702D01*
X731716Y404132D01*
Y402434D01*
X732366Y400864D01*
X733567Y399663D01*
X735137Y399013D01*
X736835D01*
X738405Y399663D01*
X739606Y400864D01*
X740256Y402434D01*
Y404132D01*
X739606Y405702D01*
X738405Y406903D01*
X736835Y407553D01*
D02*
G37*
G36*
X838349Y407270D02*
X836651D01*
X835081Y406620D01*
X833880Y405419D01*
X833230Y403849D01*
Y402151D01*
X833880Y400581D01*
X835081Y399380D01*
X836651Y398730D01*
X838349D01*
X839919Y399380D01*
X841120Y400581D01*
X841770Y402151D01*
Y403849D01*
X841120Y405419D01*
X839919Y406620D01*
X838349Y407270D01*
D02*
G37*
%LPD*%
G36*
X960919Y521388D02*
X962777Y520316D01*
X964293Y518800D01*
X965366Y516942D01*
X965921Y514870D01*
Y512726D01*
X965366Y510654D01*
X964293Y508797D01*
X962777Y507280D01*
X960919Y506208D01*
X958848Y505653D01*
X956703D01*
X954632Y506208D01*
X952774Y507280D01*
X951257Y508797D01*
X950185Y510654D01*
X949630Y512726D01*
Y514870D01*
X950185Y516942D01*
X951257Y518800D01*
X952774Y520316D01*
X954632Y521388D01*
X956703Y521944D01*
X958848D01*
X960919Y521388D01*
D02*
G37*
G36*
X935519D02*
X937377Y520316D01*
X938893Y518800D01*
X939966Y516942D01*
X940521Y514870D01*
Y512726D01*
X939966Y510654D01*
X938893Y508797D01*
X937377Y507280D01*
X935519Y506208D01*
X933448Y505653D01*
X931303D01*
X929231Y506208D01*
X927374Y507280D01*
X925857Y508797D01*
X924785Y510654D01*
X924230Y512726D01*
Y514870D01*
X924785Y516942D01*
X925857Y518800D01*
X927374Y520316D01*
X929231Y521388D01*
X931303Y521944D01*
X933448D01*
X935519Y521388D01*
D02*
G37*
G36*
X874483Y487425D02*
X875298Y486611D01*
X875739Y485546D01*
Y484736D01*
X875854Y484456D01*
X875867Y484155D01*
X876234Y483369D01*
X876581Y483051D01*
X876898Y482705D01*
X877684Y482338D01*
X877986Y482325D01*
X878265Y482209D01*
X879076D01*
X880140Y481768D01*
X880955Y480954D01*
X881395Y479890D01*
Y479079D01*
X881511Y478800D01*
X881524Y478498D01*
X881891Y477712D01*
X882238Y477394D01*
X882555Y477048D01*
X883341Y476681D01*
X883643Y476668D01*
X883922Y476552D01*
X884733D01*
X885797Y476111D01*
X886611Y475297D01*
X887052Y474233D01*
Y473081D01*
X886611Y472017D01*
X885797Y471202D01*
X884733Y470761D01*
X883922D01*
X883643Y470646D01*
X883341Y470633D01*
X882555Y470266D01*
X882238Y469919D01*
X881891Y469602D01*
X881524Y468816D01*
X881511Y468514D01*
X881395Y468235D01*
Y467424D01*
X880955Y466360D01*
X880140Y465545D01*
X879076Y465105D01*
X877924D01*
X876860Y465545D01*
X876045Y466360D01*
X875605Y467424D01*
Y468235D01*
X875489Y468514D01*
X875476Y468816D01*
X875109Y469602D01*
X874762Y469919D01*
X874445Y470266D01*
X873659Y470633D01*
X873357Y470646D01*
X873078Y470761D01*
X872267D01*
X871203Y471202D01*
X870389Y472017D01*
X869948Y473081D01*
Y473892D01*
X869832Y474171D01*
X869819Y474473D01*
X869452Y475258D01*
X869106Y475576D01*
X868788Y475923D01*
X868002Y476289D01*
X867700Y476303D01*
X867421Y476418D01*
X866610D01*
X865546Y476859D01*
X864732Y477674D01*
X864291Y478738D01*
Y479890D01*
X864732Y480954D01*
X865546Y481768D01*
X866610Y482209D01*
X867421D01*
X867700Y482325D01*
X868002Y482338D01*
X868788Y482705D01*
X869106Y483051D01*
X869452Y483369D01*
X869819Y484155D01*
X869832Y484456D01*
X869948Y484736D01*
Y485546D01*
X870389Y486611D01*
X871203Y487425D01*
X872267Y487866D01*
X873419D01*
X874483Y487425D01*
D02*
G37*
G36*
X584472Y626028D02*
X592850Y617650D01*
X592595Y616702D01*
Y614195D01*
X593244Y611774D01*
X594498Y609603D01*
X596270Y607830D01*
X598441Y606577D01*
X600862Y605928D01*
X603369D01*
X603469Y605955D01*
X606278Y600024D01*
X605339Y599040D01*
X603369Y599568D01*
X600862D01*
X598441Y598919D01*
X596270Y597666D01*
X594498Y595894D01*
X593244Y593723D01*
X592595Y591301D01*
Y588795D01*
X593244Y586374D01*
X594498Y584203D01*
X596270Y582430D01*
X598441Y581177D01*
X600862Y580528D01*
X603369D01*
X605790Y581177D01*
X607961Y582430D01*
X609733Y584203D01*
X610987Y586374D01*
X611145Y586965D01*
X612410Y587079D01*
X619500Y572111D01*
Y476569D01*
X618230Y476043D01*
X618114Y476159D01*
X616544Y476810D01*
X614846D01*
X613276Y476159D01*
X612075Y474958D01*
X611425Y473389D01*
Y471690D01*
X612075Y470121D01*
X613276Y468920D01*
X614846Y468270D01*
X616544D01*
X618114Y468920D01*
X618230Y469036D01*
X619500Y468510D01*
Y442793D01*
X619081Y442620D01*
X617880Y441419D01*
X617230Y439849D01*
Y438151D01*
X617880Y436581D01*
X619081Y435380D01*
X619500Y435207D01*
Y407500D01*
X594000D01*
X576540Y424960D01*
X577066Y426230D01*
X577849D01*
X579419Y426880D01*
X580620Y428081D01*
X581270Y429651D01*
Y431342D01*
X581291Y431363D01*
X582352Y432057D01*
X582608Y431800D01*
X584178Y431150D01*
X585876D01*
X587446Y431800D01*
X588647Y433001D01*
X589297Y434571D01*
Y436269D01*
X588647Y437839D01*
X587446Y439040D01*
X585876Y439690D01*
X584178D01*
X582608Y439040D01*
X581407Y437839D01*
X580757Y436269D01*
Y434578D01*
X580736Y434557D01*
X579675Y433863D01*
X579419Y434120D01*
X577849Y434770D01*
X576151D01*
X574581Y434120D01*
X573380Y432919D01*
X572730Y431349D01*
Y430566D01*
X571460Y430040D01*
X539000Y462500D01*
Y470000D01*
X538414Y562964D01*
X539419Y563380D01*
X540620Y564581D01*
X541270Y566151D01*
Y567849D01*
X540620Y569419D01*
X539419Y570620D01*
X538362Y571058D01*
X538346Y573721D01*
X538507Y573882D01*
X539157Y575452D01*
Y577150D01*
X538507Y578720D01*
X538313Y578913D01*
X538000Y628500D01*
X538972Y629472D01*
X584472D01*
Y626028D01*
D02*
G37*
%LPC*%
G36*
X577969Y624968D02*
X575462D01*
X573041Y624319D01*
X570870Y623066D01*
X569098Y621294D01*
X567844Y619123D01*
X567196Y616702D01*
Y614195D01*
X567844Y611774D01*
X569098Y609603D01*
X570870Y607830D01*
X573041Y606577D01*
X575462Y605928D01*
X577969D01*
X580390Y606577D01*
X582561Y607830D01*
X584333Y609603D01*
X585587Y611774D01*
X586236Y614195D01*
Y616702D01*
X585587Y619123D01*
X584333Y621294D01*
X582561Y623066D01*
X580390Y624319D01*
X577969Y624968D01*
D02*
G37*
G36*
Y599568D02*
X575462D01*
X573041Y598919D01*
X570870Y597666D01*
X569098Y595894D01*
X567844Y593723D01*
X567196Y591301D01*
Y588795D01*
X567844Y586374D01*
X569098Y584203D01*
X570870Y582430D01*
X573041Y581177D01*
X575462Y580528D01*
X577969D01*
X580390Y581177D01*
X582561Y582430D01*
X584333Y584203D01*
X585587Y586374D01*
X586236Y588795D01*
Y591301D01*
X585587Y593723D01*
X584333Y595894D01*
X582561Y597666D01*
X580390Y598919D01*
X577969Y599568D01*
D02*
G37*
G36*
X568849Y541270D02*
X567151D01*
X565581Y540620D01*
X564380Y539419D01*
X563730Y537849D01*
Y536151D01*
X564380Y534581D01*
X565581Y533380D01*
X567151Y532730D01*
X568849D01*
X570419Y533380D01*
X571620Y534581D01*
X572270Y536151D01*
Y537849D01*
X571620Y539419D01*
X570419Y540620D01*
X568849Y541270D01*
D02*
G37*
G36*
X555725Y532223D02*
X554026D01*
X552457Y531572D01*
X551256Y530371D01*
X550606Y528802D01*
Y527103D01*
X551256Y525534D01*
X552457Y524333D01*
X554026Y523683D01*
X555725D01*
X557295Y524333D01*
X558496Y525534D01*
X559146Y527103D01*
Y528802D01*
X558496Y530371D01*
X557295Y531572D01*
X555725Y532223D01*
D02*
G37*
G36*
X577349Y534770D02*
X575651D01*
X574081Y534120D01*
X572880Y532919D01*
X572230Y531349D01*
Y529651D01*
X572880Y528081D01*
X574081Y526880D01*
X575651Y526230D01*
X577349D01*
X578281Y526616D01*
X579001Y525539D01*
X578880Y525419D01*
X578230Y523849D01*
Y522151D01*
X578880Y520581D01*
X580081Y519380D01*
X581651Y518730D01*
X583349D01*
X584919Y519380D01*
X586120Y520581D01*
X586770Y522151D01*
Y523849D01*
X586120Y525419D01*
X584919Y526620D01*
X583349Y527270D01*
X581651D01*
X580719Y526884D01*
X579999Y527961D01*
X580120Y528081D01*
X580770Y529651D01*
Y531349D01*
X580120Y532919D01*
X578919Y534120D01*
X577349Y534770D01*
D02*
G37*
G36*
X594154Y514021D02*
X592456D01*
X590886Y513371D01*
X589685Y512170D01*
X589035Y510601D01*
Y508902D01*
X589685Y507332D01*
X590886Y506131D01*
X592456Y505481D01*
X594154D01*
X594995Y505829D01*
X595631Y505175D01*
X595831Y504801D01*
X595230Y503349D01*
Y501651D01*
X595880Y500081D01*
X597081Y498880D01*
X598651Y498230D01*
X600349D01*
X601919Y498880D01*
X603120Y500081D01*
X603770Y501651D01*
Y503349D01*
X603120Y504919D01*
X601919Y506120D01*
X600349Y506770D01*
X598651D01*
X597810Y506422D01*
X597174Y507076D01*
X596973Y507450D01*
X597575Y508902D01*
Y510601D01*
X596925Y512170D01*
X595724Y513371D01*
X594154Y514021D01*
D02*
G37*
G36*
X581849Y504770D02*
X580151D01*
X578581Y504120D01*
X577380Y502919D01*
X576730Y501349D01*
Y499651D01*
X577380Y498081D01*
X578581Y496880D01*
X580151Y496230D01*
X581849D01*
X583419Y496880D01*
X584620Y498081D01*
X585270Y499651D01*
Y501349D01*
X584620Y502919D01*
X583419Y504120D01*
X581849Y504770D01*
D02*
G37*
%LPD*%
G36*
X579860Y623038D02*
X581717Y621966D01*
X583233Y620449D01*
X584306Y618592D01*
X584861Y616521D01*
Y614376D01*
X584306Y612304D01*
X583233Y610447D01*
X581717Y608930D01*
X579860Y607858D01*
X577788Y607303D01*
X575643D01*
X573572Y607858D01*
X571714Y608930D01*
X570197Y610447D01*
X569125Y612304D01*
X568570Y614376D01*
Y616521D01*
X569125Y618592D01*
X570197Y620449D01*
X571714Y621966D01*
X573572Y623038D01*
X575643Y623593D01*
X577788D01*
X579860Y623038D01*
D02*
G37*
G36*
Y597638D02*
X581717Y596566D01*
X583233Y595049D01*
X584306Y593192D01*
X584861Y591120D01*
Y588976D01*
X584306Y586904D01*
X583233Y585047D01*
X581717Y583530D01*
X579860Y582458D01*
X577788Y581903D01*
X575643D01*
X573572Y582458D01*
X571714Y583530D01*
X570197Y585047D01*
X569125Y586904D01*
X568570Y588976D01*
Y591120D01*
X569125Y593192D01*
X570197Y595049D01*
X571714Y596566D01*
X573572Y597638D01*
X575643Y598194D01*
X577788D01*
X579860Y597638D01*
D02*
G37*
G36*
X664000Y347000D02*
Y292758D01*
X662730Y292232D01*
X662724Y292238D01*
X661155Y292888D01*
X659456D01*
X657887Y292238D01*
X656686Y291037D01*
X656036Y289468D01*
Y287769D01*
X656686Y286199D01*
X657887Y284998D01*
X659456Y284348D01*
X661155D01*
X662724Y284998D01*
X662730Y285004D01*
X664000Y284478D01*
Y197500D01*
X489000D01*
Y220000D01*
X494832Y226617D01*
X496721Y225527D01*
X499142Y224878D01*
X501649D01*
X504070Y225527D01*
X506241Y226780D01*
X508013Y228553D01*
X509267Y230724D01*
X509916Y233145D01*
Y235651D01*
X509267Y238073D01*
X508013Y240243D01*
X507391Y240866D01*
X515000Y249500D01*
X616000Y350500D01*
X660500D01*
X664000Y347000D01*
D02*
G37*
%LPC*%
G36*
X597787Y295771D02*
X596089D01*
X594519Y295121D01*
X593318Y293920D01*
X592668Y292350D01*
Y290652D01*
X593318Y289082D01*
X594519Y287881D01*
X596089Y287231D01*
X597787D01*
X599357Y287881D01*
X600558Y289082D01*
X601208Y290652D01*
Y292350D01*
X600558Y293920D01*
X599357Y295121D01*
X597787Y295771D01*
D02*
G37*
G36*
X585449Y278510D02*
X583751D01*
X582181Y277860D01*
X580980Y276659D01*
X580330Y275089D01*
Y273391D01*
X580980Y271821D01*
X582181Y270620D01*
X583751Y269970D01*
X585449D01*
X587019Y270620D01*
X588220Y271821D01*
X588870Y273391D01*
Y275089D01*
X588220Y276659D01*
X587019Y277860D01*
X585449Y278510D01*
D02*
G37*
G36*
X570209D02*
X568511D01*
X566941Y277860D01*
X565740Y276659D01*
X565090Y275089D01*
Y273391D01*
X565740Y271821D01*
X566941Y270620D01*
X568511Y269970D01*
X570209D01*
X571779Y270620D01*
X572980Y271821D01*
X573630Y273391D01*
Y275089D01*
X572980Y276659D01*
X571779Y277860D01*
X570209Y278510D01*
D02*
G37*
G36*
X554969D02*
X553271D01*
X551701Y277860D01*
X550500Y276659D01*
X549850Y275089D01*
Y273391D01*
X550500Y271821D01*
X551701Y270620D01*
X553271Y269970D01*
X554969D01*
X556539Y270620D01*
X557740Y271821D01*
X558390Y273391D01*
Y275089D01*
X557740Y276659D01*
X556539Y277860D01*
X554969Y278510D01*
D02*
G37*
G36*
X593069Y263270D02*
X591371D01*
X589801Y262620D01*
X588600Y261419D01*
X587950Y259849D01*
Y258151D01*
X588600Y256581D01*
X589801Y255380D01*
X591371Y254730D01*
X593069D01*
X594639Y255380D01*
X595840Y256581D01*
X596490Y258151D01*
Y259849D01*
X595840Y261419D01*
X594639Y262620D01*
X593069Y263270D01*
D02*
G37*
G36*
X577829D02*
X576131D01*
X574561Y262620D01*
X573360Y261419D01*
X572710Y259849D01*
Y258151D01*
X573360Y256581D01*
X574561Y255380D01*
X576131Y254730D01*
X577829D01*
X579399Y255380D01*
X580600Y256581D01*
X581250Y258151D01*
Y259849D01*
X580600Y261419D01*
X579399Y262620D01*
X577829Y263270D01*
D02*
G37*
G36*
X562589D02*
X560891D01*
X559321Y262620D01*
X558120Y261419D01*
X557470Y259849D01*
Y258151D01*
X558120Y256581D01*
X559321Y255380D01*
X560891Y254730D01*
X562589D01*
X564159Y255380D01*
X565360Y256581D01*
X566010Y258151D01*
Y259849D01*
X565360Y261419D01*
X564159Y262620D01*
X562589Y263270D01*
D02*
G37*
G36*
X547349D02*
X545651D01*
X544081Y262620D01*
X542880Y261419D01*
X542230Y259849D01*
Y258151D01*
X542880Y256581D01*
X544081Y255380D01*
X545651Y254730D01*
X547349D01*
X548919Y255380D01*
X550120Y256581D01*
X550770Y258151D01*
Y259849D01*
X550120Y261419D01*
X548919Y262620D01*
X547349Y263270D01*
D02*
G37*
G36*
X614949Y240510D02*
X613251D01*
X611681Y239860D01*
X610480Y238659D01*
X609830Y237089D01*
Y235391D01*
X610480Y233821D01*
X611681Y232620D01*
X613251Y231970D01*
X614949D01*
X616519Y232620D01*
X617720Y233821D01*
X618370Y235391D01*
Y237089D01*
X617720Y238659D01*
X616519Y239860D01*
X614949Y240510D01*
D02*
G37*
G36*
X599709D02*
X598011D01*
X596441Y239860D01*
X595240Y238659D01*
X594590Y237089D01*
Y235391D01*
X595240Y233821D01*
X596441Y232620D01*
X598011Y231970D01*
X599709D01*
X601279Y232620D01*
X602480Y233821D01*
X603130Y235391D01*
Y237089D01*
X602480Y238659D01*
X601279Y239860D01*
X599709Y240510D01*
D02*
G37*
G36*
X584469D02*
X582771D01*
X581201Y239860D01*
X580000Y238659D01*
X579350Y237089D01*
Y235391D01*
X580000Y233821D01*
X581201Y232620D01*
X582771Y231970D01*
X584469D01*
X586039Y232620D01*
X587240Y233821D01*
X587890Y235391D01*
Y237089D01*
X587240Y238659D01*
X586039Y239860D01*
X584469Y240510D01*
D02*
G37*
G36*
X622569Y225270D02*
X620871D01*
X619301Y224620D01*
X618100Y223419D01*
X617450Y221849D01*
Y220151D01*
X618100Y218581D01*
X619301Y217380D01*
X620871Y216730D01*
X622569D01*
X624139Y217380D01*
X625340Y218581D01*
X625990Y220151D01*
Y221849D01*
X625340Y223419D01*
X624139Y224620D01*
X622569Y225270D01*
D02*
G37*
G36*
X607329D02*
X605631D01*
X604061Y224620D01*
X602860Y223419D01*
X602210Y221849D01*
Y220151D01*
X602860Y218581D01*
X604061Y217380D01*
X605631Y216730D01*
X607329D01*
X608899Y217380D01*
X610100Y218581D01*
X610750Y220151D01*
Y221849D01*
X610100Y223419D01*
X608899Y224620D01*
X607329Y225270D01*
D02*
G37*
G36*
X592089D02*
X590391D01*
X588821Y224620D01*
X587620Y223419D01*
X586970Y221849D01*
Y220151D01*
X587620Y218581D01*
X588821Y217380D01*
X590391Y216730D01*
X592089D01*
X593659Y217380D01*
X594860Y218581D01*
X595510Y220151D01*
Y221849D01*
X594860Y223419D01*
X593659Y224620D01*
X592089Y225270D01*
D02*
G37*
G36*
X576849D02*
X575151D01*
X573581Y224620D01*
X572380Y223419D01*
X571730Y221849D01*
Y220151D01*
X572380Y218581D01*
X573581Y217380D01*
X575151Y216730D01*
X576849D01*
X578419Y217380D01*
X579620Y218581D01*
X580270Y220151D01*
Y221849D01*
X579620Y223419D01*
X578419Y224620D01*
X576849Y225270D01*
D02*
G37*
%LPD*%
G36*
X872814Y257730D02*
X872278Y256436D01*
Y254737D01*
X872928Y253168D01*
X874129Y251967D01*
X874594Y251774D01*
Y250399D01*
X874129Y250207D01*
X872928Y249006D01*
X872278Y247436D01*
Y245737D01*
X872928Y244168D01*
X874129Y242967D01*
X875698Y242317D01*
X877397D01*
X878967Y242967D01*
X879846Y243847D01*
X881273Y243769D01*
X893606Y216228D01*
X892543Y215496D01*
X892419Y215620D01*
X890849Y216270D01*
X889151D01*
X887581Y215620D01*
X886380Y214419D01*
X885730Y212849D01*
Y211151D01*
X886380Y209581D01*
X887581Y208380D01*
X889151Y207730D01*
X890849D01*
X892419Y208380D01*
X893620Y209581D01*
X894270Y211151D01*
X895500Y211054D01*
Y120907D01*
X894593Y120018D01*
X870000Y120500D01*
X863705Y126795D01*
X864957Y128964D01*
X865605Y131385D01*
Y133891D01*
X864957Y136313D01*
X863703Y138484D01*
X861931Y140256D01*
X859760Y141509D01*
X857339Y142158D01*
X854832D01*
X852411Y141509D01*
X850242Y140258D01*
X838305Y152195D01*
X839557Y154364D01*
X840206Y156785D01*
Y159291D01*
X839557Y161713D01*
X838303Y163884D01*
X836531Y165656D01*
X834500Y166829D01*
Y219797D01*
X834960Y220104D01*
X836658D01*
X837124Y220297D01*
X838096Y219325D01*
X837903Y218859D01*
Y217160D01*
X838553Y215591D01*
X839754Y214390D01*
X841324Y213740D01*
X843022D01*
X844592Y214390D01*
X845793Y215591D01*
X846443Y217160D01*
Y218859D01*
X845793Y220429D01*
X844592Y221630D01*
X843022Y222280D01*
X841324D01*
X840858Y222087D01*
X839886Y223059D01*
X840079Y223524D01*
Y225223D01*
X839429Y226793D01*
X838228Y227994D01*
X836658Y228644D01*
X834960D01*
X834500Y228951D01*
Y259000D01*
X872263D01*
X872814Y257730D01*
D02*
G37*
%LPC*%
G36*
X860349Y239770D02*
X858651D01*
X857081Y239120D01*
X855880Y237919D01*
X855230Y236349D01*
Y234651D01*
X855880Y233081D01*
X857081Y231880D01*
X858651Y231230D01*
X860349D01*
X861919Y231880D01*
X863120Y233081D01*
X863770Y234651D01*
Y236349D01*
X863120Y237919D01*
X861919Y239120D01*
X860349Y239770D01*
D02*
G37*
G36*
X856600Y229745D02*
X854902D01*
X853332Y229095D01*
X852131Y227894D01*
X851481Y226325D01*
Y224626D01*
X852131Y223057D01*
X853332Y221855D01*
X854902Y221205D01*
X856600D01*
X858170Y221855D01*
X859371Y223057D01*
X860021Y224626D01*
Y226325D01*
X859371Y227894D01*
X858170Y229095D01*
X856600Y229745D01*
D02*
G37*
G36*
X872849Y186270D02*
X871151D01*
X869581Y185620D01*
X868380Y184419D01*
X867730Y182849D01*
Y181151D01*
X868380Y179581D01*
X869581Y178380D01*
X871151Y177730D01*
X872849D01*
X874419Y178380D01*
X875620Y179581D01*
X876270Y181151D01*
Y182849D01*
X875620Y184419D01*
X874419Y185620D01*
X872849Y186270D01*
D02*
G37*
G36*
X857339Y167558D02*
X854832D01*
X852411Y166909D01*
X850240Y165656D01*
X848468Y163884D01*
X847214Y161713D01*
X846565Y159291D01*
Y156785D01*
X847214Y154364D01*
X848468Y152193D01*
X850240Y150420D01*
X852411Y149167D01*
X854832Y148518D01*
X857339D01*
X859760Y149167D01*
X861931Y150420D01*
X863703Y152193D01*
X864957Y154364D01*
X865605Y156785D01*
Y159291D01*
X864957Y161713D01*
X863703Y163884D01*
X861931Y165656D01*
X859760Y166909D01*
X857339Y167558D01*
D02*
G37*
G36*
X882739Y142158D02*
X880232D01*
X877811Y141509D01*
X875640Y140256D01*
X873868Y138484D01*
X872614Y136313D01*
X871965Y133891D01*
Y131385D01*
X872614Y128964D01*
X873868Y126793D01*
X875640Y125020D01*
X877811Y123767D01*
X880232Y123118D01*
X882739D01*
X885160Y123767D01*
X887331Y125020D01*
X889103Y126793D01*
X890357Y128964D01*
X891005Y131385D01*
Y133891D01*
X890357Y136313D01*
X889103Y138484D01*
X887331Y140256D01*
X885160Y141509D01*
X882739Y142158D01*
D02*
G37*
%LPD*%
G36*
X859230Y165628D02*
X861087Y164556D01*
X862604Y163039D01*
X863676Y161182D01*
X864231Y159111D01*
Y156966D01*
X863676Y154894D01*
X862604Y153037D01*
X861087Y151520D01*
X859230Y150448D01*
X857158Y149893D01*
X855013D01*
X852942Y150448D01*
X851084Y151520D01*
X849568Y153037D01*
X848495Y154894D01*
X847940Y156966D01*
Y159110D01*
X848495Y161182D01*
X849568Y163039D01*
X851084Y164556D01*
X852942Y165628D01*
X855013Y166183D01*
X857158D01*
X859230Y165628D01*
D02*
G37*
G36*
X884630Y140228D02*
X886487Y139156D01*
X888003Y137640D01*
X889076Y135782D01*
X889631Y133711D01*
Y131566D01*
X889076Y129494D01*
X888003Y127637D01*
X886487Y126120D01*
X884630Y125048D01*
X882558Y124493D01*
X880413D01*
X878342Y125048D01*
X876484Y126120D01*
X874968Y127637D01*
X873895Y129494D01*
X873340Y131566D01*
Y133710D01*
X873895Y135782D01*
X874968Y137640D01*
X876484Y139156D01*
X878342Y140228D01*
X880413Y140784D01*
X882558D01*
X884630Y140228D01*
D02*
G37*
D47*
X151500Y176000D02*
D03*
X224059Y693888D02*
D03*
X245612Y715441D02*
D03*
X251000Y688500D02*
D03*
X245612Y672336D02*
D03*
X267164Y693888D02*
D03*
X272553Y666947D02*
D03*
X261740Y578640D02*
D03*
X231260D02*
D03*
X246500Y601500D02*
D03*
X261740Y609120D02*
D03*
X231260D02*
D03*
X246500Y631980D02*
D03*
X40500Y364000D02*
D03*
X133500Y364500D02*
D03*
X42781Y282906D02*
D03*
X27541Y305766D02*
D03*
X42781Y313386D02*
D03*
X27541Y336246D02*
D03*
X166781Y292906D02*
D03*
X136301D02*
D03*
X166781Y323386D02*
D03*
X136301D02*
D03*
X151541Y346246D02*
D03*
X63406Y347719D02*
D03*
Y378199D02*
D03*
X86266Y362959D02*
D03*
X109126Y347719D02*
D03*
Y378199D02*
D03*
X136500Y599280D02*
D03*
Y614520D02*
D03*
Y629760D02*
D03*
Y645000D02*
D03*
X26000Y756500D02*
D03*
X57500Y788500D02*
D03*
X163659Y696080D02*
D03*
Y680840D02*
D03*
Y665600D02*
D03*
Y650360D02*
D03*
X155240Y629880D02*
D03*
Y614640D02*
D03*
Y599400D02*
D03*
Y584160D02*
D03*
X256260Y495600D02*
D03*
X271500Y503220D02*
D03*
X286740Y495600D02*
D03*
X256260Y480360D02*
D03*
X271500Y487980D02*
D03*
X286740Y480360D02*
D03*
X256260Y465120D02*
D03*
X271500Y472740D02*
D03*
X286740Y465120D02*
D03*
X256260Y449880D02*
D03*
X271500Y457500D02*
D03*
X286740Y449880D02*
D03*
X99740Y676900D02*
D03*
X84500Y669280D02*
D03*
X69260Y676900D02*
D03*
X99740Y692140D02*
D03*
X84500Y684520D02*
D03*
X69260Y692140D02*
D03*
X99740Y707380D02*
D03*
X84500Y699760D02*
D03*
X69260Y707380D02*
D03*
X99740Y722620D02*
D03*
X84500Y715000D02*
D03*
X69260Y722620D02*
D03*
X72900Y751760D02*
D03*
X88140D02*
D03*
X80520Y767000D02*
D03*
X103380Y751760D02*
D03*
X95760Y767000D02*
D03*
X103380Y782240D02*
D03*
X118620Y751760D02*
D03*
X111000Y767000D02*
D03*
X118620Y782240D02*
D03*
X546500Y259000D02*
D03*
X554120Y274240D02*
D03*
X561740Y259000D02*
D03*
X569360Y274240D02*
D03*
X576980Y259000D02*
D03*
X584600Y274240D02*
D03*
X592220Y259000D02*
D03*
X576000Y221000D02*
D03*
X583620Y236240D02*
D03*
X591240Y221000D02*
D03*
X598860Y236240D02*
D03*
X606480Y221000D02*
D03*
X614100Y236240D02*
D03*
X621720Y221000D02*
D03*
X910500Y562000D02*
D03*
X706000Y445000D02*
D03*
X695500Y406500D02*
D03*
X702000Y394000D02*
D03*
X719000Y396000D02*
D03*
X712000Y407500D02*
D03*
X724000Y408500D02*
D03*
X819000Y421000D02*
D03*
X828000Y412000D02*
D03*
X837500Y403000D02*
D03*
X843500Y392500D02*
D03*
X851000Y384500D02*
D03*
X859000Y376500D02*
D03*
X989711Y913613D02*
D03*
Y883133D02*
D03*
Y852653D02*
D03*
Y822173D02*
D03*
Y791693D02*
D03*
Y761213D02*
D03*
Y730733D02*
D03*
Y700253D02*
D03*
Y669773D02*
D03*
Y639293D02*
D03*
Y608813D02*
D03*
Y578333D02*
D03*
Y547853D02*
D03*
Y517373D02*
D03*
Y486893D02*
D03*
Y456413D02*
D03*
Y425933D02*
D03*
Y395453D02*
D03*
Y364973D02*
D03*
Y334493D02*
D03*
Y304013D02*
D03*
Y273533D02*
D03*
Y243053D02*
D03*
Y212573D02*
D03*
Y151613D02*
D03*
Y121133D02*
D03*
Y90653D02*
D03*
Y60173D02*
D03*
Y29693D02*
D03*
X974471Y913613D02*
D03*
X982091Y898373D02*
D03*
Y867893D02*
D03*
Y837413D02*
D03*
Y806933D02*
D03*
X974471Y791693D02*
D03*
X982091Y776453D02*
D03*
X974471Y761213D02*
D03*
X982091Y745973D02*
D03*
X974471Y730733D02*
D03*
X982091Y715493D02*
D03*
Y685013D02*
D03*
X974471Y669773D02*
D03*
X982091Y654533D02*
D03*
X974471Y639293D02*
D03*
X982091Y624053D02*
D03*
X974471Y578333D02*
D03*
X982091Y563093D02*
D03*
Y532613D02*
D03*
Y502133D02*
D03*
X974471Y486893D02*
D03*
X982091Y471653D02*
D03*
X974471Y456413D02*
D03*
X982091Y441173D02*
D03*
X974471Y425933D02*
D03*
X982091Y410693D02*
D03*
X974471Y395453D02*
D03*
X982091Y380213D02*
D03*
X974471Y364973D02*
D03*
X982091Y349733D02*
D03*
X974471Y334493D02*
D03*
X982091Y319253D02*
D03*
X974471Y304013D02*
D03*
X982091Y288773D02*
D03*
X974471Y273533D02*
D03*
X982091Y258293D02*
D03*
X974471Y243053D02*
D03*
X982091Y227813D02*
D03*
X974471Y212573D02*
D03*
X982091Y197333D02*
D03*
X974471Y182093D02*
D03*
Y151613D02*
D03*
X982091Y44933D02*
D03*
X974471Y29693D02*
D03*
X959231Y913613D02*
D03*
X966851Y898373D02*
D03*
Y776453D02*
D03*
X959231Y761213D02*
D03*
X966851Y745973D02*
D03*
X959231Y730733D02*
D03*
X966851Y715493D02*
D03*
Y685013D02*
D03*
X959231Y669773D02*
D03*
X966851Y654533D02*
D03*
X959231Y639293D02*
D03*
X966851Y624053D02*
D03*
X959231Y578333D02*
D03*
X966851Y563093D02*
D03*
X959231Y182093D02*
D03*
X966851Y166853D02*
D03*
X959231Y151613D02*
D03*
X966851Y136373D02*
D03*
X959231Y121133D02*
D03*
Y60173D02*
D03*
X943991Y913613D02*
D03*
X951611Y898373D02*
D03*
X943991Y822173D02*
D03*
Y791693D02*
D03*
X951611Y776453D02*
D03*
X943991Y761213D02*
D03*
X951611Y745973D02*
D03*
X943991Y730733D02*
D03*
X951611Y715493D02*
D03*
X943991Y700253D02*
D03*
X951611Y685013D02*
D03*
X943991Y669773D02*
D03*
X951611Y654533D02*
D03*
X943991Y639293D02*
D03*
X951611Y624053D02*
D03*
X943991Y578333D02*
D03*
X951611Y563093D02*
D03*
X943991Y182093D02*
D03*
X951611Y166853D02*
D03*
X943991Y151613D02*
D03*
X951611Y136373D02*
D03*
X943991Y121133D02*
D03*
X928751Y913613D02*
D03*
X936371Y898373D02*
D03*
Y776453D02*
D03*
X928751Y761213D02*
D03*
X936371Y745973D02*
D03*
X928751Y730733D02*
D03*
X936371Y715493D02*
D03*
X928751Y700253D02*
D03*
X936371Y685013D02*
D03*
X928751Y669773D02*
D03*
X936371Y654533D02*
D03*
X928751Y639293D02*
D03*
X936371Y624053D02*
D03*
X928751Y578333D02*
D03*
Y29693D02*
D03*
X913511Y913613D02*
D03*
X921131Y898373D02*
D03*
X913511Y852653D02*
D03*
Y791693D02*
D03*
Y761213D02*
D03*
X921131Y745973D02*
D03*
Y715493D02*
D03*
X913511Y700253D02*
D03*
X921131Y685013D02*
D03*
X913511Y669773D02*
D03*
X921131Y654533D02*
D03*
X913511Y639293D02*
D03*
X921131Y624053D02*
D03*
X913511Y578333D02*
D03*
Y364973D02*
D03*
X921131Y349733D02*
D03*
X913511Y334493D02*
D03*
Y243053D02*
D03*
Y212573D02*
D03*
X921131Y197333D02*
D03*
X913511Y121133D02*
D03*
X921131Y44933D02*
D03*
X898271Y913613D02*
D03*
X905891Y898373D02*
D03*
X898271Y852653D02*
D03*
X905891Y837413D02*
D03*
X898271Y822173D02*
D03*
Y791693D02*
D03*
X905891Y715493D02*
D03*
X898271Y700253D02*
D03*
X905891Y685013D02*
D03*
X898271Y669773D02*
D03*
X905891Y654533D02*
D03*
X898271Y639293D02*
D03*
X905891Y624053D02*
D03*
X898271Y608813D02*
D03*
X905891Y593573D02*
D03*
X898271Y578333D02*
D03*
Y395453D02*
D03*
Y364973D02*
D03*
X905891Y349733D02*
D03*
X898271Y334493D02*
D03*
Y273533D02*
D03*
X905891Y258293D02*
D03*
X898271Y243053D02*
D03*
X905891Y227813D02*
D03*
X898271Y60173D02*
D03*
X883031Y913613D02*
D03*
X890651Y898373D02*
D03*
X883031Y883133D02*
D03*
X890651Y837413D02*
D03*
X883031Y822173D02*
D03*
X890651Y776453D02*
D03*
X883031Y761213D02*
D03*
Y700253D02*
D03*
X890651Y685013D02*
D03*
X883031Y669773D02*
D03*
X890651Y654533D02*
D03*
X883031Y639293D02*
D03*
Y395453D02*
D03*
Y364973D02*
D03*
X890651Y349733D02*
D03*
X883031Y304013D02*
D03*
Y273533D02*
D03*
X890651Y258293D02*
D03*
Y75413D02*
D03*
X883031Y29693D02*
D03*
X875411Y837413D02*
D03*
X867791Y822173D02*
D03*
X875411Y806933D02*
D03*
X867791Y761213D02*
D03*
X875411Y715493D02*
D03*
X867791Y700253D02*
D03*
X875411Y685013D02*
D03*
X867791Y669773D02*
D03*
X875411Y654533D02*
D03*
X867791Y639293D02*
D03*
Y395453D02*
D03*
Y364973D02*
D03*
X875411Y319253D02*
D03*
X867791Y304013D02*
D03*
X875411Y288773D02*
D03*
Y105893D02*
D03*
X867791Y90653D02*
D03*
X875411Y44933D02*
D03*
X867791Y29693D02*
D03*
X860171Y837413D02*
D03*
X852551Y822173D02*
D03*
X860171Y806933D02*
D03*
Y745973D02*
D03*
X852551Y730733D02*
D03*
Y700253D02*
D03*
X860171Y685013D02*
D03*
X852551Y669773D02*
D03*
X860171Y654533D02*
D03*
X852551Y639293D02*
D03*
Y334493D02*
D03*
X860171Y319253D02*
D03*
X852551Y304013D02*
D03*
X860171Y288773D02*
D03*
Y105893D02*
D03*
X852551Y90653D02*
D03*
X860171Y44933D02*
D03*
X852551Y29693D02*
D03*
X844931Y837413D02*
D03*
X837311Y822173D02*
D03*
X844931Y806933D02*
D03*
X837311Y791693D02*
D03*
X844931Y776453D02*
D03*
X837311Y761213D02*
D03*
Y730733D02*
D03*
X844931Y685013D02*
D03*
X837311Y669773D02*
D03*
X844931Y654533D02*
D03*
X837311Y639293D02*
D03*
X844931Y349733D02*
D03*
X837311Y334493D02*
D03*
X844931Y319253D02*
D03*
X837311Y304013D02*
D03*
X844931Y288773D02*
D03*
Y105893D02*
D03*
X837311Y90653D02*
D03*
X844931Y44933D02*
D03*
X837311Y29693D02*
D03*
X829691Y837413D02*
D03*
X822071Y822173D02*
D03*
X829691Y806933D02*
D03*
X822071Y791693D02*
D03*
X829691Y776453D02*
D03*
X822071Y761213D02*
D03*
X829691Y715493D02*
D03*
X822071Y700253D02*
D03*
Y669773D02*
D03*
X829691Y654533D02*
D03*
X822071Y639293D02*
D03*
Y364973D02*
D03*
X829691Y349733D02*
D03*
X822071Y334493D02*
D03*
X829691Y319253D02*
D03*
X822071Y212573D02*
D03*
Y182093D02*
D03*
X829691Y105893D02*
D03*
X822071Y90653D02*
D03*
X829691Y44933D02*
D03*
X822071Y29693D02*
D03*
X806831Y913613D02*
D03*
X814451Y898373D02*
D03*
X806831Y883133D02*
D03*
X814451Y837413D02*
D03*
X806831Y822173D02*
D03*
X814451Y806933D02*
D03*
X806831Y791693D02*
D03*
X814451Y776453D02*
D03*
X806831Y761213D02*
D03*
X814451Y745973D02*
D03*
X806831Y730733D02*
D03*
Y700253D02*
D03*
X814451Y654533D02*
D03*
X806831Y639293D02*
D03*
X814451Y349733D02*
D03*
X806831Y334493D02*
D03*
X814451Y319253D02*
D03*
X806831Y273533D02*
D03*
X814451Y258293D02*
D03*
X806831Y243053D02*
D03*
X814451Y227813D02*
D03*
X806831Y212573D02*
D03*
X814451Y197333D02*
D03*
X806831Y182093D02*
D03*
X814451Y105893D02*
D03*
X806831Y90653D02*
D03*
X814451Y44933D02*
D03*
X806831Y29693D02*
D03*
X791591Y913613D02*
D03*
X799211Y898373D02*
D03*
X791591Y883133D02*
D03*
X799211Y837413D02*
D03*
X791591Y822173D02*
D03*
X799211Y806933D02*
D03*
X791591Y791693D02*
D03*
X799211Y776453D02*
D03*
X791591Y761213D02*
D03*
X799211Y745973D02*
D03*
X791591Y730733D02*
D03*
X799211Y685013D02*
D03*
X791591Y669773D02*
D03*
Y639293D02*
D03*
X799211Y349733D02*
D03*
Y105893D02*
D03*
X791591Y90653D02*
D03*
X799211Y44933D02*
D03*
X791591Y29693D02*
D03*
X776351Y913613D02*
D03*
X783971Y898373D02*
D03*
X776351Y883133D02*
D03*
X783971Y837413D02*
D03*
X776351Y822173D02*
D03*
X783971Y806933D02*
D03*
X776351Y791693D02*
D03*
X783971Y776453D02*
D03*
X776351Y761213D02*
D03*
X783971Y745973D02*
D03*
X776351Y730733D02*
D03*
X783971Y715493D02*
D03*
X776351Y700253D02*
D03*
Y669773D02*
D03*
Y364973D02*
D03*
X783971Y349733D02*
D03*
X776351Y304013D02*
D03*
Y273533D02*
D03*
X783971Y258293D02*
D03*
Y105893D02*
D03*
X776351Y90653D02*
D03*
X783971Y44933D02*
D03*
X776351Y29693D02*
D03*
X761111Y913613D02*
D03*
X768731Y898373D02*
D03*
X761111Y883133D02*
D03*
X768731Y837413D02*
D03*
X761111Y822173D02*
D03*
X768731Y806933D02*
D03*
X761111Y791693D02*
D03*
X768731Y776453D02*
D03*
X761111Y761213D02*
D03*
X768731Y745973D02*
D03*
X761111Y730733D02*
D03*
X768731Y715493D02*
D03*
X761111Y700253D02*
D03*
X768731Y654533D02*
D03*
X761111Y273533D02*
D03*
X768731Y258293D02*
D03*
Y105893D02*
D03*
X761111Y90653D02*
D03*
X768731Y44933D02*
D03*
X761111Y29693D02*
D03*
X745871Y913613D02*
D03*
X753491Y898373D02*
D03*
X745871Y883133D02*
D03*
X753491Y837413D02*
D03*
X745871Y822173D02*
D03*
X753491Y806933D02*
D03*
X745871Y791693D02*
D03*
X753491Y776453D02*
D03*
X745871Y761213D02*
D03*
X753491Y745973D02*
D03*
X745871Y730733D02*
D03*
X753491Y715493D02*
D03*
X745871Y700253D02*
D03*
X753491Y685013D02*
D03*
Y654533D02*
D03*
X745871Y334493D02*
D03*
X753491Y288773D02*
D03*
Y227813D02*
D03*
Y105893D02*
D03*
X745871Y90653D02*
D03*
X753491Y44933D02*
D03*
X745871Y29693D02*
D03*
X730631Y913613D02*
D03*
X738251Y898373D02*
D03*
X730631Y883133D02*
D03*
X738251Y837413D02*
D03*
X730631Y822173D02*
D03*
X738251Y806933D02*
D03*
X730631Y791693D02*
D03*
X738251Y776453D02*
D03*
X730631Y761213D02*
D03*
X738251Y745973D02*
D03*
X730631Y730733D02*
D03*
X738251Y715493D02*
D03*
X730631Y700253D02*
D03*
X738251Y685013D02*
D03*
Y654533D02*
D03*
Y105893D02*
D03*
X730631Y90653D02*
D03*
X738251Y44933D02*
D03*
X730631Y29693D02*
D03*
X715391Y913613D02*
D03*
X723011Y898373D02*
D03*
X715391Y883133D02*
D03*
X723011Y837413D02*
D03*
X715391Y822173D02*
D03*
X723011Y806933D02*
D03*
X715391Y791693D02*
D03*
X723011Y776453D02*
D03*
X715391Y761213D02*
D03*
X723011Y745973D02*
D03*
X715391Y730733D02*
D03*
X723011Y715493D02*
D03*
X715391Y700253D02*
D03*
X723011Y685013D02*
D03*
Y654533D02*
D03*
X715391Y364973D02*
D03*
X723011Y349733D02*
D03*
Y319253D02*
D03*
Y227813D02*
D03*
X715391Y121133D02*
D03*
X723011Y105893D02*
D03*
X715391Y90653D02*
D03*
X723011Y44933D02*
D03*
X715391Y29693D02*
D03*
X700151Y913613D02*
D03*
X707771Y898373D02*
D03*
X700151Y883133D02*
D03*
X707771Y837413D02*
D03*
X700151Y822173D02*
D03*
X707771Y806933D02*
D03*
X700151Y791693D02*
D03*
X707771Y776453D02*
D03*
X700151Y761213D02*
D03*
X707771Y745973D02*
D03*
X700151Y730733D02*
D03*
X707771Y715493D02*
D03*
X700151Y700253D02*
D03*
X707771Y685013D02*
D03*
Y654533D02*
D03*
X700151Y456413D02*
D03*
X707771Y380213D02*
D03*
X700151Y334493D02*
D03*
X707771Y319253D02*
D03*
X700151Y243053D02*
D03*
X707771Y227813D02*
D03*
X700151Y212573D02*
D03*
X707771Y105893D02*
D03*
X700151Y90653D02*
D03*
X707771Y44933D02*
D03*
X700151Y29693D02*
D03*
X684911Y913613D02*
D03*
X692531Y898373D02*
D03*
X684911Y883133D02*
D03*
X692531Y837413D02*
D03*
X684911Y822173D02*
D03*
X692531Y806933D02*
D03*
X684911Y791693D02*
D03*
X692531Y776453D02*
D03*
X684911Y761213D02*
D03*
X692531Y745973D02*
D03*
X684911Y730733D02*
D03*
X692531Y715493D02*
D03*
X684911Y700253D02*
D03*
X692531Y685013D02*
D03*
Y654533D02*
D03*
X684911Y517373D02*
D03*
X692531Y471653D02*
D03*
X684911Y395453D02*
D03*
X692531Y380213D02*
D03*
Y349733D02*
D03*
Y105893D02*
D03*
X684911Y90653D02*
D03*
X692531Y44933D02*
D03*
X684911Y29693D02*
D03*
X669671Y913613D02*
D03*
X677291Y898373D02*
D03*
X669671Y883133D02*
D03*
X677291Y837413D02*
D03*
X669671Y822173D02*
D03*
X677291Y806933D02*
D03*
X669671Y791693D02*
D03*
X677291Y776453D02*
D03*
X669671Y761213D02*
D03*
X677291Y745973D02*
D03*
X669671Y730733D02*
D03*
X677291Y715493D02*
D03*
X669671Y700253D02*
D03*
X677291Y685013D02*
D03*
Y654533D02*
D03*
X669671Y486893D02*
D03*
X677291Y471653D02*
D03*
X669671Y425933D02*
D03*
X677291Y410693D02*
D03*
X669671Y395453D02*
D03*
X677291Y380213D02*
D03*
Y349733D02*
D03*
Y258293D02*
D03*
Y227813D02*
D03*
Y105893D02*
D03*
X669671Y90653D02*
D03*
X677291Y44933D02*
D03*
X669671Y29693D02*
D03*
X654431Y913613D02*
D03*
X662051Y898373D02*
D03*
X654431Y883133D02*
D03*
X662051Y837413D02*
D03*
X654431Y822173D02*
D03*
X662051Y806933D02*
D03*
X654431Y791693D02*
D03*
X662051Y776453D02*
D03*
X654431Y761213D02*
D03*
X662051Y745973D02*
D03*
X654431Y730733D02*
D03*
X662051Y715493D02*
D03*
X654431Y700253D02*
D03*
X662051Y685013D02*
D03*
Y654533D02*
D03*
X654431Y547853D02*
D03*
X662051Y502133D02*
D03*
X654431Y486893D02*
D03*
X662051Y471653D02*
D03*
X654431Y425933D02*
D03*
X662051Y410693D02*
D03*
X654431Y395453D02*
D03*
X662051Y380213D02*
D03*
Y105893D02*
D03*
X654431Y90653D02*
D03*
X662051Y44933D02*
D03*
X654431Y29693D02*
D03*
X639191Y913613D02*
D03*
X646811Y898373D02*
D03*
X639191Y883133D02*
D03*
X646811Y837413D02*
D03*
X639191Y822173D02*
D03*
X646811Y806933D02*
D03*
X639191Y791693D02*
D03*
X646811Y776453D02*
D03*
X639191Y761213D02*
D03*
X646811Y745973D02*
D03*
X639191Y730733D02*
D03*
X646811Y715493D02*
D03*
X639191Y700253D02*
D03*
X646811Y685013D02*
D03*
Y654533D02*
D03*
X639191Y578333D02*
D03*
Y517373D02*
D03*
X646811Y502133D02*
D03*
X639191Y486893D02*
D03*
X646811Y471653D02*
D03*
Y410693D02*
D03*
X639191Y395453D02*
D03*
X646811Y380213D02*
D03*
X639191Y121133D02*
D03*
X646811Y105893D02*
D03*
X639191Y90653D02*
D03*
X646811Y44933D02*
D03*
X639191Y29693D02*
D03*
X623951Y913613D02*
D03*
X631571Y898373D02*
D03*
X623951Y883133D02*
D03*
X631571Y837413D02*
D03*
X623951Y822173D02*
D03*
X631571Y806933D02*
D03*
X623951Y791693D02*
D03*
X631571Y776453D02*
D03*
X623951Y761213D02*
D03*
X631571Y745973D02*
D03*
X623951Y730733D02*
D03*
X631571Y715493D02*
D03*
X623951Y700253D02*
D03*
X631571Y685013D02*
D03*
Y654533D02*
D03*
Y532613D02*
D03*
Y502133D02*
D03*
Y380213D02*
D03*
Y105893D02*
D03*
X623951Y90653D02*
D03*
X631571Y44933D02*
D03*
X623951Y29693D02*
D03*
X608711Y913613D02*
D03*
X616331Y898373D02*
D03*
X608711Y883133D02*
D03*
X616331Y837413D02*
D03*
X608711Y822173D02*
D03*
X616331Y806933D02*
D03*
X608711Y791693D02*
D03*
X616331Y776453D02*
D03*
X608711Y761213D02*
D03*
X616331Y745973D02*
D03*
X608711Y730733D02*
D03*
X616331Y715493D02*
D03*
X608711Y700253D02*
D03*
X616331Y685013D02*
D03*
Y654533D02*
D03*
Y380213D02*
D03*
Y105893D02*
D03*
X608711Y90653D02*
D03*
X616331Y44933D02*
D03*
X608711Y29693D02*
D03*
X593471Y913613D02*
D03*
X601091Y898373D02*
D03*
X593471Y883133D02*
D03*
X601091Y837413D02*
D03*
X593471Y822173D02*
D03*
X601091Y806933D02*
D03*
X593471Y791693D02*
D03*
X601091Y776453D02*
D03*
X593471Y761213D02*
D03*
X601091Y745973D02*
D03*
X593471Y730733D02*
D03*
X601091Y715493D02*
D03*
X593471Y700253D02*
D03*
X601091Y685013D02*
D03*
Y654533D02*
D03*
Y380213D02*
D03*
Y349733D02*
D03*
Y105893D02*
D03*
X593471Y90653D02*
D03*
X601091Y44933D02*
D03*
X593471Y29693D02*
D03*
X578231Y913613D02*
D03*
X585851Y898373D02*
D03*
X578231Y883133D02*
D03*
X585851Y837413D02*
D03*
X578231Y822173D02*
D03*
X585851Y806933D02*
D03*
X578231Y791693D02*
D03*
X585851Y776453D02*
D03*
X578231Y761213D02*
D03*
X585851Y745973D02*
D03*
X578231Y730733D02*
D03*
X585851Y715493D02*
D03*
X578231Y700253D02*
D03*
X585851Y685013D02*
D03*
Y654533D02*
D03*
X578231Y395453D02*
D03*
X585851Y380213D02*
D03*
Y105893D02*
D03*
X578231Y90653D02*
D03*
X585851Y44933D02*
D03*
X578231Y29693D02*
D03*
X562991Y913613D02*
D03*
X570611Y898373D02*
D03*
X562991Y883133D02*
D03*
X570611Y837413D02*
D03*
X562991Y822173D02*
D03*
X570611Y806933D02*
D03*
X562991Y791693D02*
D03*
X570611Y776453D02*
D03*
X562991Y761213D02*
D03*
X570611Y745973D02*
D03*
X562991Y730733D02*
D03*
X570611Y715493D02*
D03*
X562991Y700253D02*
D03*
X570611Y654533D02*
D03*
X562991Y425933D02*
D03*
X570611Y410693D02*
D03*
X562991Y395453D02*
D03*
X570611Y380213D02*
D03*
Y105893D02*
D03*
X562991Y90653D02*
D03*
X570611Y44933D02*
D03*
X562991Y29693D02*
D03*
X547751Y913613D02*
D03*
X555371Y898373D02*
D03*
X547751Y883133D02*
D03*
X555371Y867893D02*
D03*
X547751Y822173D02*
D03*
X555371Y806933D02*
D03*
X547751Y791693D02*
D03*
X555371Y776453D02*
D03*
X547751Y761213D02*
D03*
X555371Y745973D02*
D03*
X547751Y730733D02*
D03*
X555371Y715493D02*
D03*
X547751Y700253D02*
D03*
X555371Y654533D02*
D03*
X547751Y425933D02*
D03*
X555371Y410693D02*
D03*
X547751Y395453D02*
D03*
X555371Y380213D02*
D03*
Y105893D02*
D03*
X547751Y90653D02*
D03*
X555371Y44933D02*
D03*
X547751Y29693D02*
D03*
X532511Y913613D02*
D03*
X540131Y898373D02*
D03*
X532511Y883133D02*
D03*
X540131Y867893D02*
D03*
X532511Y852653D02*
D03*
X540131Y806933D02*
D03*
X532511Y791693D02*
D03*
X540131Y776453D02*
D03*
X532511Y761213D02*
D03*
X540131Y745973D02*
D03*
X532511Y730733D02*
D03*
X540131Y715493D02*
D03*
X532511Y700253D02*
D03*
X540131Y654533D02*
D03*
X532511Y456413D02*
D03*
X540131Y441173D02*
D03*
X532511Y425933D02*
D03*
X540131Y410693D02*
D03*
X532511Y395453D02*
D03*
X540131Y380213D02*
D03*
X532511Y304013D02*
D03*
Y182093D02*
D03*
Y151613D02*
D03*
Y121133D02*
D03*
X540131Y105893D02*
D03*
X532511Y90653D02*
D03*
X540131Y44933D02*
D03*
X532511Y29693D02*
D03*
X517271Y913613D02*
D03*
X524891Y898373D02*
D03*
X517271Y883133D02*
D03*
X524891Y867893D02*
D03*
X517271Y852653D02*
D03*
X524891Y837413D02*
D03*
X517271Y791693D02*
D03*
X524891Y776453D02*
D03*
X517271Y761213D02*
D03*
X524891Y745973D02*
D03*
X517271Y700253D02*
D03*
X524891Y654533D02*
D03*
Y624053D02*
D03*
X517271Y547853D02*
D03*
X524891Y532613D02*
D03*
X517271Y517373D02*
D03*
X524891Y502133D02*
D03*
X517271Y304013D02*
D03*
Y273533D02*
D03*
X524891Y166853D02*
D03*
X517271Y151613D02*
D03*
X524891Y136373D02*
D03*
X517271Y121133D02*
D03*
X524891Y105893D02*
D03*
X517271Y90653D02*
D03*
X524891Y44933D02*
D03*
X517271Y29693D02*
D03*
X502031Y913613D02*
D03*
X509651Y898373D02*
D03*
X502031Y883133D02*
D03*
X509651Y867893D02*
D03*
X502031Y852653D02*
D03*
X509651Y837413D02*
D03*
X502031Y822173D02*
D03*
X509651Y776453D02*
D03*
X502031Y761213D02*
D03*
X509651Y745973D02*
D03*
X502031Y700253D02*
D03*
X509651Y654533D02*
D03*
X502031Y151613D02*
D03*
X509651Y136373D02*
D03*
X502031Y121133D02*
D03*
X509651Y105893D02*
D03*
X502031Y90653D02*
D03*
X509651Y44933D02*
D03*
X502031Y29693D02*
D03*
X486791Y913613D02*
D03*
X494411Y898373D02*
D03*
X486791Y883133D02*
D03*
X494411Y867893D02*
D03*
X486791Y852653D02*
D03*
X494411Y837413D02*
D03*
X486791Y822173D02*
D03*
X494411Y806933D02*
D03*
X486791Y761213D02*
D03*
X494411Y745973D02*
D03*
X486791Y700253D02*
D03*
X494411Y654533D02*
D03*
X486791Y273533D02*
D03*
Y151613D02*
D03*
X494411Y136373D02*
D03*
X486791Y121133D02*
D03*
X494411Y105893D02*
D03*
X486791Y90653D02*
D03*
X494411Y44933D02*
D03*
X486791Y29693D02*
D03*
X479171Y867893D02*
D03*
X471551Y852653D02*
D03*
X479171Y837413D02*
D03*
X471551Y822173D02*
D03*
X479171Y806933D02*
D03*
X471551Y791693D02*
D03*
X479171Y745973D02*
D03*
X471551Y151613D02*
D03*
X479171Y136373D02*
D03*
X471551Y121133D02*
D03*
X479171Y105893D02*
D03*
X471551Y90653D02*
D03*
X479171Y44933D02*
D03*
X471551Y29693D02*
D03*
X463931Y867893D02*
D03*
X456311Y852653D02*
D03*
X463931Y837413D02*
D03*
X456311Y822173D02*
D03*
X463931Y806933D02*
D03*
X456311Y791693D02*
D03*
X463931Y776453D02*
D03*
X456311Y730733D02*
D03*
Y364973D02*
D03*
X463931Y349733D02*
D03*
X456311Y334493D02*
D03*
Y304013D02*
D03*
Y273533D02*
D03*
Y243053D02*
D03*
Y212573D02*
D03*
X463931Y197333D02*
D03*
X456311Y151613D02*
D03*
X463931Y136373D02*
D03*
X456311Y121133D02*
D03*
X463931Y105893D02*
D03*
X456311Y90653D02*
D03*
X463931Y44933D02*
D03*
X456311Y29693D02*
D03*
X441071Y852653D02*
D03*
X448691Y837413D02*
D03*
X441071Y822173D02*
D03*
X448691Y806933D02*
D03*
X441071Y791693D02*
D03*
X448691Y776453D02*
D03*
X441071Y761213D02*
D03*
X448691Y715493D02*
D03*
X441071Y517373D02*
D03*
Y364973D02*
D03*
X448691Y349733D02*
D03*
X441071Y334493D02*
D03*
X448691Y319253D02*
D03*
X441071Y304013D02*
D03*
X448691Y288773D02*
D03*
X441071Y273533D02*
D03*
X448691Y258293D02*
D03*
X441071Y243053D02*
D03*
X448691Y227813D02*
D03*
X441071Y212573D02*
D03*
X448691Y197333D02*
D03*
X441071Y182093D02*
D03*
X448691Y136373D02*
D03*
X441071Y121133D02*
D03*
X448691Y105893D02*
D03*
X441071Y90653D02*
D03*
X448691Y44933D02*
D03*
X441071Y29693D02*
D03*
X433451Y867893D02*
D03*
X425831Y852653D02*
D03*
X433451Y837413D02*
D03*
X425831Y822173D02*
D03*
X433451Y806933D02*
D03*
X425831Y791693D02*
D03*
X433451Y776453D02*
D03*
X425831Y761213D02*
D03*
X433451Y745973D02*
D03*
Y349733D02*
D03*
X425831Y334493D02*
D03*
X433451Y319253D02*
D03*
X425831Y304013D02*
D03*
X433451Y288773D02*
D03*
X425831Y273533D02*
D03*
X433451Y258293D02*
D03*
X425831Y243053D02*
D03*
X433451Y227813D02*
D03*
X425831Y212573D02*
D03*
X433451Y197333D02*
D03*
X425831Y182093D02*
D03*
X433451Y136373D02*
D03*
X425831Y121133D02*
D03*
X433451Y105893D02*
D03*
X425831Y90653D02*
D03*
X433451Y44933D02*
D03*
X410591Y913613D02*
D03*
Y883133D02*
D03*
X418211Y867893D02*
D03*
X410591Y852653D02*
D03*
X418211Y837413D02*
D03*
X410591Y822173D02*
D03*
X418211Y806933D02*
D03*
X410591Y791693D02*
D03*
X418211Y776453D02*
D03*
X410591Y761213D02*
D03*
X418211Y745973D02*
D03*
X410591Y730733D02*
D03*
Y486893D02*
D03*
Y334493D02*
D03*
X418211Y319253D02*
D03*
X410591Y304013D02*
D03*
X418211Y288773D02*
D03*
X410591Y273533D02*
D03*
X418211Y258293D02*
D03*
X410591Y243053D02*
D03*
X418211Y227813D02*
D03*
X410591Y212573D02*
D03*
X418211Y197333D02*
D03*
X410591Y182093D02*
D03*
X418211Y166853D02*
D03*
X410591Y151613D02*
D03*
X418211Y136373D02*
D03*
X410591Y121133D02*
D03*
X418211Y105893D02*
D03*
X410591Y90653D02*
D03*
X418211Y44933D02*
D03*
X395351Y913613D02*
D03*
X402971Y898373D02*
D03*
X395351Y883133D02*
D03*
X402971Y867893D02*
D03*
X395351Y852653D02*
D03*
X402971Y837413D02*
D03*
X395351Y822173D02*
D03*
X402971Y806933D02*
D03*
X395351Y791693D02*
D03*
X402971Y776453D02*
D03*
X395351Y761213D02*
D03*
X402971Y745973D02*
D03*
X395351Y730733D02*
D03*
X402971Y715493D02*
D03*
Y319253D02*
D03*
X395351Y304013D02*
D03*
X402971Y288773D02*
D03*
X395351Y273533D02*
D03*
X402971Y258293D02*
D03*
X395351Y243053D02*
D03*
X402971Y227813D02*
D03*
X395351Y212573D02*
D03*
X402971Y197333D02*
D03*
X395351Y182093D02*
D03*
X402971Y166853D02*
D03*
X395351Y151613D02*
D03*
X402971Y136373D02*
D03*
X395351Y121133D02*
D03*
X402971Y105893D02*
D03*
X395351Y90653D02*
D03*
X402971Y44933D02*
D03*
X387731Y898373D02*
D03*
X380111Y883133D02*
D03*
Y852653D02*
D03*
X387731Y837413D02*
D03*
X380111Y822173D02*
D03*
X387731Y806933D02*
D03*
X380111Y791693D02*
D03*
X387731Y776453D02*
D03*
X380111Y761213D02*
D03*
X387731Y745973D02*
D03*
X380111Y730733D02*
D03*
X387731Y715493D02*
D03*
X380111Y700253D02*
D03*
Y304013D02*
D03*
X387731Y288773D02*
D03*
X380111Y273533D02*
D03*
X387731Y258293D02*
D03*
X380111Y243053D02*
D03*
X387731Y227813D02*
D03*
X380111Y212573D02*
D03*
X387731Y197333D02*
D03*
X380111Y182093D02*
D03*
X387731Y166853D02*
D03*
X380111Y151613D02*
D03*
X387731Y136373D02*
D03*
X380111Y121133D02*
D03*
X387731Y105893D02*
D03*
X380111Y90653D02*
D03*
X387731Y44933D02*
D03*
X372491Y288773D02*
D03*
X364871Y273533D02*
D03*
X372491Y258293D02*
D03*
X364871Y243053D02*
D03*
X372491Y227813D02*
D03*
X364871Y212573D02*
D03*
X372491Y197333D02*
D03*
X364871Y182093D02*
D03*
X372491Y166853D02*
D03*
X364871Y151613D02*
D03*
X372491Y136373D02*
D03*
X364871Y121133D02*
D03*
X372491Y105893D02*
D03*
X364871Y90653D02*
D03*
X372491Y44933D02*
D03*
X349631Y883133D02*
D03*
Y852653D02*
D03*
X357251Y837413D02*
D03*
X349631Y822173D02*
D03*
X357251Y806933D02*
D03*
X349631Y791693D02*
D03*
X357251Y776453D02*
D03*
X349631Y761213D02*
D03*
X357251Y745973D02*
D03*
X349631Y730733D02*
D03*
X357251Y715493D02*
D03*
X349631Y700253D02*
D03*
Y425933D02*
D03*
Y273533D02*
D03*
X357251Y258293D02*
D03*
X349631Y243053D02*
D03*
X357251Y227813D02*
D03*
Y166853D02*
D03*
X349631Y151613D02*
D03*
X357251Y136373D02*
D03*
X349631Y121133D02*
D03*
X357251Y105893D02*
D03*
X349631Y90653D02*
D03*
Y60173D02*
D03*
X357251Y44933D02*
D03*
X334391Y913613D02*
D03*
Y883133D02*
D03*
Y852653D02*
D03*
X342011Y837413D02*
D03*
X334391Y822173D02*
D03*
X342011Y806933D02*
D03*
X334391Y791693D02*
D03*
X342011Y776453D02*
D03*
X334391Y761213D02*
D03*
X342011Y745973D02*
D03*
X334391Y730733D02*
D03*
X342011Y715493D02*
D03*
X334391Y700253D02*
D03*
X342011Y685013D02*
D03*
Y258293D02*
D03*
X334391Y243053D02*
D03*
Y212573D02*
D03*
X342011Y166853D02*
D03*
X334391Y151613D02*
D03*
X342011Y136373D02*
D03*
X334391Y121133D02*
D03*
X342011Y105893D02*
D03*
X334391Y90653D02*
D03*
X342011Y75413D02*
D03*
X334391Y60173D02*
D03*
X342011Y44933D02*
D03*
X319151Y913613D02*
D03*
X326771Y898373D02*
D03*
X319151Y883133D02*
D03*
Y852653D02*
D03*
X326771Y837413D02*
D03*
X319151Y822173D02*
D03*
X326771Y806933D02*
D03*
X319151Y791693D02*
D03*
X326771Y776453D02*
D03*
X319151Y761213D02*
D03*
X326771Y745973D02*
D03*
X319151Y730733D02*
D03*
X326771Y715493D02*
D03*
X319151Y700253D02*
D03*
X326771Y685013D02*
D03*
Y410693D02*
D03*
X319151Y395453D02*
D03*
X326771Y258293D02*
D03*
Y166853D02*
D03*
X319151Y151613D02*
D03*
X326771Y136373D02*
D03*
X319151Y121133D02*
D03*
X326771Y105893D02*
D03*
X319151Y90653D02*
D03*
X326771Y75413D02*
D03*
X319151Y60173D02*
D03*
X326771Y44933D02*
D03*
X303911Y913613D02*
D03*
X311531Y898373D02*
D03*
X303911Y883133D02*
D03*
X311531Y867893D02*
D03*
X303911Y852653D02*
D03*
X311531Y837413D02*
D03*
X303911Y822173D02*
D03*
X311531Y806933D02*
D03*
X303911Y791693D02*
D03*
X311531Y776453D02*
D03*
X303911Y761213D02*
D03*
X311531Y745973D02*
D03*
X303911Y730733D02*
D03*
X311531Y715493D02*
D03*
X303911Y700253D02*
D03*
X311531Y685013D02*
D03*
X303911Y243053D02*
D03*
X311531Y227813D02*
D03*
Y166853D02*
D03*
X303911Y151613D02*
D03*
X311531Y136373D02*
D03*
X303911Y90653D02*
D03*
X311531Y75413D02*
D03*
X303911Y60173D02*
D03*
X311531Y44933D02*
D03*
X288671Y913613D02*
D03*
X296291Y898373D02*
D03*
X288671Y883133D02*
D03*
X296291Y867893D02*
D03*
X288671Y852653D02*
D03*
X296291Y837413D02*
D03*
X288671Y822173D02*
D03*
X296291Y806933D02*
D03*
X288671Y791693D02*
D03*
X296291Y776453D02*
D03*
X288671Y761213D02*
D03*
X296291Y745973D02*
D03*
X288671Y730733D02*
D03*
X296291Y715493D02*
D03*
Y380213D02*
D03*
X288671Y182093D02*
D03*
X296291Y166853D02*
D03*
X288671Y151613D02*
D03*
X296291Y136373D02*
D03*
X288671Y121133D02*
D03*
Y90653D02*
D03*
X296291Y75413D02*
D03*
X288671Y60173D02*
D03*
X296291Y44933D02*
D03*
X273431Y913613D02*
D03*
X281051Y898373D02*
D03*
X273431Y883133D02*
D03*
X281051Y867893D02*
D03*
X273431Y852653D02*
D03*
X281051Y837413D02*
D03*
X273431Y822173D02*
D03*
X281051Y806933D02*
D03*
X273431Y791693D02*
D03*
X281051Y776453D02*
D03*
X273431Y761213D02*
D03*
X281051Y745973D02*
D03*
Y258293D02*
D03*
X273431Y212573D02*
D03*
X281051Y166853D02*
D03*
X273431Y60173D02*
D03*
X281051Y44933D02*
D03*
X258191Y913613D02*
D03*
X265811Y898373D02*
D03*
X258191Y883133D02*
D03*
X265811Y867893D02*
D03*
X258191Y852653D02*
D03*
X265811Y837413D02*
D03*
X258191Y822173D02*
D03*
X265811Y806933D02*
D03*
X258191Y791693D02*
D03*
X265811Y776453D02*
D03*
X258191Y761213D02*
D03*
X265811Y745973D02*
D03*
X258191Y243053D02*
D03*
X265811Y166853D02*
D03*
X258191Y151613D02*
D03*
Y60173D02*
D03*
X265811Y44933D02*
D03*
X242951Y913613D02*
D03*
X250571Y898373D02*
D03*
Y867893D02*
D03*
X242951Y822173D02*
D03*
X250571Y806933D02*
D03*
X242951Y791693D02*
D03*
X250571Y776453D02*
D03*
Y258293D02*
D03*
X242951Y243053D02*
D03*
X250571Y166853D02*
D03*
X242951Y60173D02*
D03*
X250571Y44933D02*
D03*
X235331Y806933D02*
D03*
Y258293D02*
D03*
X227711Y182093D02*
D03*
X235331Y166853D02*
D03*
X227711Y151613D02*
D03*
X235331Y75413D02*
D03*
X227711Y60173D02*
D03*
X235331Y44933D02*
D03*
X212471Y913613D02*
D03*
Y883133D02*
D03*
Y822173D02*
D03*
X220091Y258293D02*
D03*
X212471Y182093D02*
D03*
X220091Y166853D02*
D03*
X212471Y151613D02*
D03*
X220091Y75413D02*
D03*
X212471Y60173D02*
D03*
X220091Y44933D02*
D03*
X204851Y258293D02*
D03*
Y166853D02*
D03*
X197231Y151613D02*
D03*
X204851Y75413D02*
D03*
X197231Y60173D02*
D03*
X204851Y44933D02*
D03*
X181991Y822173D02*
D03*
Y182093D02*
D03*
X189611Y166853D02*
D03*
X181991Y151613D02*
D03*
X189611Y75413D02*
D03*
X181991Y60173D02*
D03*
X189611Y44933D02*
D03*
X166751Y852653D02*
D03*
Y822173D02*
D03*
Y243053D02*
D03*
Y182093D02*
D03*
X174371Y166853D02*
D03*
X166751Y151613D02*
D03*
X174371Y75413D02*
D03*
X166751Y60173D02*
D03*
X174371Y44933D02*
D03*
X159131Y166853D02*
D03*
X151511Y151613D02*
D03*
X159131Y75413D02*
D03*
X151511Y60173D02*
D03*
X159131Y44933D02*
D03*
X151511Y29693D02*
D03*
X136271Y883133D02*
D03*
Y852653D02*
D03*
Y822173D02*
D03*
Y151613D02*
D03*
X143891Y75413D02*
D03*
X136271Y60173D02*
D03*
X143891Y44933D02*
D03*
X136271Y29693D02*
D03*
X128651Y197333D02*
D03*
X121031Y182093D02*
D03*
Y151613D02*
D03*
X128651Y75413D02*
D03*
X121031Y29693D02*
D03*
X105791Y913613D02*
D03*
Y883133D02*
D03*
Y822173D02*
D03*
Y151613D02*
D03*
Y90653D02*
D03*
X113411Y75413D02*
D03*
X105791Y60173D02*
D03*
Y29693D02*
D03*
X90551Y913613D02*
D03*
X98171Y898373D02*
D03*
X90551Y883133D02*
D03*
Y822173D02*
D03*
Y151613D02*
D03*
X98171Y44933D02*
D03*
X90551Y29693D02*
D03*
X82931Y867893D02*
D03*
X75311Y852653D02*
D03*
Y121133D02*
D03*
Y90653D02*
D03*
Y60173D02*
D03*
X82931Y44933D02*
D03*
X75311Y29693D02*
D03*
X67691Y867893D02*
D03*
X60071Y852653D02*
D03*
X67691Y105893D02*
D03*
Y75413D02*
D03*
Y44933D02*
D03*
X60071Y29693D02*
D03*
X44831Y852653D02*
D03*
X52451Y837413D02*
D03*
X44831Y822173D02*
D03*
Y90653D02*
D03*
Y29693D02*
D03*
X37211Y867893D02*
D03*
X29591Y852653D02*
D03*
X37211Y837413D02*
D03*
X29591Y822173D02*
D03*
Y121133D02*
D03*
X37211Y105893D02*
D03*
X29591Y90653D02*
D03*
X37211Y75413D02*
D03*
X29591Y60173D02*
D03*
X37211Y44933D02*
D03*
X29591Y29693D02*
D03*
X14351Y913613D02*
D03*
Y883133D02*
D03*
X21971Y867893D02*
D03*
X14351Y852653D02*
D03*
X21971Y837413D02*
D03*
X14351Y822173D02*
D03*
X21971Y105893D02*
D03*
X14351Y90653D02*
D03*
X21971Y75413D02*
D03*
Y44933D02*
D03*
X14351Y29693D02*
D03*
X905132Y172196D02*
D03*
X917000Y130500D02*
D03*
X936000Y132000D02*
D03*
X936500Y141000D02*
D03*
X935000Y150000D02*
D03*
X936500Y159000D02*
D03*
X930850Y167739D02*
D03*
X924527Y174144D02*
D03*
X918163Y180508D02*
D03*
X872000Y182000D02*
D03*
X890000Y212000D02*
D03*
X735986Y403283D02*
D03*
X728500Y379000D02*
D03*
X730500Y370000D02*
D03*
X734149Y361690D02*
D03*
X740513Y355326D02*
D03*
X746877Y348962D02*
D03*
X753241Y342598D02*
D03*
X759605Y336234D02*
D03*
X765968Y329870D02*
D03*
X772332Y323506D02*
D03*
X778696Y317142D02*
D03*
X785060Y310778D02*
D03*
X791424Y304415D02*
D03*
X797788Y298051D02*
D03*
X804152Y291687D02*
D03*
X810516Y285323D02*
D03*
X816880Y278959D02*
D03*
X823244Y272595D02*
D03*
X829608Y266231D02*
D03*
X827504Y257480D02*
D03*
X827287Y248483D02*
D03*
Y239483D02*
D03*
X829455Y230748D02*
D03*
X835809Y224374D02*
D03*
X842173Y218010D02*
D03*
X855751Y225475D02*
D03*
X859500Y235500D02*
D03*
X887000Y246500D02*
D03*
X876548Y246587D02*
D03*
Y255587D02*
D03*
X878500Y264500D02*
D03*
X845000Y273000D02*
D03*
X837736Y279446D02*
D03*
X831372Y285810D02*
D03*
X825008Y292174D02*
D03*
X818644Y298538D02*
D03*
X812280Y304902D02*
D03*
X805916Y311266D02*
D03*
X799552Y317630D02*
D03*
X793188Y323994D02*
D03*
X786824Y330358D02*
D03*
X780460Y336721D02*
D03*
X774096Y343086D02*
D03*
X767732Y349449D02*
D03*
X761368Y355813D02*
D03*
X755005Y362177D02*
D03*
X748641Y368541D02*
D03*
X748000Y378000D02*
D03*
Y391000D02*
D03*
X712302Y429787D02*
D03*
X697745Y432427D02*
D03*
X691381Y438791D02*
D03*
X678500Y451000D02*
D03*
X669073Y451334D02*
D03*
X660073D02*
D03*
X651073D02*
D03*
X642073D02*
D03*
X621500Y439000D02*
D03*
X625500Y430500D02*
D03*
X585027Y435420D02*
D03*
X577000Y430500D02*
D03*
X587500Y399500D02*
D03*
X595000Y394500D02*
D03*
X604029Y394295D02*
D03*
X613500Y395000D02*
D03*
X619575Y401823D02*
D03*
X625939Y408187D02*
D03*
X632169Y414681D02*
D03*
X638533Y421045D02*
D03*
X640967Y429710D02*
D03*
X647158Y436243D02*
D03*
X656158D02*
D03*
X665157D02*
D03*
X674039Y434789D02*
D03*
X680403Y428425D02*
D03*
X686767Y422061D02*
D03*
X615695Y472539D02*
D03*
X519954Y567481D02*
D03*
X523583Y559245D02*
D03*
X554876Y527953D02*
D03*
X581000Y500500D02*
D03*
X599500Y502500D02*
D03*
X593305Y509751D02*
D03*
X582500Y523000D02*
D03*
X576500Y530500D02*
D03*
X568000Y537000D02*
D03*
X537000Y567000D02*
D03*
X534887Y576301D02*
D03*
X529887Y583784D02*
D03*
X523523Y590148D02*
D03*
X517159Y596512D02*
D03*
X510795Y602876D02*
D03*
X617772Y283084D02*
D03*
X203000Y357500D02*
D03*
Y344500D02*
D03*
X801872Y412372D02*
D03*
X137500Y203650D02*
D03*
X35000Y242500D02*
D03*
X22500Y417000D02*
D03*
X35000D02*
D03*
X125400Y829000D02*
D03*
X846621Y242879D02*
D03*
X852091Y250218D02*
D03*
X192000Y93000D02*
D03*
X71000Y212000D02*
D03*
X192000Y113000D02*
D03*
Y130500D02*
D03*
X868000Y730500D02*
D03*
X858500Y770000D02*
D03*
X107000Y803000D02*
D03*
X208500Y802500D02*
D03*
X166000Y741500D02*
D03*
X86000Y212000D02*
D03*
X115000Y422500D02*
D03*
X183960Y749500D02*
D03*
X182000Y741500D02*
D03*
X174000D02*
D03*
X103000Y422500D02*
D03*
X90000D02*
D03*
X77500D02*
D03*
X94000Y272000D02*
D03*
X79000D02*
D03*
X95000Y323500D02*
D03*
X80000D02*
D03*
X112500Y319500D02*
D03*
Y274500D02*
D03*
Y289500D02*
D03*
Y304500D02*
D03*
X61000D02*
D03*
Y289500D02*
D03*
Y274500D02*
D03*
Y319500D02*
D03*
X787500Y367000D02*
D03*
X803500D02*
D03*
X795500D02*
D03*
Y375000D02*
D03*
X803500D02*
D03*
X787500D02*
D03*
X867186Y479314D02*
D03*
X878500Y468000D02*
D03*
X872843Y473657D02*
D03*
X878500Y479314D02*
D03*
X884157Y473657D02*
D03*
X872843Y484971D02*
D03*
X799500Y538000D02*
D03*
X783500D02*
D03*
X791500D02*
D03*
Y546000D02*
D03*
X783500D02*
D03*
Y523500D02*
D03*
X799500Y546000D02*
D03*
X626894Y204000D02*
D03*
X634947D02*
D03*
X643000D02*
D03*
X650500Y344500D02*
D03*
X642500D02*
D03*
X634500D02*
D03*
X23500Y162500D02*
D03*
X31500D02*
D03*
Y198000D02*
D03*
Y206000D02*
D03*
X759000Y424000D02*
D03*
X724000Y468500D02*
D03*
X611793Y416301D02*
D03*
X603202Y415583D02*
D03*
X798000Y523500D02*
D03*
X658500Y344500D02*
D03*
X857500Y465500D02*
D03*
X848000Y467000D02*
D03*
X847000Y476000D02*
D03*
X58500Y212000D02*
D03*
X48000D02*
D03*
X124000Y213000D02*
D03*
X596938Y291501D02*
D03*
X698306Y288618D02*
D03*
X660305D02*
D03*
X673306D02*
D03*
X685806D02*
D03*
X723315Y477777D02*
D03*
X713500Y479000D02*
D03*
X801000Y401000D02*
D03*
X791000Y517000D02*
D03*
X791587Y400330D02*
D03*
X790500Y390500D02*
D03*
D50*
X368700Y901500D02*
D03*
D51*
X343300D02*
D03*
X374400Y464600D02*
D03*
X199020Y428520D02*
D03*
D52*
X392360Y482560D02*
D03*
X216980Y446480D02*
D03*
D60*
X961500Y849000D02*
D03*
Y823600D02*
D03*
Y798200D02*
D03*
D61*
Y874400D02*
D03*
D88*
X982000Y166500D02*
D03*
X959000Y700000D02*
D03*
X120500Y60500D02*
D03*
X253500Y568000D02*
D03*
X432500Y167000D02*
D03*
X150700Y893000D02*
D03*
X176100Y867600D02*
D03*
X201500Y893000D02*
D03*
Y867600D02*
D03*
X125300D02*
D03*
X150700Y867600D02*
D03*
X176100Y893000D02*
D03*
X125300Y893000D02*
D03*
X226900Y867600D02*
D03*
X932375Y335998D02*
D03*
Y437598D02*
D03*
Y386798D02*
D03*
Y361398D02*
D03*
Y412198D02*
D03*
X957775Y437598D02*
D03*
Y386798D02*
D03*
Y335998D02*
D03*
Y361398D02*
D03*
Y412198D02*
D03*
Y462998D02*
D03*
X932375D02*
D03*
Y539198D02*
D03*
Y513798D02*
D03*
X957775Y539198D02*
D03*
Y513798D02*
D03*
Y488398D02*
D03*
X932375D02*
D03*
X957775Y234398D02*
D03*
X932375Y208998D02*
D03*
Y234398D02*
D03*
X957775Y259798D02*
D03*
X932375D02*
D03*
X957775Y285198D02*
D03*
X932375D02*
D03*
Y310598D02*
D03*
X957775D02*
D03*
X881516Y590048D02*
D03*
X856115D02*
D03*
Y615448D02*
D03*
X830715D02*
D03*
Y590048D02*
D03*
X805315Y615448D02*
D03*
Y590048D02*
D03*
X779915D02*
D03*
Y615448D02*
D03*
X754516Y590048D02*
D03*
X652915D02*
D03*
X703716D02*
D03*
X729116D02*
D03*
X678316D02*
D03*
X652915Y615448D02*
D03*
X703716D02*
D03*
X754516D02*
D03*
X729116D02*
D03*
X678316D02*
D03*
X627515D02*
D03*
Y590048D02*
D03*
X551315D02*
D03*
X576716D02*
D03*
X551315Y615448D02*
D03*
X576716D02*
D03*
X602116D02*
D03*
Y590048D02*
D03*
X830686Y158038D02*
D03*
Y132638D02*
D03*
X805285Y158038D02*
D03*
Y132638D02*
D03*
X754485D02*
D03*
X703686D02*
D03*
X652886D02*
D03*
X678286D02*
D03*
X729085D02*
D03*
X779885D02*
D03*
X856086D02*
D03*
X881486D02*
D03*
X856086Y158038D02*
D03*
X881486D02*
D03*
X754485D02*
D03*
X703686D02*
D03*
X678286D02*
D03*
X729085D02*
D03*
X779885D02*
D03*
X652886D02*
D03*
X627486D02*
D03*
Y132638D02*
D03*
X602085Y158038D02*
D03*
Y132638D02*
D03*
X576685D02*
D03*
Y158038D02*
D03*
X551286D02*
D03*
X500396Y259798D02*
D03*
X474995D02*
D03*
X500396Y285198D02*
D03*
X474995D02*
D03*
Y335998D02*
D03*
Y386798D02*
D03*
Y437598D02*
D03*
Y412198D02*
D03*
Y361398D02*
D03*
Y310598D02*
D03*
Y234398D02*
D03*
Y208998D02*
D03*
X500396Y234398D02*
D03*
Y208998D02*
D03*
Y335998D02*
D03*
Y386798D02*
D03*
Y412198D02*
D03*
Y361398D02*
D03*
Y310598D02*
D03*
Y437598D02*
D03*
Y462998D02*
D03*
X474995D02*
D03*
X500396Y488398D02*
D03*
X474995D02*
D03*
Y513798D02*
D03*
X500396D02*
D03*
Y539198D02*
D03*
X271900Y138440D02*
D03*
Y113040D02*
D03*
X246500Y113040D02*
D03*
X246500Y138440D02*
D03*
Y87640D02*
D03*
D89*
X226900Y893000D02*
D03*
D90*
X901100Y41100D02*
D03*
X951900D02*
D03*
Y91900D02*
D03*
X901100D02*
D03*
X450600Y575600D02*
D03*
X501400D02*
D03*
Y626400D02*
D03*
X450600D02*
D03*
D91*
X926500Y66500D02*
D03*
X476000Y601000D02*
D03*
D92*
X449204Y899996D02*
D03*
X49204Y459996D02*
D03*
Y899996D02*
D03*
X849204D02*
D03*
D93*
X973800Y600400D02*
D03*
X948400D02*
D03*
X923000D02*
D03*
X415000Y684396D02*
D03*
X389600D02*
D03*
X973800Y67000D02*
D03*
X872200D02*
D03*
X846800D02*
D03*
X821400D02*
D03*
X796000D02*
D03*
X770600D02*
D03*
X745200D02*
D03*
X719800D02*
D03*
X694400D02*
D03*
X669000D02*
D03*
X643600D02*
D03*
X618200D02*
D03*
X592800D02*
D03*
X567400D02*
D03*
X542000D02*
D03*
X516600D02*
D03*
X491200D02*
D03*
X465800D02*
D03*
X440400D02*
D03*
X415000D02*
D03*
X389600D02*
D03*
X415000Y600400D02*
D03*
X389600D02*
D03*
X440400Y684396D02*
D03*
X465800D02*
D03*
X491200D02*
D03*
X567400D02*
D03*
X542000D02*
D03*
X516600D02*
D03*
X364200D02*
D03*
Y600400D02*
D03*
D94*
Y67000D02*
D03*
D95*
X37500Y699000D02*
D03*
Y779000D02*
D03*
D96*
X110000Y171122D02*
D03*
X100150D02*
D03*
D97*
X957775Y208998D02*
D03*
X474995Y539198D02*
D03*
D98*
X881516Y615448D02*
D03*
X551286Y132638D02*
D03*
D99*
X271900Y87640D02*
D03*
D100*
X326500Y196000D02*
D03*
X301100Y196000D02*
D03*
X275700Y196000D02*
D03*
X351900D02*
D03*
X42500Y536900D02*
D03*
Y562300D02*
D03*
Y587700D02*
D03*
D101*
X250300Y196000D02*
D03*
D102*
X42500Y511500D02*
D03*
D103*
X57000Y55500D02*
D03*
X12000Y55500D02*
D03*
X12000Y120500D02*
D03*
D104*
X57000Y120500D02*
D03*
D105*
X799728Y473301D02*
D03*
X786437Y486592D02*
D03*
X760574Y460370D02*
D03*
X773326Y447618D02*
D03*
X812300Y460729D02*
D03*
X786258Y434686D02*
D03*
X798830Y447259D02*
D03*
X772967Y473122D02*
D03*
X785893Y460196D02*
D03*
M02*
