G04*
G04 #@! TF.GenerationSoftware,Altium Limited,Altium Designer,23.2.1 (34)*
G04*
G04 Layer_Color=8388736*
%FSLAX44Y44*%
%MOMM*%
G71*
G04*
G04 #@! TF.SameCoordinates,9FE4BF2E-1B0E-44D7-9BF9-3B0155518327*
G04*
G04*
G04 #@! TF.FilePolarity,Negative*
G04*
G01*
G75*
%ADD18R,1.2000X5.0000*%
%ADD19R,1.6000X5.0000*%
%ADD28O,0.4858X1.2056*%
%ADD29R,0.4858X1.2056*%
%ADD32R,1.0700X1.0000*%
G04:AMPARAMS|DCode=33|XSize=0.8mm|YSize=0.7mm|CornerRadius=0mm|HoleSize=0mm|Usage=FLASHONLY|Rotation=45.000|XOffset=0mm|YOffset=0mm|HoleType=Round|Shape=Rectangle|*
%AMROTATEDRECTD33*
4,1,4,-0.0354,-0.5303,-0.5303,-0.0354,0.0354,0.5303,0.5303,0.0354,-0.0354,-0.5303,0.0*
%
%ADD33ROTATEDRECTD33*%

G04:AMPARAMS|DCode=34|XSize=0.8mm|YSize=0.7mm|CornerRadius=0mm|HoleSize=0mm|Usage=FLASHONLY|Rotation=135.000|XOffset=0mm|YOffset=0mm|HoleType=Round|Shape=Rectangle|*
%AMROTATEDRECTD34*
4,1,4,0.5303,-0.0354,0.0354,-0.5303,-0.5303,0.0354,-0.0354,0.5303,0.5303,-0.0354,0.0*
%
%ADD34ROTATEDRECTD34*%

%ADD35R,0.7000X0.8000*%
%ADD36R,0.8000X0.7000*%
%ADD37P,8.0610X4X90.0*%
G04:AMPARAMS|DCode=38|XSize=0.95mm|YSize=0.4mm|CornerRadius=0mm|HoleSize=0mm|Usage=FLASHONLY|Rotation=315.000|XOffset=0mm|YOffset=0mm|HoleType=Round|Shape=Rectangle|*
%AMROTATEDRECTD38*
4,1,4,-0.4773,0.1945,-0.1945,0.4773,0.4773,-0.1945,0.1945,-0.4773,-0.4773,0.1945,0.0*
%
%ADD38ROTATEDRECTD38*%

G04:AMPARAMS|DCode=39|XSize=0.9008mm|YSize=0.3508mm|CornerRadius=0mm|HoleSize=0mm|Usage=FLASHONLY|Rotation=45.000|XOffset=0mm|YOffset=0mm|HoleType=Round|Shape=Rectangle|*
%AMROTATEDRECTD39*
4,1,4,-0.1945,-0.4425,-0.4425,-0.1945,0.1945,0.4425,0.4425,0.1945,-0.1945,-0.4425,0.0*
%
%ADD39ROTATEDRECTD39*%

G04:AMPARAMS|DCode=40|XSize=0.95mm|YSize=0.4mm|CornerRadius=0mm|HoleSize=0mm|Usage=FLASHONLY|Rotation=45.000|XOffset=0mm|YOffset=0mm|HoleType=Round|Shape=Rectangle|*
%AMROTATEDRECTD40*
4,1,4,-0.1945,-0.4773,-0.4773,-0.1945,0.1945,0.4773,0.4773,0.1945,-0.1945,-0.4773,0.0*
%
%ADD40ROTATEDRECTD40*%

G04:AMPARAMS|DCode=41|XSize=0.9008mm|YSize=0.3508mm|CornerRadius=0mm|HoleSize=0mm|Usage=FLASHONLY|Rotation=315.000|XOffset=0mm|YOffset=0mm|HoleType=Round|Shape=Rectangle|*
%AMROTATEDRECTD41*
4,1,4,-0.4425,0.1945,-0.1945,0.4425,0.4425,-0.1945,0.1945,-0.4425,-0.4425,0.1945,0.0*
%
%ADD41ROTATEDRECTD41*%

G04:AMPARAMS|DCode=42|XSize=0.7mm|YSize=1.1mm|CornerRadius=0.101mm|HoleSize=0mm|Usage=FLASHONLY|Rotation=270.000|XOffset=0mm|YOffset=0mm|HoleType=Round|Shape=RoundedRectangle|*
%AMROUNDEDRECTD42*
21,1,0.7000,0.8980,0,0,270.0*
21,1,0.4980,1.1000,0,0,270.0*
1,1,0.2020,-0.4490,-0.2490*
1,1,0.2020,-0.4490,0.2490*
1,1,0.2020,0.4490,0.2490*
1,1,0.2020,0.4490,-0.2490*
%
%ADD42ROUNDEDRECTD42*%
G04:AMPARAMS|DCode=43|XSize=0.7mm|YSize=1.1mm|CornerRadius=0.101mm|HoleSize=0mm|Usage=FLASHONLY|Rotation=0.000|XOffset=0mm|YOffset=0mm|HoleType=Round|Shape=RoundedRectangle|*
%AMROUNDEDRECTD43*
21,1,0.7000,0.8980,0,0,0.0*
21,1,0.4980,1.1000,0,0,0.0*
1,1,0.2020,0.2490,-0.4490*
1,1,0.2020,-0.2490,-0.4490*
1,1,0.2020,-0.2490,0.4490*
1,1,0.2020,0.2490,0.4490*
%
%ADD43ROUNDEDRECTD43*%
%ADD44C,1.7500*%
%ADD45R,1.7500X1.7500*%
%ADD46R,1.7500X1.7500*%
%ADD47C,1.7000*%
%ADD48R,1.7000X1.7000*%
%ADD49R,1.7000X1.7000*%
%ADD50C,0.7632*%
%ADD51C,1.3700*%
G36*
X325751Y288202D02*
X366718Y247236D01*
X366475Y233108D01*
X325715Y192003D01*
X324500Y192000D01*
X310910D01*
X269924Y233330D01*
X269872Y247412D01*
X311040Y288500D01*
X325751Y288202D01*
D02*
G37*
D18*
X50975Y672008D02*
D03*
X56500Y28600D02*
D03*
D19*
X23275Y672008D02*
D03*
X78675D02*
D03*
X28800Y28600D02*
D03*
X84200D02*
D03*
D28*
X274389Y370985D02*
D03*
X266389D02*
D03*
X258389D02*
D03*
X282389D02*
D03*
X394389Y481591D02*
D03*
X386389D02*
D03*
X378389D02*
D03*
X370389D02*
D03*
X362389D02*
D03*
X354389D02*
D03*
X346389D02*
D03*
X338389D02*
D03*
X330389D02*
D03*
X322389D02*
D03*
X314389D02*
D03*
X306389D02*
D03*
X298389D02*
D03*
X290389D02*
D03*
X282389D02*
D03*
X274389D02*
D03*
X266389D02*
D03*
X258389D02*
D03*
X250389D02*
D03*
X242389D02*
D03*
X234389D02*
D03*
Y370985D02*
D03*
X242389D02*
D03*
X250389D02*
D03*
X290389D02*
D03*
X298389D02*
D03*
X306389D02*
D03*
X314389D02*
D03*
X322389D02*
D03*
X330389D02*
D03*
X338389D02*
D03*
X346389D02*
D03*
X354389D02*
D03*
X362389D02*
D03*
X370389D02*
D03*
X378389D02*
D03*
X386389D02*
D03*
X394389D02*
D03*
X402389D02*
D03*
D29*
Y481591D02*
D03*
D32*
X157000Y441000D02*
D03*
Y425300D02*
D03*
X102522Y188570D02*
D03*
Y204270D02*
D03*
D33*
X282573Y279137D02*
D03*
X273380Y288329D02*
D03*
X325265Y301745D02*
D03*
X316073Y310937D02*
D03*
X239187Y209616D02*
D03*
X248379Y200424D02*
D03*
X267118Y181685D02*
D03*
X257925Y190878D02*
D03*
X334520Y311178D02*
D03*
X325327Y320370D02*
D03*
X287830Y292573D02*
D03*
X278638Y301766D02*
D03*
X110338Y487451D02*
D03*
X101145Y496644D02*
D03*
D34*
X392931Y216231D02*
D03*
X383739Y207039D02*
D03*
X260846Y252691D02*
D03*
X251653Y243499D02*
D03*
X302057Y318313D02*
D03*
X292864Y309120D02*
D03*
X313626Y174060D02*
D03*
X304434Y164867D02*
D03*
X239187Y191231D02*
D03*
X229995Y182039D02*
D03*
X239187Y172139D02*
D03*
X248379Y181332D02*
D03*
X383477Y225790D02*
D03*
X374285Y216597D02*
D03*
X251470Y262067D02*
D03*
X242278Y252874D02*
D03*
X322915Y164670D02*
D03*
X313723Y155477D02*
D03*
X131658Y464520D02*
D03*
X140850Y473713D02*
D03*
X122175Y474003D02*
D03*
X131367Y483196D02*
D03*
X232662Y280757D02*
D03*
X223469Y271565D02*
D03*
X242037Y271463D02*
D03*
X232844Y262271D02*
D03*
X140983Y454987D02*
D03*
X150175Y464179D02*
D03*
X86027Y124000D02*
D03*
X76835Y114808D02*
D03*
D35*
X156637Y397180D02*
D03*
X143637D02*
D03*
X156713Y383870D02*
D03*
X143713D02*
D03*
X102451Y234479D02*
D03*
X115451D02*
D03*
X102471Y160071D02*
D03*
X115471D02*
D03*
X102243Y146710D02*
D03*
X115243D02*
D03*
X102501Y221017D02*
D03*
X115501D02*
D03*
X193680Y315087D02*
D03*
X206680D02*
D03*
X194056Y291287D02*
D03*
X207056D02*
D03*
X177114Y229604D02*
D03*
X164114D02*
D03*
X102497Y173380D02*
D03*
X115497D02*
D03*
X124383Y365641D02*
D03*
X137383D02*
D03*
X167457Y216168D02*
D03*
X154457D02*
D03*
X375488Y499923D02*
D03*
X362488D02*
D03*
X286228Y502006D02*
D03*
X273228D02*
D03*
X324772Y510121D02*
D03*
X311772D02*
D03*
X324810Y496926D02*
D03*
X311810D02*
D03*
X311683Y356464D02*
D03*
X324683D02*
D03*
X311683Y343205D02*
D03*
X324683D02*
D03*
D36*
X110332Y327394D02*
D03*
Y340394D02*
D03*
X96997Y339281D02*
D03*
Y352281D02*
D03*
X139446Y243300D02*
D03*
Y256300D02*
D03*
D37*
X318194Y240226D02*
D03*
D38*
X347892Y221135D02*
D03*
X358499Y231741D02*
D03*
X354964Y228206D02*
D03*
X351428Y224670D02*
D03*
X344357Y217599D02*
D03*
X340821Y214063D02*
D03*
X337286Y210528D02*
D03*
X333750Y206992D02*
D03*
X330215Y203457D02*
D03*
X326679Y199921D02*
D03*
X277889Y248712D02*
D03*
X281425Y252247D02*
D03*
X284960Y255783D02*
D03*
X288496Y259318D02*
D03*
X292031Y262854D02*
D03*
X295567Y266389D02*
D03*
X299102Y269925D02*
D03*
X302638Y273461D02*
D03*
X306173Y276996D02*
D03*
X309709Y280532D02*
D03*
D39*
X323144Y284067D02*
D03*
X362035Y245176D02*
D03*
X313244Y196386D02*
D03*
X274353Y235277D02*
D03*
D40*
X326679Y280532D02*
D03*
X330215Y276996D02*
D03*
X333750Y273461D02*
D03*
X337286Y269925D02*
D03*
X340821Y266389D02*
D03*
X344357Y262854D02*
D03*
X347892Y259318D02*
D03*
X351428Y255783D02*
D03*
X354964Y252247D02*
D03*
X358499Y248712D02*
D03*
X309709Y199921D02*
D03*
X306173Y203457D02*
D03*
X302638Y206992D02*
D03*
X299102Y210528D02*
D03*
X295567Y214063D02*
D03*
X292031Y217599D02*
D03*
X288496Y221135D02*
D03*
X284960Y224670D02*
D03*
X281425Y228206D02*
D03*
X277889Y231741D02*
D03*
D41*
X362035Y235277D02*
D03*
X323144Y196386D02*
D03*
X274353Y245176D02*
D03*
X313244Y284067D02*
D03*
D42*
X152174Y331275D02*
D03*
Y340775D02*
D03*
Y350275D02*
D03*
X124674D02*
D03*
Y331275D02*
D03*
D43*
X173838Y271523D02*
D03*
X164338D02*
D03*
X154838D02*
D03*
Y244023D02*
D03*
X173838D02*
D03*
D44*
X65927Y353620D02*
D03*
Y252020D02*
D03*
Y302820D02*
D03*
Y328220D02*
D03*
Y277420D02*
D03*
X40527Y252020D02*
D03*
Y302820D02*
D03*
Y353620D02*
D03*
Y328220D02*
D03*
Y277420D02*
D03*
Y226620D02*
D03*
X65927D02*
D03*
Y150420D02*
D03*
Y175820D02*
D03*
X40527Y150420D02*
D03*
Y175820D02*
D03*
Y201220D02*
D03*
X65927D02*
D03*
X40527Y455220D02*
D03*
X65927Y480620D02*
D03*
Y455220D02*
D03*
X40527Y429820D02*
D03*
X65927D02*
D03*
X40527Y404420D02*
D03*
X65927D02*
D03*
Y379020D02*
D03*
X40527D02*
D03*
X116787Y99570D02*
D03*
X142187D02*
D03*
Y74170D02*
D03*
X167587D02*
D03*
Y99570D02*
D03*
X192987Y74170D02*
D03*
Y99570D02*
D03*
X218387D02*
D03*
Y74170D02*
D03*
X243787Y99570D02*
D03*
X345387D02*
D03*
X294587D02*
D03*
X269187D02*
D03*
X319987D02*
D03*
X345387Y74170D02*
D03*
X294587D02*
D03*
X243787D02*
D03*
X269187D02*
D03*
X319987D02*
D03*
X370787D02*
D03*
Y99570D02*
D03*
X446987D02*
D03*
X421587D02*
D03*
X446987Y74170D02*
D03*
X421587D02*
D03*
X396187D02*
D03*
Y99570D02*
D03*
X167617Y531580D02*
D03*
Y556980D02*
D03*
X193017Y531580D02*
D03*
Y556980D02*
D03*
X243817D02*
D03*
X294617D02*
D03*
X345417D02*
D03*
X320017D02*
D03*
X269217D02*
D03*
X218417D02*
D03*
X142217D02*
D03*
X116817D02*
D03*
X142217Y531580D02*
D03*
X116817D02*
D03*
X243817D02*
D03*
X294617D02*
D03*
X320017D02*
D03*
X269217D02*
D03*
X218417D02*
D03*
X345417D02*
D03*
X370817D02*
D03*
Y556980D02*
D03*
X396217Y531580D02*
D03*
Y556980D02*
D03*
X421617D02*
D03*
Y531580D02*
D03*
X447017D02*
D03*
X497907Y429820D02*
D03*
X523307D02*
D03*
X497907Y404420D02*
D03*
X523307D02*
D03*
Y353620D02*
D03*
Y302820D02*
D03*
Y252020D02*
D03*
Y277420D02*
D03*
Y328220D02*
D03*
Y379020D02*
D03*
Y455220D02*
D03*
Y480620D02*
D03*
X497907Y455220D02*
D03*
Y480620D02*
D03*
Y353620D02*
D03*
Y302820D02*
D03*
Y277420D02*
D03*
Y328220D02*
D03*
Y379020D02*
D03*
Y252020D02*
D03*
Y226620D02*
D03*
X523307D02*
D03*
X497907Y201220D02*
D03*
X523307D02*
D03*
Y175820D02*
D03*
X497907D02*
D03*
Y150420D02*
D03*
X166800Y607000D02*
D03*
X192200D02*
D03*
X116000Y632400D02*
D03*
Y607000D02*
D03*
X166800Y683200D02*
D03*
Y632400D02*
D03*
X192200D02*
D03*
Y657800D02*
D03*
X217600Y683200D02*
D03*
X116000Y657800D02*
D03*
X166800D02*
D03*
X243000Y683200D02*
D03*
Y657800D02*
D03*
Y632400D02*
D03*
X217600Y657800D02*
D03*
Y607000D02*
D03*
X243000D02*
D03*
X217600Y632400D02*
D03*
X268400Y657800D02*
D03*
X293800Y607000D02*
D03*
X268400D02*
D03*
Y632400D02*
D03*
X293800D02*
D03*
Y657800D02*
D03*
X268400Y683200D02*
D03*
X293800D02*
D03*
X192200D02*
D03*
X116000D02*
D03*
X452000Y684000D02*
D03*
X426600D02*
D03*
X502800Y658600D02*
D03*
Y684000D02*
D03*
X452000Y607800D02*
D03*
Y658600D02*
D03*
X426600D02*
D03*
Y633200D02*
D03*
X401200Y607800D02*
D03*
X502800Y633200D02*
D03*
X452000D02*
D03*
X375800Y607800D02*
D03*
Y633200D02*
D03*
Y658600D02*
D03*
X401200Y633200D02*
D03*
Y684000D02*
D03*
X375800D02*
D03*
X401200Y658600D02*
D03*
X350400Y633200D02*
D03*
X325000Y684000D02*
D03*
X350400D02*
D03*
Y658600D02*
D03*
X325000D02*
D03*
Y633200D02*
D03*
X350400Y607800D02*
D03*
X325000D02*
D03*
X426600D02*
D03*
X502800D02*
D03*
D45*
X40527Y480620D02*
D03*
X523307Y150420D02*
D03*
X141400Y683200D02*
D03*
Y657800D02*
D03*
Y632400D02*
D03*
Y607000D02*
D03*
X477400Y607800D02*
D03*
Y633200D02*
D03*
Y658600D02*
D03*
Y684000D02*
D03*
D46*
X116787Y74170D02*
D03*
X447017Y556980D02*
D03*
D47*
X230480Y35916D02*
D03*
X205080D02*
D03*
X154280D02*
D03*
X179680D02*
D03*
X566598Y252044D02*
D03*
Y277444D02*
D03*
Y302844D02*
D03*
D48*
X128880Y35916D02*
D03*
D49*
X566598Y226644D02*
D03*
D50*
X377662Y238705D02*
D03*
X326128Y182053D02*
D03*
X317500Y294500D02*
D03*
D51*
X317790Y240631D02*
D03*
X344186Y240086D02*
D03*
X330895Y226796D02*
D03*
X304852Y227694D02*
D03*
X317964Y265950D02*
D03*
X292280Y240266D02*
D03*
X305212Y253198D02*
D03*
X330715Y253557D02*
D03*
X318323Y214223D02*
D03*
M02*
