M48
;Layer_Color=9474304
;FILE_FORMAT=2:4
INCH,TZ
;TYPE=PLATED
T1F00S00C0.0118
T2F00S00C0.0280
T3F00S00C0.0433
%
T01
X365Y369
X615Y869
X256Y1043
X365Y1369
X615Y1869
X865Y2369
X1365
X1835Y2348
Y2669
Y2989
Y3310
Y3630
X1912Y3941
X2135Y4172
X2361Y4398
X2588Y4625
X2823Y4843
X2865Y5369
X2365
X1865
X1365
X865
X365
X615Y4869
X1115
X1615
X2115
X1865Y4369
X1365
X865
X365
X615Y3869
X1115
X1365Y3369
X865
X365
X615Y2869
X1115
X365Y2369
X1815Y2028
Y1707
Y1387
Y1066
X2643Y1099
X2641Y1420
Y1740
Y2061
X2601Y2381
Y2702
Y3022
Y3343
X2696Y3649
X2923Y3876
X2865Y7369
X2365
X1865
X1365
X865
X365
Y8369
X865
Y6369
X365
X3115Y6869
X3651Y6774
Y6453
X3652Y7094
Y7415
X3615Y7869
X3653Y8322
Y8643
X3651Y8963
X4419Y8356
X4615Y7869
X4415Y7451
X4419Y7131
X5365Y6369
X5865
X6365
X6865
X7365
X7615Y6869
X7115
X6615
X6115
X6365Y7369
X6865
X7365
X7865
X8365
X8615Y7869
X8115
X7615
X7115
X6953Y8861
X8115Y8869
X8615
X9115
X9615
X10565Y8965
X10845Y8759
X10762Y8382
X11000Y8093
X11318Y8096
X11290Y7775
X11639Y7782
X11587Y7463
X11902Y7382
X12525Y7167
X12840
Y6852
X12525
Y6538
X12840
X12815Y6201
X12115Y5869
X12365Y5369
X11865
X11365
Y6369
X9420Y6343
X9193Y6117
X8967Y5890
X8740Y5663
X8865Y5369
X8514Y5437
X9365Y5369
X9615Y5869
X8550Y6554
X8748Y6806
X8324Y6327
X8097Y6101
X7870Y5874
X7668Y5626
X7646Y5306
Y4985
Y4665
X6365Y5369
X5865
X5365
X4865
X4282Y5235
X4055Y5008
X3828Y4781
X3865Y4369
X3594Y4562
X3361Y4343
X3149Y4102
X3615Y3869
X3865Y3369
X3365
X3615Y2869
X3115
X3365Y2369
X3865
X4365
X4615Y1869
X4115
X4365Y1369
X3865
X4115Y869
X4615
X5115
X5615
X6115
X6615
X7115
X7615
X8115
X8615
X9115
X9615
X10115
X10615
X11115
X11615
X12115
X12615
X13115
X13615
X14115
X14615
X15115
X15615
X16115
X16615
X17115
X17615
X18115
X18365Y1369
X17865
X17365
X16865
X16365
X15865
X15365
X15615Y1869
X16115
X16615
X17115
X17615
X18115
X18365Y2369
Y3369
Y4369
X18115Y4869
X18365Y5369
X18115Y5869
X18365Y6369
X18115Y6869
X17865Y7369
X17365
X17115Y7869
X16865Y8369
X16365
X15759Y8507
X15537Y8730
X15314Y8952
X15091Y8730
X15314Y8507
X15537Y8284
X15365Y7369
X15865
X16115Y6869
X15615
X15115
X15365Y6369
X15865
X16365
X16865
X17115Y5869
X15592Y5534
Y5220
Y4905
X15277
Y5220
X14962
Y4905
Y5534
X15277
X14865Y6369
Y7369
X14869Y8952
X16115Y8869
X16615
X17441Y8819
X17854Y8425
X18307Y7992
X16365Y4369
Y3369
X16865
Y2369
X16365
X15865
X15365
X14865
X14365
X13865
X13365
X12865
X12365
X11865
X11365
X10865
X10365
X9865
X9365
X8865
X9615Y1869
X10115
X10615
X11115
X11615
X12115
X12615
X13115
X13615
X14115
X14615
X15115
X15365Y369
X15865
X16365
X16865
X17365
X17865
X18365
X14865
X14365
X13865
X13365
X12865
X12365
X11865
X11365
X10865
X10365
X9865
Y1369
X8103Y2991
X6615Y5869
X6115
X5615
X5115
X3267Y5304
X3053Y5066
X3865Y369
X4365
X5365Y8369
X5115Y8869
X7865Y8369
X8365
X8865
X9779Y7891
X10161Y7522
X12115Y4869
X18615
X19115
X19615
X20115
X20615
X21115
X21615
X22115
X22615
X23115
X22865Y5369
X22365
X21865
X21365
X20865
X20365
X19865
X19365
X18865
X19115Y5869
X18865Y6369
X18760Y7520
X21365Y7369
X21865
X22365
X22865
X23115Y7869
X22615
X22115
X21615
X21865Y8369
X22365
X22865
X23115Y8869
X21615
X21365Y8369
X21615Y6869
X22115
X22615
X23115
X22865Y6369
X22365
X21865
X21365
X21615Y5869
X22115
X22615
X23115
X22865Y4369
X22365
X21865
X21365
X20865
X20365
X19865
X19365
X18865
X19115Y3869
X19615
X20115
X20615
X21115
X21615
X22115
X22615
X23115
X22865Y3369
X22365
X21865
X21365
X20865
X20365
X19865
X19365
X19615Y2869
X20115
X20615
X21115
X21615
X22115
X22615
X23115
X22865Y2369
X22365
X21865
X21365
X20865
X20365
X19865
X19365
X18865
X19115Y2869
X18615
Y3869
Y1869
X19115
X19615
X20115
X20615
X21115
X21615
X22115
X22615
X23115
X22865Y1369
X22365
X21865
X21365
X20865
X20365
X19865
X19365
X18865
X19115Y869
X19615
X20115
X20615
X21115
X21615
X22115
X22615
X23115
X22865Y369
X22365
X21865
X21365
X20865
X20365
X19865
X19365
X18865
X18615Y869
X20115Y5869
X21115
X21365Y9369
X21865
X21615Y9869
X21365Y10369
X21565Y11616
X21886
X21181Y11673
X21055Y12230
X21365Y12369
X21865
X22115Y12869
X22615
X23115
X22865Y13369
X22365
X21865
X21365
X21615Y13869
X22115
X22615
X23115
X22865Y14369
X22365
X21865
X21365
X21615Y14869
X22115
X22615
X23115
X22865Y15369
X22365
X21865
X21365
X21615Y15869
X22115
X22615
X23115
X22865Y16369
X22365
X21865
X21365
X21615Y16869
X22115
X22615
X22365Y17369
X21865
X21365
X21615Y17869
X22115
X22615
X22865Y18369
X22365
X21865
X21365
X21615Y18869
X22115
X22615
X22865Y19369
X22365
X21865
X21365
X20865
X20365
X20615Y19869
X21115
X21615
X22115
X22615
X22865Y20369
X22365
X21865
X21365
X20865
X21115Y20869
X21615
X22115
X22615
X22865Y21369
X22365
X21865
X21365
X20865
X20365
X20615Y21869
X21115
X21615
X22115
X22615
X22865Y22369
X22365
X21865
X21365
X20865
X20365
X20615Y22869
X21115
X21615
X22115
X22615
X22865Y23369
X22365
X21865
X21365
X20865
X20365
X20615Y23869
X21115
X21615
X22115
X22615
X22865Y24369
X22365
X21865
X21365
X20865
X20365
X20115Y22869
Y21869
Y20869
X20615
X19115
X18615
X18865Y20369
X19115Y19869
X18615
X18865Y18369
X19365
X19865
X19115Y17869
X18615
X18799Y16673
X18780Y16161
Y15669
X18645Y11606
X18965
X20108Y12093
X21615Y12869
X22865Y12369
X23115Y11869
X22865Y11369
X23115Y10869
X22865Y10369
X23115Y9869
X22865Y9369
X18720Y10020
X21115Y18869
X19115Y21869
X18615
X18865Y22369
X19115Y22869
X18615
X18115
X18365Y23369
X17865
X17365
X16865
X16365
X15865
X15365
X14865
X14365
X13865
X13365
X12865
X12365
X11865
X11365
X10865
X10365
X9865
X9365
X8865
X8365
X7865
X7365
X6865
X6365
X5865
X5365
X4865
X5115Y22869
X4865Y22369
X4365
X3115Y22869
X3365Y23369
X3115Y23869
X3615
X3865Y24369
X3365
X3115Y21869
X3365Y21369
X3334Y20743
X3107Y20970
X3560Y20517
X3787Y20290
X4014Y20063
X4245Y19842
X4365Y20369
X4865
X5365
X5865
X6278Y20446
X6399Y20149
X6600Y19900
X6823Y19670
X7047Y19440
X7270Y19210
X7493Y18980
X7716Y18750
X7115Y18869
X6615
X6115
X6365Y19369
X5865
X5365
X4893Y19174
X4666Y19401
X5115Y19869
X6115
X6072Y20692
X6157Y21302
X5365Y21369
X6115Y22869
X7115
X8115
X9115
X10115
X11115
X12115
X13115
X14115
X15115
X16115
X17115
X18365Y22369
X18115Y21869
X18365Y21369
X17865
X17365
Y20369
X17865
X18365
X18115Y20869
Y19869
X17615
X17115
X16615
X16115
X16865Y20369
Y18369
X17365
X17865
X18365
X18115Y17869
X17615
X17115
X16615
X16115
X15615
X15115
X14615
X13887Y17887
X13572
Y18202
X13887
X13865Y17369
X14365
X14865
X15365
X15865
X16365
Y18369
X15865
X15365
X14865
X14847Y19504
Y19819
X14615Y16869
X15115
X15615
X15365Y16369
X14865
X14365
X13865
X13365
X12865
X13115Y16869
X13615
X14115
Y15869
X14615
X14365Y15369
X13865
X13365
X12865
X13115Y15869
X13615
X13365Y17369
X12615Y17869
X12115
X11615
X11115
X10615
X10115
X10365Y18369
X10865
X11365
X11865
X12365
X11865Y17369
X11365
X10865
X10365
X11115Y16869
X11615
X11865Y16369
X11365
X11615Y15869
X11865Y15369
X10811Y15505
Y15185
X10413Y15072
X10092Y15072
X9777
X9406Y15083
X9091
X8615Y14869
X8115
X7615
X7115
X6553Y14889
Y14569
Y14248
Y13928
X6433Y13631
X6865Y13369
X7365
X7865
X8365
X8865
X9365
X9865
X10365
X10865
X11365
X11615Y12869
X12115
X12520Y12697
X13406Y12717
X13325Y12317
Y11871
X12880
X13102Y11649
Y12094
X13548
X13865Y12369
X13838Y11606
X14158
X14479
X14799
X15120
X15440
X15761
X16081
X16402
X16722
X17042
X17363
X17683
X18004
X18324
X18430Y12140
X17930
X17430
X16930
X16430
X15930
X15430
X14930
X14430
X14456Y12628
X14776
X15097
X15417
X15738
X16058
X16378
X16699
X17019
X17340
X17660
X17981
X18301
X18365Y14369
X17865
X17365
X16865
X16365
X16780Y15669
Y16161
X17280
Y15669
X17780
Y16161
X18280
Y15669
X18299Y16673
X17799
X17299
X16799
X13115Y13869
X13494Y13461
X11890Y14037
X11575
X11115Y13869
X10615
X10115
X9615
X9115
X8615
X8115
X7615
X7115
X7365Y14369
X7865
X8365
X8865
X8365Y15369
X7865
X7365
X6865
X6552Y15210
X5365Y15369
X4865
X4365
X3865
X3365
X3615Y14869
X4115
X3115
X3365Y14369
Y13369
Y12369
X3858Y12067
X4295Y12047
X4795
X5295
X5398Y11298
X5079Y11264
X4830Y11062
X4604Y10835
X4377Y10609
X4150Y10382
X3924Y10155
X3707Y9920
X3650Y9604
Y9284
X4483Y9631
X4710Y9857
X4936Y10084
X5163Y10310
X5395Y10532
X5715Y10528
X5969Y10333
X6181Y11147
X5895Y11293
X4365Y11369
X3865
X3365
Y10369
X4865Y9369
X6953Y9491
Y9176
X7865Y9369
X8365
X8865
X9365
X9115Y9869
X8615
X8115
X8365Y10369
X7865
X8115Y10869
X7615
X8543Y11122
X8398Y12047
X7898
X7398
X7615Y12869
X8115
X8615
X9115
X9615
X10115
X10615
X11115
X10394Y12047
X10571Y11732
X9894Y12047
X9394
X8898
X11968Y12126
X12185Y11831
X12500Y11594
X12874Y11417
X14869Y9398
X14646Y9175
X15091
X15865Y9369
X16654Y9606
X17067Y9213
X17894Y10610
X18365Y10369
X10856Y14237
X10618Y15761
X10395Y15991
X10172Y16221
X9949Y16451
X9725Y16681
X9502Y16911
X9115Y16869
X9279Y17141
X9056Y17371
X8833Y17601
X8609Y17831
X8386Y18061
X8163Y18291
X8115Y17869
X7615
X7115
X6615
X6243Y17806
X6365Y18369
X6865
X7365
Y17369
X7865
X8365
X8615Y16869
X8115
X7615
X7115
X6615
X6535Y17263
X6865Y17369
X5771Y17194
X5544Y17421
X5256Y17559
X5115Y17869
X4868Y18101
X4641Y18328
X4422Y18561
X4195Y18788
X3985Y19122
X3704Y19278
X3483Y19510
X3256Y19736
X3030Y19963
X3115Y18869
X3615
X3865Y18369
X3365
X3615Y17869
X4115
X4615
X4865Y17369
X4365
X3865
X4115Y16869
X4615
X5115
X5615
X5786Y14598
Y14278
X5634Y13663
X5365Y13369
X4779Y12895
X4464
X4149
X9365Y18369
X9865
X8365Y19369
X8115Y19869
X11319Y19898
Y19583
X12115Y23869
X12365Y24369
X11865
X10865
X9865
X8865
X7865
X6865
X13365
X14365
X15365
X16365
X17365
X2865
X2384Y24211
Y24531
Y23890
Y23570
Y23249
Y22929
Y22608
Y22288
Y21967
X2427Y21650
X2654Y21423
X2881Y21197
X1897Y21096
X1679Y21331
X1365Y21369
X865
X365
X615Y21869
X1115
X1617Y21966
Y21645
Y22286
Y22607
Y22927
Y23248
Y23568
Y23889
Y24209
Y24529
X865Y24369
X365
X615Y23869
X1115
X865Y23369
X365
X615Y22869
X1115
X865Y22369
X365
X615Y20869
X1115
X1615
X2123Y20869
X2350Y20643
X2577Y20416
X2803Y20190
X2865Y19369
X2365
X1615Y19869
X1115
X615
X865Y20369
X1365
X365
Y19369
X865
Y18369
X365
Y17369
X865
Y16369
X365
Y15369
X865
X1365
X1865
X2365
X2865
X865Y14369
X365
Y13369
X865
Y12369
X365
Y11369
X865
Y10369
X365
Y9369
X865
X2865Y22369
Y23369
X2384Y24851
Y25172
X2496Y25472
X2496Y25793
Y26113
Y26434
Y26754
Y27075
X1518Y27077
Y26757
Y26437
Y26116
Y25796
X1365Y25369
X1617Y25170
Y24850
X1115Y24869
X615
X365Y25369
Y26369
X3865
X3615Y26869
Y25869
X3865Y25369
X3615Y24869
X3115
X6865Y25369
X7865
X8865
X9865
X10865
X11865
X12365
X12115Y25869
X12365Y26369
X11865
X12115Y26869
X13365Y26369
X14365
X15365
X16365
X17365
Y25369
X16365
X15365
X14365
X13365
X12115Y24869
X10865Y26369
X9865
X8865
X7865
X6865
X20365
X20865
X21365
X21865
X22365
X22865
X22615Y26869
X22115
X21615
X21115
X20615
Y25869
X21115
X21615
X22115
X22615
X22865Y25369
X22365
X21865
X21365
X20865
X20365
X20615Y24869
X21115
X21615
X22115
X22615
T02
X12002Y8964
X12532Y8434
X13027Y8929
X13551Y9452
X13020Y9983
X12518Y10470
X12511Y9474
X12016Y9968
X11507Y9459
T03
X1596Y5922
X2596
Y6922
X1596
Y7922
Y8922
X2596
Y7922
X4598Y3920
X5598
Y2920
X4598
X5074Y1414
X6074
X7074
X8074
X9074
X8598Y2920
X7598
X6598
Y3920
X7598
X8598
X9598
X10598
X11598
X12598
X13598
Y2920
X12598
X11598
X10598
X9598
X14598
Y3920
X15598
X16598
X17598
Y2920
X16598
X15598
X19603Y5922
X20603
Y6922
Y7922
Y8922
X19603
Y7922
Y6922
X22307Y8923
Y9923
Y10923
Y11923
X20603Y11922
Y10922
Y9922
X19603
Y10922
Y11922
Y12922
X20603
Y13922
Y14922
Y15922
Y16922
X19603
Y15922
Y14922
Y13922
Y17922
X20603
Y18922
X19603
X19795Y23929
X18795
X17795
X16795
X15795
X14795
X13795
X12795
X11567Y23898
X10567
X9567
X8567
X7567
X6567
X5567
X4567
X4599Y21928
X5599
X6599
Y20928
X7599
Y21928
X8599
X9599
X10599
X11599
X12599
X13599
Y20928
X12599
X11599
X10599
X9599
X8599
X5599
X4599
X14599
Y21928
X15599
Y20928
X16599
Y21928
X17599
Y20928
X2596Y18922
Y17922
X1596
Y18922
Y16922
X2596
Y15922
X1596
Y14922
Y13922
X2596
Y12922
Y11922
Y10922
Y9922
X1596
Y10922
Y11922
Y12922
X2596Y14922
X4567Y24898
X5567
Y25898
Y26898
X6567
Y25898
Y24898
X7567
Y25898
X8567
Y26898
X9567
Y25898
Y24898
X8567
X10567
Y25898
X11567
Y24898
X12795Y24929
X13795
X14795
Y25929
Y26929
X15795
X16795
X17795
Y25929
X16795
Y24929
X17795
X15795
Y25929
X13795
Y26929
X12795
Y25929
X11567Y26898
X10567
X7567
X4567
Y25898
X18795Y25929
Y24929
X19795
Y25929
Y26929
X18795
M30
