G04*
G04 #@! TF.GenerationSoftware,Altium Limited,Altium Designer,24.2.2 (26)*
G04*
G04 Layer_Color=65535*
%FSLAX44Y44*%
%MOMM*%
G71*
G04*
G04 #@! TF.SameCoordinates,02CEA6E1-F361-457A-AF05-86797ADE389F*
G04*
G04*
G04 #@! TF.FilePolarity,Positive*
G04*
G01*
G75*
%ADD10C,0.6000*%
%ADD11C,0.2500*%
%ADD12C,0.1000*%
%ADD13C,0.2000*%
%ADD14C,0.2540*%
%ADD15C,0.1016*%
%ADD16C,0.1524*%
D10*
X739956Y282368D02*
G03*
X739956Y282368I-3000J0D01*
G01*
D11*
X746456Y304118D02*
G03*
X746456Y304118I-1250J0D01*
G01*
X842562Y208343D02*
G03*
X842562Y208343I-1250J0D01*
G01*
X885886Y718494D02*
G03*
X885886Y718494I-1250J0D01*
G01*
X391500Y901500D02*
G03*
X391500Y901500I-1250J0D01*
G01*
X408848Y497798D02*
G03*
X408848Y497798I-1250J0D01*
G01*
X232350Y196000D02*
G03*
X232350Y196000I-1270J0D01*
G01*
X43770Y492280D02*
G03*
X43770Y492280I-1270J0D01*
G01*
X233468Y461718D02*
G03*
X233468Y461718I-1250J0D01*
G01*
X58250Y133500D02*
G03*
X58250Y133500I-1250J0D01*
G01*
X735398Y457949D02*
G03*
X735398Y457949I-1250J0D01*
G01*
X641035Y437778D02*
G03*
X641035Y437778I-1250J0D01*
G01*
D12*
X160500Y707000D02*
G03*
X161500Y707000I500J0D01*
G01*
D02*
G03*
X160500Y707000I-500J0D01*
G01*
X104150Y160622D02*
X106150D01*
X104150Y181622D02*
X106150D01*
D13*
X9900Y211000D02*
G03*
X9900Y212000I0J500D01*
G01*
D02*
G03*
X9900Y211000I0J-500D01*
G01*
D02*
G03*
X9900Y212000I0J500D01*
G01*
X3469Y166719D02*
X32531D01*
X3469Y189281D02*
X32531D01*
X535955Y292368D02*
X535956Y203368D01*
X746955Y203368D02*
X746955Y292368D01*
X535956Y203368D02*
X746955Y203368D01*
X535955Y292368D02*
X746955D01*
X913500Y101500D02*
X939000D01*
X961500Y54000D02*
Y79500D01*
X914000Y31500D02*
X939500D01*
X891500Y53500D02*
Y79000D01*
X843812Y217093D02*
Y227093D01*
X874812Y217093D02*
Y227093D01*
X843812Y217093D02*
X874812D01*
X843812Y227093D02*
X874812D01*
X463000Y636000D02*
X488500D01*
X511000Y588500D02*
Y614000D01*
X463500Y566000D02*
X489000D01*
X441000Y588000D02*
Y613500D01*
X876080Y733272D02*
X881843Y727510D01*
X876080Y733272D02*
X880747Y737939D01*
X896728Y753920D02*
X902490Y748157D01*
X892061Y749253D02*
X896728Y753920D01*
X61990Y655750D02*
X120410D01*
X1500D02*
X22620D01*
X1500D02*
Y689000D01*
X16500Y699000D01*
Y803250D01*
X22620D01*
X61990Y803160D02*
X116600Y803250D01*
X948050Y784000D02*
Y888600D01*
X974950D01*
Y784000D02*
Y888600D01*
X948050Y784000D02*
X974950D01*
X328100Y888300D02*
X383900D01*
X328100D02*
Y914700D01*
X383900D01*
Y888300D02*
Y914700D01*
X393774Y502642D02*
X412442Y483974D01*
X354318Y463186D02*
X393774Y502642D01*
X354318Y463186D02*
X372985Y444518D01*
X412442Y483974D01*
X918925Y553398D02*
X971226D01*
Y194798D02*
Y553398D01*
X918925Y194798D02*
Y553398D01*
Y194798D02*
X971226D01*
X537116Y628898D02*
X895715D01*
X537116Y576598D02*
X895715D01*
Y628898D01*
X537116Y576598D02*
Y628898D01*
X537085Y119188D02*
Y171488D01*
X895686D01*
X537085Y119188D02*
X895686D01*
Y171488D01*
X461545Y553398D02*
X513845D01*
Y194798D02*
Y553398D01*
X461545Y194798D02*
Y553398D01*
Y194798D02*
X513845D01*
X237299Y163624D02*
Y221804D01*
Y163624D02*
X364971D01*
X237299Y221804D02*
X364971D01*
Y163624D02*
Y221804D01*
X17100Y600400D02*
X74300D01*
X17100Y498800D02*
Y600400D01*
Y498800D02*
X74300D01*
Y600400D01*
X197605Y408438D02*
X237062Y447895D01*
X178938Y427105D02*
X197605Y408438D01*
X178938Y427105D02*
X218395Y466562D01*
X237062Y447895D01*
X23210Y117950D02*
X45790Y117950D01*
X23500Y58050D02*
X45790D01*
X64450Y67000D02*
Y109040D01*
X4550Y67000D02*
Y109040D01*
X-65000Y223000D02*
X-500D01*
X-65000D02*
Y403000D01*
X-500D01*
X624759Y426288D02*
X631830Y433359D01*
X602839Y448208D02*
X609910Y455279D01*
X631830Y433359D01*
X602839Y448208D02*
X624759Y426288D01*
D14*
X434665Y92338D02*
Y102338D01*
X986906Y654578D02*
X996906D01*
Y644578D02*
Y654578D01*
X434665Y92338D02*
X444665D01*
X984274Y89898D02*
X971578D01*
Y96246D01*
X973694Y98362D01*
X977926D01*
X980042Y96246D01*
Y89898D01*
Y94130D02*
X984274Y98362D01*
X971578Y111058D02*
Y102594D01*
X977926D01*
Y106826D01*
Y102594D01*
X984274D01*
X971578Y127985D02*
X984274D01*
Y134333D01*
X982158Y136449D01*
X980042D01*
X977926Y134333D01*
Y127985D01*
Y134333D01*
X975810Y136449D01*
X973694D01*
X971578Y134333D01*
Y127985D01*
X404092Y571500D02*
X413069Y580477D01*
X417558Y575989D01*
X417558Y572996D01*
X414566Y570004D01*
X411573Y570004D01*
X407085Y574492D01*
X410077Y571500D02*
Y565515D01*
X428032D02*
X422047Y571500D01*
X417558Y567011D01*
X420551Y564019D01*
X417558Y567011D01*
X413069Y562523D01*
X431024Y544568D02*
X437009Y550553D01*
X442994Y550553D01*
Y544568D01*
X437009Y538583D01*
X441498Y543072D01*
X435513Y549057D01*
X241996Y826264D02*
X250460D01*
Y838960D01*
X241996D01*
X250460Y832612D02*
X246228D01*
X229300Y828380D02*
X231416Y826264D01*
X235648D01*
X237764Y828380D01*
Y830496D01*
X235648Y832612D01*
X231416D01*
X229300Y834728D01*
Y836844D01*
X231416Y838960D01*
X235648D01*
X237764Y836844D01*
X225068Y838960D02*
Y826264D01*
X218720D01*
X216604Y828380D01*
Y832612D01*
X218720Y834728D01*
X225068D01*
X212372Y828380D02*
X210256Y826264D01*
X206024D01*
X203908Y828380D01*
Y830496D01*
X206024Y832612D01*
X208140D01*
X206024D01*
X203908Y834728D01*
Y836844D01*
X206024Y838960D01*
X210256D01*
X212372Y836844D01*
X191213Y838960D02*
X199676D01*
X191213Y830496D01*
Y828380D01*
X193328Y826264D01*
X197561D01*
X199676Y828380D01*
X186981Y832612D02*
X178517D01*
X165821Y828380D02*
X167937Y826264D01*
X172169D01*
X174285Y828380D01*
Y830496D01*
X172169Y832612D01*
X167937D01*
X165821Y834728D01*
Y836844D01*
X167937Y838960D01*
X172169D01*
X174285Y836844D01*
X161589Y828380D02*
X159473Y826264D01*
X155241D01*
X153125Y828380D01*
Y830496D01*
X155241Y832612D01*
X157357D01*
X155241D01*
X153125Y834728D01*
Y836844D01*
X155241Y838960D01*
X159473D01*
X161589Y836844D01*
X931460Y794540D02*
X918764D01*
X931460Y803004D01*
X918764D01*
Y815700D02*
Y807236D01*
X931460D01*
Y815700D01*
X925112Y807236D02*
Y811468D01*
X918764Y819932D02*
X931460Y828396D01*
X918764D02*
X931460Y819932D01*
X918764Y832628D02*
Y841092D01*
Y836860D01*
X931460D01*
X918764Y845323D02*
Y849556D01*
Y847439D01*
X931460D01*
Y845323D01*
Y849556D01*
X918764Y862251D02*
Y858019D01*
X920880Y855903D01*
X929344D01*
X931460Y858019D01*
Y862251D01*
X929344Y864367D01*
X920880D01*
X918764Y862251D01*
X931460Y868599D02*
X918764D01*
X931460Y877063D01*
X918764D01*
X388960Y873960D02*
Y861264D01*
X382612D01*
X380496Y863380D01*
Y867612D01*
X382612Y869728D01*
X388960D01*
X384728D02*
X380496Y873960D01*
X367800Y861264D02*
X376264D01*
Y867612D01*
X372032D01*
X376264D01*
Y873960D01*
X350872D02*
Y861264D01*
X344524D01*
X342408Y863380D01*
Y867612D01*
X344524Y869728D01*
X350872D01*
X338176Y861264D02*
Y873960D01*
X333945Y869728D01*
X329712Y873960D01*
Y861264D01*
X325481Y873960D02*
Y861264D01*
X319133D01*
X317017Y863380D01*
Y867612D01*
X319133Y869728D01*
X325481D01*
X321249D02*
X317017Y873960D01*
X83040Y116460D02*
X95736D01*
Y110112D01*
X93620Y107996D01*
X89388D01*
X87272Y110112D01*
Y116460D01*
Y112228D02*
X83040Y107996D01*
X95736Y95300D02*
Y103764D01*
X83040D01*
Y95300D01*
X89388Y103764D02*
Y99532D01*
X93620Y82604D02*
X95736Y84720D01*
Y88952D01*
X93620Y91068D01*
X91504D01*
X89388Y88952D01*
Y84720D01*
X87272Y82604D01*
X85156D01*
X83040Y84720D01*
Y88952D01*
X85156Y91068D01*
X95736Y69908D02*
Y78372D01*
X83040D01*
Y69908D01*
X89388Y78372D02*
Y74140D01*
X95736Y65676D02*
Y57213D01*
Y61444D01*
X83040D01*
X307638Y129365D02*
X294942D01*
Y120901D01*
X307638Y108205D02*
Y116669D01*
X294942D01*
Y108205D01*
X301290Y116669D02*
Y112437D01*
X307638Y103973D02*
X294942D01*
Y97625D01*
X297058Y95509D01*
X305522D01*
X307638Y97625D01*
Y103973D01*
X375996Y528942D02*
X378989Y528942D01*
X381981Y531934D01*
Y534927D01*
X375996Y540912D01*
X373004D01*
X370011Y537919D01*
X370011Y534927D01*
X373004Y531934D01*
X375996Y534927D01*
X365523Y533430D02*
X374500Y524453D01*
X370011Y519964D01*
X367019Y519964D01*
X364026Y522957D01*
X364026Y525949D01*
X368515Y530438D01*
X358041Y510987D02*
X361034Y510987D01*
X364026Y513980D01*
Y516972D01*
X362530Y518468D01*
X359538Y518468D01*
X356545Y515476D01*
X353553D01*
X352057Y516972D01*
X352057Y519964D01*
X355049Y522957D01*
X358041D01*
X338591Y506498D02*
X347568Y497521D01*
X343079Y493032D01*
X340087D01*
X337094Y496025D01*
Y499017D01*
X341583Y503506D01*
X338591Y488544D02*
X329613Y497521D01*
Y491536D01*
X323628D01*
X332606Y482559D01*
X320636Y488544D02*
X329613Y479566D01*
X325125Y475078D01*
X322132Y475078D01*
X319140Y478070D01*
X319140Y481063D01*
X323628Y485551D01*
X320636Y482559D02*
X314651D01*
X295004Y257620D02*
X292888Y259736D01*
X288656D01*
X286540Y257620D01*
Y249156D01*
X288656Y247040D01*
X292888D01*
X295004Y249156D01*
Y253388D01*
X290772D01*
X299236Y247040D02*
Y259736D01*
X305584D01*
X307700Y257620D01*
Y253388D01*
X305584Y251272D01*
X299236D01*
X320396Y257620D02*
X318280Y259736D01*
X314048D01*
X311932Y257620D01*
Y255504D01*
X314048Y253388D01*
X318280D01*
X320396Y251272D01*
Y249156D01*
X318280Y247040D01*
X314048D01*
X311932Y249156D01*
X209477Y468931D02*
X200500Y477908D01*
X196011Y473419D01*
X196011Y470427D01*
X197508Y468931D01*
X200500Y468931D01*
X204989Y473419D01*
X200500Y468931D01*
Y465938D01*
X201996Y464442D01*
X204989Y464442D01*
X209477Y468931D01*
X196011Y455465D02*
X199004Y458457D01*
Y461449D01*
X193019Y467434D01*
X190026D01*
X187034Y464442D01*
X187034Y461449D01*
X193019Y455465D01*
X196011Y455465D01*
X187034Y446487D02*
X190026Y449480D01*
Y452472D01*
X184042Y458457D01*
X181049D01*
X178057Y455465D01*
X178057Y452472D01*
X184042Y446487D01*
X187034Y446487D01*
X182545Y441998D02*
X176560Y436014D01*
X179553Y439006D01*
X170576Y447983D01*
X130236Y589496D02*
Y597960D01*
X117540D01*
Y589496D01*
X123888Y597960D02*
Y593728D01*
X128120Y576800D02*
X130236Y578916D01*
Y583148D01*
X128120Y585264D01*
X126004D01*
X123888Y583148D01*
Y578916D01*
X121772Y576800D01*
X119656D01*
X117540Y578916D01*
Y583148D01*
X119656Y585264D01*
X117540Y572568D02*
X130236D01*
Y566220D01*
X128120Y564104D01*
X123888D01*
X121772Y566220D01*
Y572568D01*
X128120Y559872D02*
X130236Y557756D01*
Y553524D01*
X128120Y551408D01*
X126004D01*
X123888Y553524D01*
Y555640D01*
Y553524D01*
X121772Y551408D01*
X119656D01*
X117540Y553524D01*
Y557756D01*
X119656Y559872D01*
X117540Y538713D02*
Y547176D01*
X126004Y538713D01*
X128120D01*
X130236Y540829D01*
Y545061D01*
X128120Y547176D01*
X123888Y534481D02*
Y526017D01*
X128120Y513321D02*
X130236Y515437D01*
Y519669D01*
X128120Y521785D01*
X126004D01*
X123888Y519669D01*
Y515437D01*
X121772Y513321D01*
X119656D01*
X117540Y515437D01*
Y519669D01*
X119656Y521785D01*
X128120Y509089D02*
X130236Y506973D01*
Y502741D01*
X128120Y500625D01*
X126004D01*
X123888Y502741D01*
Y504857D01*
Y502741D01*
X121772Y500625D01*
X119656D01*
X117540Y502741D01*
Y506973D01*
X119656Y509089D01*
X103736Y571960D02*
X93156D01*
X91040Y569844D01*
Y565612D01*
X93156Y563496D01*
X103736D01*
X91040Y559264D02*
X99504D01*
X103736Y555032D01*
X99504Y550800D01*
X91040D01*
X97388D01*
Y559264D01*
X91040Y546568D02*
X103736D01*
Y540220D01*
X101620Y538104D01*
X97388D01*
X95272Y540220D01*
Y546568D01*
Y542336D02*
X91040Y538104D01*
X103736Y533872D02*
Y525408D01*
Y529640D01*
X91040D01*
X125996Y826264D02*
X130228D01*
X128112D01*
Y836844D01*
X130228Y838960D01*
X132344D01*
X134460Y836844D01*
X121764Y826264D02*
X113300D01*
X117532D01*
Y838960D01*
X109068D02*
Y830496D01*
X104836Y826264D01*
X100604Y830496D01*
Y838960D01*
Y832612D01*
X109068D01*
X87908Y828380D02*
X90024Y826264D01*
X94256D01*
X96372Y828380D01*
Y836844D01*
X94256Y838960D01*
X90024D01*
X87908Y836844D01*
Y832612D01*
X92140D01*
X95996Y625880D02*
X98112Y623764D01*
X102344D01*
X104460Y625880D01*
Y627996D01*
X102344Y630112D01*
X98112D01*
X95996Y632228D01*
Y634344D01*
X98112Y636460D01*
X102344D01*
X104460Y634344D01*
X91764Y623764D02*
Y636460D01*
X85416D01*
X83300Y634344D01*
Y625880D01*
X85416Y623764D01*
X91764D01*
X57908Y625880D02*
X60024Y623764D01*
X64256D01*
X66372Y625880D01*
Y634344D01*
X64256Y636460D01*
X60024D01*
X57908Y634344D01*
X53676Y636460D02*
Y627996D01*
X49444Y623764D01*
X45212Y627996D01*
Y636460D01*
Y630112D01*
X53676D01*
X40981Y636460D02*
Y623764D01*
X34633D01*
X32517Y625880D01*
Y630112D01*
X34633Y632228D01*
X40981D01*
X36749D02*
X32517Y636460D01*
X28285Y623764D02*
Y636460D01*
X21937D01*
X19821Y634344D01*
Y625880D01*
X21937Y623764D01*
X28285D01*
X166504Y37620D02*
X164388Y39736D01*
X160156D01*
X158040Y37620D01*
Y35504D01*
X160156Y33388D01*
X164388D01*
X166504Y31272D01*
Y29156D01*
X164388Y27040D01*
X160156D01*
X158040Y29156D01*
X170736Y27040D02*
X174968D01*
X172852D01*
Y35504D01*
X170736D01*
X181316Y27040D02*
Y35504D01*
X183432D01*
X185548Y33388D01*
Y27040D01*
Y33388D01*
X187664Y35504D01*
X189780Y33388D01*
Y27040D01*
X196128D02*
X200360D01*
X202476Y29156D01*
Y33388D01*
X200360Y35504D01*
X196128D01*
X194012Y33388D01*
Y29156D01*
X196128Y27040D01*
X206708D02*
Y35504D01*
X213055D01*
X215172Y33388D01*
Y27040D01*
X221519Y35504D02*
X225751D01*
X227867Y33388D01*
Y27040D01*
X221519D01*
X219403Y29156D01*
X221519Y31272D01*
X227867D01*
X232099Y27040D02*
X238447D01*
X240563Y29156D01*
X238447Y31272D01*
X234215D01*
X232099Y33388D01*
X234215Y35504D01*
X240563D01*
X257491Y27040D02*
Y39736D01*
X263839D01*
X265955Y37620D01*
Y33388D01*
X263839Y31272D01*
X257491D01*
X261723D02*
X265955Y27040D01*
X270187D02*
X274419D01*
X272303D01*
Y35504D01*
X270187D01*
X282883D02*
X287115D01*
X289231Y33388D01*
Y27040D01*
X282883D01*
X280767Y29156D01*
X282883Y31272D01*
X289231D01*
X293463Y35504D02*
Y29156D01*
X295579Y27040D01*
X301927D01*
Y35504D01*
X306159Y27040D02*
Y39736D01*
Y31272D02*
X312507Y35504D01*
X306159Y31272D02*
X312507Y27040D01*
X320970Y35504D02*
X325202D01*
X327318Y33388D01*
Y27040D01*
X320970D01*
X318855Y29156D01*
X320970Y31272D01*
X327318D01*
X344246Y39736D02*
Y31272D01*
X348478Y27040D01*
X352710Y31272D01*
Y39736D01*
X365406Y27040D02*
X356942D01*
X365406Y35504D01*
Y37620D01*
X363290Y39736D01*
X359058D01*
X356942Y37620D01*
X390798Y27040D02*
X382334D01*
X390798Y35504D01*
Y37620D01*
X388682Y39736D01*
X384450D01*
X382334Y37620D01*
X395030D02*
X397146Y39736D01*
X401378D01*
X403494Y37620D01*
Y29156D01*
X401378Y27040D01*
X397146D01*
X395030Y29156D01*
Y37620D01*
X416190Y27040D02*
X407726D01*
X416190Y35504D01*
Y37620D01*
X414074Y39736D01*
X409842D01*
X407726Y37620D01*
X426770Y27040D02*
Y39736D01*
X420422Y33388D01*
X428886D01*
X87422Y868304D02*
X97578Y878461D01*
Y868304D02*
X87422Y878461D01*
X92500Y868304D02*
Y878461D01*
X97578Y873382D02*
X87422D01*
X100118Y893696D02*
Y883539D01*
X89961Y893696D01*
X87422D01*
X84882Y891157D01*
Y886078D01*
X87422Y883539D01*
X215188Y797152D02*
Y809848D01*
X221536D01*
X223652Y807732D01*
Y803500D01*
X221536Y801384D01*
X215188D01*
X219420D02*
X223652Y797152D01*
X236348D02*
X227884D01*
X236348Y805616D01*
Y807732D01*
X234232Y809848D01*
X230000D01*
X227884Y807732D01*
X240580Y797152D02*
X244812D01*
X242696D01*
Y809848D01*
X240580Y807732D01*
X194130Y717652D02*
Y730348D01*
X200478D01*
X202594Y728232D01*
Y724000D01*
X200478Y721884D01*
X194130D01*
X198362D02*
X202594Y717652D01*
X206826D02*
X211058D01*
X208942D01*
Y730348D01*
X206826Y728232D01*
X223754Y717652D02*
Y730348D01*
X217406Y724000D01*
X225870D01*
X200036Y762732D02*
X197920Y764848D01*
X193688D01*
X191572Y762732D01*
Y754268D01*
X193688Y752152D01*
X197920D01*
X200036Y754268D01*
X212732Y752152D02*
X204268D01*
X212732Y760616D01*
Y762732D01*
X210616Y764848D01*
X206384D01*
X204268Y762732D01*
X225428Y752152D02*
X216964D01*
X225428Y760616D01*
Y762732D01*
X223312Y764848D01*
X219080D01*
X216964Y762732D01*
D15*
X990369Y177312D02*
Y175935D01*
X991745Y174559D01*
X993122D01*
X995875Y177312D01*
Y178688D01*
X994498Y180065D01*
X993122D01*
X991745Y178688D01*
X993122Y177312D01*
X992433Y182130D02*
X988304Y178000D01*
X989680Y184883D01*
X985551Y180753D01*
X984174Y182130D02*
X988304Y186259D01*
X986239Y188324D01*
X984863D01*
X982110Y185571D01*
Y184194D01*
X984174Y182130D01*
X972153Y695682D02*
X971179Y694708D01*
Y692761D01*
X972153Y691788D01*
X976046D01*
X977020Y692761D01*
Y694708D01*
X976046Y695682D01*
X974099D01*
Y693735D01*
X977020Y697628D02*
X971179D01*
X977020Y701522D01*
X971179D01*
Y703468D02*
X977020D01*
Y706388D01*
X976046Y707362D01*
X972153D01*
X971179Y706388D01*
Y703468D01*
X116681Y46847D02*
X115708Y47821D01*
X113761D01*
X112788Y46847D01*
Y42954D01*
X113761Y41981D01*
X115708D01*
X116681Y42954D01*
Y44900D01*
X114735D01*
X118628Y41981D02*
Y47821D01*
X122522Y41981D01*
Y47821D01*
X124468D02*
Y41981D01*
X127388D01*
X128362Y42954D01*
Y46847D01*
X127388Y47821D01*
X124468D01*
X249681Y553847D02*
X248708Y554821D01*
X246761D01*
X245788Y553847D01*
Y549954D01*
X246761Y548980D01*
X248708D01*
X249681Y549954D01*
Y551900D01*
X247735D01*
X251628Y548980D02*
Y554821D01*
X255522Y548980D01*
Y554821D01*
X257468D02*
Y548980D01*
X260388D01*
X261362Y549954D01*
Y553847D01*
X260388Y554821D01*
X257468D01*
X429182Y152847D02*
X428208Y153821D01*
X426261D01*
X425288Y152847D01*
Y148954D01*
X426261Y147980D01*
X428208D01*
X429182Y148954D01*
Y150900D01*
X427235D01*
X431128Y147980D02*
Y153821D01*
X435022Y147980D01*
Y153821D01*
X436968D02*
Y147980D01*
X439888D01*
X440862Y148954D01*
Y152847D01*
X439888Y153821D01*
X436968D01*
X445484Y302516D02*
X441591D01*
X439644Y304463D01*
X441591Y306409D01*
X445484D01*
X442564D01*
Y302516D01*
X445484Y311276D02*
X439644D01*
X442564Y308356D01*
Y312250D01*
X455134Y302427D02*
X451240D01*
X449294Y304374D01*
X451240Y306321D01*
X455134D01*
X452214D01*
Y302427D01*
X449294Y312161D02*
Y308267D01*
X452214D01*
X451240Y310214D01*
Y311188D01*
X452214Y312161D01*
X454160D01*
X455134Y311188D01*
Y309241D01*
X454160Y308267D01*
X445984Y278016D02*
X442091D01*
X440144Y279963D01*
X442091Y281909D01*
X445984D01*
X443064D01*
Y278016D01*
X440144Y283856D02*
Y287750D01*
X441117D01*
X445011Y283856D01*
X445984D01*
X455134Y277427D02*
X451240D01*
X449294Y279374D01*
X451240Y281321D01*
X455134D01*
X452214D01*
Y277427D01*
X449294Y287161D02*
X450267Y285214D01*
X452214Y283267D01*
X454160D01*
X455134Y284241D01*
Y286188D01*
X454160Y287161D01*
X453187D01*
X452214Y286188D01*
Y283267D01*
X436909Y414883D02*
X435936Y415856D01*
X433989D01*
X433016Y414883D01*
Y413909D01*
X433989Y412936D01*
X435936D01*
X436909Y411963D01*
Y410989D01*
X435936Y410016D01*
X433989D01*
X433016Y410989D01*
X438856Y415856D02*
X440803D01*
X439829D01*
Y410016D01*
X438856D01*
X440803D01*
X446643Y415856D02*
X444696D01*
X443723Y414883D01*
Y410989D01*
X444696Y410016D01*
X446643D01*
X447616Y410989D01*
Y414883D01*
X446643Y415856D01*
X449563Y414883D02*
X450536Y415856D01*
X452483D01*
X453456Y414883D01*
Y413909D01*
X452483Y412936D01*
X451510D01*
X452483D01*
X453456Y411963D01*
Y410989D01*
X452483Y410016D01*
X450536D01*
X449563Y410989D01*
X129550Y921637D02*
X130524Y920664D01*
X132470D01*
X133444Y921637D01*
Y925531D01*
X132470Y926504D01*
X130524D01*
X129550Y925531D01*
Y923584D01*
X131497D01*
X127604Y926504D02*
Y920664D01*
X123710Y926504D01*
Y920664D01*
X121763D02*
Y926504D01*
X118843D01*
X117870Y925531D01*
Y921637D01*
X118843Y920664D01*
X121763D01*
X132984Y915984D02*
Y910144D01*
X130064D01*
X129090Y911117D01*
Y913064D01*
X130064Y914037D01*
X132984D01*
X131037D02*
X129090Y915984D01*
X123250Y911117D02*
X124224Y910144D01*
X126171D01*
X127144Y911117D01*
Y912091D01*
X126171Y913064D01*
X124224D01*
X123250Y914037D01*
Y915011D01*
X124224Y915984D01*
X126171D01*
X127144Y915011D01*
X121304Y910144D02*
X117410D01*
X119357D01*
Y915984D01*
X179762Y920220D02*
X180735Y919246D01*
X182682D01*
X183655Y920220D01*
Y924113D01*
X182682Y925087D01*
X180735D01*
X179762Y924113D01*
Y922167D01*
X181708D01*
X177815Y925087D02*
Y919246D01*
X173921Y925087D01*
Y919246D01*
X171975D02*
Y925087D01*
X169055D01*
X168081Y924113D01*
Y920220D01*
X169055Y919246D01*
X171975D01*
X205091Y920117D02*
X206064Y919144D01*
X208011D01*
X208984Y920117D01*
Y924011D01*
X208011Y924984D01*
X206064D01*
X205091Y924011D01*
Y922064D01*
X207037D01*
X203144Y924984D02*
Y919144D01*
X199250Y924984D01*
Y919144D01*
X197304D02*
Y924984D01*
X194384D01*
X193410Y924011D01*
Y920117D01*
X194384Y919144D01*
X197304D01*
X235484Y920117D02*
X234511Y919144D01*
X232564D01*
X231591Y920117D01*
Y921090D01*
X232564Y922064D01*
X233537D01*
X232564D01*
X231591Y923037D01*
Y924011D01*
X232564Y924984D01*
X234511D01*
X235484Y924011D01*
X229644Y919144D02*
Y923037D01*
X227697Y924984D01*
X225751Y923037D01*
Y919144D01*
X223804Y920117D02*
X222830Y919144D01*
X220884D01*
X219910Y920117D01*
Y921090D01*
X220884Y922064D01*
X221857D01*
X220884D01*
X219910Y923037D01*
Y924011D01*
X220884Y924984D01*
X222830D01*
X223804Y924011D01*
X872409Y103383D02*
X871436Y104356D01*
X869489D01*
X868516Y103383D01*
Y99489D01*
X869489Y98516D01*
X871436D01*
X872409Y99489D01*
Y101436D01*
X870463D01*
X874356Y98516D02*
Y104356D01*
X878250Y98516D01*
Y104356D01*
X880196D02*
Y98516D01*
X883116D01*
X884090Y99489D01*
Y103383D01*
X883116Y104356D01*
X880196D01*
X985617Y794409D02*
X984644Y793436D01*
Y791489D01*
X985617Y790516D01*
X989511D01*
X990484Y791489D01*
Y793436D01*
X989511Y794409D01*
X987564D01*
Y792463D01*
X990484Y796356D02*
X984644D01*
X990484Y800249D01*
X984644D01*
Y802196D02*
X990484D01*
Y805116D01*
X989511Y806090D01*
X985617D01*
X984644Y805116D01*
Y802196D01*
Y818516D02*
Y822409D01*
Y820463D01*
X990484D01*
X984644Y824356D02*
X990484Y828250D01*
X984644D02*
X990484Y824356D01*
Y843516D02*
X984644D01*
Y846436D01*
X985617Y847409D01*
X987564D01*
X988537Y846436D01*
Y843516D01*
Y845463D02*
X990484Y847409D01*
X984644Y849356D02*
X990484Y853250D01*
X984644D02*
X990484Y849356D01*
X984644Y873409D02*
Y869516D01*
X987564D01*
X986590Y871463D01*
Y872436D01*
X987564Y873409D01*
X989511D01*
X990484Y872436D01*
Y870489D01*
X989511Y869516D01*
X984644Y875356D02*
X988537D01*
X990484Y877303D01*
X988537Y879249D01*
X984644D01*
X346176Y922001D02*
X347149Y921028D01*
X349096D01*
X350069Y922001D01*
Y925894D01*
X349096Y926868D01*
X347149D01*
X346176Y925894D01*
Y923948D01*
X348122D01*
X344229Y926868D02*
Y921028D01*
X340336Y926868D01*
Y921028D01*
X338389D02*
Y926868D01*
X335469D01*
X334496Y925894D01*
Y922001D01*
X335469Y921028D01*
X338389D01*
X370304Y920528D02*
X374197D01*
Y923448D01*
X372251Y922474D01*
X371277D01*
X370304Y923448D01*
Y925394D01*
X371277Y926368D01*
X373224D01*
X374197Y925394D01*
X368357Y920528D02*
Y924421D01*
X366410Y926368D01*
X364464Y924421D01*
Y920528D01*
X976144Y374516D02*
X981984D01*
Y377436D01*
X981011Y378409D01*
X977117D01*
X976144Y377436D01*
Y374516D01*
X977117Y384249D02*
X976144Y383276D01*
Y381329D01*
X977117Y380356D01*
X981011D01*
X981984Y381329D01*
Y383276D01*
X981011Y384249D01*
X976144Y386196D02*
X981984D01*
Y390090D01*
X976144Y392036D02*
X981984D01*
X980037D01*
X976144Y395930D01*
X979064Y393010D01*
X981984Y395930D01*
X976144Y397876D02*
X981984D01*
Y400797D01*
X981011Y401770D01*
X980037D01*
X979064Y400797D01*
Y397876D01*
Y400797D01*
X978091Y401770D01*
X977117D01*
X976144Y400797D01*
Y397876D01*
X700370Y637566D02*
X704500Y633437D01*
X706565Y635502D01*
Y636878D01*
X703812Y639631D01*
X702435D01*
X700370Y637566D01*
X706565Y643761D02*
X705188Y642384D01*
Y641008D01*
X707941Y638255D01*
X709318D01*
X710694Y639631D01*
Y641008D01*
X707941Y643761D01*
X706565D01*
X712759Y641696D02*
X708630Y645826D01*
X710694Y647890D01*
X712071D01*
X713447Y646514D01*
Y645137D01*
X711383Y643073D01*
X712759Y644449D02*
X715512D01*
X716889Y645826D02*
X714136Y648579D01*
Y651332D01*
X716889D01*
X719642Y648579D01*
X717577Y650643D01*
X714824Y647890D01*
X729942Y632964D02*
X727189Y635717D01*
Y638470D01*
X729942D01*
X732695Y635717D01*
X730630Y637782D01*
X727877Y635029D01*
X730630Y640535D02*
Y641912D01*
X732007Y643288D01*
X733383D01*
X734071Y642600D01*
Y641224D01*
X735448D01*
X736136Y640535D01*
Y639159D01*
X734760Y637782D01*
X733383D01*
X732695Y638470D01*
Y639847D01*
X731318D01*
X730630Y640535D01*
X732695Y639847D02*
X734071Y641224D01*
X757000Y633437D02*
X754247Y636190D01*
Y638943D01*
X757000D01*
X759753Y636190D01*
X757688Y638255D01*
X754935Y635502D01*
X759753Y644449D02*
X759065Y642384D01*
Y639631D01*
X760441Y638255D01*
X761818D01*
X763194Y639631D01*
Y641008D01*
X762506Y641696D01*
X761130D01*
X759065Y639631D01*
X781000Y633437D02*
X778247Y636190D01*
Y638943D01*
X781000D01*
X783753Y636190D01*
X781688Y638255D01*
X778935Y635502D01*
X787194Y639631D02*
X783065Y643761D01*
Y639631D01*
X785818Y642384D01*
X806442Y632964D02*
X803689Y635717D01*
Y638470D01*
X806442D01*
X809195Y635717D01*
X807130Y637782D01*
X804377Y635029D01*
X813324Y639847D02*
X810571Y637094D01*
Y642600D01*
X809883Y643288D01*
X808506D01*
X807130Y641912D01*
Y640535D01*
X832942Y632964D02*
X830189Y635717D01*
Y638470D01*
X832942D01*
X835695Y635717D01*
X833630Y637782D01*
X830877Y635029D01*
X837071Y637094D02*
X838448Y638470D01*
X837759Y637782D01*
X833630Y641912D01*
Y640535D01*
X851870Y637566D02*
X856000Y633437D01*
X858065Y635502D01*
Y636878D01*
X857376Y637566D01*
X856000D01*
X853935Y635502D01*
X856000Y637566D01*
Y638943D01*
X855312Y639631D01*
X853935D01*
X851870Y637566D01*
X859441Y638255D02*
X860818D01*
X862194Y639631D01*
Y641008D01*
X859441Y643761D01*
X858065D01*
X856688Y642384D01*
Y641008D01*
X857376Y640320D01*
X858753D01*
X860818Y642384D01*
X877812Y637594D02*
X881942Y633464D01*
X884007Y635529D01*
Y636906D01*
X883318Y637594D01*
X881942D01*
X879877Y635529D01*
X881942Y637594D01*
Y638970D01*
X881253Y639659D01*
X879877D01*
X877812Y637594D01*
X881942Y641723D02*
X884695Y644477D01*
X885383Y643788D01*
Y638282D01*
X886071Y637594D01*
X875312Y565594D02*
X879442Y561464D01*
X881507Y563529D01*
Y564906D01*
X880818Y565594D01*
X879442D01*
X877377Y563529D01*
X879442Y565594D01*
Y566970D01*
X878753Y567659D01*
X877377D01*
X875312Y565594D01*
X882195Y572477D02*
X881507Y570412D01*
Y567659D01*
X882883Y566282D01*
X884259D01*
X885636Y567659D01*
Y569035D01*
X884948Y569724D01*
X883571D01*
X881507Y567659D01*
X849312Y565594D02*
X853442Y561464D01*
X855507Y563529D01*
Y564906D01*
X854818Y565594D01*
X853442D01*
X851377Y563529D01*
X853442Y565594D01*
Y566970D01*
X852753Y567659D01*
X851377D01*
X849312Y565594D01*
X854130Y569035D02*
Y570412D01*
X855507Y571788D01*
X856883D01*
X857571Y571100D01*
Y569724D01*
X858948D01*
X859636Y569035D01*
Y567659D01*
X858260Y566282D01*
X856883D01*
X856195Y566970D01*
Y568347D01*
X854818D01*
X854130Y569035D01*
X856195Y568347D02*
X857571Y569724D01*
X827942Y560964D02*
X825189Y563717D01*
Y566470D01*
X827942D01*
X830695Y563717D01*
X828630Y565782D01*
X825877Y563029D01*
X828630Y568535D02*
Y569912D01*
X830006Y571288D01*
X831383D01*
X834136Y568535D01*
Y567159D01*
X832759Y565782D01*
X831383D01*
X828630Y568535D01*
X801442Y560964D02*
X798689Y563717D01*
Y566470D01*
X801442D01*
X804195Y563717D01*
X802130Y565782D01*
X799377Y563029D01*
X802130Y568535D02*
Y569912D01*
X803506Y571288D01*
X804883D01*
X805571Y570600D01*
Y569224D01*
X804883Y568535D01*
X805571Y569224D01*
X806948D01*
X807636Y568535D01*
Y567159D01*
X806260Y565782D01*
X804883D01*
X775942Y559964D02*
X773189Y562717D01*
Y565470D01*
X775942D01*
X778695Y562717D01*
X776630Y564782D01*
X773877Y562029D01*
X778695Y570977D02*
X775942Y568223D01*
X778006Y566159D01*
X778695Y568223D01*
X779383Y568912D01*
X780760D01*
X782136Y567535D01*
Y566159D01*
X780760Y564782D01*
X779383D01*
X751442Y558964D02*
X748689Y561717D01*
Y564470D01*
X751442D01*
X754195Y561717D01*
X752130Y563782D01*
X749377Y561029D01*
X751442Y567224D02*
X754195Y569977D01*
X754883Y569288D01*
Y563782D01*
X755571Y563094D01*
X726000Y558437D02*
X723247Y561190D01*
Y563943D01*
X726000D01*
X728753Y561190D01*
X726688Y563255D01*
X723935Y560502D01*
X729441Y563255D02*
X730818D01*
X732194Y564631D01*
Y566008D01*
X729441Y568761D01*
X728065D01*
X726688Y567384D01*
Y566008D01*
X727376Y565320D01*
X728753D01*
X730818Y567384D01*
X684870Y552566D02*
X689000Y548437D01*
X691065Y550502D01*
Y551878D01*
X688312Y554631D01*
X686935D01*
X684870Y552566D01*
X692441Y558761D02*
X691065D01*
X689688Y557384D01*
Y556008D01*
X692441Y553255D01*
X693818D01*
X695194Y554631D01*
Y556008D01*
X693130Y560826D02*
X697259Y556696D01*
X700012Y559449D01*
X697259Y564955D02*
X701389Y560826D01*
X700012Y562202D01*
Y567708D01*
Y563579D01*
X704142D01*
X705518Y564955D02*
X702765Y567708D01*
Y570461D01*
X705518D01*
X708271Y567708D01*
X706207Y569773D01*
X703454Y567020D01*
X664812Y557631D02*
X663435D01*
X662059Y556255D01*
Y554878D01*
X662747Y554190D01*
X664123D01*
X665500Y555566D01*
X666877D01*
X667565Y554878D01*
Y553502D01*
X666188Y552125D01*
X664812D01*
X668941Y561761D02*
X667565D01*
X666188Y560384D01*
Y559008D01*
X668941Y556255D01*
X670318D01*
X671694Y557631D01*
Y559008D01*
X669630Y563826D02*
X673759Y559696D01*
X676512Y562449D01*
X673759Y567955D02*
X677889Y563826D01*
X676512Y565202D01*
Y570708D01*
Y566579D01*
X680642D01*
X677812Y640631D02*
X676435D01*
X675059Y639255D01*
Y637878D01*
X675747Y637190D01*
X677123D01*
X678500Y638566D01*
X679876D01*
X680565Y637878D01*
Y636502D01*
X679188Y635125D01*
X677812D01*
X678500Y642696D02*
X682630Y638566D01*
X684694Y640631D01*
Y642008D01*
X681941Y644761D01*
X680565D01*
X678500Y642696D01*
X682630Y646826D02*
X684006Y648202D01*
X683318Y647514D01*
X687447Y643384D01*
X686759Y642696D01*
X688136Y644072D01*
X690201Y646137D02*
X686071Y650267D01*
X692954Y648890D01*
X688824Y653020D01*
X648312Y567131D02*
X646935D01*
X645559Y565755D01*
Y564378D01*
X648312Y561625D01*
X649688D01*
X651065Y563002D01*
Y564378D01*
X652441Y571261D02*
X651065D01*
X649688Y569884D01*
Y568508D01*
X650377Y567820D01*
X651753D01*
X653130Y569196D01*
X654506D01*
X655194Y568508D01*
Y567131D01*
X653818Y565755D01*
X652441D01*
X614312Y559131D02*
X612935D01*
X611559Y557755D01*
Y556378D01*
X612247Y555690D01*
X613623D01*
X615000Y557066D01*
X616376D01*
X617065Y556378D01*
Y555002D01*
X615688Y553625D01*
X614312D01*
X615000Y561196D02*
X619129Y557066D01*
X617065Y559131D01*
X619818Y561884D01*
X617753Y563949D01*
X621883Y559819D01*
X619129Y565326D02*
X623259Y561196D01*
X625324Y563261D01*
Y564637D01*
X622571Y567390D01*
X621194D01*
X619129Y565326D01*
X627389D02*
X623259Y569455D01*
X630142Y568079D01*
X626012Y572208D01*
X523909Y491383D02*
X522936Y492356D01*
X520989D01*
X520016Y491383D01*
Y490409D01*
X520989Y489436D01*
X522936D01*
X523909Y488463D01*
Y487489D01*
X522936Y486516D01*
X520989D01*
X520016Y487489D01*
X529749Y491383D02*
X528776Y492356D01*
X526829D01*
X525856Y491383D01*
Y487489D01*
X526829Y486516D01*
X528776D01*
X529749Y487489D01*
X531696Y492356D02*
Y486516D01*
X535590D01*
X537536Y492356D02*
Y486516D01*
Y488463D01*
X541430Y492356D01*
X538510Y489436D01*
X541430Y486516D01*
X523332Y516687D02*
X522358Y517660D01*
X520412D01*
X519438Y516687D01*
Y515714D01*
X520412Y514740D01*
X522358D01*
X523332Y513767D01*
Y512794D01*
X522358Y511820D01*
X520412D01*
X519438Y512794D01*
X525278Y517660D02*
X527225D01*
X526252D01*
Y511820D01*
X525278D01*
X527225D01*
X533065Y517660D02*
X531119D01*
X530145Y516687D01*
Y512794D01*
X531119Y511820D01*
X533065D01*
X534039Y512794D01*
Y516687D01*
X533065Y517660D01*
X539879Y511820D02*
X535985D01*
X539879Y515714D01*
Y516687D01*
X538905Y517660D01*
X536959D01*
X535985Y516687D01*
X429016Y517830D02*
Y511989D01*
X431936D01*
X432909Y512963D01*
Y516856D01*
X431936Y517830D01*
X429016D01*
X434856Y511016D02*
X438750D01*
X440696Y517830D02*
X442643D01*
X441670D01*
Y511989D01*
X440696D01*
X442643D01*
X445563D02*
Y517830D01*
X448483D01*
X449456Y516856D01*
Y514909D01*
X448483Y513936D01*
X445563D01*
X447510D02*
X449456Y511989D01*
X455297Y512963D02*
Y516856D01*
X454323Y517830D01*
X452377D01*
X451403Y516856D01*
Y512963D01*
X452377Y511989D01*
X454323D01*
X453350Y513936D02*
X455297Y511989D01*
X454323D02*
X455297Y512963D01*
X520516Y434016D02*
Y439856D01*
X523436D01*
X524409Y438883D01*
Y436936D01*
X523436Y435963D01*
X520516D01*
X526356Y434016D02*
Y439856D01*
X529276D01*
X530249Y438883D01*
Y436936D01*
X529276Y435963D01*
X526356D01*
X536090Y438883D02*
X535116Y439856D01*
X533170D01*
X532196Y438883D01*
Y437909D01*
X533170Y436936D01*
X535116D01*
X536090Y435963D01*
Y434989D01*
X535116Y434016D01*
X533170D01*
X532196Y434989D01*
X434016Y487016D02*
Y492856D01*
X435963Y490909D01*
X437909Y492856D01*
Y487016D01*
X439856Y492856D02*
X441803D01*
X440830D01*
Y487016D01*
X439856D01*
X441803D01*
X448616Y491883D02*
X447643Y492856D01*
X445696D01*
X444723Y491883D01*
Y490909D01*
X445696Y489936D01*
X447643D01*
X448616Y488963D01*
Y487989D01*
X447643Y487016D01*
X445696D01*
X444723Y487989D01*
X453483Y492856D02*
X451536D01*
X450563Y491883D01*
Y487989D01*
X451536Y487016D01*
X453483D01*
X454456Y487989D01*
Y491883D01*
X453483Y492856D01*
X434016Y458016D02*
Y463856D01*
X435963Y461909D01*
X437909Y463856D01*
Y458016D01*
X442776Y463856D02*
X440830D01*
X439856Y462883D01*
Y458989D01*
X440830Y458016D01*
X442776D01*
X443750Y458989D01*
Y462883D01*
X442776Y463856D01*
X449590Y462883D02*
X448616Y463856D01*
X446670D01*
X445696Y462883D01*
Y461909D01*
X446670Y460936D01*
X448616D01*
X449590Y459963D01*
Y458989D01*
X448616Y458016D01*
X446670D01*
X445696Y458989D01*
X451536Y463856D02*
X453483D01*
X452510D01*
Y458016D01*
X451536D01*
X453483D01*
X447909Y438383D02*
X446936Y439356D01*
X444989D01*
X444016Y438383D01*
Y434489D01*
X444989Y433516D01*
X446936D01*
X447909Y434489D01*
X453750Y438383D02*
X452776Y439356D01*
X450830D01*
X449856Y438383D01*
Y437409D01*
X450830Y436436D01*
X452776D01*
X453750Y435463D01*
Y434489D01*
X452776Y433516D01*
X450830D01*
X449856Y434489D01*
X522016Y364356D02*
Y358516D01*
X524936D01*
X525909Y359489D01*
Y363383D01*
X524936Y364356D01*
X522016D01*
X531749Y358516D02*
X527856D01*
X531749Y362409D01*
Y363383D01*
X530776Y364356D01*
X528829D01*
X527856Y363383D01*
X520516Y340330D02*
Y334489D01*
X522463Y336436D01*
X524409Y334489D01*
Y340330D01*
X526356Y333516D02*
X530249D01*
X536090Y340330D02*
X532196D01*
Y334489D01*
X536090D01*
X532196Y337409D02*
X534143D01*
X538036Y334489D02*
Y340330D01*
X541930Y334489D01*
Y340330D01*
X449644Y331516D02*
X455484D01*
Y334436D01*
X454511Y335409D01*
X450617D01*
X449644Y334436D01*
Y331516D01*
X450617Y337356D02*
X449644Y338330D01*
Y340276D01*
X450617Y341250D01*
X451590D01*
X452564Y340276D01*
Y339303D01*
Y340276D01*
X453537Y341250D01*
X454511D01*
X455484Y340276D01*
Y338330D01*
X454511Y337356D01*
X521516Y308516D02*
Y312409D01*
X523463Y314356D01*
X525409Y312409D01*
Y308516D01*
Y311436D01*
X521516D01*
X531250Y314356D02*
X527356D01*
Y311436D01*
X529303Y312409D01*
X530276D01*
X531250Y311436D01*
Y309489D01*
X530276Y308516D01*
X528330D01*
X527356Y309489D01*
X445984Y231516D02*
X442090D01*
X440144Y233463D01*
X442090Y235409D01*
X445984D01*
X443064D01*
Y231516D01*
X441117Y237356D02*
X440144Y238330D01*
Y240276D01*
X441117Y241250D01*
X442090D01*
X443064Y240276D01*
X444037Y241250D01*
X445011D01*
X445984Y240276D01*
Y238330D01*
X445011Y237356D01*
X444037D01*
X443064Y238330D01*
X442090Y237356D01*
X441117D01*
X443064Y238330D02*
Y240276D01*
X445984Y255516D02*
X442090D01*
X440144Y257463D01*
X442090Y259409D01*
X445984D01*
X443064D01*
Y255516D01*
X445011Y261356D02*
X445984Y262330D01*
Y264276D01*
X445011Y265250D01*
X441117D01*
X440144Y264276D01*
Y262330D01*
X441117Y261356D01*
X442090D01*
X443064Y262330D01*
Y265250D01*
X455634Y255427D02*
X451740D01*
X449794Y257374D01*
X451740Y259321D01*
X455634D01*
X452714D01*
Y255427D01*
X455634Y261268D02*
Y263214D01*
Y262241D01*
X449794D01*
X450767Y261268D01*
Y266134D02*
X449794Y267108D01*
Y269054D01*
X450767Y270028D01*
X454660D01*
X455634Y269054D01*
Y267108D01*
X454660Y266134D01*
X450767D01*
X570016Y109016D02*
Y112909D01*
X571963Y114856D01*
X573909Y112909D01*
Y109016D01*
Y111936D01*
X570016D01*
X575856Y109016D02*
X577803D01*
X576829D01*
Y114856D01*
X575856Y113883D01*
X580723Y109016D02*
X582670D01*
X581696D01*
Y114856D01*
X580723Y113883D01*
X569927Y99366D02*
Y103260D01*
X571874Y105206D01*
X573821Y103260D01*
Y99366D01*
Y102286D01*
X569927D01*
X575768Y99366D02*
X577714D01*
X576741D01*
Y105206D01*
X575768Y104233D01*
X584528Y99366D02*
X580634D01*
X584528Y103260D01*
Y104233D01*
X583554Y105206D01*
X581608D01*
X580634Y104233D01*
X597516Y114356D02*
Y108516D01*
X600436D01*
X601409Y109489D01*
Y113383D01*
X600436Y114356D01*
X597516D01*
X606276Y108516D02*
Y114356D01*
X603356Y111436D01*
X607249D01*
X597427Y104706D02*
Y98866D01*
X600348D01*
X601321Y99840D01*
Y103733D01*
X600348Y104706D01*
X597427D01*
X607161D02*
X603268D01*
Y101786D01*
X605214Y102760D01*
X606188D01*
X607161Y101786D01*
Y99840D01*
X606188Y98866D01*
X604241D01*
X603268Y99840D01*
X622016Y114356D02*
Y108516D01*
X624936D01*
X625909Y109489D01*
Y113383D01*
X624936Y114356D01*
X622016D01*
X631749D02*
X629803Y113383D01*
X627856Y111436D01*
Y109489D01*
X628829Y108516D01*
X630776D01*
X631749Y109489D01*
Y110463D01*
X630776Y111436D01*
X627856D01*
X621927Y104706D02*
Y98866D01*
X624847D01*
X625821Y99840D01*
Y103733D01*
X624847Y104706D01*
X621927D01*
X627767D02*
X631661D01*
Y103733D01*
X627767Y99840D01*
Y98866D01*
X645436Y114330D02*
X643489D01*
X642516Y113356D01*
Y109463D01*
X643489Y108489D01*
X645436D01*
X646409Y109463D01*
Y113356D01*
X645436Y114330D01*
X648356Y107516D02*
X652250D01*
X658090Y114330D02*
X654196D01*
Y108489D01*
X658090D01*
X654196Y111409D02*
X656143D01*
X660036Y108489D02*
Y114330D01*
X663930Y108489D01*
Y114330D01*
X645516Y98016D02*
Y101909D01*
X647463Y103856D01*
X649409Y101909D01*
Y98016D01*
Y100936D01*
X645516D01*
X651356Y98016D02*
X653303D01*
X652329D01*
Y103856D01*
X651356Y102883D01*
X656223D02*
X657196Y103856D01*
X659143D01*
X660116Y102883D01*
Y101909D01*
X659143Y100936D01*
X658170D01*
X659143D01*
X660116Y99963D01*
Y98989D01*
X659143Y98016D01*
X657196D01*
X656223Y98989D01*
X673516Y107016D02*
Y110909D01*
X675463Y112856D01*
X677409Y110909D01*
Y107016D01*
Y109936D01*
X673516D01*
X679356Y107016D02*
X681303D01*
X680330D01*
Y112856D01*
X679356Y111883D01*
X687143Y107016D02*
Y112856D01*
X684223Y109936D01*
X688116D01*
X673427Y97366D02*
Y101260D01*
X675374Y103206D01*
X677321Y101260D01*
Y97366D01*
Y100286D01*
X673427D01*
X679268Y97366D02*
X681214D01*
X680241D01*
Y103206D01*
X679268Y102233D01*
X688028Y103206D02*
X684134D01*
Y100286D01*
X686081Y101260D01*
X687054D01*
X688028Y100286D01*
Y98340D01*
X687054Y97366D01*
X685108D01*
X684134Y98340D01*
X698516Y107516D02*
Y111409D01*
X700463Y113356D01*
X702409Y111409D01*
Y107516D01*
Y110436D01*
X698516D01*
X704356Y107516D02*
X706303D01*
X705330D01*
Y113356D01*
X704356Y112383D01*
X713116Y113356D02*
X711170Y112383D01*
X709223Y110436D01*
Y108489D01*
X710196Y107516D01*
X712143D01*
X713116Y108489D01*
Y109463D01*
X712143Y110436D01*
X709223D01*
X698427Y103706D02*
Y97866D01*
X701348D01*
X702321Y98840D01*
Y102733D01*
X701348Y103706D01*
X698427D01*
X704268Y97866D02*
X706214D01*
X705241D01*
Y103706D01*
X704268Y102733D01*
X727909Y113356D02*
X724016D01*
Y107516D01*
X727909D01*
X724016Y110436D02*
X725963D01*
X729856Y107516D02*
Y113356D01*
X733749Y107516D01*
Y113356D01*
X723927Y103706D02*
Y97866D01*
X726848D01*
X727821Y98840D01*
Y102733D01*
X726848Y103706D01*
X723927D01*
X729768Y102733D02*
X730741Y103706D01*
X732688D01*
X733661Y102733D01*
Y98840D01*
X732688Y97866D01*
X730741D01*
X729768Y98840D01*
Y102733D01*
X749516Y108516D02*
Y112409D01*
X751463Y114356D01*
X753409Y112409D01*
Y108516D01*
Y111436D01*
X749516D01*
X759249Y108516D02*
X755356D01*
X759249Y112409D01*
Y113383D01*
X758276Y114356D01*
X756329D01*
X755356Y113383D01*
X749427Y98866D02*
Y102760D01*
X751374Y104706D01*
X753321Y102760D01*
Y98866D01*
Y101786D01*
X749427D01*
X755267Y103733D02*
X756241Y104706D01*
X758188D01*
X759161Y103733D01*
Y102760D01*
X758188Y101786D01*
X757214D01*
X758188D01*
X759161Y100813D01*
Y99840D01*
X758188Y98866D01*
X756241D01*
X755267Y99840D01*
X775427Y99366D02*
Y103260D01*
X777374Y105206D01*
X779321Y103260D01*
Y99366D01*
Y102286D01*
X775427D01*
X781267Y99366D02*
X783214D01*
X782241D01*
Y105206D01*
X781267Y104233D01*
X775516Y109016D02*
Y112909D01*
X777463Y114856D01*
X779409Y112909D01*
Y109016D01*
Y111936D01*
X775516D01*
X781356Y113883D02*
X782329Y114856D01*
X784276D01*
X785249Y113883D01*
Y109989D01*
X784276Y109016D01*
X782329D01*
X781356Y109989D01*
Y113883D01*
X891516Y390356D02*
Y384516D01*
X894436D01*
X895409Y385489D01*
Y389383D01*
X894436Y390356D01*
X891516D01*
X900276D02*
X898329D01*
X897356Y389383D01*
Y385489D01*
X898329Y384516D01*
X900276D01*
X901249Y385489D01*
Y389383D01*
X900276Y390356D01*
X903196Y384516D02*
Y390356D01*
X906116D01*
X907090Y389383D01*
Y387436D01*
X906116Y386463D01*
X903196D01*
X905143D02*
X907090Y384516D01*
X909036Y390356D02*
Y384516D01*
X911956D01*
X912930Y385489D01*
Y386463D01*
X911956Y387436D01*
X909036D01*
X911956D01*
X912930Y388409D01*
Y389383D01*
X911956Y390356D01*
X909036D01*
X903927Y415706D02*
Y409866D01*
X906848D01*
X907821Y410840D01*
Y411813D01*
X906848Y412786D01*
X903927D01*
X906848D01*
X907821Y413760D01*
Y414733D01*
X906848Y415706D01*
X903927D01*
X909768Y414733D02*
X910741Y415706D01*
X912688D01*
X913661Y414733D01*
Y410840D01*
X912688Y409866D01*
X910741D01*
X909768Y410840D01*
Y414733D01*
X976016Y416356D02*
Y410516D01*
X978936D01*
X979909Y411489D01*
Y412463D01*
X978936Y413436D01*
X976016D01*
X978936D01*
X979909Y414409D01*
Y415383D01*
X978936Y416356D01*
X976016D01*
X981856Y410516D02*
X983803D01*
X982830D01*
Y416356D01*
X981856Y415383D01*
X903516Y491356D02*
Y485516D01*
X906436D01*
X907409Y486489D01*
Y487463D01*
X906436Y488436D01*
X903516D01*
X906436D01*
X907409Y489409D01*
Y490383D01*
X906436Y491356D01*
X903516D01*
X912276Y485516D02*
Y491356D01*
X909356Y488436D01*
X913250D01*
X902516Y466356D02*
Y460516D01*
X905436D01*
X906409Y461489D01*
Y462463D01*
X905436Y463436D01*
X902516D01*
X905436D01*
X906409Y464409D01*
Y465383D01*
X905436Y466356D01*
X902516D01*
X908356Y465383D02*
X909330Y466356D01*
X911276D01*
X912250Y465383D01*
Y464409D01*
X911276Y463436D01*
X910303D01*
X911276D01*
X912250Y462463D01*
Y461489D01*
X911276Y460516D01*
X909330D01*
X908356Y461489D01*
X975516Y467356D02*
Y461516D01*
X978436D01*
X979409Y462489D01*
Y463463D01*
X978436Y464436D01*
X975516D01*
X978436D01*
X979409Y465409D01*
Y466383D01*
X978436Y467356D01*
X975516D01*
X985249Y461516D02*
X981356D01*
X985249Y465409D01*
Y466383D01*
X984276Y467356D01*
X982329D01*
X981356Y466383D01*
X975516Y492356D02*
Y486516D01*
X978436D01*
X979409Y487489D01*
Y488463D01*
X978436Y489436D01*
X975516D01*
X978436D01*
X979409Y490409D01*
Y491383D01*
X978436Y492356D01*
X975516D01*
X985249D02*
X981356D01*
Y489436D01*
X983303Y490409D01*
X984276D01*
X985249Y489436D01*
Y487489D01*
X984276Y486516D01*
X982329D01*
X981356Y487489D01*
X976516Y541383D02*
X977489Y542356D01*
X979436D01*
X980409Y541383D01*
Y540409D01*
X979436Y539436D01*
X978463D01*
X979436D01*
X980409Y538463D01*
Y537489D01*
X979436Y536516D01*
X977489D01*
X976516Y537489D01*
X982356Y542356D02*
Y538463D01*
X984303Y536516D01*
X986249Y538463D01*
Y542356D01*
X988196Y541383D02*
X989170Y542356D01*
X991116D01*
X992090Y541383D01*
Y540409D01*
X991116Y539436D01*
X990143D01*
X991116D01*
X992090Y538463D01*
Y537489D01*
X991116Y536516D01*
X989170D01*
X988196Y537489D01*
X869016Y113883D02*
X869989Y114856D01*
X871936D01*
X872909Y113883D01*
Y112909D01*
X871936Y111936D01*
X870963D01*
X871936D01*
X872909Y110963D01*
Y109989D01*
X871936Y109016D01*
X869989D01*
X869016Y109989D01*
X874856Y114856D02*
Y110963D01*
X876803Y109016D01*
X878749Y110963D01*
Y114856D01*
X880696Y113883D02*
X881670Y114856D01*
X883616D01*
X884590Y113883D01*
Y112909D01*
X883616Y111936D01*
X882643D01*
X883616D01*
X884590Y110963D01*
Y109989D01*
X883616Y109016D01*
X881670D01*
X880696Y109989D01*
X544016Y650883D02*
X544989Y651856D01*
X546936D01*
X547909Y650883D01*
Y649909D01*
X546936Y648936D01*
X545963D01*
X546936D01*
X547909Y647963D01*
Y646989D01*
X546936Y646016D01*
X544989D01*
X544016Y646989D01*
X549856Y651856D02*
Y647963D01*
X551803Y646016D01*
X553750Y647963D01*
Y651856D01*
X555696Y650883D02*
X556670Y651856D01*
X558616D01*
X559590Y650883D01*
Y649909D01*
X558616Y648936D01*
X557643D01*
X558616D01*
X559590Y647963D01*
Y646989D01*
X558616Y646016D01*
X556670D01*
X555696Y646989D01*
X543516Y639383D02*
X544489Y640356D01*
X546436D01*
X547409Y639383D01*
Y638409D01*
X546436Y637436D01*
X545463D01*
X546436D01*
X547409Y636463D01*
Y635489D01*
X546436Y634516D01*
X544489D01*
X543516Y635489D01*
X549356Y640356D02*
Y636463D01*
X551303Y634516D01*
X553250Y636463D01*
Y640356D01*
X555196Y639383D02*
X556170Y640356D01*
X558116D01*
X559090Y639383D01*
Y638409D01*
X558116Y637436D01*
X557143D01*
X558116D01*
X559090Y636463D01*
Y635489D01*
X558116Y634516D01*
X556170D01*
X555196Y635489D01*
X388428Y620201D02*
X384535D01*
Y617281D01*
X386481Y618255D01*
X387455D01*
X388428Y617281D01*
Y615335D01*
X387455Y614361D01*
X385508D01*
X384535Y615335D01*
X390375Y620201D02*
Y616308D01*
X392321Y614361D01*
X394268Y616308D01*
Y620201D01*
X458016Y705883D02*
X458989Y706856D01*
X460936D01*
X461909Y705883D01*
Y704909D01*
X460936Y703936D01*
X459963D01*
X460936D01*
X461909Y702963D01*
Y701989D01*
X460936Y701016D01*
X458989D01*
X458016Y701989D01*
X463856Y706856D02*
Y702963D01*
X465803Y701016D01*
X467749Y702963D01*
Y706856D01*
X469696Y705883D02*
X470670Y706856D01*
X472616D01*
X473590Y705883D01*
Y704909D01*
X472616Y703936D01*
X471643D01*
X472616D01*
X473590Y702963D01*
Y701989D01*
X472616Y701016D01*
X470670D01*
X469696Y701989D01*
X433516Y704883D02*
X434489Y705856D01*
X436436D01*
X437409Y704883D01*
Y703909D01*
X436436Y702936D01*
X435463D01*
X436436D01*
X437409Y701963D01*
Y700989D01*
X436436Y700016D01*
X434489D01*
X433516Y700989D01*
X439356Y705856D02*
Y701963D01*
X441303Y700016D01*
X443250Y701963D01*
Y705856D01*
X445196Y704883D02*
X446170Y705856D01*
X448116D01*
X449090Y704883D01*
Y703909D01*
X448116Y702936D01*
X447143D01*
X448116D01*
X449090Y701963D01*
Y700989D01*
X448116Y700016D01*
X446170D01*
X445196Y700989D01*
X388909Y705356D02*
X385016D01*
Y702436D01*
X386963Y703409D01*
X387936D01*
X388909Y702436D01*
Y700489D01*
X387936Y699516D01*
X385989D01*
X385016Y700489D01*
X390856Y705356D02*
Y701463D01*
X392803Y699516D01*
X394749Y701463D01*
Y705356D01*
X362409Y704856D02*
X358516D01*
Y701936D01*
X360463Y702909D01*
X361436D01*
X362409Y701936D01*
Y699989D01*
X361436Y699016D01*
X359489D01*
X358516Y699989D01*
X364356Y704856D02*
Y700963D01*
X366303Y699016D01*
X368250Y700963D01*
Y704856D01*
X896409Y261883D02*
X895436Y262856D01*
X893489D01*
X892516Y261883D01*
Y257989D01*
X893489Y257016D01*
X895436D01*
X896409Y257989D01*
X898356Y262856D02*
Y257016D01*
X902250D01*
X904196Y262856D02*
Y257016D01*
Y258963D01*
X908090Y262856D01*
X905170Y259936D01*
X908090Y257016D01*
X910036Y259936D02*
X913930D01*
X977617Y281409D02*
X976644Y280436D01*
Y278489D01*
X977617Y277516D01*
X981511D01*
X982484Y278489D01*
Y280436D01*
X981511Y281409D01*
X976644Y283356D02*
X982484D01*
Y287250D01*
X976644Y289196D02*
X982484D01*
X980537D01*
X976644Y293090D01*
X979564Y290170D01*
X982484Y293090D01*
X979564Y295036D02*
Y298930D01*
X977617Y252409D02*
X976644Y251436D01*
Y249489D01*
X977617Y248516D01*
X978591D01*
X979564Y249489D01*
Y251436D01*
X980537Y252409D01*
X981511D01*
X982484Y251436D01*
Y249489D01*
X981511Y248516D01*
X976644Y254356D02*
X977617D01*
X979564Y256303D01*
X977617Y258249D01*
X976644D01*
X979564Y256303D02*
X982484D01*
Y260196D02*
X976644D01*
X982484Y264090D01*
X976644D01*
X977617Y269930D02*
X976644Y268956D01*
Y267010D01*
X977617Y266036D01*
X981511D01*
X982484Y267010D01*
Y268956D01*
X981511Y269930D01*
X245516Y228016D02*
Y233856D01*
X248436D01*
X249409Y232883D01*
Y230936D01*
X248436Y229963D01*
X245516D01*
X247463D02*
X249409Y228016D01*
X251356Y233856D02*
X255250Y228016D01*
Y233856D02*
X251356Y228016D01*
X346016Y229016D02*
Y234856D01*
X348936D01*
X349909Y233883D01*
Y231936D01*
X348936Y230963D01*
X346016D01*
X351856Y229016D02*
Y234856D01*
X354776D01*
X355750Y233883D01*
Y231936D01*
X354776Y230963D01*
X351856D01*
X361590Y233883D02*
X360616Y234856D01*
X358670D01*
X357696Y233883D01*
Y232909D01*
X358670Y231936D01*
X360616D01*
X361590Y230963D01*
Y229989D01*
X360616Y229016D01*
X358670D01*
X357696Y229989D01*
X320516Y234856D02*
Y229016D01*
X322463Y230963D01*
X324409Y229016D01*
Y234856D01*
X326356D02*
Y229016D01*
Y230963D01*
X330249Y234856D01*
X327329Y231936D01*
X330249Y229016D01*
X332196D02*
Y234856D01*
X335116D01*
X336090Y233883D01*
Y231936D01*
X335116Y230963D01*
X332196D01*
X294516Y228516D02*
Y234356D01*
X297436D01*
X298409Y233383D01*
Y231436D01*
X297436Y230463D01*
X294516D01*
X296463D02*
X298409Y228516D01*
X304249Y233383D02*
X303276Y234356D01*
X301329D01*
X300356Y233383D01*
Y232409D01*
X301329Y231436D01*
X303276D01*
X304249Y230463D01*
Y229489D01*
X303276Y228516D01*
X301329D01*
X300356Y229489D01*
X306196Y234356D02*
X310090D01*
X308143D01*
Y228516D01*
X270516Y234356D02*
X274409D01*
X272463D01*
Y228516D01*
X276356Y234356D02*
X280250Y228516D01*
Y234356D02*
X276356Y228516D01*
X208984Y909144D02*
X205091D01*
X207037D01*
Y914984D01*
X199250Y910117D02*
X200224Y909144D01*
X202171D01*
X203144Y910117D01*
Y914011D01*
X202171Y914984D01*
X200224D01*
X199250Y914011D01*
X197304Y909144D02*
Y914984D01*
Y913037D01*
X193410Y909144D01*
X196330Y912064D01*
X193410Y914984D01*
X183484Y909644D02*
X179591D01*
X181537D01*
Y915484D01*
X177644Y909644D02*
Y915484D01*
X174724D01*
X173750Y914511D01*
Y910617D01*
X174724Y909644D01*
X177644D01*
X168884D02*
X170830D01*
X171804Y910617D01*
Y914511D01*
X170830Y915484D01*
X168884D01*
X167910Y914511D01*
Y910617D01*
X168884Y909644D01*
X158484Y910144D02*
X154591D01*
X156537D01*
Y915984D01*
X152644Y910144D02*
Y915984D01*
X149724D01*
X148750Y915011D01*
Y911117D01*
X149724Y910144D01*
X152644D01*
X146804D02*
X144857D01*
X145830D01*
Y915984D01*
X146804D01*
X144857D01*
X235484Y908644D02*
X231591D01*
X233537D01*
Y914484D01*
X229644D02*
Y908644D01*
X227697Y910591D01*
X225751Y908644D01*
Y914484D01*
X219910Y909617D02*
X220884Y908644D01*
X222830D01*
X223804Y909617D01*
Y910591D01*
X222830Y911564D01*
X220884D01*
X219910Y912537D01*
Y913511D01*
X220884Y914484D01*
X222830D01*
X223804Y913511D01*
X362188Y481369D02*
X363565D01*
X364941Y482745D01*
Y484122D01*
X362188Y486875D01*
X360812D01*
X359435Y485498D01*
Y484122D01*
X360812Y482745D01*
X362188Y484122D01*
X357370Y483434D02*
X361500Y479304D01*
X354617Y480681D01*
X358747Y476551D01*
X357370Y475174D02*
X353241Y479304D01*
X351176Y477239D01*
Y475863D01*
X353929Y473110D01*
X355306D01*
X357370Y475174D01*
X380377Y498680D02*
X383130Y501434D01*
X381065Y503498D01*
X380377Y501434D01*
X379688Y500745D01*
X378312D01*
X376935Y502122D01*
Y503498D01*
X378312Y504875D01*
X379688D01*
X379000Y497304D02*
X376247Y500057D01*
X373494D01*
Y497304D01*
X376247Y494551D01*
X10211Y519393D02*
X11184Y518419D01*
Y516473D01*
X10211Y515499D01*
X9237D01*
X8264Y516473D01*
Y517446D01*
Y516473D01*
X7291Y515499D01*
X6317D01*
X5344Y516473D01*
Y518419D01*
X6317Y519393D01*
X11184Y513553D02*
X7291D01*
X5344Y511606D01*
X7291Y509659D01*
X11184D01*
X10211Y507713D02*
X11184Y506739D01*
Y504793D01*
X10211Y503819D01*
X9237D01*
X8264Y504793D01*
Y505766D01*
Y504793D01*
X7291Y503819D01*
X6317D01*
X5344Y504793D01*
Y506739D01*
X6317Y507713D01*
X5344Y541893D02*
X11184D01*
Y538973D01*
X10211Y537999D01*
X8264D01*
X7291Y538973D01*
Y541893D01*
Y539946D02*
X5344Y537999D01*
X11184Y536053D02*
X5344Y532159D01*
X11184D02*
X5344Y536053D01*
X11184Y566393D02*
Y562499D01*
Y564446D01*
X5344D01*
X11184Y560553D02*
X5344Y556659D01*
X11184D02*
X5344Y560553D01*
X10383Y591091D02*
X11356Y592064D01*
Y594011D01*
X10383Y594984D01*
X6489D01*
X5516Y594011D01*
Y592064D01*
X6489Y591091D01*
X8436D01*
Y593037D01*
X5516Y589144D02*
X11356D01*
X5516Y585250D01*
X11356D01*
Y583304D02*
X5516D01*
Y580384D01*
X6489Y579410D01*
X10383D01*
X11356Y580384D01*
Y583304D01*
X409447Y516973D02*
X410420Y517947D01*
Y519893D01*
X409447Y520867D01*
X405553D01*
X404580Y519893D01*
Y517947D01*
X405553Y516973D01*
X410420Y511133D02*
X409447Y513080D01*
X407500Y515027D01*
X405553D01*
X404580Y514053D01*
Y512107D01*
X405553Y511133D01*
X406527D01*
X407500Y512107D01*
Y515027D01*
X449027Y658920D02*
X447080D01*
X448053D01*
Y654053D01*
X447080Y653080D01*
X446107D01*
X445133Y654053D01*
X454867Y653080D02*
X450973D01*
X454867Y656973D01*
Y657947D01*
X453893Y658920D01*
X451947D01*
X450973Y657947D01*
X870500Y42420D02*
X868553D01*
X869527D01*
Y37553D01*
X868553Y36580D01*
X867580D01*
X866607Y37553D01*
X872447Y36580D02*
X874393D01*
X873420D01*
Y42420D01*
X872447Y41447D01*
X867182Y757312D02*
X871312Y753182D01*
X873376Y755247D01*
Y756624D01*
X870623Y759377D01*
X869247D01*
X867182Y757312D01*
X875441D02*
X876818Y758688D01*
X876130Y758000D01*
X872000Y762130D01*
Y760753D01*
X845124Y791494D02*
X840994Y795623D01*
X843059Y797688D01*
X844435D01*
X845812Y796312D01*
Y794935D01*
X843747Y792870D01*
X845124Y794247D02*
X847877D01*
X845812Y799065D02*
Y800441D01*
X847188Y801818D01*
X848565D01*
X849253Y801130D01*
Y799753D01*
X848565Y799065D01*
X849253Y799753D01*
X850630D01*
X851318Y799065D01*
Y797688D01*
X849941Y796312D01*
X848565D01*
X872123Y796494D02*
X867994Y800623D01*
X870059Y802688D01*
X871435D01*
X872812Y801312D01*
Y799935D01*
X870747Y797870D01*
X872123Y799247D02*
X874876D01*
X879006Y803376D02*
X876253Y800623D01*
Y806130D01*
X875565Y806818D01*
X874188D01*
X872812Y805441D01*
Y804065D01*
X253491Y868866D02*
Y870813D01*
Y869839D01*
X248624D01*
X247651Y870813D01*
Y871786D01*
X248624Y872759D01*
X253491Y866919D02*
Y863026D01*
X252518D01*
X248624Y866919D01*
X247651D01*
X352305Y449614D02*
X353681Y448237D01*
X352993Y448925D01*
X356435Y452367D01*
X357811D01*
X358499Y451678D01*
Y450302D01*
X352993Y457185D02*
X348864Y453055D01*
X352993D01*
X350240Y455808D01*
X315080Y893027D02*
Y891080D01*
Y892053D01*
X319947D01*
X320920Y891080D01*
Y890107D01*
X319947Y889133D01*
X316053Y894973D02*
X315080Y895947D01*
Y897893D01*
X316053Y898867D01*
X317027D01*
X318000Y897893D01*
Y896920D01*
Y897893D01*
X318973Y898867D01*
X319947D01*
X320920Y897893D01*
Y895947D01*
X319947Y894973D01*
X342553Y63107D02*
X346447Y67000D01*
Y63107D02*
X342553Y67000D01*
X344500Y63107D02*
Y67000D01*
X346447Y65053D02*
X342553D01*
X347420Y68947D02*
Y70893D01*
Y69920D01*
X341580D01*
X342553Y68947D01*
X233084Y170824D02*
Y164984D01*
X230164D01*
X229191Y165957D01*
Y167904D01*
X230164Y168877D01*
X233084D01*
X224324Y170824D02*
Y164984D01*
X227244Y167904D01*
X223351D01*
X275920Y67973D02*
Y69920D01*
Y68947D01*
X271053D01*
X270080Y69920D01*
Y70893D01*
X271053Y71867D01*
X275920Y62133D02*
X274947Y64080D01*
X273000Y66027D01*
X271053D01*
X270080Y65053D01*
Y63107D01*
X271053Y62133D01*
X272027D01*
X273000Y63107D01*
Y66027D01*
X171633Y128080D02*
Y133920D01*
X174553D01*
X175527Y132947D01*
Y131000D01*
X174553Y130027D01*
X171633D01*
X173580D02*
X175527Y128080D01*
X177473Y132947D02*
X178447Y133920D01*
X180393D01*
X181367Y132947D01*
Y131973D01*
X180393Y131000D01*
X181367Y130027D01*
Y129053D01*
X180393Y128080D01*
X178447D01*
X177473Y129053D01*
Y130027D01*
X178447Y131000D01*
X177473Y131973D01*
Y132947D01*
X178447Y131000D02*
X180393D01*
X171633Y110080D02*
Y115920D01*
X174553D01*
X175527Y114947D01*
Y113000D01*
X174553Y112027D01*
X171633D01*
X173580D02*
X175527Y110080D01*
X177473Y111053D02*
X178447Y110080D01*
X180393D01*
X181367Y111053D01*
Y114947D01*
X180393Y115920D01*
X178447D01*
X177473Y114947D01*
Y113973D01*
X178447Y113000D01*
X181367D01*
X172633Y90580D02*
Y96420D01*
X175553D01*
X176527Y95447D01*
Y93500D01*
X175553Y92527D01*
X172633D01*
X174580D02*
X176527Y90580D01*
X181393D02*
Y96420D01*
X178473Y93500D01*
X182367D01*
X216607Y252580D02*
Y258420D01*
X219527D01*
X220500Y257447D01*
Y255500D01*
X219527Y254527D01*
X216607D01*
X218553D02*
X220500Y252580D01*
X222447D02*
X224393D01*
X223420D01*
Y258420D01*
X222447Y257447D01*
X903080Y169893D02*
X908920D01*
Y166973D01*
X907947Y166000D01*
X906000D01*
X905027Y166973D01*
Y169893D01*
X903080Y164053D02*
Y162107D01*
Y163080D01*
X908920D01*
X907947Y164053D01*
X81420Y128553D02*
X82393Y127580D01*
X84340D01*
X85314Y128553D01*
Y129527D01*
X84340Y130500D01*
X82393D01*
X81420Y131473D01*
Y132447D01*
X82393Y133420D01*
X84340D01*
X85314Y132447D01*
X79473Y127580D02*
Y133420D01*
X77527Y131473D01*
X75580Y133420D01*
Y127580D01*
X73633Y133420D02*
X71687D01*
X72660D01*
Y127580D01*
X73633Y128553D01*
X225753Y473525D02*
X224377Y472148D01*
X225065Y472836D01*
X228506Y469395D01*
Y468019D01*
X227818Y467330D01*
X226441D01*
X229883Y477654D02*
X227129Y474901D01*
X229194Y472836D01*
X229883Y474901D01*
X230571Y475590D01*
X231947D01*
X233324Y474213D01*
Y472836D01*
X231947Y471460D01*
X230571D01*
X41952Y198750D02*
X40978Y199723D01*
X39032D01*
X38058Y198750D01*
Y194857D01*
X39032Y193883D01*
X40978D01*
X41952Y194857D01*
X43898Y199723D02*
X47792D01*
Y198750D01*
X43898Y194857D01*
Y193883D01*
X-13377Y175675D02*
X-12403Y174702D01*
X-10457D01*
X-9483Y175675D01*
Y179568D01*
X-10457Y180542D01*
X-12403D01*
X-13377Y179568D01*
X-19217Y174702D02*
X-17270Y175675D01*
X-15323Y177622D01*
Y179568D01*
X-16297Y180542D01*
X-18243D01*
X-19217Y179568D01*
Y178595D01*
X-18243Y177622D01*
X-15323D01*
X11080Y292173D02*
Y294120D01*
Y293147D01*
X16920D01*
Y292173D01*
Y294120D01*
X12053Y300933D02*
X11080Y299960D01*
Y298013D01*
X12053Y297040D01*
X15947D01*
X16920Y298013D01*
Y299960D01*
X15947Y300933D01*
X16920Y302880D02*
Y304827D01*
Y303853D01*
X11080D01*
X12053Y302880D01*
X774656Y379597D02*
Y380974D01*
X773279Y382350D01*
X771903D01*
X769150Y379597D01*
Y378221D01*
X770526Y376844D01*
X771903D01*
X772591Y374779D02*
X773968Y373403D01*
X773279Y374091D01*
X777409Y378221D01*
X776032D01*
Y371338D02*
X777409Y369962D01*
X776721Y370650D01*
X780850Y374779D01*
X779474D01*
X804200Y509420D02*
X806147D01*
X805173D01*
Y503580D01*
X804200D01*
X806147D01*
X812960Y508447D02*
X811987Y509420D01*
X810040D01*
X809067Y508447D01*
Y504553D01*
X810040Y503580D01*
X811987D01*
X812960Y504553D01*
X818800Y503580D02*
X814907D01*
X818800Y507473D01*
Y508447D01*
X817827Y509420D01*
X815880D01*
X814907Y508447D01*
X780968Y388285D02*
Y389662D01*
X779591Y391039D01*
X778215D01*
X775462Y388285D01*
Y386909D01*
X776838Y385532D01*
X778215D01*
X778903Y383468D02*
X780279Y382091D01*
X779591Y382779D01*
X783721Y386909D01*
X782344D01*
X785097Y377273D02*
X782344Y380026D01*
X787850D01*
X788539Y380714D01*
Y382091D01*
X787162Y383468D01*
X785786D01*
X671700Y336580D02*
Y342420D01*
X674620D01*
X675593Y341447D01*
Y339500D01*
X674620Y338527D01*
X671700D01*
X673647D02*
X675593Y336580D01*
X677540D02*
X679487D01*
X678513D01*
Y342420D01*
X677540Y341447D01*
X682407Y337553D02*
X683380Y336580D01*
X685327D01*
X686300Y337553D01*
Y341447D01*
X685327Y342420D01*
X683380D01*
X682407Y341447D01*
Y340473D01*
X683380Y339500D01*
X686300D01*
X607839Y496741D02*
X606328Y491100D01*
X610089Y490092D01*
X611969Y489588D02*
X613849Y489085D01*
X612909Y489336D01*
X614421Y494977D01*
X613228Y494289D01*
X637080Y356447D02*
X636107Y357420D01*
X634160D01*
X633186Y356447D01*
Y352553D01*
X634160Y351580D01*
X636107D01*
X637080Y352553D01*
X639027Y356447D02*
X640000Y357420D01*
X641947D01*
X642920Y356447D01*
Y355473D01*
X641947Y354500D01*
X640973D01*
X641947D01*
X642920Y353527D01*
Y352553D01*
X641947Y351580D01*
X640000D01*
X639027Y352553D01*
X644867Y351580D02*
X646814D01*
X645840D01*
Y357420D01*
X644867Y356447D01*
X636107Y366447D02*
X635133Y367420D01*
X633186D01*
X632213Y366447D01*
Y362553D01*
X633186Y361580D01*
X635133D01*
X636107Y362553D01*
X638053Y366447D02*
X639027Y367420D01*
X640973D01*
X641947Y366447D01*
Y365473D01*
X640973Y364500D01*
X640000D01*
X640973D01*
X641947Y363527D01*
Y362553D01*
X640973Y361580D01*
X639027D01*
X638053Y362553D01*
X643893Y366447D02*
X644867Y367420D01*
X646814D01*
X647787Y366447D01*
Y362553D01*
X646814Y361580D01*
X644867D01*
X643893Y362553D01*
Y366447D01*
X639483Y476443D02*
X638107D01*
X636730Y475067D01*
Y473690D01*
X639483Y470937D01*
X640860D01*
X642236Y472314D01*
Y473690D01*
X647054Y477132D02*
X644301Y474379D01*
Y479885D01*
X643613Y480573D01*
X642236D01*
X640860Y479196D01*
Y477820D01*
X650495Y480573D02*
X646366Y484702D01*
Y480573D01*
X649119Y483326D01*
X754133Y289920D02*
Y285053D01*
X755107Y284080D01*
X757053D01*
X758027Y285053D01*
Y289920D01*
X763867Y284080D02*
X759973D01*
X763867Y287973D01*
Y288947D01*
X762893Y289920D01*
X760947D01*
X759973Y288947D01*
X101107Y155920D02*
Y154947D01*
X103053Y153000D01*
X105000Y154947D01*
Y155920D01*
X103053Y153000D02*
Y150080D01*
X106947D02*
X108893D01*
X107920D01*
Y155920D01*
X106947Y154947D01*
X118133Y197080D02*
Y202920D01*
X121053D01*
X122027Y201947D01*
Y200000D01*
X121053Y199027D01*
X118133D01*
X120080D02*
X122027Y197080D01*
X127867Y202920D02*
X125920Y201947D01*
X123973Y200000D01*
Y198053D01*
X124947Y197080D01*
X126893D01*
X127867Y198053D01*
Y199027D01*
X126893Y200000D01*
X123973D01*
X966752Y769500D02*
Y763660D01*
X963832D01*
X962859Y764633D01*
Y766580D01*
X963832Y767553D01*
X966752D01*
X960912Y764633D02*
X959938Y763660D01*
X957992D01*
X957018Y764633D01*
Y765606D01*
X957992Y766580D01*
X958965D01*
X957992D01*
X957018Y767553D01*
Y768526D01*
X957992Y769500D01*
X959938D01*
X960912Y768526D01*
X142053Y174093D02*
X141080Y173120D01*
Y171173D01*
X142053Y170200D01*
X145947D01*
X146920Y171173D01*
Y173120D01*
X145947Y174093D01*
X146920Y176040D02*
Y177987D01*
Y177013D01*
X141080D01*
X142053Y176040D01*
X141080Y180907D02*
Y184800D01*
X142053D01*
X145947Y180907D01*
X146920D01*
X65053Y174593D02*
X64080Y173620D01*
Y171673D01*
X65053Y170700D01*
X68947D01*
X69920Y171673D01*
Y173620D01*
X68947Y174593D01*
X69920Y176540D02*
Y178487D01*
Y177513D01*
X64080D01*
X65053Y176540D01*
Y181407D02*
X64080Y182380D01*
Y184327D01*
X65053Y185300D01*
X66027D01*
X67000Y184327D01*
X67973Y185300D01*
X68947D01*
X69920Y184327D01*
Y182380D01*
X68947Y181407D01*
X67973D01*
X67000Y182380D01*
X66027Y181407D01*
X65053D01*
X67000Y182380D02*
Y184327D01*
X43213Y152580D02*
Y158420D01*
X46133D01*
X47107Y157447D01*
Y155500D01*
X46133Y154527D01*
X43213D01*
X45160D02*
X47107Y152580D01*
X52947D02*
X49053D01*
X52947Y156473D01*
Y157447D01*
X51973Y158420D01*
X50027D01*
X49053Y157447D01*
X58787Y152580D02*
X54893D01*
X58787Y156473D01*
Y157447D01*
X57814Y158420D01*
X55867D01*
X54893Y157447D01*
X80633Y593680D02*
Y599520D01*
X83553D01*
X84527Y598547D01*
Y596600D01*
X83553Y595627D01*
X80633D01*
X90367Y593680D02*
X86473D01*
X90367Y597573D01*
Y598547D01*
X89393Y599520D01*
X87447D01*
X86473Y598547D01*
X48080Y144947D02*
X47107Y145920D01*
X45160D01*
X44187Y144947D01*
Y141053D01*
X45160Y140080D01*
X47107D01*
X48080Y141053D01*
X53920Y140080D02*
X50027D01*
X53920Y143973D01*
Y144947D01*
X52947Y145920D01*
X51000D01*
X50027Y144947D01*
X55867Y140080D02*
X57814D01*
X56840D01*
Y145920D01*
X55867Y144947D01*
X829201Y218485D02*
X834068D01*
X835041Y219459D01*
Y221405D01*
X834068Y222379D01*
X829201D01*
X835041Y224325D02*
Y226272D01*
Y225299D01*
X829201D01*
X830175Y224325D01*
X569145Y435059D02*
X572586Y431617D01*
X573963D01*
X575339Y432994D01*
Y434370D01*
X571898Y437812D01*
X577404Y435059D02*
X578781Y436435D01*
X578092Y435747D01*
X573963Y439877D01*
Y438500D01*
X899541Y234579D02*
X893701D01*
Y237499D01*
X894675Y238472D01*
X896621D01*
X897595Y237499D01*
Y234579D01*
Y236525D02*
X899541Y238472D01*
Y240419D02*
Y242365D01*
Y241392D01*
X893701D01*
X894675Y240419D01*
Y245285D02*
X893701Y246259D01*
Y248206D01*
X894675Y249179D01*
X895648D01*
X896621Y248206D01*
X897595Y249179D01*
X898568D01*
X899541Y248206D01*
Y246259D01*
X898568Y245285D01*
X897595D01*
X896621Y246259D01*
X895648Y245285D01*
X894675D01*
X896621Y246259D02*
Y248206D01*
X865041Y271078D02*
X859201D01*
Y273999D01*
X860175Y274972D01*
X862121D01*
X863095Y273999D01*
Y271078D01*
Y273025D02*
X865041Y274972D01*
Y276919D02*
Y278865D01*
Y277892D01*
X859201D01*
X860175Y276919D01*
X859201Y281785D02*
Y285679D01*
X860175D01*
X864068Y281785D01*
X865041D01*
X613403Y467805D02*
X609273Y471935D01*
X611338Y474000D01*
X612715D01*
X614091Y472623D01*
Y471247D01*
X612026Y469182D01*
X613403Y470559D02*
X616156D01*
X617533Y471935D02*
X618909Y473312D01*
X618221Y472623D01*
X614091Y476753D01*
Y475376D01*
X617533Y478818D02*
Y480194D01*
X618909Y481571D01*
X620286D01*
X620974Y480882D01*
Y479506D01*
X622350D01*
X623039Y478818D01*
Y477441D01*
X621662Y476065D01*
X620286D01*
X619597Y476753D01*
Y478130D01*
X618221D01*
X617533Y478818D01*
X619597Y478130D02*
X620974Y479506D01*
X570866Y398115D02*
X566736Y402244D01*
X568801Y404309D01*
X570177D01*
X571554Y402932D01*
Y401556D01*
X569489Y399491D01*
X570866Y400868D02*
X573619D01*
X574995Y402244D02*
X576372Y403621D01*
X575683Y402932D01*
X571554Y407062D01*
Y405686D01*
X574307Y409815D02*
X577060Y412568D01*
X577748Y411880D01*
Y406374D01*
X578436Y405686D01*
X937700Y155080D02*
Y160920D01*
X940620D01*
X941593Y159947D01*
Y158000D01*
X940620Y157027D01*
X937700D01*
X939647D02*
X941593Y155080D01*
X943540D02*
X945487D01*
X944513D01*
Y160920D01*
X943540Y159947D01*
X952300Y160920D02*
X950353Y159947D01*
X948407Y158000D01*
Y156053D01*
X949380Y155080D01*
X951327D01*
X952300Y156053D01*
Y157027D01*
X951327Y158000D01*
X948407D01*
X936700Y117080D02*
Y122920D01*
X939620D01*
X940593Y121947D01*
Y120000D01*
X939620Y119027D01*
X936700D01*
X938647D02*
X940593Y117080D01*
X942540D02*
X944487D01*
X943513D01*
Y122920D01*
X942540Y121947D01*
X951300Y122920D02*
X947407D01*
Y120000D01*
X949353Y120973D01*
X950327D01*
X951300Y120000D01*
Y118053D01*
X950327Y117080D01*
X948380D01*
X947407Y118053D01*
X551430Y557739D02*
X555560Y561869D01*
X557625Y559804D01*
Y558428D01*
X556248Y557051D01*
X554871D01*
X552807Y559116D01*
X554183Y557739D02*
Y554986D01*
X555560Y553610D02*
X556936Y552233D01*
X556248Y552921D01*
X560378Y557051D01*
X559001D01*
X565884Y551545D02*
X563131Y554298D01*
X561066Y552233D01*
X563131Y551545D01*
X563819Y550857D01*
Y549480D01*
X562442Y548104D01*
X561066D01*
X559689Y549480D01*
Y550857D01*
X575200Y533080D02*
Y538920D01*
X578120D01*
X579093Y537947D01*
Y536000D01*
X578120Y535027D01*
X575200D01*
X577147D02*
X579093Y533080D01*
X581040D02*
X582987D01*
X582013D01*
Y538920D01*
X581040Y537947D01*
X589800Y538920D02*
X587854Y537947D01*
X585907Y536000D01*
Y534053D01*
X586880Y533080D01*
X588827D01*
X589800Y534053D01*
Y535027D01*
X588827Y536000D01*
X585907D01*
X879607Y183420D02*
Y177580D01*
X883500D01*
X885447D02*
X887393D01*
X886420D01*
Y183420D01*
X885447Y182447D01*
X752593Y375447D02*
X751620Y376420D01*
X749673D01*
X748700Y375447D01*
Y371553D01*
X749673Y370580D01*
X751620D01*
X752593Y371553D01*
X754540Y370580D02*
X756487D01*
X755513D01*
Y376420D01*
X754540Y375447D01*
X762327Y370580D02*
Y376420D01*
X759407Y373500D01*
X763300D01*
X831675Y247985D02*
X830701Y247012D01*
Y245065D01*
X831675Y244092D01*
X835568D01*
X836541Y245065D01*
Y247012D01*
X835568Y247985D01*
X836541Y253825D02*
Y249932D01*
X832648Y253825D01*
X831675D01*
X830701Y252852D01*
Y250905D01*
X831675Y249932D01*
X830701Y259666D02*
Y255772D01*
X833621D01*
X832648Y257719D01*
Y258692D01*
X833621Y259666D01*
X835568D01*
X836541Y258692D01*
Y256745D01*
X835568Y255772D01*
X724053Y378107D02*
X723080Y377133D01*
Y375187D01*
X724053Y374213D01*
X727947D01*
X728920Y375187D01*
Y377133D01*
X727947Y378107D01*
X728920Y383947D02*
Y380053D01*
X725027Y383947D01*
X724053D01*
X723080Y382973D01*
Y381027D01*
X724053Y380053D01*
X723080Y389787D02*
X724053Y387840D01*
X726000Y385893D01*
X727947D01*
X728920Y386867D01*
Y388813D01*
X727947Y389787D01*
X726973D01*
X726000Y388813D01*
Y385893D01*
X775107Y407947D02*
X774133Y408920D01*
X772187D01*
X771213Y407947D01*
Y404053D01*
X772187Y403080D01*
X774133D01*
X775107Y404053D01*
X780947Y403080D02*
X777053D01*
X780947Y406973D01*
Y407947D01*
X779973Y408920D01*
X778027D01*
X777053Y407947D01*
X782893Y408920D02*
X786787D01*
Y407947D01*
X782893Y404053D01*
Y403080D01*
X715870Y408624D02*
X714494D01*
X713117Y407247D01*
Y405870D01*
X715870Y403117D01*
X717247D01*
X718624Y404494D01*
Y405870D01*
X723441Y409312D02*
X720688Y406559D01*
Y412065D01*
X720000Y412753D01*
X718624D01*
X717247Y411376D01*
Y410000D01*
X720688Y414818D02*
X723441Y417571D01*
X724130Y416883D01*
Y411376D01*
X724818Y410688D01*
X701107Y434947D02*
X700133Y435920D01*
X698186D01*
X697213Y434947D01*
Y431053D01*
X698186Y430080D01*
X700133D01*
X701107Y431053D01*
X706947Y430080D02*
X703053D01*
X706947Y433973D01*
Y434947D01*
X705973Y435920D01*
X704027D01*
X703053Y434947D01*
X712787Y435920D02*
X710840Y434947D01*
X708893Y433000D01*
Y431053D01*
X709867Y430080D01*
X711814D01*
X712787Y431053D01*
Y432027D01*
X711814Y433000D01*
X708893D01*
X591400Y397954D02*
X590023D01*
X588647Y396578D01*
Y395201D01*
X591400Y392448D01*
X592776D01*
X594153Y393825D01*
Y395201D01*
X598971Y398643D02*
X596218Y395890D01*
Y401396D01*
X595529Y402084D01*
X594153D01*
X592776Y400708D01*
Y399331D01*
X598971Y406902D02*
X596218Y404149D01*
X598283Y402084D01*
X598971Y404149D01*
X599659Y404837D01*
X601036D01*
X602412Y403461D01*
Y402084D01*
X601036Y400708D01*
X599659D01*
X846553Y184607D02*
X845580Y183633D01*
Y181686D01*
X846553Y180713D01*
X850447D01*
X851420Y181686D01*
Y183633D01*
X850447Y184607D01*
X851420Y190447D02*
Y186553D01*
X847527Y190447D01*
X846553D01*
X845580Y189473D01*
Y187527D01*
X846553Y186553D01*
X851420Y195313D02*
X845580D01*
X848500Y192393D01*
Y196287D01*
X940607Y141947D02*
X939633Y142920D01*
X937686D01*
X936713Y141947D01*
Y138053D01*
X937686Y137080D01*
X939633D01*
X940607Y138053D01*
X946447Y137080D02*
X942553D01*
X946447Y140973D01*
Y141947D01*
X945473Y142920D01*
X943527D01*
X942553Y141947D01*
X948393D02*
X949367Y142920D01*
X951313D01*
X952287Y141947D01*
Y140973D01*
X951313Y140000D01*
X950340D01*
X951313D01*
X952287Y139027D01*
Y138053D01*
X951313Y137080D01*
X949367D01*
X948393Y138053D01*
X592107Y522447D02*
X591133Y523420D01*
X589187D01*
X588213Y522447D01*
Y518553D01*
X589187Y517580D01*
X591133D01*
X592107Y518553D01*
X597947Y517580D02*
X594053D01*
X597947Y521473D01*
Y522447D01*
X596973Y523420D01*
X595027D01*
X594053Y522447D01*
X599893D02*
X600867Y523420D01*
X602813D01*
X603787Y522447D01*
Y521473D01*
X602813Y520500D01*
X601840D01*
X602813D01*
X603787Y519527D01*
Y518553D01*
X602813Y517580D01*
X600867D01*
X599893Y518553D01*
X763593Y526947D02*
X762620Y527920D01*
X760673D01*
X759700Y526947D01*
Y523053D01*
X760673Y522080D01*
X762620D01*
X763593Y523053D01*
X765540Y522080D02*
X767487D01*
X766513D01*
Y527920D01*
X765540Y526947D01*
X774300Y527920D02*
X772353Y526947D01*
X770407Y525000D01*
Y523053D01*
X771380Y522080D01*
X773327D01*
X774300Y523053D01*
Y524027D01*
X773327Y525000D01*
X770407D01*
X868593Y459947D02*
X867620Y460920D01*
X865673D01*
X864700Y459947D01*
Y456053D01*
X865673Y455080D01*
X867620D01*
X868593Y456053D01*
X870540Y455080D02*
X872487D01*
X871513D01*
Y460920D01*
X870540Y459947D01*
X875407Y456053D02*
X876380Y455080D01*
X878327D01*
X879300Y456053D01*
Y459947D01*
X878327Y460920D01*
X876380D01*
X875407Y459947D01*
Y458973D01*
X876380Y458000D01*
X879300D01*
X727688Y497565D02*
Y498941D01*
X726312Y500318D01*
X724935D01*
X722182Y497565D01*
Y496188D01*
X723559Y494812D01*
X724935D01*
X729065Y496188D02*
X730441D01*
X731818Y494812D01*
Y493435D01*
X731130Y492747D01*
X729753D01*
Y491370D01*
X729065Y490682D01*
X727688D01*
X726312Y492059D01*
Y493435D01*
X727000Y494123D01*
X728376D01*
Y495500D01*
X729065Y496188D01*
X728376Y494123D02*
X729753Y492747D01*
X843173Y381580D02*
Y387420D01*
X846093D01*
X847067Y386447D01*
Y384500D01*
X846093Y383527D01*
X843173D01*
X845120D02*
X847067Y381580D01*
X849013D02*
X850960D01*
X849987D01*
Y387420D01*
X849013Y386447D01*
X853880Y381580D02*
X855827D01*
X854854D01*
Y387420D01*
X853880Y386447D01*
X900200Y328080D02*
Y333920D01*
X903120D01*
X904093Y332947D01*
Y331000D01*
X903120Y330027D01*
X900200D01*
X902147D02*
X904093Y328080D01*
X906040D02*
X907987D01*
X907013D01*
Y333920D01*
X906040Y332947D01*
X910907D02*
X911880Y333920D01*
X913827D01*
X914800Y332947D01*
Y331973D01*
X913827Y331000D01*
X912853D01*
X913827D01*
X914800Y330027D01*
Y329053D01*
X913827Y328080D01*
X911880D01*
X910907Y329053D01*
X886700Y275580D02*
Y281420D01*
X889620D01*
X890593Y280447D01*
Y278500D01*
X889620Y277527D01*
X886700D01*
X888647D02*
X890593Y275580D01*
X892540D02*
X894487D01*
X893513D01*
Y281420D01*
X892540Y280447D01*
X901300Y275580D02*
X897407D01*
X901300Y279473D01*
Y280447D01*
X900327Y281420D01*
X898380D01*
X897407Y280447D01*
X827700Y396080D02*
Y401920D01*
X830620D01*
X831593Y400947D01*
Y399000D01*
X830620Y398027D01*
X827700D01*
X829647D02*
X831593Y396080D01*
X833540D02*
X835487D01*
X834513D01*
Y401920D01*
X833540Y400947D01*
X838407D02*
X839380Y401920D01*
X841327D01*
X842300Y400947D01*
Y397053D01*
X841327Y396080D01*
X839380D01*
X838407Y397053D01*
Y400947D01*
X739188Y486565D02*
Y487941D01*
X737812Y489318D01*
X736435D01*
X733682Y486565D01*
Y485188D01*
X735059Y483812D01*
X736435D01*
X737812Y482435D02*
Y481059D01*
X739188Y479682D01*
X740565D01*
X743318Y482435D01*
Y483812D01*
X741941Y485188D01*
X740565D01*
X739876Y484500D01*
Y483123D01*
X741941Y481059D01*
X810593Y527947D02*
X809620Y528920D01*
X807673D01*
X806700Y527947D01*
Y524053D01*
X807673Y523080D01*
X809620D01*
X810593Y524053D01*
X812540Y523080D02*
X814487D01*
X813513D01*
Y528920D01*
X812540Y527947D01*
X821300Y528920D02*
X817407D01*
Y526000D01*
X819353Y526973D01*
X820327D01*
X821300Y526000D01*
Y524053D01*
X820327Y523080D01*
X818380D01*
X817407Y524053D01*
X710593Y454947D02*
X709620Y455920D01*
X707673D01*
X706700Y454947D01*
Y451053D01*
X707673Y450080D01*
X709620D01*
X710593Y451053D01*
X712540Y450080D02*
X714487D01*
X713513D01*
Y455920D01*
X712540Y454947D01*
X717407D02*
X718380Y455920D01*
X720327D01*
X721300Y454947D01*
Y451053D01*
X720327Y450080D01*
X718380D01*
X717407Y451053D01*
Y454947D01*
X861107Y493947D02*
X860133Y494920D01*
X858186D01*
X857213Y493947D01*
Y490053D01*
X858186Y489080D01*
X860133D01*
X861107Y490053D01*
X866947Y489080D02*
X863053D01*
X866947Y492973D01*
Y493947D01*
X865973Y494920D01*
X864027D01*
X863053Y493947D01*
X868893D02*
X869867Y494920D01*
X871814D01*
X872787Y493947D01*
Y490053D01*
X871814Y489080D01*
X869867D01*
X868893Y490053D01*
Y493947D01*
X725214Y401968D02*
X723838D01*
X722461Y400591D01*
Y399215D01*
X725214Y396461D01*
X726591D01*
X727968Y397838D01*
Y399215D01*
X730032Y399903D02*
X731409Y401279D01*
X730721Y400591D01*
X726591Y404721D01*
Y403344D01*
X730032Y406786D02*
Y408162D01*
X731409Y409538D01*
X732785D01*
X733474Y408850D01*
Y407474D01*
X732785Y406786D01*
X733474Y407474D01*
X734850D01*
X735538Y406786D01*
Y405409D01*
X734162Y404032D01*
X732785D01*
D16*
X932897Y189250D02*
Y181633D01*
X929089D01*
X927819Y182902D01*
Y185441D01*
X929089Y186711D01*
X932897D01*
X921471Y189250D02*
Y181633D01*
X925280Y185441D01*
X920202D01*
X450476Y196524D02*
X442859D01*
Y200333D01*
X444128Y201602D01*
X446667D01*
X447937Y200333D01*
Y196524D01*
X450476Y209220D02*
Y204142D01*
X445398Y209220D01*
X444128D01*
X442859Y207950D01*
Y205411D01*
X444128Y204142D01*
X529546Y626638D02*
Y619021D01*
X525737D01*
X524467Y620290D01*
Y622830D01*
X525737Y624099D01*
X529546D01*
X521928Y626638D02*
X519389D01*
X520658D01*
Y619021D01*
X521928Y620290D01*
X528022Y128544D02*
Y120927D01*
X524213D01*
X522943Y122196D01*
Y124735D01*
X524213Y126005D01*
X528022D01*
X520404Y122196D02*
X519134Y120927D01*
X516595D01*
X515326Y122196D01*
Y123466D01*
X516595Y124735D01*
X517865D01*
X516595D01*
X515326Y126005D01*
Y127275D01*
X516595Y128544D01*
X519134D01*
X520404Y127275D01*
M02*
