G04*
G04 #@! TF.GenerationSoftware,Altium Limited,Altium Designer,23.2.1 (34)*
G04*
G04 Layer_Color=16711935*
%FSLAX44Y44*%
%MOMM*%
G71*
G04*
G04 #@! TF.SameCoordinates,9FE4BF2E-1B0E-44D7-9BF9-3B0155518327*
G04*
G04*
G04 #@! TF.FilePolarity,Negative*
G04*
G01*
G75*
%ADD19R,1.6000X5.0000*%
%ADD44C,1.7500*%
%ADD45R,1.7500X1.7500*%
%ADD46R,1.7500X1.7500*%
%ADD47C,1.7000*%
%ADD48R,1.7000X1.7000*%
%ADD49R,1.7000X1.7000*%
%ADD50C,0.7632*%
%ADD51C,1.3700*%
D19*
X23275Y672008D02*
D03*
X78675D02*
D03*
X28800Y28600D02*
D03*
X84200D02*
D03*
D44*
X65927Y353620D02*
D03*
Y252020D02*
D03*
Y302820D02*
D03*
Y328220D02*
D03*
Y277420D02*
D03*
X40527Y252020D02*
D03*
Y302820D02*
D03*
Y353620D02*
D03*
Y328220D02*
D03*
Y277420D02*
D03*
Y226620D02*
D03*
X65927D02*
D03*
Y150420D02*
D03*
Y175820D02*
D03*
X40527Y150420D02*
D03*
Y175820D02*
D03*
Y201220D02*
D03*
X65927D02*
D03*
X40527Y455220D02*
D03*
X65927Y480620D02*
D03*
Y455220D02*
D03*
X40527Y429820D02*
D03*
X65927D02*
D03*
X40527Y404420D02*
D03*
X65927D02*
D03*
Y379020D02*
D03*
X40527D02*
D03*
X116787Y99570D02*
D03*
X142187D02*
D03*
Y74170D02*
D03*
X167587D02*
D03*
Y99570D02*
D03*
X192987Y74170D02*
D03*
Y99570D02*
D03*
X218387D02*
D03*
Y74170D02*
D03*
X243787Y99570D02*
D03*
X345387D02*
D03*
X294587D02*
D03*
X269187D02*
D03*
X319987D02*
D03*
X345387Y74170D02*
D03*
X294587D02*
D03*
X243787D02*
D03*
X269187D02*
D03*
X319987D02*
D03*
X370787D02*
D03*
Y99570D02*
D03*
X446987D02*
D03*
X421587D02*
D03*
X446987Y74170D02*
D03*
X421587D02*
D03*
X396187D02*
D03*
Y99570D02*
D03*
X167617Y531580D02*
D03*
Y556980D02*
D03*
X193017Y531580D02*
D03*
Y556980D02*
D03*
X243817D02*
D03*
X294617D02*
D03*
X345417D02*
D03*
X320017D02*
D03*
X269217D02*
D03*
X218417D02*
D03*
X142217D02*
D03*
X116817D02*
D03*
X142217Y531580D02*
D03*
X116817D02*
D03*
X243817D02*
D03*
X294617D02*
D03*
X320017D02*
D03*
X269217D02*
D03*
X218417D02*
D03*
X345417D02*
D03*
X370817D02*
D03*
Y556980D02*
D03*
X396217Y531580D02*
D03*
Y556980D02*
D03*
X421617D02*
D03*
Y531580D02*
D03*
X447017D02*
D03*
X497907Y429820D02*
D03*
X523307D02*
D03*
X497907Y404420D02*
D03*
X523307D02*
D03*
Y353620D02*
D03*
Y302820D02*
D03*
Y252020D02*
D03*
Y277420D02*
D03*
Y328220D02*
D03*
Y379020D02*
D03*
Y455220D02*
D03*
Y480620D02*
D03*
X497907Y455220D02*
D03*
Y480620D02*
D03*
Y353620D02*
D03*
Y302820D02*
D03*
Y277420D02*
D03*
Y328220D02*
D03*
Y379020D02*
D03*
Y252020D02*
D03*
Y226620D02*
D03*
X523307D02*
D03*
X497907Y201220D02*
D03*
X523307D02*
D03*
Y175820D02*
D03*
X497907D02*
D03*
Y150420D02*
D03*
X166800Y607000D02*
D03*
X192200D02*
D03*
X116000Y632400D02*
D03*
Y607000D02*
D03*
X166800Y683200D02*
D03*
Y632400D02*
D03*
X192200D02*
D03*
Y657800D02*
D03*
X217600Y683200D02*
D03*
X116000Y657800D02*
D03*
X166800D02*
D03*
X243000Y683200D02*
D03*
Y657800D02*
D03*
Y632400D02*
D03*
X217600Y657800D02*
D03*
Y607000D02*
D03*
X243000D02*
D03*
X217600Y632400D02*
D03*
X268400Y657800D02*
D03*
X293800Y607000D02*
D03*
X268400D02*
D03*
Y632400D02*
D03*
X293800D02*
D03*
Y657800D02*
D03*
X268400Y683200D02*
D03*
X293800D02*
D03*
X192200D02*
D03*
X116000D02*
D03*
X452000Y684000D02*
D03*
X426600D02*
D03*
X502800Y658600D02*
D03*
Y684000D02*
D03*
X452000Y607800D02*
D03*
Y658600D02*
D03*
X426600D02*
D03*
Y633200D02*
D03*
X401200Y607800D02*
D03*
X502800Y633200D02*
D03*
X452000D02*
D03*
X375800Y607800D02*
D03*
Y633200D02*
D03*
Y658600D02*
D03*
X401200Y633200D02*
D03*
Y684000D02*
D03*
X375800D02*
D03*
X401200Y658600D02*
D03*
X350400Y633200D02*
D03*
X325000Y684000D02*
D03*
X350400D02*
D03*
Y658600D02*
D03*
X325000D02*
D03*
Y633200D02*
D03*
X350400Y607800D02*
D03*
X325000D02*
D03*
X426600D02*
D03*
X502800D02*
D03*
D45*
X40527Y480620D02*
D03*
X523307Y150420D02*
D03*
X141400Y683200D02*
D03*
Y657800D02*
D03*
Y632400D02*
D03*
Y607000D02*
D03*
X477400Y607800D02*
D03*
Y633200D02*
D03*
Y658600D02*
D03*
Y684000D02*
D03*
D46*
X116787Y74170D02*
D03*
X447017Y556980D02*
D03*
D47*
X230480Y35916D02*
D03*
X205080D02*
D03*
X154280D02*
D03*
X179680D02*
D03*
X566598Y252044D02*
D03*
Y277444D02*
D03*
Y302844D02*
D03*
D48*
X128880Y35916D02*
D03*
D49*
X566598Y226644D02*
D03*
D50*
X377662Y238705D02*
D03*
X326128Y182053D02*
D03*
X317500Y294500D02*
D03*
D51*
X317790Y240631D02*
D03*
X344186Y240086D02*
D03*
X330895Y226796D02*
D03*
X304852Y227694D02*
D03*
X317964Y265950D02*
D03*
X292280Y240266D02*
D03*
X305212Y253198D02*
D03*
X330715Y253557D02*
D03*
X318323Y214223D02*
D03*
M02*
