G04*
G04 #@! TF.GenerationSoftware,Altium Limited,Altium Designer,24.2.2 (26)*
G04*
G04 Layer_Color=16711935*
%FSLAX44Y44*%
%MOMM*%
G71*
G04*
G04 #@! TF.SameCoordinates,02CEA6E1-F361-457A-AF05-86797ADE389F*
G04*
G04*
G04 #@! TF.FilePolarity,Negative*
G04*
G01*
G75*
%ADD17R,0.7000X0.8000*%
%ADD21R,0.8000X0.7000*%
%ADD40C,1.7500*%
G04:AMPARAMS|DCode=41|XSize=1.75mm|YSize=1.75mm|CornerRadius=0.4625mm|HoleSize=0mm|Usage=FLASHONLY|Rotation=180.000|XOffset=0mm|YOffset=0mm|HoleType=Round|Shape=RoundedRectangle|*
%AMROUNDEDRECTD41*
21,1,1.7500,0.8250,0,0,180.0*
21,1,0.8250,1.7500,0,0,180.0*
1,1,0.9250,-0.4125,0.4125*
1,1,0.9250,0.4125,0.4125*
1,1,0.9250,0.4125,-0.4125*
1,1,0.9250,-0.4125,-0.4125*
%
%ADD41ROUNDEDRECTD41*%
%ADD42C,2.6500*%
%ADD43C,2.3500*%
%ADD44C,3.6000*%
%ADD45C,1.6080*%
%ADD46R,1.6080X1.6080*%
%ADD47C,0.6000*%
%ADD48C,1.7000*%
%ADD49R,1.7000X1.7000*%
%ADD50R,1.5700X1.5700*%
%ADD51C,1.5700*%
%ADD52P,2.2203X4X270.0*%
%ADD53C,0.8700*%
%ADD54R,1.7500X1.7500*%
%ADD55R,1.7500X1.7500*%
G04:AMPARAMS|DCode=56|XSize=1.75mm|YSize=1.75mm|CornerRadius=0.4625mm|HoleSize=0mm|Usage=FLASHONLY|Rotation=90.000|XOffset=0mm|YOffset=0mm|HoleType=Round|Shape=RoundedRectangle|*
%AMROUNDEDRECTD56*
21,1,1.7500,0.8250,0,0,90.0*
21,1,0.8250,1.7500,0,0,90.0*
1,1,0.9250,0.4125,0.4125*
1,1,0.9250,0.4125,-0.4125*
1,1,0.9250,-0.4125,-0.4125*
1,1,0.9250,-0.4125,0.4125*
%
%ADD56ROUNDEDRECTD56*%
%ADD57C,1.9000*%
%ADD58R,1.9000X1.9000*%
%ADD59R,1.9000X1.9000*%
%ADD60C,1.6000*%
%ADD61R,1.6000X1.6000*%
%ADD62C,0.8032*%
%ADD111R,2.7000X1.7000*%
%ADD112R,0.9000X1.0000*%
%ADD113R,1.7000X2.7000*%
G36*
X114500Y166000D02*
X95500D01*
Y176000D01*
X114500D01*
Y166000D01*
D02*
G37*
D17*
X355700Y867379D02*
D03*
X368700D02*
D03*
X220500Y196500D02*
D03*
X207500D02*
D03*
X647898Y226601D02*
D03*
X634898D02*
D03*
X647898Y213342D02*
D03*
X634898D02*
D03*
X609805Y283118D02*
D03*
X596805D02*
D03*
D21*
X934245Y861400D02*
D03*
Y874400D02*
D03*
X193500Y183500D02*
D03*
Y196500D02*
D03*
D40*
X982000Y166500D02*
D03*
X959000Y700000D02*
D03*
X120500Y60500D02*
D03*
X253500Y568000D02*
D03*
X432500Y167000D02*
D03*
X150700Y893000D02*
D03*
X176100Y867600D02*
D03*
X201500Y893000D02*
D03*
Y867600D02*
D03*
X125300D02*
D03*
X150700Y867600D02*
D03*
X176100Y893000D02*
D03*
X125300Y893000D02*
D03*
X226900Y867600D02*
D03*
X932375Y335998D02*
D03*
Y437598D02*
D03*
Y386798D02*
D03*
Y361398D02*
D03*
Y412198D02*
D03*
X957775Y437598D02*
D03*
Y386798D02*
D03*
Y335998D02*
D03*
Y361398D02*
D03*
Y412198D02*
D03*
Y462998D02*
D03*
X932375D02*
D03*
Y539198D02*
D03*
Y513798D02*
D03*
X957775Y539198D02*
D03*
Y513798D02*
D03*
Y488398D02*
D03*
X932375D02*
D03*
X957775Y234398D02*
D03*
X932375Y208998D02*
D03*
Y234398D02*
D03*
X957775Y259798D02*
D03*
X932375D02*
D03*
X957775Y285198D02*
D03*
X932375D02*
D03*
Y310598D02*
D03*
X957775D02*
D03*
X881516Y590048D02*
D03*
X856115D02*
D03*
Y615448D02*
D03*
X830715D02*
D03*
Y590048D02*
D03*
X805315Y615448D02*
D03*
Y590048D02*
D03*
X779915D02*
D03*
Y615448D02*
D03*
X754516Y590048D02*
D03*
X652915D02*
D03*
X703716D02*
D03*
X729116D02*
D03*
X678316D02*
D03*
X652915Y615448D02*
D03*
X703716D02*
D03*
X754516D02*
D03*
X729116D02*
D03*
X678316D02*
D03*
X627515D02*
D03*
Y590048D02*
D03*
X551315D02*
D03*
X576716D02*
D03*
X551315Y615448D02*
D03*
X576716D02*
D03*
X602116D02*
D03*
Y590048D02*
D03*
X830686Y158038D02*
D03*
Y132638D02*
D03*
X805285Y158038D02*
D03*
Y132638D02*
D03*
X754485D02*
D03*
X703686D02*
D03*
X652886D02*
D03*
X678286D02*
D03*
X729085D02*
D03*
X779885D02*
D03*
X856086D02*
D03*
X881486D02*
D03*
X856086Y158038D02*
D03*
X881486D02*
D03*
X754485D02*
D03*
X703686D02*
D03*
X678286D02*
D03*
X729085D02*
D03*
X779885D02*
D03*
X652886D02*
D03*
X627486D02*
D03*
Y132638D02*
D03*
X602085Y158038D02*
D03*
Y132638D02*
D03*
X576685D02*
D03*
Y158038D02*
D03*
X551286D02*
D03*
X500396Y259798D02*
D03*
X474995D02*
D03*
X500396Y285198D02*
D03*
X474995D02*
D03*
Y335998D02*
D03*
Y386798D02*
D03*
Y437598D02*
D03*
Y412198D02*
D03*
Y361398D02*
D03*
Y310598D02*
D03*
Y234398D02*
D03*
Y208998D02*
D03*
X500396Y234398D02*
D03*
Y208998D02*
D03*
Y335998D02*
D03*
Y386798D02*
D03*
Y412198D02*
D03*
Y361398D02*
D03*
Y310598D02*
D03*
Y437598D02*
D03*
Y462998D02*
D03*
X474995D02*
D03*
X500396Y488398D02*
D03*
X474995D02*
D03*
Y513798D02*
D03*
X500396D02*
D03*
Y539198D02*
D03*
X271900Y138440D02*
D03*
Y113040D02*
D03*
X246500Y113040D02*
D03*
X246500Y138440D02*
D03*
Y87640D02*
D03*
D41*
X226900Y893000D02*
D03*
D42*
X901100Y41100D02*
D03*
X951900D02*
D03*
Y91900D02*
D03*
X901100D02*
D03*
X450600Y575600D02*
D03*
X501400D02*
D03*
Y626400D02*
D03*
X450600D02*
D03*
D43*
X926500Y66500D02*
D03*
X476000Y601000D02*
D03*
D44*
X449204Y899996D02*
D03*
X49204Y459996D02*
D03*
Y899996D02*
D03*
X849204D02*
D03*
D45*
X973800Y600400D02*
D03*
X948400D02*
D03*
X923000D02*
D03*
X415000Y684396D02*
D03*
X389600D02*
D03*
X973800Y67000D02*
D03*
X872200D02*
D03*
X846800D02*
D03*
X821400D02*
D03*
X796000D02*
D03*
X770600D02*
D03*
X745200D02*
D03*
X719800D02*
D03*
X694400D02*
D03*
X669000D02*
D03*
X643600D02*
D03*
X618200D02*
D03*
X592800D02*
D03*
X567400D02*
D03*
X542000D02*
D03*
X516600D02*
D03*
X491200D02*
D03*
X465800D02*
D03*
X440400D02*
D03*
X415000D02*
D03*
X389600D02*
D03*
X415000Y600400D02*
D03*
X389600D02*
D03*
X440400Y684396D02*
D03*
X465800D02*
D03*
X491200D02*
D03*
X567400D02*
D03*
X542000D02*
D03*
X516600D02*
D03*
X364200D02*
D03*
Y600400D02*
D03*
D46*
Y67000D02*
D03*
D47*
X37500Y699000D02*
D03*
Y779000D02*
D03*
D48*
X961500Y849000D02*
D03*
Y823600D02*
D03*
Y798200D02*
D03*
D49*
Y874400D02*
D03*
D50*
X368700Y901500D02*
D03*
D51*
X343300D02*
D03*
X374400Y464600D02*
D03*
X199020Y428520D02*
D03*
D52*
X392360Y482560D02*
D03*
X216980Y446480D02*
D03*
D53*
X110000Y171122D02*
D03*
X100150D02*
D03*
D54*
X957775Y208998D02*
D03*
X474995Y539198D02*
D03*
D55*
X881516Y615448D02*
D03*
X551286Y132638D02*
D03*
D56*
X271900Y87640D02*
D03*
D57*
X326500Y196000D02*
D03*
X301100Y196000D02*
D03*
X275700Y196000D02*
D03*
X351900D02*
D03*
X42500Y536900D02*
D03*
Y562300D02*
D03*
Y587700D02*
D03*
D58*
X250300Y196000D02*
D03*
D59*
X42500Y511500D02*
D03*
D60*
X57000Y55500D02*
D03*
X12000Y55500D02*
D03*
X12000Y120500D02*
D03*
D61*
X57000Y120500D02*
D03*
D62*
X94000Y272000D02*
D03*
X79000D02*
D03*
X95000Y323500D02*
D03*
X80000D02*
D03*
X112500Y319500D02*
D03*
Y274500D02*
D03*
Y289500D02*
D03*
Y304500D02*
D03*
X61000D02*
D03*
Y289500D02*
D03*
Y274500D02*
D03*
Y319500D02*
D03*
D111*
X500278Y168500D02*
D03*
X464278D02*
D03*
X513453Y723094D02*
D03*
X477453D02*
D03*
X581222Y551000D02*
D03*
X545222D02*
D03*
X847778Y198000D02*
D03*
X883778D02*
D03*
D112*
X204500Y233500D02*
D03*
X223500D02*
D03*
X214000Y213500D02*
D03*
D113*
X893500Y508500D02*
D03*
Y544500D02*
D03*
M02*
